<?xml version="1.0" encoding="UTF-8"?>
<svg id="EDIT_ART" data-name="EDIT ART" xmlns="http://www.w3.org/2000/svg" viewBox="0 0 49.48 50">
  <defs>
    <style>
      .cls-1 {
        fill: #fff;
      }
    </style>
  </defs>
  <path class="cls-1" d="M48.51,28.66c-1.33-1.1-1.63-3.13-1.75-3.89-.01-.08-.02-.15-.03-.21.51-7.09-1.27-12.85-5.29-17.13C36.57,2.25,29.45.47,24.79.5h0s-.03,0-.05,0c-.02,0-.03,0-.05,0h0c-4.66-.03-11.78,1.75-16.65,6.93-4.02,4.27-5.8,10.03-5.29,17.13,0,.06-.02.13-.03.21-.11.77-.42,2.8-1.75,3.89-.59.48-.74,1.31-.37,1.96l1.75,3.09c-.34.47-.42,1.07-.16,1.58l6.56,13.07c.26.52.81.83,1.42.83.12,0,.24-.01.37-.04.51-.11,1-.13,1.56-.17.77-.04,1.64-.09,2.78-.35.37.54,1,.86,1.64.86.29,0,.58-.06.86-.2l4.05-1.94c.48-.23.84-.63,1.01-1.13.17-.49.13-1.01-.1-1.48l-9.33-18.6c-.48-.95-1.66-1.35-2.63-.89l-4.05,1.94c-.48.23-.84.63-1.01,1.13-.17.49-.13,1.01.1,1.48l.2.4c-.08.07-.15.13-.23.21l-.44-.96c-.19-.4-.12-.88.17-1.21.77-.9,1.67-2.31,1.54-3.93-.03-.34-.61-8.33,4.4-13.68,3.1-3.32,7.71-4.95,13.68-4.88,5.98-.08,10.58,1.56,13.68,4.88,5.01,5.35,4.43,13.34,4.4,13.68-.13,1.63.76,3.04,1.54,3.93.29.33.35.81.17,1.21l-.44.96c-.07-.07-.15-.14-.22-.21l.2-.4c.23-.46.27-.99.1-1.48-.17-.5-.53-.9-1.01-1.13l-4.05-1.94c-.97-.47-2.15-.07-2.63.89l-9.33,18.6c-.23.46-.27.99-.1,1.48.17.5.53.9,1.01,1.13l4.05,1.94c.28.13.57.2.86.2.64,0,1.27-.31,1.64-.86,1.15.26,2.01.31,2.78.35.57.03,1.06.06,1.57.17.12.03.25.04.37.04.61,0,1.16-.31,1.42-.83l6.56-13.07c.25-.51.18-1.11-.16-1.58l1.75-3.09c.37-.66.21-1.48-.37-1.96ZM11.24,26.12c.35,0,.68.19.84.51l9.33,18.6c.11.21.12.45.05.68-.08.23-.25.42-.47.53l-.05.03-10.15-20.22.04-.02c.13-.06.28-.09.42-.09ZM6.3,28.68c.08-.23.25-.42.47-.53l3.08-1.48,10.15,20.22-3.06,1.47c-.47.22-1.03.04-1.26-.41L6.35,29.36c-.11-.21-.12-.45-.05-.67ZM6.11,31.18l8.28,16.5c-.94.19-1.68.23-2.34.27-.58.03-1.13.06-1.72.19-.28.06-.55-.04-.65-.24l-6.56-13.07c-.07-.14-.05-.31.05-.47l.18-.2c.63-.52,1.18-1.17,1.7-1.81.07-.08.14-.16.2-.24l.61-.66v-.03c.07-.09.15-.17.23-.25ZM28.02,45.9c-.08-.22-.06-.46.05-.68l9.33-18.6c.16-.32.49-.51.84-.51.14,0,.28.03.42.09l.04.02-10.15,20.22-.05-.03c-.23-.11-.39-.29-.47-.53ZM32.54,48.37l-3.06-1.47,10.15-20.22,3.08,1.48c.23.11.39.29.47.53.08.22.06.46-.05.67l-9.33,18.6c-.23.45-.79.64-1.26.41ZM46.36,34.83l-6.56,13.07c-.1.2-.37.3-.65.24-.59-.12-1.14-.15-1.72-.19-.66-.04-1.41-.08-2.34-.27l8.28-16.5c.08.08.16.16.25.25v.03s.6.66.6.66c.07.08.13.16.2.24.53.63,1.07,1.28,1.7,1.8l.18.2c.1.15.12.32.05.47ZM47.97,30.11l-1.59,2.81-1.39-1.49c-.05-.06-.1-.12-.15-.18l.62-1.35c.36-.77.23-1.68-.32-2.32-.64-.75-1.39-1.9-1.29-3.17.07-.89.55-8.88-4.68-14.47-3.3-3.53-8.15-5.28-14.39-5.2h0s-.03,0-.04,0c-.02,0-.03,0-.05,0h0c-6.25-.07-11.09,1.68-14.39,5.2-5.23,5.59-4.75,13.58-4.68,14.47.1,1.27-.64,2.42-1.29,3.17-.55.64-.68,1.55-.33,2.32l.62,1.35c-.05.06-.1.12-.15.18l-1.38,1.49-1.59-2.81c-.12-.22-.07-.49.13-.65,1.64-1.35,1.98-3.67,2.11-4.54.01-.1.03-.18.04-.23v-.07s0-.07,0-.07c-.5-6.82,1.18-12.34,5-16.4C13.44,3.2,20.26,1.5,24.71,1.54h0s.04,0,.06,0c0,0,0,0,0,0h0c4.45-.04,11.26,1.66,15.91,6.6,3.82,4.06,5.51,9.58,5,16.4v.07s0,.07,0,.07c.01.05.02.13.04.23.13.87.48,3.19,2.11,4.54.2.16.25.43.13.65Z"/>
</svg>