<?xml version="1.0" encoding="UTF-8"?>
<svg id="EDIT_ART" data-name="EDIT ART" xmlns="http://www.w3.org/2000/svg" viewBox="0 0 47.78 50">
  <defs>
    <style>
      .cls-1 {
        fill: #fff;
      }
    </style>
  </defs>
  <path class="cls-1" d="M47.37,19.12c0-.3-.16-.56-.39-.71-.31-7.03-3.48-12.1-9.43-15.08-4.65-2.33-9.96-2.83-13.62-2.84h0s-.02,0-.04,0c-.01,0-.02,0-.04,0h0c-3.66,0-8.97.51-13.62,2.84C4.29,6.31,1.12,11.38.81,18.41c-.24.15-.4.41-.4.71v3.05c0,.2.07.37.18.52-.12.17-.23.44-.16.81.12.67,2.88,13.64,3.4,14.82.04.08.08.16.13.23v7.96c0,.93.82,1.68,1.83,1.68h1.21c.23.75.93,1.3,1.75,1.3h2.24c1.87,0,3.39-1.52,3.39-3.39v-17.47c0-1.78-1.45-3.22-3.22-3.22h-2.4c-.83,0-1.53.55-1.75,1.3h-1.21s-.02,0-.04,0c-1.5-4.65-2.38-4.65-2.78-4.65h0s0-2.95,0-2.95c0-.46-.38-.84-.84-.84h-.27s0-.03,0-.05l.27.03c.91-8.28,13.49-11.29,21.75-11.3,8.26,0,20.85,3.02,21.75,11.3l.27-.03s0,.03,0,.05h-.27c-.46,0-.84.38-.84.84v2.95h0c-.39,0-1.27,0-2.78,4.65-.01,0-.02,0-.04,0h-1.21c-.23-.75-.93-1.3-1.75-1.3h-2.4c-1.78,0-3.22,1.45-3.22,3.22v17.47c0,1.87,1.52,3.39,3.39,3.39h2.24c.83,0,1.53-.55,1.75-1.3h1.21c1.01,0,1.83-.75,1.83-1.68v-7.96c.05-.07.09-.15.13-.23.52-1.18,3.28-14.15,3.4-14.82.07-.37-.04-.64-.16-.81.11-.14.18-.32.18-.52v-3.05ZM7.97,27.25c0-.43.35-.78.78-.78h2.4c1.2,0,2.17.98,2.17,2.17v17.47c0,1.29-1.05,2.34-2.34,2.34h-2.24c-.43,0-.78-.35-.78-.78v-20.43ZM39.81,47.67c0,.43-.35.78-.78.78h-2.24c-1.29,0-2.34-1.05-2.34-2.34v-17.47c0-1.2.98-2.17,2.17-2.17h2.4c.43,0,.78.35.78.78v20.43ZM5.01,46.51v-7.39s.02,0,.02,0c.19,0,.38-.04.57-.11.76-.3,1.38-1.17,1.03-2.19-.19-.57-.92-3.67-1.7-7.07h.07v-1.35c0-.35.35-.63.78-.63h1.13v19.38h-1.13c-.43,0-.78-.28-.78-.63ZM4.75,27.02c-.13.08-.25.18-.35.3-.23-1.03-.46-2.05-.67-2.98.29.62.64,1.51,1.02,2.68ZM5.65,37.17c.16.46-.17.77-.42.87-.32.13-.41-.07-.44-.14-.43-.98-3.12-13.44-3.33-14.58,0-.01,0-.02,0-.03.12-.11.54-.15.92-.16.53,2.38,2.86,12.86,3.27,14.04ZM1.92,21.97h-.46v-2.64h.46v2.64ZM37.89,8.51c-3.92-1.62-9.14-2.59-13.96-2.6h0s-.02,0-.04,0c-.01,0-.02,0-.04,0h0c-4.83.01-10.04.98-13.96,2.6-3.46,1.43-5.96,3.34-7.4,5.64,1.18-4.42,3.93-7.74,8.21-9.88,4.49-2.24,9.64-2.72,13.19-2.72,3.55,0,8.7.48,13.19,2.72,4.29,2.14,7.04,5.46,8.21,9.88-1.44-2.3-3.94-4.22-7.4-5.64ZM45.86,19.33h.46v2.64h-.46v-2.64ZM44.06,24.34c-.21.93-.44,1.95-.67,2.98-.1-.11-.22-.21-.35-.3.38-1.18.73-2.06,1.02-2.68ZM41.99,47.15h-1.13v-19.38h1.13c.43,0,.78.28.78.63v1.35h.07c-.78,3.4-1.5,6.5-1.7,7.07-.35,1.02.27,1.89,1.03,2.19.19.08.39.11.57.11,0,0,.02,0,.02,0v7.39c0,.35-.35.63-.78.63ZM46.32,23.32c-.21,1.15-2.9,13.61-3.33,14.58-.03.06-.12.26-.44.14-.26-.1-.58-.41-.42-.87.4-1.18,2.74-11.66,3.27-14.04.38.01.8.05.92.16,0,0,0,.02,0,.03Z"/>
</svg>