<?xml version="1.0" encoding="UTF-8"?>
<svg id="EDIT_ART" data-name="EDIT ART" xmlns="http://www.w3.org/2000/svg" viewBox="0 0 43.77 50">
  <defs>
    <style>
      .cls-1 {
        fill: #fff;
      }
    </style>
  </defs>
  <path class="cls-1" d="M43.24,17.08l-.32-.89c-.11-.32-.36-.55-.66-.67.05-.26.03-.54-.07-.79-1.35-3.63-8.95-14.13-20.23-14.23h0s-.05,0-.08,0c-.03,0-.05,0-.08,0h0C10.52.6,2.92,11.1,1.57,14.73c-.1.26-.12.53-.07.79-.3.11-.55.34-.66.67l-.32.89c-.25.7-.04,1.46.47,1.94l-.23,2.26.25.64c-.77,1.5-.93,4.21.9,7.4-.26.4-.46,1.09-.62,2.15-.21,1.39-.33,3.23-.33,5.19s.12,3.8.33,5.19c.26,1.71.61,2.47,1.19,2.57l4.56,4.52c.11.33.42.56.79.56h1.54c.24,0,.45-.1.6-.26.2.16.44.26.72.26h5.6c1.39,0,2.53-1.13,2.53-2.53v-.03l-2.57-20.35c-.02-1.38-1.15-2.49-2.53-2.49h-3.03c-.27,0-.52.1-.72.26-.15-.16-.36-.26-.6-.26h-1.54c-.35,0-.65.21-.77.51l-3.13,2.87.09-1.46.32-.18c.99-.55,1.35-1.8.81-2.8l-.73-1.35-.34-.79.1-.96c.09-.03.18-.06.27-.1.44-.21.77-.58.94-1.04l.32-.89c.1-.28.08-.58-.04-.85-.02-.05-.05-.09-.08-.14.3-.18.53-.47.65-.83.99-3.05,4.62-5.1,7.5-6.28,3.35-1.38,6.81-2.03,8.17-2.06,1.36.02,4.81.68,8.17,2.06,2.88,1.18,6.51,3.23,7.5,6.28.12.36.35.64.65.83-.03.05-.06.09-.08.14-.13.27-.14.57-.04.85l.32.89c.16.46.5.83.94,1.04.09.04.18.07.27.1l.1.96-.34.79-.73,1.35c-.54.99-.18,2.25.81,2.8l.32.18.09,1.46-3.13-2.87c-.13-.3-.42-.51-.77-.51h-1.54c-.24,0-.45.1-.6.26-.2-.16-.44-.26-.72-.26h-3.03c-1.38,0-2.51,1.11-2.53,2.49l-2.57,20.31v.07c0,1.39,1.13,2.53,2.52,2.53h5.6c.27,0,.52-.1.72-.26.15.16.36.26.6.26h1.54c.36,0,.67-.24.79-.56l4.56-4.52c.58-.09.93-.86,1.19-2.57.21-1.39.33-3.23.33-5.19s-.12-3.8-.33-5.19c-.16-1.05-.36-1.75-.62-2.15,1.83-3.18,1.67-5.89.9-7.4l.25-.64-.23-2.26c.51-.48.72-1.24.47-1.94ZM10.62,25.25s.03-.07.07-.07h3.03c.8,0,1.44.65,1.44,1.44v.03l2.57,20.34c-.02.78-.66,1.41-1.44,1.41h-5.6s-.07-.03-.07-.07v-23.1ZM33.15,48.35s-.03.07-.07.07h-5.6c-.78,0-1.43-.63-1.44-1.41l2.57-20.31v-.07c0-.8.65-1.44,1.45-1.44h3.03s.07.03.07.07v23.1ZM40.69,19.93s.02,0,.04-.01l.55-.2.47-.05.15,1.46-.3.77-1.02-.31.22-.52-.12-1.15ZM3.05,19.92s.02,0,.04.01l-.12,1.15.22.52-1.02.31-.3-.77.15-1.46.47.05.55.2ZM3.93,31.47c-.14-.94-.32-1.6-.54-2.01l3.6-3.31v21.21l-3.58-3.55c.21-.42.37-1.06.51-1.96.21-1.39.33-3.23.33-5.19s-.12-3.8-.33-5.19ZM2.05,36.66c0-3.19.3-5.29.56-6.23.26.94.56,3.03.56,6.23s-.3,5.29-.56,6.23c-.26-.94-.56-3.03-.56-6.23ZM9.12,48.41h-1.05v-23.23h1.05v23.23ZM2.74,28.58c-1.2-2.18-1.32-4-1.08-5.2l1.28,2.43-.16,2.55h.18s-.22.22-.22.22ZM3.81,24.9l-.09.05-1.08-2.05,1.03-.31.53.98c.26.47.08,1.07-.39,1.33ZM4.36,18.45c-.05.14-.14.26-.26.35l-1.37-.14-.73-.26c-.39-.14-.59-.56-.45-.95l.32-.89s.02-.02.04-.02l2.76.98s.02.02.02.04l-.32.89ZM21.96,6.67h0s-.05,0-.08,0c-.03,0-.05,0-.08,0h0c-3.42.09-14.63,2.93-16.62,9.1-.07.22-.28.34-.5.3l-1.79-.39c-.17-.04-.25-.15-.28-.21-.03-.06-.08-.19-.03-.35C3.88,11.65,11.12,1.63,21.88,1.59c10.76.05,18.01,10.07,19.29,13.53.06.16,0,.28-.03.35-.03.06-.12.18-.28.21l-1.79.39c-.21.05-.43-.08-.5-.3-1.99-6.16-13.2-9.01-16.62-9.09ZM39.09,17.55s0-.03.02-.04l2.76-.98s0,0,0,0c.01,0,.02,0,.03.02l.32.89c.14.39-.07.81-.45.95l-.73.26-1.37.14c-.12-.09-.21-.21-.26-.35l-.32-.89ZM39.57,23.57l.53-.98,1.03.31-1.08,2.05-.09-.05c-.47-.26-.64-.86-.39-1.33ZM39.84,41.85c.14.91.3,1.55.51,1.96l-3.58,3.55v-21.21l3.6,3.31c-.22.41-.39,1.07-.54,2.01-.21,1.39-.33,3.23-.33,5.19s.12,3.8.33,5.19ZM35.69,48.41h-1.05v-23.23h1.05v23.23ZM41.16,42.88c-.26-.94-.56-3.03-.56-6.23s.3-5.29.56-6.23c.26.94.56,3.03.56,6.23s-.3,5.29-.56,6.23ZM41.03,28.58l-.22-.2h.18s-.16-2.56-.16-2.56l1.28-2.44c.24,1.2.12,3.02-1.08,5.2Z"/>
</svg>