<?xml version="1.0" encoding="UTF-8"?>
<svg id="EDIT_ART" data-name="EDIT ART" xmlns="http://www.w3.org/2000/svg" viewBox="0 0 51.1 50">
  <defs>
    <style>
      .cls-1 {
        fill: #fff;
      }
    </style>
  </defs>
  <path class="cls-1" d="M25.7,23.67c.11-.05.23-.1.37-.16,1.31-.55,3.52-1.46,3.86-6.03.04-.53,0-1.06-.08-1.57.06-1.41-1.32-9.96-4.57-13.36-.99-1.04-2.08-1.54-3.24-1.49-1.68.05-3.34.79-4.02,1.8-.11.16-.24.37-.39.62-.53.87-1.53,2.5-2.31,2.67-.48.1-1,.32-1.52.54-.25-3.45-3.13-6.19-6.64-6.19S.47,3.49.47,7.16c0,1.83.73,3.54,2.05,4.81h0c.49.75,1.14,1.41,1.92,1.9-.07,2.83.48,6.87,2.8,10.66h0c.07.14.16.28.27.42.65.85,1.47,1.13,2.29,1.13.97,0,1.93-.38,2.58-.65.2-.08.41-.17.63-.26,1.17-.5,2.63-1.11,5-1.45,2.32-.32,3.77-.1,4.93.08,1.04.16,1.87.29,2.74-.12ZM1.59,7.8c-.02-.21-.04-.42-.04-.64C1.56,4.09,4.06,1.58,7.14,1.58c1.7,0,3.23.77,4.25,1.97-1.03-.74-2.29-1.17-3.63-1.17-3.16,0-5.77,2.37-6.17,5.42ZM5.11,10.19c-.2.23-.46,1.11-.58,2.4-1.19-.97-1.91-2.44-1.91-3.99,0-2.83,2.3-5.14,5.14-5.14,2.29,0,4.28,1.51,4.92,3.66-.48.17-.92.27-1.21.19-.25-.07-.42-.14-.57-.21-.59-.25-.91-.31-2.28-.09-.88.14-2.39.8-2.51,2.38,0,.05,0,.06-.28.23-.21.13-.48.29-.72.57ZM7.25,22.24c-2.49-5.36-1.68-10.68-1.31-11.35.13-.14.29-.24.45-.33.32-.19.75-.45.8-1.07,0-.12.13-1.16,1.61-1.4,1.18-.19,1.32-.13,1.69.02.17.07.38.16.69.25.86.25,1.91-.19,2.92-.62.53-.22,1.03-.44,1.44-.52,1.24-.27,2.31-2.01,3.01-3.16.14-.23.27-.44.36-.57.42-.61,1.67-1.28,3.17-1.33.85-.03,1.64.34,2.42,1.16,1.86,1.95,3.07,5.82,3.71,8.77-.37-.55-.75-1.06-1.12-1.5-1.54-1.83-3.26-3.18-3.84-3.5-1.47-.8-2.96-.93-4.44-.39-2.2.8-3.92,3-4.64,4.82-.29.73-.46,1.39-.63,2.03-.39,1.5-.73,2.81-2.57,4.64-.07.06-.14.13-.21.19l-.34.33h0c-.37.37-.95.92-1.83,1.78-.63.61-1.08,1.2-1.34,1.76ZM17.88,22.65c-2.51.35-4.1,1.03-5.27,1.52-.22.09-.42.18-.61.26-1.42.57-2.76.98-3.61-.13-.06-.08-.14-.18-.21-.32h0s0-.01-.01-.02c-.22-.47-.26-1.31,1.18-2.7.99-.96,1.62-1.56,2-1.93.19-.18.32-.31.4-.39.03-.02.05-.05.07-.07,0,0,.01-.01.02-.02h0c1.97-1.99,2.35-3.48,2.76-5.04.16-.61.32-1.23.58-1.9.63-1.6,2.12-3.52,4.01-4.2,1.17-.43,2.37-.32,3.55.32,1.11.6,6.44,5.14,6.12,9.38-.3,3.91-1.97,4.61-3.2,5.11-.15.06-.28.12-.41.17-.58.27-1.19.17-2.12.03-1.17-.18-2.77-.42-5.24-.08Z"/>
  <path class="cls-1" d="M43.96,23.93c-3.51,0-6.4,2.73-6.64,6.19-.52-.22-1.04-.44-1.52-.54-.79-.17-1.78-1.8-2.31-2.67-.15-.25-.28-.46-.39-.62-.69-1.01-2.34-1.75-4.02-1.8-1.16-.05-2.26.45-3.25,1.49-3.25,3.4-4.62,11.95-4.57,13.36-.09.52-.12,1.04-.08,1.57.35,4.57,2.55,5.49,3.86,6.03.13.05.25.11.37.16.88.41,1.7.28,2.74.12,1.16-.18,2.61-.4,4.93-.08,2.37.33,3.83.95,5,1.45.22.09.43.18.63.26.65.26,1.62.65,2.58.65.82,0,1.64-.27,2.29-1.13.1-.14.19-.28.27-.42h0c2.32-3.79,2.87-7.83,2.8-10.66.78-.49,1.43-1.15,1.92-1.91h0c1.32-1.26,2.05-2.97,2.05-4.8,0-3.67-2.99-6.66-6.66-6.66ZM42.94,47.37s0,.01-.01.02h0c-.07.14-.15.25-.21.32-.85,1.12-2.2.7-3.61.13-.19-.08-.4-.16-.61-.26-1.17-.49-2.76-1.17-5.27-1.52-.91-.13-1.7-.17-2.4-.17-1.19,0-2.11.14-2.84.25-.93.14-1.54.24-2.12-.03-.12-.06-.26-.11-.41-.17-1.22-.51-2.9-1.2-3.2-5.11-.32-4.23,5.01-8.77,6.12-9.38,1.18-.64,2.38-.75,3.55-.32,1.89.68,3.37,2.6,4.01,4.2.27.67.43,1.3.58,1.9.4,1.57.79,3.05,2.76,5.04h0s0,.01.02.02c.02.02.04.05.07.07.08.08.21.2.4.39.38.37,1.01.97,2,1.93,1.44,1.38,1.39,2.23,1.18,2.7ZM43.85,45.66c-.26-.57-.71-1.16-1.34-1.76-.89-.85-1.46-1.41-1.83-1.77h0s-.34-.33-.34-.33c-.07-.07-.14-.13-.21-.19-1.84-1.83-2.18-3.14-2.57-4.64-.16-.64-.33-1.3-.63-2.03-.72-1.82-2.44-4.02-4.64-4.82-1.48-.54-2.97-.4-4.44.39-.58.31-2.3,1.66-3.84,3.5-.36.43-.74.92-1.1,1.45.66-2.96,1.87-6.83,3.68-8.73.78-.81,1.58-1.19,2.43-1.16,1.5.04,2.75.72,3.16,1.32.09.14.22.34.36.57.71,1.15,1.77,2.9,3.01,3.16.41.09.91.3,1.44.52,1.01.43,2.06.87,2.92.62.31-.09.52-.18.69-.25.37-.15.51-.21,1.68-.02,1.48.24,1.6,1.28,1.61,1.4.05.62.48.88.8,1.07.16.1.32.19.45.33.37.67,1.18,5.99-1.31,11.35ZM46.57,36.02c-.13-1.3-.38-2.17-.58-2.4-.25-.28-.51-.44-.72-.57-.27-.16-.27-.18-.28-.23-.12-1.58-1.64-2.24-2.51-2.38-1.36-.22-1.69-.15-2.28.09-.15.06-.32.13-.57.21-.29.08-.73-.02-1.21-.18.64-2.15,2.63-3.66,4.92-3.66,2.83,0,5.14,2.3,5.14,5.14,0,1.55-.72,3.02-1.91,3.99ZM43.34,25.81c-1.34,0-2.6.43-3.63,1.17,1.02-1.21,2.55-1.97,4.25-1.97,3.08,0,5.58,2.5,5.58,5.58,0,.22-.01.43-.04.64-.4-3.05-3.01-5.42-6.17-5.42Z"/>
</svg>