<?xml version="1.0" encoding="UTF-8"?>
<svg id="EDIT_ART" data-name="EDIT ART" xmlns="http://www.w3.org/2000/svg" viewBox="0 0 48.24 50">
  <defs>
    <style>
      .cls-1 {
        fill: #fff;
      }
    </style>
  </defs>
  <path class="cls-1" d="M45.49,7.32h-.03c-1.21,0-2.2.99-2.2,2.2v.44C39.24,4.25,32.13.52,24.15.5h0s-.02,0-.02,0c0,0-.02,0-.02,0h0c-7.98.02-15.09,3.75-19.12,9.46v-.44c0-1.21-.99-2.2-2.2-2.2h-.03c-1.21,0-2.2.99-2.2,2.2v13.89c0,.44.02,4.34.69,5.6.26.5.53.8.81,1.13.41.48.92,1.07,1.69,2.61l-.54,1.32v.1c0,.13-.01,3.35,2.39,7.46,2.37,4.06,4.3,5.81,4.38,5.89l.12.11,1.88.24v-.09c.35.48.69.94,1.02,1.38.22.29.57.34.77.34.07,0,.12,0,.14,0h.09s2.55-1.24,2.55-1.24l.07-.08c.06-.06.11-.14.14-.22h0s.02-.06.02-.06c0-.01.01-.03.01-.04l.03-.08c.57-.03,1.3-.27,2.14-.99,1.42-1.23.91-3.3.54-4.3-.04-.13-.12-.32-.25-.6-.13-.29-.82-1.83-3.79-7.23-2.48-4.53-3.63-6.25-4.04-6.82-.3-.46-.42-.56-.54-.61-.46-.4-1.35-.91-2.72-.65-.97.18-1.77.84-2.25,1.32-.01-.01-.03-.03-.04-.04-.94-.97-.81-1.63-.58-2.82.05-.26.1-.52.15-.81l.08-.51-.61-.11-.14-3.6.11.05,2.12-2.41.03-.08c2.9-7.13,9.6-11.75,17.08-11.76,7.48.01,14.18,4.62,17.08,11.76l.03.08,2.12,2.41.11-.05-.14,3.6-.61.11.08.51c.05.29.1.56.15.81.24,1.19.37,1.85-.58,2.82,0,0-.01.02-.02.02-.48-.46-1.3-1.11-2.27-1.3-1.36-.26-2.25.25-2.72.65-.11.05-.23.16-.53.61-.41.57-1.55,2.29-4.04,6.82-2.95,5.37-3.66,6.92-3.79,7.23-.13.28-.21.47-.25.6-.37,1.01-.88,3.07.54,4.3.83.72,1.57.96,2.14.99l.03.08s.01.03.02.05l.02.06h0c.04.08.09.16.14.22l.07.08,2.55,1.23h.09s.08.02.14.02c.2,0,.55-.05.77-.33.33-.44.67-.9,1.01-1.38v.09s1.89-.24,1.89-.24l.12-.11c.08-.07,2.01-1.83,4.38-5.89,2.4-4.11,2.39-7.33,2.39-7.46v-.1s-.54-1.32-.54-1.32c.77-1.55,1.28-2.14,1.69-2.61.28-.32.54-.63.81-1.13.67-1.26.69-5.16.69-5.6v-13.89c0-1.21-.99-2.2-2.2-2.2ZM1.62,9.52c0-.62.51-1.13,1.13-1.13h.03c.62,0,1.13.51,1.13,1.13v2.13c-1.14,2.03-1.92,4.27-2.24,6.64l-.05.4v-9.16ZM1.62,18.7l2.07.84.15,3.85-2.22-.41v-4.28ZM10.56,46.62c-.44-.43-2.1-2.17-4.06-5.52-2.02-3.46-2.22-6.28-2.24-6.82l.11-.28c.62,1.24.96,2.06,1.29,2.85.5,1.19.96,2.32,2.31,4.66,1.06,1.85,2.16,3.6,3.24,5.19l-.66-.09ZM8.36,27.61c.93-.18,1.51.15,1.8.39.12.33.42.95,1.12,2.3.74,1.43,1.76,3.3,2.86,5.28,1.1,1.97,2.15,3.83,2.98,5.22.87,1.47,1.23,2.02,1.44,2.25.27.82.54,2.18-.31,2.92-1.13.98-1.88.72-2.02.65-.03-.03-.05-.06-.07-.1-.94-1.2-2.68-3.44-4.64-7.02-2.21-4.02-3.97-8.09-4.14-8.48-.07-.26-.39-1.33-.86-2.23.34-.37,1.05-1.03,1.85-1.18ZM5.1,28.58c.54.56,1.08,2.19,1.24,2.77l.02.07s1.86,4.35,4.2,8.61c2.01,3.65,3.78,5.93,4.74,7.16.1.13.19.24.27.35l-1.83.88c-1.57-2.09-3.24-4.66-4.84-7.43-1.31-2.28-1.75-3.32-2.25-4.53-.4-.97-.86-2.07-1.85-3.96-.89-1.82-1.47-2.5-1.94-3.05-.26-.3-.47-.54-.67-.93-.36-.67-.52-2.87-.56-4.45l2.67.49c-.02.09-.03.18-.05.26-.24,1.23-.47,2.4.86,3.77ZM42.16,17.04c-3.08-7.48-10.13-12.32-18.01-12.34h0s-.02,0-.02,0c0,0-.02,0-.02,0h0c-7.88.02-14.93,4.85-18.01,12.34l-1.5,1.71-1.79-.73C4.29,8.62,13.38,1.58,24.12,1.57c10.74.01,19.83,7.05,21.33,16.45l-1.79.73-1.5-1.71ZM32.01,46.63c-.15.07-.89.32-2.02-.66-.85-.74-.58-2.1-.31-2.92.21-.23.57-.78,1.44-2.25.83-1.39,1.88-3.25,2.98-5.22,1.1-1.98,2.12-3.86,2.86-5.28.7-1.34,1-1.96,1.12-2.3.29-.24.88-.57,1.8-.39.8.15,1.52.79,1.87,1.15-.47.91-.8,2-.87,2.26-.17.4-1.93,4.46-4.14,8.48-1.97,3.58-3.71,5.82-4.64,7.02-.03.03-.05.06-.08.1ZM41.74,41.1c-1.95,3.35-3.61,5.09-4.06,5.52l-.66.09c1.08-1.59,2.18-3.35,3.24-5.19,1.35-2.34,1.82-3.46,2.31-4.66.33-.8.67-1.61,1.29-2.85l.11.28c-.02.54-.22,3.36-2.24,6.82ZM46.06,28.51c-.21.39-.41.63-.67.93-.47.55-1.05,1.22-1.94,3.05-1,1.89-1.45,2.99-1.85,3.96-.5,1.21-.94,2.26-2.25,4.53-1.6,2.77-3.27,5.34-4.84,7.43l-1.83-.88c.08-.1.17-.22.27-.35.95-1.23,2.73-3.51,4.74-7.16,2.34-4.26,4.19-8.57,4.2-8.61l.02-.07c.16-.58.7-2.21,1.24-2.77,1.33-1.37,1.1-2.54.86-3.77-.02-.09-.03-.17-.05-.26l2.67-.49c-.04,1.58-.2,3.78-.56,4.45ZM46.62,22.97l-2.22.41.15-3.85,2.07-.84v4.28ZM46.62,18.69l-.05-.4c-.32-2.37-1.1-4.6-2.24-6.64v-2.13c0-.62.51-1.13,1.13-1.13h.03c.62,0,1.13.51,1.13,1.13v9.16Z"/>
</svg>