<?xml version="1.0" encoding="UTF-8"?>
<svg id="EDIT_ART" data-name="EDIT ART" xmlns="http://www.w3.org/2000/svg" viewBox="0 0 35.04 50">
  <defs>
    <style>
      .cls-1 {
        fill: #fff;
      }
    </style>
  </defs>
  <path class="cls-1" d="M34.4,3.87v-.04c-.11-.91-1.04-1.55-2.49-1.73-1.61-.2-3.56.21-4,1.36-.47,1.25-3.92,3.3-5.99,3.8-.11.03-.23.04-.34.04-1.28,0-2.32,1.04-2.32,2.32v19.09c0,.06,0,.12.01.18-.05,1.49-.14,6.83.94,7.96.07.07.14.13.21.17.02.59.21,2.18,1.44,3.49,1.05,1.11,2.55,1.73,4.45,1.84h.05c.22,0,.44-.09.61-.24.18-.17.28-.4.28-.64v-1.08c.02-.47-.35-.87-.82-.9-1.12-.07-1.95-.39-2.48-.93-.5-.51-.63-1.16-.66-1.47.11-.04.23-.11.35-.23,1.13-1.17.98-6.98.94-8.14v-13.55c2.16.37,3.21,2.3,3.25,2.92v.12s.08.1.08.1c.47.66,1.39,1.05,2.58,1.09,1.17.04,2.68-.29,3.28-1.01.84-1,.69-11.35.62-14.5h0ZM20.09,28.72h0v-3.04h3.65v3.02c0,.31-.26.57-.57.57h-2.51c-.27,0-.5-.19-.56-.45,0-.04,0-.07,0-.11h-.02ZM26.39,40.32s.05.03.05.05v1.08h-.01s-.01.03-.02.04-.02.01-.04.01c-1.68-.1-2.99-.63-3.89-1.58-.91-.96-1.14-2.1-1.2-2.7l1.21.05c.07.46.27,1.22.88,1.85.68.7,1.69,1.1,3.03,1.19h0ZM23.03,36.29h-2.18c-.42-.19-.8-2.75-.77-6.3.18.08.37.13.58.13h2.51c.22,0,.42-.05.6-.14.04,3.55-.34,6.12-.75,6.31h0ZM24.19,14.26l-.45-.03v10.62h-3.65v-15.24c0-.82.67-1.49,1.49-1.49.18,0,.36-.02.54-.06,1.51-.37,4.32-1.75,5.76-3.18v11.38c-.72-.95-1.93-1.88-3.69-2h0ZM33.13,17.83c-.31.37-1.4.75-2.61.71-.81-.03-1.46-.25-1.81-.6V3.69c.25-.48,1.29-.81,2.42-.81.22,0,.45.01.67.04.8.1,1.67.41,1.76.98.13,6.32,0,13.25-.43,13.92Z"/>
  <path class="cls-1" d="M26.35,46.63h-.49c-6.19,0-11.25-4.94-11.46-11.08.13-.04.27-.11.42-.26,1.08-1.12.99-6.46.94-7.96,0-.06.01-.12.01-.18V8.07c0-1.28-1.04-2.32-2.32-2.32-.11,0-.23-.01-.34-.04-2.07-.5-5.51-2.55-5.99-3.8-.44-1.15-2.39-1.56-4-1.36-1.45.18-2.38.83-2.49,1.73v.04c-.07,3.15-.22,13.5.62,14.5.6.72,2.1,1.05,3.28,1.01,1.19-.04,2.11-.43,2.58-1.09l.07-.1v-.12c.05-.62,1.1-2.54,3.26-2.92v13.55c-.04,1.17-.2,6.97.94,8.14.05.05.1.1.15.13.14,7.78,6.51,14.06,14.32,14.06h.49c.5,0,.91-.41.91-.91v-1.04c0-.5-.41-.91-.91-.91h0ZM14.92,27.29c-.06.26-.28.45-.56.45h-2.51c-.32,0-.57-.26-.57-.57v-3.02h3.65v3.02h0s-.02.01-.02.01c0,.04,0,.07,0,.11h0ZM4.5,16.99c-1.21.04-2.29-.33-2.6-.7-.44-.68-.57-7.61-.43-13.93.09-.58.96-.89,1.76-.98,1.36-.17,2.79.2,3.09.78v14.24c-.36.36-1,.57-1.81.6ZM7.15,14.72V3.34c1.44,1.43,4.25,2.82,5.76,3.18.18.04.36.06.54.06.82,0,1.49.67,1.49,1.49v15.24h-3.65v-10.62l-.45.03c-1.75.12-2.97,1.05-3.69,2h0ZM11.25,28.44c.18.09.38.14.6.14h2.51c.21,0,.4-.05.58-.13.04,3.55-.34,6.11-.75,6.3h-2.18c-.42-.21-.8-2.77-.76-6.31h0ZM26.43,48.58s-.03.08-.08.08h-.49c-7.3,0-13.27-5.83-13.49-13.08h1.19c.22,6.59,5.65,11.89,12.3,11.89h.49s.08.03.08.08v1.04h0Z"/>
</svg>