<?xml version="1.0" encoding="UTF-8"?>
<svg id="EDIT_ART" data-name="EDIT ART" xmlns="http://www.w3.org/2000/svg" viewBox="0 0 50.7 50">
  <defs>
    <style>
      .cls-1 {
        fill: #fff;
      }
    </style>
  </defs>
  <path class="cls-1" d="M18.28,26.3c2.67-1.86,3.56-4.85,4.21-7.04.02-.07.04-.14.06-.2.31.81.88,1.55,1.96,1.59,1.43.56,2.8.84,4.11.84,1.14,0,2.22-.21,3.25-.64,1.81-.75,2.93-1.94,3.47-2.52.07-.07.13-.14.17-.18,1.01-1.01,1.33-3.53.89-6.91-.51-3.9-7.31-6.03-9.89-6.21,0,0-.01,0-.02,0-.02,0-.03,0-.05,0,0,0,0,0,0,0,0,0-.02,0-.02,0-1.44,0-2.24.55-2.75,2.01-.06-.1-.11-.19-.17-.3-1.25-2.18-3.35-5.82-9.07-6.16-.03,0-.05,0-.08,0-1.1-.37-2.44.44-2.98.77l-.18.11C8.51,3.03,2.23,6.7.83,13.86c-1.47,7.48,1.45,9.81,4.49,11.11.08.03.15.06.23.09.16.07.36.16.59.26,1.68.75,4.87,2.18,7.97,2.18,1.47,0,2.92-.32,4.17-1.2ZM24.7,19.56s-.05,0-.07,0c-.88,0-1.17-.9-1.36-2.36.04-.06.08-.11.13-.15.35.07,1.11.17,1.87,0l.73.25c.06.02.11.03.17.03-.15.54-.32,1.02-.53,1.42-.3.59-.61.86-.93.82ZM35.31,11.39c.46,3.53-.02,5.43-.58,5.99-.05.05-.12.12-.2.21-.92.98-3.57,3.79-8.44,2.43.08-.08.15-.18.23-.28,1.83-2.61,1.93-10.61,1.17-13.43,2.68.54,7.47,2.4,7.82,5.09ZM26.27,6.15c.2.34.38,1.39.47,2.78-.23,0-.44,0-.61,0-.67.03-.95.03-1.64-.71.41-1.86.96-2.06,1.78-2.07ZM6.01,24.06c-.1-.04-.18-.08-.26-.11-2.58-1.1-5.21-2.85-3.84-9.88C3.22,7.4,9.19,3.91,11.74,2.42l.19-.11s0,0,0,0c.78-.47,1.38-.71,1.79-.71.16,0,.29.03.39.1.22.14.71.73.45,3.08-.74,6.63-.72,9.33-.51,13.53.08,1.56-1.3,5.21-2.35,6.19-.88.83-3.01.66-5.71-.44ZM11.16,25.99c.52-.13.97-.36,1.31-.69,1.28-1.21,2.79-5.17,2.7-7.05-.21-4.13-.23-6.79.5-13.35.15-1.34.09-2.36-.17-3.08,4.27.67,5.92,3.53,7.03,5.48.34.58.63,1.09.94,1.44.99,1.13,1.6,1.3,2.37,1.3.1,0,.21,0,.32,0,.2,0,.4-.01.63,0,.06,1.96-.04,4.31-.4,6.24-.02,0-.04-.02-.05-.02l-.88-.3c-.11-.04-.22-.04-.33,0-.78.22-1.66,0-1.66,0-.1-.03-.2-.02-.3,0-.42.12-.72.43-.97.89,0,0,0,0,0,0-.29.53-.51,1.26-.77,2.12-.61,2.03-1.44,4.81-3.79,6.45-1.84,1.28-4.27,1.15-6.48.6Z"/>
  <path class="cls-1" d="M49.87,35.87c-1.4-7.16-7.68-10.83-10.36-12.39l-.19-.11c-.54-.33-1.88-1.13-2.98-.77-.03,0-.05,0-.08,0-5.72.34-7.82,3.98-9.07,6.16-.06.1-.12.2-.17.3-.5-1.46-1.3-2.01-2.75-2.01,0,0-.02,0-.02,0,0,0,0,0,0,0-.01,0-.03,0-.05,0,0,0-.01,0-.02,0-1.26.09-3.54.67-5.54,1.63-1.83.88-4.06,2.39-4.35,4.57-.44,3.38-.12,5.9.89,6.91.05.05.11.11.17.18.54.57,1.66,1.77,3.47,2.52,1.03.42,2.11.64,3.25.64,1.31,0,2.68-.28,4.11-.84,1.08-.05,1.65-.78,1.96-1.59.02.07.04.14.06.2.65,2.19,1.55,5.18,4.21,7.04,1.25.87,2.7,1.19,4.17,1.19,3.1,0,6.3-1.43,7.97-2.18.23-.1.43-.19.59-.26.08-.03.15-.06.23-.09,3.04-1.29,5.95-3.63,4.49-11.11ZM24.43,28.15c.82.02,1.37.21,1.78,2.07-.69.75-.97.74-1.64.71-.17,0-.38-.01-.61,0,.09-1.38.27-2.44.47-2.78ZM16.17,39.59c-.08-.08-.14-.15-.2-.21-.56-.56-1.04-2.46-.58-5.99.35-2.7,5.14-4.55,7.82-5.09-.75,2.82-.65,10.83,1.17,13.43.07.11.15.2.23.28-4.88,1.36-7.53-1.45-8.44-2.43ZM26.07,41.56s-.05,0-.07,0c-.31.04-.63-.23-.93-.82-.21-.4-.38-.89-.53-1.42.06,0,.11,0,.17-.03l.73-.25c.76.17,1.51.07,1.87,0,.04.03.08.08.13.15-.19,1.46-.48,2.36-1.36,2.36ZM33.05,47.4c-2.35-1.64-3.18-4.42-3.79-6.45-.26-.86-.48-1.59-.77-2.12,0,0,0,0,0,0-.25-.45-.55-.77-.97-.89-.1-.03-.2-.03-.3,0,0,0-.88.22-1.66,0-.11-.03-.22-.03-.33,0l-.88.3s-.04.02-.05.02c-.37-1.93-.46-4.27-.4-6.24.23,0,.43,0,.63,0,.11,0,.22,0,.32,0,.78,0,1.39-.17,2.37-1.3.31-.36.6-.86.94-1.44,1.12-1.95,2.77-4.81,7.03-5.48-.26.73-.32,1.75-.17,3.08.73,6.55.71,9.22.5,13.35-.1,1.89,1.41,5.84,2.7,7.05.35.33.79.55,1.31.69-2.21.55-4.65.68-6.48-.6ZM44.95,45.95c-.08.03-.16.07-.26.11-2.7,1.1-4.83,1.27-5.71.44-1.05-.99-2.43-4.64-2.35-6.19.22-4.19.24-6.89-.51-13.53-.26-2.35.22-2.94.45-3.08.1-.07.23-.1.39-.1.42,0,1.02.24,1.79.71,0,0,0,0,0,0l.19.11c2.55,1.49,8.52,4.98,9.83,11.65,1.38,7.02-1.26,8.78-3.84,9.88Z"/>
</svg>