<?xml version="1.0" encoding="UTF-8"?>
<svg id="EDIT_ART" data-name="EDIT ART" xmlns="http://www.w3.org/2000/svg" viewBox="0 0 49.06 50">
  <defs>
    <style>
      .cls-1 {
        fill: #fff;
      }
    </style>
  </defs>
  <path class="cls-1" d="M1.77,24.95l-.84.58c-.48.33-.61.97-.3,1.45l5.96,9.39v11.79c0,.73.6,1.33,1.33,1.33h2.46c.32,0,.61-.11.83-.3.26.19.58.3.92.3h3.73c1.52,0,2.75-1.23,2.75-2.75v-19.82c0-1.52-1.23-2.75-2.75-2.75h-3.73c-.34,0-.66.11-.92.3-.23-.18-.52-.3-.83-.3h-2.46c-.73,0-1.33.6-1.33,1.33v4.69l-3.23-4.93c-.07-.11-.16-.2-.26-.27v-1.05h1.56v-3.09c.76-.15,1.48-.52,2.2-1.03.35.24.71.34,1.05.34.51,0,.99-.22,1.35-.56.64-.61.96-1.62.55-2.46.09-.09.18-.18.27-.27.02-.02.03-.03.05-.05.36.19.72.29,1.09.29.51,0,1.02-.18,1.49-.55,1.01-.8,1.57-2.25,1.34-3.37.14-.11.27-.21.41-.32.65.48,1.37.73,2.09.72.5,0,1-.12,1.48-.37,1.14-.59,1.83-1.79,1.84-3.13.24-.07.49-.14.74-.2.08.12.16.24.23.36.58.95,1.13,1.85,3.57,1.88h0s.04,0,.06,0c.02,0,.04,0,.06,0h0c2.44-.03,2.99-.93,3.57-1.88.07-.12.15-.24.23-.36.25.06.5.13.74.2,0,1.34.7,2.54,1.84,3.13.47.25.97.37,1.48.37.72,0,1.44-.25,2.09-.72.14.1.28.21.41.32-.23,1.12.33,2.58,1.34,3.37.47.37.98.55,1.49.55.37,0,.74-.1,1.09-.29.02.02.03.03.05.05.09.09.18.18.27.27-.4.84-.09,1.85.55,2.46.36.34.83.56,1.35.56.34,0,.7-.1,1.05-.34.72.51,1.44.88,2.2,1.03v3.09h1.56v1.06c-.11.08-.2.18-.28.29l-3.2,4.9v-4.69c0-.73-.6-1.33-1.33-1.33h-2.46c-.32,0-.61.11-.83.3-.26-.19-.58-.3-.92-.3h-3.73c-1.52,0-2.75,1.23-2.75,2.75v19.82c0,1.52,1.23,2.75,2.75,2.75h3.73c.34,0,.66-.11.92-.3.23.18.52.3.83.3h2.46c.73,0,1.33-.6,1.33-1.33v-11.77l6.06-9.28c.35-.53.2-1.24-.33-1.59l-.88-.58c-.1-.07-.21-.11-.33-.14v-.87h1.05v-7.57h-.91c.11-.98.31-3.21.55-7.66.05-.93-.29-1.8-1-2.59C42.39,1.51,25.84.57,24.5.5h0s-.02,0-.03,0c-.01,0-.02,0-.03,0h0c-1.34.07-17.89,1.01-22.06,5.63-.72.79-1.05,1.66-1,2.59.24,4.45.45,6.67.55,7.66h-.91v7.57h1.05v.87c-.1.03-.2.08-.3.14ZM36.81,48.46h-3.73c-.94,0-1.71-.77-1.71-1.71v-19.82c0-.94.77-1.71,1.71-1.71h3.73c.18,0,.33.09.43.22,0,.02,0,.05,0,.07v22.66s0,.05,0,.07c-.1.13-.25.22-.43.22ZM41.02,48.46h-2.46c-.09,0-.18-.05-.23-.12.04-.13.06-.27.06-.42v-22.15c0-.15-.02-.29-.06-.42.05-.07.14-.12.23-.12h2.46c.16,0,.29.13.29.29v6.28l-2.36,3.61c-.5.79-.28,1.85.5,2.36h0c.28.18.59.28.92.28.12,0,.24-.01.35-.04.21-.05.41-.13.59-.25v10.42c0,.16-.13.29-.29.29ZM41.31,33.7v2.39l-.39.6c-.1.15-.24.25-.41.29-.17.04-.34,0-.48-.09-.31-.2-.39-.62-.2-.93l1.48-2.27ZM47.51,26.41s.06.1.03.14l-5.19,7.94v-2.39l4.08-6.24s.06-.06.09-.06c.03,0,.07,0,.11.02l.88.58ZM3.62,17.42v3.1h-1.57v-3.1h1.57ZM7.77,19.11c.39-.34.78-.7,1.18-1.09-.02.31-.18.62-.4.83-.16.15-.44.34-.78.26ZM12.07,15.74c-.38.3-.76.39-1.15.28.66-.66,1.36-1.34,2.12-2-.1.62-.46,1.31-.97,1.71ZM17.56,12.3c-.68.35-1.46.32-2.17-.08,1.03-.69,2.16-1.29,3.42-1.77-.11.8-.56,1.49-1.25,1.85ZM27.2,9.71c-.52.85-.84,1.37-2.73,1.38-1.9-.01-2.22-.53-2.73-1.38,0-.02-.02-.03-.03-.05.87-.15,1.79-.24,2.76-.25.98.01,1.9.1,2.76.25,0,.02-.02.03-.03.05ZM31.38,12.3c-.69-.36-1.14-1.05-1.25-1.85,1.26.47,2.39,1.08,3.42,1.77-.71.4-1.49.44-2.17.08ZM36.87,15.74c-.51-.4-.88-1.09-.97-1.71.76.66,1.46,1.33,2.12,2-.38.1-.77.01-1.14-.28ZM40.39,18.85c-.23-.21-.38-.53-.4-.83.4.39.79.76,1.18,1.09-.34.08-.62-.11-.78-.26ZM46.88,17.42v3.1h-1.57v-3.1h1.57ZM45.32,22.9v-1.35h1.57v1.35h-1.57ZM2.42,8.66c-.04-.65.2-1.25.73-1.83C6.98,2.59,23.18,1.62,24.47,1.55c.62.03,4.7.27,9.18.99,6.32,1.01,10.52,2.5,12.13,4.29.53.59.77,1.19.73,1.83-.25,4.6-.46,6.82-.56,7.72h-1.69v3.41c-1.49-.41-2.98-1.91-4.67-3.64-3.19-3.24-7.55-7.66-15.08-7.77h0s-.04,0-.05,0c-.02,0-.03,0-.05,0h0c-7.53.11-11.89,4.53-15.08,7.77-1.7,1.73-3.19,3.23-4.67,3.64v-3.41h-1.69c-.1-.89-.31-3.1-.56-7.72ZM2.06,21.56h1.57v1.35h-1.57v-1.35ZM12.13,25.23h3.73c.94,0,1.71.77,1.71,1.71v19.82c0,.94-.77,1.71-1.71,1.71h-3.73c-.18,0-.33-.09-.43-.22,0-.02,0-.05,0-.07v-22.66s0-.05,0-.07c.1-.13.25-.22.43-.22ZM7.63,25.51c0-.16.13-.29.29-.29h2.46c.09,0,.18.05.23.12-.04.13-.06.27-.06.42v22.15c0,.15.02.29.06.42-.05.07-.14.12-.23.12h-2.46c-.16,0-.29-.13-.29-.29v-10.42c.18.12.37.2.59.25.12.03.24.04.35.04.32,0,.64-.09.92-.28h0c.78-.51,1-1.57.5-2.37l-2.35-3.6v-6.28ZM7.63,36.08v-2.37l1.48,2.26c.2.31.11.73-.19.93-.14.09-.31.13-.48.09-.17-.04-.31-.14-.41-.29l-.39-.62ZM6.59,32.11v2.33L1.51,26.43s0-.03,0-.04l.84-.58s.04-.02.05-.02c0,0,.01,0,.02,0,.02,0,.04.01.06.04l4.1,6.27Z"/>
</svg>