<?xml version="1.0" encoding="UTF-8"?>
<svg id="EDIT_ART" data-name="EDIT ART" xmlns="http://www.w3.org/2000/svg" viewBox="0 0 48.69 50">
  <defs>
    <style>
      .cls-1 {
        fill: #fff;
      }
    </style>
  </defs>
  <path class="cls-1" d="M21.73,4.04c-1.83-2.49-4.76-3.68-8.73-3.52C4.83.82,3.11,2.36,2.12,5.92c-.86,3.12.46,7.49,3.02,9.94.29.28.69.43,1.1.41.21-.01.42-.07.6-.17.72.66,1.44,1.34,2.13,2-.21.11-.4.23-.57.36-.31-.23-.6-.28-.81-.27-.01,0-.03,0-.04,0v-.06c-2.33-.16-4.5.5-5.79,1.78-.91.9-1.35,2.07-1.28,3.37.1,1.64,1.1,3.19,2.68,4.13.96.57,2.02.86,3.08.86.65,0,1.3-.11,1.92-.34.34-.03.77-.23,1.14-.89.5.36,1.05.67,1.6.93.44.29.95.48,1.49.55l-4.45,3.15.22.34-6.07,3.99,1.74,2.45,5.96-3.91.26.4.43-.26c.37-.22,9.06-5.47,10.78-8.31,2.47-4.07,3.07-10.14,2.84-14.09-.22-3.69-.98-6.31-2.39-8.23ZM7.59,15.36l1.14-1.38c.05-.06.09-.12.12-.18,1.6,1.02,5.88,3.8,6.79,4.63,1.12,1.02,2.36,2.4,1.99,4.07-.25,1.12-.81,1.69-1.73,1.72-.46.02-.89-.24-1.1-.65-.14-.28-.29-.61-.42-.93-.14-.33-.28-.63-.41-.9-.1-.19-.41-.57-.86-1.05l-.02-.12h-.08c-1.49-1.56-4.25-4.14-5.42-5.22ZM17.79,16.57c-.73-.56-1.62-.8-2.53-.68l-1.1.15c-1.94-1.33-4.46-2.94-5.16-3.39-.08-.26-.23-.51-.45-.7-.9-.77-1.96-2-1.89-3.45.04-.93.34-1.62.9-2.13.91-.82,2.57-1.16,4.92-1.01,4.98.31,6.7,1.49,7.11,4.88.4,3.3.64,7.06-.23,10.62l-.27-2.02c-.12-.91-.58-1.71-1.31-2.27ZM18.08,24.11c-.06.58-.51,1.06-1.12,1.14l-1.92.25c-.71.09-1.36-.41-1.45-1.11l-.18-1.33s0,0,0,0c.15.33.29.67.45.98.38.76,1.15,1.23,1.99,1.23.03,0,.06,0,.08,0,.92-.04,1.65-.44,2.14-1.16ZM17.94,18.49c-.37-.37-.87-.62-1.41-.67-.06-.06-.12-.11-.18-.17-.19-.17-.51-.42-.92-.72.62-.07,1.23.09,1.72.47.37.28.64.66.79,1.08ZM3.71,26.5c-1.29-.76-2.1-1.99-2.17-3.29-.06-1.01.27-1.87.97-2.56.88-.87,2.27-1.4,3.86-1.49-.1.2-.2.44-.28.72-.27.89-.38,2.06-.31,3.28.07,1.22.3,2.37.67,3.23.13.32.27.57.42.78-1.06.14-2.17-.09-3.15-.67ZM8.2,26.79h0c-.06.02-.13.05-.19.07-.11-.06-.35-.26-.61-.87-.32-.75-.53-1.77-.59-2.88-.06-1.1.04-2.14.27-2.92.21-.69.44-.91.53-.95-.75,1.07-.64,2.41-.51,3.88l.03.31c.11,1.25.62,2.18,1.35,2.92-.1.23-.2.37-.28.45ZM8.18,23.33l-.03-.31c-.14-1.57-.23-2.62.51-3.41,0,.2,0,.4.02.6l.71,5.35c.01.08.03.16.04.23-.68-.62-1.17-1.4-1.26-2.47ZM11.61,27.18v-.02c-.05-.03-.12-.06-.18-.09-.52-.37-.9-.94-.99-1.63l-.71-5.35c-.05-.39,0-.78.13-1.14.89.86,1.68,1.63,2.25,2.22l.44,3.37c.08.62.4,1.17.9,1.55.41.32.91.48,1.42.48.1,0,.21,0,.31-.02l1.92-.25c.65-.09,1.2-.43,1.57-.92-.08.25-.21.49-.37.71-.39.5-.94.83-1.57.91l-3.63.48c-.54.07-1.05-.05-1.49-.3ZM4.11,37.01l-.52-.74,5.15-3.39v.02s.5.74.5.74l-5.12,3.36ZM20.38,25.82c-1.38,2.28-8.2,6.58-9.99,7.69l-1.02-1.57,5.07-3.58,2.42-.32c.91-.12,1.71-.58,2.27-1.31.56-.73.8-1.62.68-2.53l-.13-.97.05.02c1.67-4.34,1.4-9.07.91-13.13-.54-4.47-3.37-5.51-8.09-5.8-2.68-.17-4.54.25-5.68,1.28-.77.69-1.19,1.65-1.25,2.86-.07,1.48.71,2.97,2.25,4.29.17.15.19.39.05.57l-1.45,1.76c-.07.09-.17.14-.29.15-.12,0-.23-.03-.31-.11-2.26-2.17-3.49-6.17-2.73-8.91.76-2.75,1.59-4.32,9.9-4.64,6.48-.24,9.58,3.07,10.03,10.77.36,6.09-1.22,11.07-2.69,13.49Z"/>
  <path class="cls-1" d="M39.39,38.1c.37.66.8.86,1.14.89.62.22,1.26.34,1.92.34,1.05,0,2.12-.29,3.08-.86,1.58-.94,2.59-2.48,2.68-4.13.08-1.3-.37-2.47-1.28-3.37-1.29-1.28-3.46-1.94-5.79-1.78v.06s-.02,0-.03,0c-.21-.01-.5.04-.81.27-.17-.12-.36-.24-.57-.36.69-.66,1.42-1.34,2.13-2,.18.1.39.16.6.17.4.02.8-.12,1.1-.41,2.55-2.45,3.88-6.82,3.02-9.94-.98-3.56-2.71-5.09-10.87-5.41-3.97-.15-6.9,1.03-8.73,3.52-1.41,1.92-2.17,4.54-2.39,8.23-.23,3.95.37,10.02,2.84,14.09,1.72,2.84,10.41,8.09,10.78,8.31l.43.26.26-.4,5.96,3.91,1.74-2.45-6.07-3.99.22-.34-4.45-3.14c.54-.06,1.05-.25,1.51-.56.54-.26,1.08-.57,1.58-.92ZM42.26,37.46c.36-.86.6-2.01.67-3.23.1-1.87-.17-3.2-.6-4.01,1.59.09,2.98.62,3.86,1.49.7.69,1.03,1.56.97,2.56-.08,1.3-.89,2.53-2.17,3.29-.98.58-2.09.81-3.15.67.14-.2.28-.46.42-.78ZM41.88,34.18c-.06,1.1-.27,2.13-.59,2.88-.26.61-.49.82-.6.88-.06-.03-.13-.05-.19-.08h0c-.08-.07-.18-.22-.28-.44.72-.73,1.24-1.67,1.34-2.92l.03-.31c.13-1.47.24-2.81-.51-3.88.31.1.93,1.47.8,3.88ZM40,31.28c.03-.2.03-.4.02-.6.74.79.65,1.84.51,3.41l-.03.31c-.09,1.07-.58,1.85-1.26,2.47.02-.08.03-.15.04-.23l.71-5.35ZM35.69,31.65h-.08s-.02.1-.02.1c-.45.48-.77.85-.86,1.05-.13.27-.27.57-.41.9-.14.32-.28.65-.43.93-.21.41-.63.66-1.1.65-.92-.04-1.49-.6-1.73-1.72-.37-1.67.87-3.05,1.99-4.07.91-.83,5.2-3.6,6.79-4.63.04.06.08.12.12.18l1.14,1.38c-1.17,1.08-3.93,3.66-5.42,5.23ZM29.59,29.91l-.27,2.02c-.87-3.56-.62-7.32-.23-10.62.41-3.39,2.13-4.57,7.11-4.88,2.35-.15,4.01.2,4.92,1.01.56.51.86,1.2.9,2.13.07,1.45-.99,2.68-1.89,3.45-.22.19-.37.44-.45.7-.71.45-3.23,2.07-5.16,3.39l-1.1-.15c-1.87-.25-3.59,1.07-3.84,2.94ZM33.26,28c-.4.29-.72.54-.92.72-.06.05-.12.11-.18.17-.54.06-1.04.3-1.41.67.36-1.02,1.4-1.69,2.51-1.56ZM32.75,36.33s.06,0,.09,0c.84,0,1.62-.48,1.99-1.23.15-.31.3-.65.45-.98l-.18,1.33c-.04.34-.22.65-.5.86-.27.21-.61.3-.96.26l-1.92-.25c-.6-.08-1.05-.56-1.12-1.14.49.72,1.22,1.12,2.14,1.16ZM39.94,43.96v-.02s5.16,3.39,5.16,3.39l-.52.74-5.12-3.36.48-.74ZM39.32,43l-1.02,1.57c-1.79-1.11-8.61-5.4-9.99-7.69-1.46-2.42-3.05-7.4-2.69-13.49.45-7.7,3.55-11.01,10.03-10.77,8.31.32,9.14,1.89,9.9,4.64.76,2.74-.47,6.73-2.73,8.91-.08.08-.19.12-.31.11-.11,0-.22-.06-.29-.15l-1.45-1.76c-.14-.17-.12-.42.05-.57,1.54-1.32,2.32-2.81,2.25-4.29-.06-1.2-.48-2.16-1.25-2.86-1.15-1.03-3-1.45-5.68-1.28-4.72.29-7.55,1.33-8.09,5.8-.49,4.06-.76,8.79.91,13.13l.05-.02-.13.97c-.25,1.87,1.07,3.59,2.94,3.84l2.42.32,5.07,3.58ZM37.35,38.07s-.05.03-.07.05c-.07.03-.13.07-.2.1v.03c-.44.26-.96.37-1.48.3l-3.63-.48c-.93-.12-1.67-.78-1.94-1.62.37.48.92.83,1.56.91l1.92.25c.1.01.21.02.31.02.51,0,1.01-.17,1.42-.48.5-.38.82-.93.9-1.55l.44-3.37c.57-.59,1.35-1.36,2.25-2.22.13.36.18.75.13,1.14l-.71,5.35c-.08.63-.41,1.19-.91,1.57Z"/>
</svg>