<?xml version="1.0" encoding="UTF-8"?>
<svg id="EDIT_ART" data-name="EDIT ART" xmlns="http://www.w3.org/2000/svg" viewBox="0 0 48.83 50">
  <defs>
    <style>
      .cls-1 {
        fill: #fff;
      }
    </style>
  </defs>
  <path class="cls-1" d="M2.72,32.03c.11.25.11.53,0,.79l-.35.76.73,1.64c-.29.3-.43.72-.38,1.14.2,1.45.94,4.4,1.68,6.32.62,1.59,2.15,4.18,3.32,6.07.3.48.83.75,1.37.75.21,0,.43-.04.63-.13l1.78-.76c.35.35.83.56,1.34.56.07,0,.14,0,.2-.01.99-.11,3.89-.7,4.28-1.93.34-1.08.29-1.34-.07-2.53l-.1-.33c-.37-1.25-4.27-10.74-5.09-11.9-.04-.05-.08-.13-.13-.21-.32-.51-.86-1.38-1.78-1.62-1.27-.33-2.83.19-3.89,1.18.01-.33-.06-.66-.22-.97-.15-.29-.32-.61-.45-.86.1-.1.18-.22.24-.37.07-.19.12-.49-.06-.85-.21-.73-.75-.84-1.05-.86-1.16-3.39-1.88-8.53.9-14.26.75-.11,1.14-.49,1.99-1.39.06-.07.14-.15.23-.26.64-.73,1.98-2.24,4.57-3.59,3.22-1.69,7.25-2.54,11.98-2.53,4.74,0,8.78.84,12,2.53,2.58,1.35,3.92,2.87,4.57,3.59.09.1.17.19.23.26.84.9,1.24,1.28,1.99,1.39,2.79,5.73,2.07,10.87.9,14.26-.3.02-.84.12-1.05.86-.18.36-.13.66-.06.85.06.15.15.27.24.37-.13.25-.3.57-.45.86-.16.31-.23.64-.22.97-1.05-.99-2.62-1.51-3.89-1.18-.91.24-1.45,1.1-1.78,1.62-.05.08-.1.15-.13.21-.83,1.16-4.73,10.66-5.09,11.9l-.1.33c-.35,1.19-.41,1.44-.07,2.53.39,1.23,3.29,1.82,4.28,1.93.07,0,.14.01.2.01.51,0,.99-.21,1.34-.56l1.78.76c.2.09.42.13.63.13.54,0,1.07-.27,1.37-.75,1.18-1.89,2.71-4.47,3.32-6.07.74-1.92,1.48-4.87,1.68-6.32.06-.43-.09-.84-.38-1.14l.73-1.64-.35-.76c-.12-.25-.12-.54,0-.79,2.99-6.46,3.01-13.59.06-20.08-.04-.09-.08-.17-.1-.22l-.02-.07c-1.29-3.9-4.38-6.87-9.19-8.81-4.69-1.9-9.74-2.29-12.41-2.35h0s-.03,0-.05,0c-.02,0-.03,0-.05,0h0c-2.66.06-7.72.45-12.41,2.35-4.8,1.94-7.89,4.91-9.19,8.81l-.02.07s-.05.12-.1.22c-2.95,6.49-2.92,13.62.06,20.08ZM7.71,41.12c.04.09.04.18,0,.27-.04.09-.11.16-.21.2-.2.08-.43,0-.51-.19l-2.56-5.74.79-.32,2.48,5.78ZM9.31,48.41c-.26.11-.56.02-.71-.21-.94-1.51-2.62-4.29-3.24-5.89-.58-1.51-1.19-3.8-1.49-5.32l2.16,4.83c.23.52.76.84,1.31.84.18,0,.37-.04.55-.11.28-.12.5-.31.66-.56l2.4,5.71-1.65.71ZM6.37,33.37c.62-1.2,2.33-2.04,3.52-1.72.51.14.92.78,1.16,1.16.06.1.12.19.17.26.66.93,4.49,10.05,4.94,11.59l.1.33c.32,1.08.33,1.1.07,1.92-.12.33-1.72,1.02-3.4,1.21-.37.04-.73-.17-.88-.51l-5.7-13.56c-.09-.22-.09-.47.02-.67ZM41.13,41.12l2.48-5.78.79.32-2.56,5.74c-.08.19-.31.27-.51.19-.1-.04-.17-.11-.21-.2-.04-.09-.03-.18,0-.27ZM35.9,48.12c-1.67-.18-3.28-.87-3.4-1.21-.26-.81-.25-.83.07-1.92l.1-.33c.45-1.55,4.28-10.66,4.94-11.59.05-.07.1-.15.17-.26.24-.38.64-1.03,1.16-1.16.17-.05.35-.07.54-.07,1.12,0,2.45.76,2.98,1.79.11.21.11.45.02.67l-5.7,13.56c-.14.34-.51.55-.88.51ZM43.46,42.31c-.62,1.6-2.29,4.38-3.24,5.89-.14.23-.45.32-.71.21l-1.65-.71,2.4-5.71c.15.25.38.44.66.56.18.07.37.11.55.11.55,0,1.08-.32,1.31-.84l2.16-4.83c-.29,1.52-.9,3.81-1.49,5.32ZM45.17,31.59c-.24.52-.24,1.13,0,1.66l.15.33-.5,1.12-.8-.33.43-1-.71-1.16c-.17-.27-.18-.6-.03-.88.3-.58.66-1.28.66-1.28l.26-.52-.54-.21s-.09-.05-.11-.07c0,0,0-.02.02-.04l.03-.06.02-.06c.02-.08.05-.12.04-.12.02-.01.11-.01.16-.01.17,0,.6-.01.76-.45,1.28-3.59,2.15-9.15-.89-15.37.18-.29.69-.54,1.16-.69,2.79,6.19,2.76,12.98-.09,19.15ZM12.35,3.82c4.55-1.84,9.48-2.22,12.07-2.27,2.58.06,7.52.43,12.07,2.27,4.29,1.74,7.11,4.31,8.4,7.65-.54.18-1.3.53-1.67,1.12-.3-.08-.55-.31-1.25-1.05-.06-.06-.13-.14-.21-.24-.63-.71-2.11-2.38-4.86-3.83-3.35-1.76-7.52-2.65-12.4-2.65-.02,0-.05,0-.07,0-.02,0-.05,0-.07,0-4.87,0-9.05.89-12.4,2.65-2.75,1.44-4.23,3.11-4.86,3.83-.08.09-.15.17-.21.24-.7.74-.95.97-1.25,1.05-.37-.6-1.13-.94-1.67-1.12,1.29-3.34,4.11-5.92,8.4-7.65ZM3.57,12.44c.47.15.98.4,1.16.69-3.05,6.22-2.18,11.78-.89,15.37.15.43.59.44.76.45.05,0,.13,0,.15,0,0,0,.03.05.05.13l.02.06.03.06s.02.03.02.04c-.03.02-.07.05-.11.07l-.57.2.28.54s.36.71.66,1.28c.15.28.14.61-.03.88l-.71,1.16.43,1-.8.33-.5-1.12.15-.33c.24-.53.24-1.14,0-1.66-2.85-6.16-2.88-12.96-.09-19.15Z"/>
</svg>