<?xml version="1.0" encoding="UTF-8"?>
<svg id="EDIT_ART" data-name="EDIT ART" xmlns="http://www.w3.org/2000/svg" viewBox="0 0 48.67 50">
  <defs>
    <style>
      .cls-1 {
        fill: #fff;
      }
    </style>
  </defs>
  <path class="cls-1" d="M18.64,24.41c.69.36,2.33.8,4.35.8,2.16,0,4.74-.51,7.03-2.17,1.03-.3,2.09-1.23,3.22-2.82,2.02-2.83,1.19-7.15.52-9.47-.96-3.31-2.69-6.46-4.31-7.85-1.72-1.47-3.39-1.1-4.82-.21l-.05-.07c-.23-.33-.63-.49-1.02-.41-.33.07-.62.08-.9.02-.11-.06-.45-.4-1-1.26-.15-.23-.38-.39-.65-.45-.27-.06-.54,0-.77.15l-1.52,1.03c-.45.31-.58.91-.29,1.38l1.03,1.66c0,.06-.01.11-.02.16-.02.18-.04.37-.12.49-.23.33-.22.78,0,1.12l.32.46c-1.77,1.34-3.04,2.12-3.31,2.22l-.07.03-.06.05c-.22.17-.41.36-.58.55l-.28-.02c-.38-1.36-1.12-2.32-2.1-2.72-.98-.76-2.15-1.31-3.39-1.6C5.56,4.48,1.35,6.77.46,10.58c-.43,1.86-.02,3.79,1.16,5.45,1.17,1.63,2.95,2.8,5.01,3.28.67.16,1.35.24,2.03.24.18,0,.37,0,.55-.02.2.1.41.18.63.23.2.05.41.07.61.07.37,0,.74-.07,1.12-.22.49.63,1.2,1.21,2.12,1.73,2.65,1.5,3.44,2.07,3.97,2.45.31.23.54.39.99.63ZM19.31,2.55l1.48-1c.99,1.55,1.42,1.65,1.6,1.69.43.1.87.1,1.35,0l.04.06c-.65.52-1.24,1.11-1.72,1.6-.39.4-.77.77-1.07,1.02-.18.15-.36.29-.53.42l-.27-.39c.21-.32.25-.67.28-.92,0-.08.02-.18.03-.22l.08-.23-1.26-2.02ZM16.78,10.12c.64-.3,2.59-1.58,4.85-3.4.35-.28.74-.68,1.16-1.1,2.07-2.09,3.95-3.67,5.97-1.94,2.9,2.49,6.55,11.82,3.62,15.93-1.11,1.56-2.11,2.4-2.97,2.49-.8.08-1.43-.49-2.05-1.05-.23-.21-.45-.41-.68-.57-.24-.17-5.87-4.06-7.65-4.82-.96-.41-2.84-2.14-3.04-3.74-.09-.71.16-1.31.78-1.81ZM6.86,18.3c-1.82-.42-3.38-1.44-4.4-2.87-1-1.41-1.36-3.04-.99-4.61.76-3.26,4.41-5.2,8.14-4.33.55.13,1.09.32,1.59.55-.61.21-1.21.61-1.77,1.19-.99,1.03-1.74,2.51-2.13,4.17-.39,1.67-.36,3.33.07,4.69.17.53.39.99.67,1.38-.39-.03-.79-.09-1.18-.18ZM10.07,18.74c-.75-.18-1.36-.87-1.7-1.96-.38-1.18-.39-2.65-.05-4.14.35-1.49,1.01-2.8,1.87-3.69.79-.82,1.64-1.18,2.39-1,.71.17,1.29.8,1.64,1.77l-.21-.02c-.87-.06-1.74.23-2.38.8-.91.81-2.01,2.07-2.02,3.55,0,.91.4,1.76,1.2,2.53-.09.49-.11,1.01.03,1.56.05.19.11.38.19.56-.33.1-.65.12-.95.05ZM11.17,15.45c-.36-.45-.54-.91-.53-1.39.01-1.15,1.05-2.23,1.67-2.78.44-.39,1.03-.58,1.62-.54l.92.07c-.7.72-2.36,2.49-2.98,3.42-.19.29-.47.72-.71,1.23ZM11.84,17.89c-.31-1.27.48-2.46.9-3.1.43-.65,1.47-1.8,2.25-2.62.33,2.04,2.53,3.98,3.64,4.45,1.35.58,5.48,3.34,7.47,4.72.17.12.36.29.57.48.41.38.92.84,1.55,1.11-3.82,2.02-8.11,1.08-9.1.55-.38-.2-.57-.33-.87-.55-.54-.39-1.36-.99-4.07-2.51-1.33-.75-2.12-1.6-2.34-2.54Z"/>
  <path class="cls-1" d="M48.21,34.87c-.89-3.81-5.1-6.1-9.39-5.1-1.24.29-2.41.84-3.39,1.6-.97.4-1.71,1.36-2.1,2.72l-.28.02c-.16-.2-.35-.38-.57-.55l-.06-.05-.07-.03c-.27-.11-1.54-.89-3.31-2.22l.32-.46c.23-.33.23-.78,0-1.12-.08-.12-.1-.31-.12-.49,0-.05-.01-.11-.02-.16l1.03-1.66c.29-.47.16-1.07-.29-1.38l-1.52-1.03c-.23-.15-.5-.21-.77-.15-.27.06-.5.21-.65.45-.55.86-.89,1.2-1,1.26-.28.06-.57.06-.9-.02-.39-.09-.79.07-1.02.41l-.05.07c-1.43-.9-3.1-1.26-4.82.21-1.62,1.39-3.36,4.55-4.31,7.85-.67,2.32-1.5,6.64.52,9.47,1.13,1.59,2.19,2.52,3.22,2.82,2.29,1.66,4.87,2.17,7.03,2.17,2.02,0,3.66-.44,4.35-.8.45-.24.68-.4.99-.63.52-.38,1.32-.95,3.97-2.45.92-.52,1.62-1.1,2.12-1.73.37.14.75.22,1.12.22.21,0,.41-.02.61-.07.22-.05.43-.13.63-.23.18.01.37.02.55.02.68,0,1.36-.08,2.03-.24,4.29-1,7.06-4.91,6.17-8.73ZM24.93,27.52c.48.1.92.1,1.35,0,.18-.04.61-.14,1.6-1.69l1.48,1-1.26,2.02.08.23s.02.14.03.22c.03.26.07.6.27.92l-.27.39c-.17-.14-.35-.28-.53-.42-.3-.25-.68-.62-1.07-1.02-.49-.49-1.07-1.08-1.72-1.6l.04-.06ZM19.25,46.4c-.86-.09-1.86-.93-2.97-2.49-2.93-4.11.72-13.44,3.62-15.93.6-.52,1.2-.74,1.78-.74,1.38,0,2.74,1.22,4.19,2.68.42.42.81.81,1.16,1.1,2.26,1.82,4.21,3.1,4.85,3.4.62.5.87,1.09.78,1.81-.21,1.6-2.09,3.33-3.04,3.74-1.79.77-7.41,4.66-7.65,4.82-.22.16-.44.36-.68.57-.61.56-1.25,1.13-2.05,1.05ZM36.82,42.18c-.22.93-1.01,1.79-2.34,2.54-2.7,1.53-3.52,2.12-4.07,2.51-.3.22-.48.35-.87.55-.99.52-5.28,1.46-9.1-.55.63-.27,1.14-.73,1.55-1.11.21-.19.4-.37.57-.48,1.99-1.38,6.12-4.14,7.47-4.72,1.12-.48,3.31-2.42,3.64-4.45.77.82,1.82,1.97,2.25,2.62.42.64,1.21,1.82.9,3.1ZM36.79,38.51c-.61-.93-2.28-2.69-2.98-3.42l.92-.07c.59-.04,1.19.15,1.62.54.62.54,1.66,1.63,1.67,2.78,0,.49-.17.95-.53,1.39-.23-.51-.51-.94-.71-1.23ZM38.6,43.03c-.31.07-.62.05-.95-.05.08-.18.14-.37.19-.56.13-.55.12-1.08.03-1.56.8-.76,1.21-1.61,1.2-2.53-.01-1.47-1.11-2.74-2.02-3.55-.64-.57-1.51-.86-2.38-.8l-.21.02c.35-.97.93-1.6,1.64-1.77,1.63-.38,3.58,1.77,4.26,4.7.68,2.92-.12,5.72-1.75,6.1ZM41.81,42.58c-.39.09-.78.15-1.17.18.97-1.37,1.3-3.63.73-6.07-.64-2.74-2.19-4.78-3.9-5.37.5-.24,1.04-.43,1.59-.55,3.73-.87,7.39,1.07,8.14,4.33.76,3.26-1.66,6.61-5.39,7.48Z"/>
</svg>