<?xml version="1.0" encoding="UTF-8"?>
<svg id="EDIT_ART" data-name="EDIT ART" xmlns="http://www.w3.org/2000/svg" viewBox="0 0 49.22 50">
  <defs>
    <style>
      .cls-1 {
        fill: #fff;
      }
    </style>
  </defs>
  <path class="cls-1" d="M3.69,37.24v.84s0,.04,0,.04c.21,2.87,3.44,6.05,4.54,7.05,1.34,2.41,3.13,2.61,3.9,2.69.01,0,.02,0,.03,0v.07c0,.87.7,1.57,1.57,1.57h4.65c1.59,0,2.88-1.29,2.88-2.88v-19.95c0-1.59-1.29-2.88-2.88-2.88h-4.65c-.87,0-1.57.7-1.57,1.57v.52s-.02,0-.03,0c-.77.08-2.56.28-3.9,2.69-1.02.93-3.88,3.74-4.45,6.44-2.58-6.18-2.63-11.34-1.62-15.42,0,.38.06.78.18,1.18.36,1.18.72,1.9,1.05,2.51.19.34.57.55,1,.55.03,0,.06,0,.09,0,.45-.03.82-.29.96-.67l1.34-3.57c.12-.04.24-.09.35-.17.54-.42,1.13-.91,1.75-1.42,3.77-3.12,8.94-7.4,15.74-7.51,6.8.11,11.96,4.38,15.74,7.51.62.51,1.21,1,1.75,1.42.1.08.22.14.35.17l1.34,3.57c.14.38.51.63.96.67.03,0,.06,0,.09,0,.43,0,.81-.21,1-.55.33-.61.69-1.33,1.05-2.51.12-.4.17-.79.18-1.18,1.01,4.08.96,9.24-1.62,15.42-.57-2.7-3.43-5.51-4.45-6.44-1.34-2.41-3.13-2.61-3.9-2.69-.01,0-.02,0-.03,0v-.52c0-.87-.7-1.57-1.57-1.57h-4.65c-1.59,0-2.88,1.29-2.88,2.88v19.95c0,1.59,1.29,2.88,2.88,2.88h4.65c.87,0,1.57-.7,1.57-1.57v-.07s.02,0,.03,0c.77-.08,2.56-.28,3.9-2.69,1.1-1,4.33-4.17,4.54-7.05v-.87s.05.02.05.02c5.41-11.2,2.85-19.43-.24-24.36C40.46,5.15,30.98.51,24.62.5h0s0,0,0,0,0,0,0,0h0c-6.36,0-15.85,4.65-20.72,12.4-3.09,4.93-5.65,13.16-.24,24.36l.05-.02ZM13.21,25.36c0-.29.24-.53.53-.53h4.65c1.01,0,1.84.82,1.84,1.84v19.95c0,1.01-.82,1.84-1.84,1.84h-4.65c-.29,0-.53-.24-.53-.53v-22.57ZM12.16,26.94v19.87c-.68-.08-1.97-.28-3-2.11v-15.65c1.03-1.83,2.32-2.03,3-2.11ZM4.73,35.68c.15-1.98,2.15-4.29,3.39-5.55v13.48c-1.24-1.26-3.23-3.57-3.39-5.55v-2.38ZM36.01,47.93c0,.29-.24.53-.53.53h-4.65c-1.01,0-1.84-.82-1.84-1.84v-19.95c0-1.01.82-1.84,1.84-1.84h4.65c.29,0,.53.24.53.53v22.57ZM37.06,46.8v-19.87c.68.08,1.97.28,3,2.11v15.65c-1.03,1.83-2.32,2.03-3,2.11ZM44.49,38.06c-.15,1.98-2.15,4.29-3.39,5.55v-13.48c1.24,1.26,3.23,3.57,3.39,5.55v2.38ZM41.01,17.19c-3.9-3.22-9.23-7.64-16.4-7.75h0s0,0,0,0,0,0,0,0h0c-7.17.11-12.51,4.52-16.4,7.75-.6.49-1.16.96-1.67,1.36,3.69-7.37,12.77-10.56,18.08-10.46v-.02s0,.02,0,.02c5.31-.09,14.38,3.09,18.07,10.46-.52-.4-1.08-.87-1.67-1.36ZM4.77,13.46C9.45,6,18.53,1.55,24.61,1.54c6.08,0,15.16,4.46,19.84,11.91.39.61.76,1.28,1.11,2.01-.29.54-.08,1.35.1,2.04.24.92.52,1.96.21,2.95-.35,1.14-.68,1.79-.96,2.3-.03.03-.13.03-.18,0l-1.28-3.41c.32-.28.42-.71.25-1.07-3.83-7.9-13.45-11.33-19.09-11.24h0s0,0-.01,0c0,0-.02,0-.03,0h0c-5.64-.08-15.26,3.34-19.09,11.24-.18.37-.08.79.25,1.07l-1.28,3.41s-.14.02-.17,0c-.28-.52-.62-1.17-.97-2.31-.31-.99-.03-2.03.21-2.95.18-.69.39-1.5.1-2.04.35-.72.73-1.39,1.11-2.01Z"/>
</svg>