<?xml version="1.0" encoding="UTF-8"?>
<svg id="EDIT_ART" data-name="EDIT ART" xmlns="http://www.w3.org/2000/svg" viewBox="0 0 49.46 50">
  <defs>
    <style>
      .cls-1 {
        fill: #fff;
      }
    </style>
  </defs>
  <path class="cls-1" d="M2.77,26.26c0,.07,0,.15.02.22l.14.71c.03.13.08.25.15.36l.11.56h-.06c-.37.03-.71.2-.96.48-.24.28-.36.63-.34,1l1.24,18.63c.05.73.66,1.29,1.39,1.29.03,0,.06,0,.09,0l4.21-.27c.34-.02.65-.16.89-.4.24.18.53.29.85.29.03,0,.06,0,.09,0l4.21-.27h0c.37-.02.71-.19.96-.47.24-.28.36-.63.34-1l-1.24-18.63c-.05-.76-.71-1.33-1.48-1.29l-4.21.27c-.34.02-.65.17-.89.4-.26-.2-.59-.31-.94-.29l-1.16.08-.22-1.11c0-.07,0-.14-.02-.2l-.14-.71s-.02-.07-.03-.11c.08-.06.15-.13.21-.21.21-.26.3-.59.26-.93l-.73-6.01c-.08-.69-.72-1.19-1.41-1.1l-1.28.15c.13-4.43,3.42-8.83,8.17-11.91,0,1.03.47,2.05,1.58,2.45.93.35,4.38,1.14,9.97,1.14.7,0,1.43-.01,2.2-.04.76.03,1.5.04,2.2.04,5.59,0,9.04-.79,9.97-1.14,1.1-.41,1.58-1.42,1.58-2.45,4.75,3.08,8.04,7.48,8.17,11.91l-1.28-.15c-.69-.08-1.33.41-1.41,1.1l-.73,6.01c-.04.33.05.66.26.93.06.08.14.15.21.21-.01.04-.03.07-.03.11l-.14.71c-.01.07-.02.14-.02.2l-.22,1.11-1.16-.08c-.35-.02-.68.09-.94.28-.24-.24-.55-.38-.89-.4l-4.21-.27c-.77-.05-1.43.53-1.48,1.29l-1.24,18.63c-.02.37.1.72.34,1,.24.28.59.45.96.47l4.21.27s.06,0,.09,0c.32,0,.61-.11.85-.29.24.24.55.38.89.4l4.21.27s.06,0,.09,0c.73,0,1.34-.56,1.39-1.29l1.24-18.63c.02-.37-.1-.72-.34-1-.24-.28-.59-.45-.96-.47h-.06s.11-.57.11-.57c.07-.11.12-.22.15-.36l.14-.71c.01-.07.02-.15.02-.22.45-.09.83-.43.96-.89l1.28-4.57c.02-.06.03-.13.04-.19l.16-1.36c.04-.33-.05-.66-.26-.93-.21-.27-.51-.44-.85-.48l-.35-.04c-.06-4.11-2.63-8.4-7.08-11.8C36.09,2.57,30.32.57,24.75.5h0s-.01,0-.02,0c0,0-.01,0-.02,0h0c-5.57.07-11.34,2.07-15.84,5.5-4.45,3.4-7.02,7.68-7.08,11.8l-.35.04c-.34.04-.64.21-.85.48-.21.26-.3.59-.26.93l.16,1.36c0,.06.02.13.04.19l1.28,4.57c.13.47.51.8.96.89ZM45.24,28.02l-2.18,10.76c-.04.18-.21.29-.4.26l-.22-.04h0c-.09-.02-.17-.07-.22-.14-.05-.07-.06-.16-.05-.24l2.18-10.77.88.18ZM44.68,26.13l.98.19-.13.64-.98-.19.13-.64ZM38.95,48.08l-4.21-.27h0c-.1,0-.19-.05-.25-.12-.06-.07-.09-.16-.09-.25l1.24-18.63c.01-.19.18-.34.38-.33l4.21.27c.1,0,.19.05.25.12.06.07.09.16.09.25l-1.24,18.63c-.01.19-.18.34-.38.33ZM46.27,29.14c.1,0,.19.05.25.12.06.07.09.16.09.25l-1.24,18.63c-.01.19-.19.34-.38.33l-4.21-.27c-.1,0-.19-.05-.25-.12-.06-.07-.09-.16-.09-.25l1.24-18.63c.01-.19.19-.34.38-.33l1.02.07-1.92,9.48c-.07.35,0,.72.2,1.02.2.3.51.51.87.58l.22.04c.09.02.18.03.27.03.64,0,1.21-.45,1.34-1.09l2-9.86h.2ZM48.07,18.96s.06.09.05.17l-.16,1.36s0,.02,0,.03l-1.28,4.57c-.03.11-.14.18-.26.17l-1.94-.23c-.09-.01-.14-.06-.16-.09-.02-.03-.06-.09-.05-.17l.73-6.01c.01-.12.12-.2.24-.2,0,0,.02,0,.03,0l2.66.31c.09.01.14.06.16.09ZM36.54,7.26c-.93.35-5.1,1.28-11.8,1.03h0s0,0,0,0c0,0,0,0,0,0h0c-6.71.24-10.87-.69-11.8-1.03-.9-.33-1.05-1.35-.8-2.16h-.03c3.7-2.15,8.15-3.52,12.64-3.57,4.49.05,8.93,1.42,12.64,3.56h-.03c.24.81.09,1.83-.8,2.17ZM5.11,27.85l2.18,10.77c.02.08,0,.17-.05.24-.05.07-.13.12-.22.14l-.22.04c-.18.04-.36-.08-.4-.26l-2.18-10.76.88-.18ZM3.93,26.96l-.13-.64.98-.19.13.64-.98.19ZM8.98,28.87c.06-.07.15-.12.25-.12l4.21-.27s.02,0,.02,0c.19,0,.35.14.36.33l1.24,18.63c0,.09-.02.18-.09.25-.06.07-.15.12-.25.12l-4.21.27c-.2.02-.37-.13-.38-.33l-1.24-18.63c0-.09.02-.18.09-.25ZM7.4,28.87c.2-.02.37.13.38.33l1.24,18.63c0,.09-.02.18-.09.25-.06.07-.15.12-.25.12l-4.21.27c-.2.01-.37-.13-.38-.33l-1.24-18.63c0-.09.02-.18.09-.25.06-.07.15-.12.25-.12h.2s2,9.85,2,9.85c.13.64.7,1.09,1.34,1.09.09,0,.18,0,.27-.03l.22-.04c.36-.07.67-.28.87-.58.2-.3.27-.66.2-1.02l-1.92-9.48,1.02-.07ZM1.51,20.48l-.16-1.36c0-.08.03-.14.05-.17.02-.03.07-.08.16-.09l2.66-.31s.02,0,.03,0c.12,0,.22.09.24.2l.73,6.01c0,.08-.03.14-.05.17-.02.03-.07.08-.16.09l-1.94.23c-.12.01-.23-.06-.26-.17l-1.28-4.57s0-.02,0-.03Z"/>
</svg>