<?xml version="1.0" encoding="UTF-8"?>
<svg id="EDIT_ART" data-name="EDIT ART" xmlns="http://www.w3.org/2000/svg" viewBox="0 0 48.31 50">
  <defs>
    <style>
      .cls-1 {
        fill: #fff;
      }
    </style>
  </defs>
  <path class="cls-1" d="M24.6.5h0s-.31,0-.31,0h-.58c-11.34.1-16.89,5.35-18.75,7.62C1.14,12.76,0,19.16,1.57,27.13c.02.13.57,3.34,2.03,7.2l.02.05c.34.72.65,1.37.93,1.98-.78.64-1.04,1.74-.56,2.63l4.46,8.61c.28.53.78.84,1.41.89.05,0,.11,0,.16,0,.23,0,.47-.04.72-.11.45.69,1.11,1.09,1.84,1.1,0,0,.02,0,.03,0,.7,0,1.34-.36,1.68-.95.17-.29.24-.6.24-.92.55-.3.95-.79,1.13-1.39.18-.6.12-1.24-.18-1.8l-4.83-9.03c-.6-1.12-1.97-1.56-3.1-1.02-.18-.36-.28-.57-.28-.57l-.04.02c-3.78-10.14-3.9-17.88-.34-23.01,4.2-6.07,12.52-7.06,17.27-7.09,4.75.03,13.07,1.02,17.27,7.09,3.55,5.13,3.44,12.87-.34,23.01l-.04-.02s-.1.22-.28.58c-1.13-.54-2.5-.1-3.1,1.02l-4.83,9.03c-.3.56-.36,1.2-.18,1.8.18.6.58,1.09,1.13,1.39,0,.32.08.64.24.92.34.59.99.95,1.68.95,0,0,.02,0,.03,0,.73,0,1.39-.41,1.84-1.1.24.07.48.11.72.11.05,0,.11,0,.16,0,.62-.05,1.12-.36,1.41-.9l4.45-8.59c.48-.9.23-2-.55-2.64.28-.61.58-1.26.93-1.98l.02-.05c1.46-3.86,2.01-7.07,2.03-7.18,1.57-7.99.43-14.39-3.38-19.03-1.87-2.27-7.41-7.52-18.75-7.61ZM4.81,33.75c-.27-.73-.51-1.43-.72-2.1l.86-.32c.21.66.44,1.34.68,2.02l-.82.39ZM9.96,47.17c-.21-.02-.29-.11-.33-.18l-4.46-8.61c-.11-.21-.11-.46,0-.67.93,2.04,1.77,3.86,3.29,6.5,1.11,1.93,1.48,2.61,1.65,2.96-.05,0-.1,0-.15,0ZM13.13,47.88c-.1.18-.31.29-.53.29,0,0,0,0,0,0-.31,0-.61-.23-.82-.63-.19-.36-.25-.48-.31-.63-.15-.35-.32-.71-1.84-3.37-1.55-2.69-2.34-4.43-3.35-6.63-.28-.62-.57-1.26-.9-1.95l.79-.38c.4.82,2.06,4.19,3.94,7.61,1.61,2.93,2.05,3.6,2.45,4.19.16.24.3.45.51.81.11.18.21.45.07.68ZM9.47,36.03l4.83,9.03c.13.24.16.52.08.78-.04.14-.12.27-.21.38l-5.74-10.74c.41-.05.84.15,1.04.54ZM42.68,33.35c.24-.68.47-1.36.68-2.02l.86.32c-.21.66-.45,1.37-.72,2.1l-.82-.39ZM34,45.06l4.83-9.03c.19-.35.54-.54.91-.54.04,0,.09,0,.13,0l-5.74,10.74c-.1-.11-.17-.24-.21-.38-.08-.26-.05-.54.08-.78ZM36.54,47.54c-.22.4-.51.62-.82.63,0,0,0,0,0,0-.22,0-.43-.11-.53-.29-.14-.24-.04-.5.07-.68.21-.36.35-.57.52-.81.39-.59.84-1.27,2.45-4.19,1.88-3.42,3.54-6.79,3.94-7.61l.79.38c-.32.69-.61,1.33-.9,1.95-1,2.2-1.8,3.94-3.35,6.63-1.53,2.65-1.69,3.02-1.84,3.37-.07.15-.12.27-.32.63ZM43.13,38.39l-4.45,8.59c-.05.09-.12.18-.33.19-.05,0-.1,0-.15,0,.17-.35.54-1.03,1.65-2.96,1.52-2.64,2.36-4.45,3.29-6.5.1.21.1.46-.01.68ZM45.42,26.91s-.24,1.43-.82,3.46l-.86-.32c2.47-8.53,2.07-15.24-1.22-19.99-4.47-6.46-13.08-7.6-18.13-7.66h0c-.08,0-.16,0-.24,0-.08,0-.16,0-.24,0h0c-5.05.07-13.66,1.2-18.13,7.66-3.29,4.75-3.69,11.46-1.22,19.99l-.86.32c-.57-2.04-.82-3.45-.82-3.48-1.49-7.58-.45-13.61,3.1-17.93,1.76-2.14,7.05-7.13,18.03-7.13h.27c10.98,0,16.27,4.99,18.03,7.13,3.55,4.32,4.59,10.35,3.1,17.94Z"/>
</svg>