<?xml version="1.0" encoding="UTF-8"?>
<svg id="EDIT_ART" data-name="EDIT ART" xmlns="http://www.w3.org/2000/svg" viewBox="0 0 47.61 50">
  <defs>
    <style>
      .cls-1 {
        fill: #fff;
      }
    </style>
  </defs>
  <path class="cls-1" d="M.95,21.09c-.17,1.37-.49,6.05,1.77,12.63v12.62c0,.96.76,1.74,1.7,1.79l2.42.78h.08c.18,0,.36-.04.52-.11.17.41.58.7,1.05.7h2.72c1.02,0,1.86-.83,1.86-1.86v-21.03c0-1.02-.83-1.86-1.86-1.86h-2.67c-.46,0-.86.27-1.06.66-.12-.05-.25-.07-.39-.07h-.07l-2.58.73c-.55.02-1.04.3-1.35.71-.34-2.66-.29-4.4-.21-5.26l.09.02c.06.01.13.01.19.01.54,0,1.03-.37,1.16-.91l1.03-4.14c.04-.16.05-.32.04-.47.13.02.28.04.45.04,1.08,0,2.86-.73,5.28-5.51.94-.59,7.44-4.57,12.68-4.58,5.24.01,11.75,3.99,12.68,4.58,2.42,4.78,4.21,5.51,5.28,5.51.17,0,.32-.02.45-.04-.01.16,0,.32.04.47l1.03,4.14c.13.54.62.91,1.16.91.06,0,.12,0,.19-.01l.09-.02c.07.86.12,2.6-.21,5.26-.31-.41-.8-.69-1.35-.71l-2.58-.73h-.07c-.14,0-.27.03-.39.07-.19-.39-.6-.66-1.06-.66h-2.67c-1.02,0-1.86.83-1.86,1.86v21.03c0,1.02.83,1.86,1.86,1.86h2.72c.47,0,.88-.29,1.05-.7.16.07.33.11.52.11h.08l2.42-.78c.95-.05,1.7-.83,1.7-1.79v-12.62c2.26-6.58,1.94-11.26,1.77-12.63.37-.25.58-.7.51-1.17l-.68-4.31c-.06-.4-.29-.76-.63-.98-.16-.11-.34-.18-.52-.22l.2-.15-.14-.37c-1.81-4.7-5.54-8.44-10.8-10.83-4.13-1.88-8.37-2.55-10.77-2.56h0s-.02,0-.03,0-.02,0-.03,0h0c-2.4.01-6.64.68-10.77,2.56C7.76,5.45,4.02,9.2,2.21,13.89l-.14.37.2.15c-.19.04-.36.11-.52.22-.34.23-.56.59-.63.98l-.68,4.31c-.07.47.14.92.51,1.17ZM2.51,29.04c.06.05.13.09.21.11v.85c-.08-.33-.15-.65-.21-.96ZM4.32,37.69c.11.23.22.47.33.71.09.18.27.29.46.29.07,0,.15-.02.22-.05.26-.12.36-.43.24-.69-.11-.23-.22-.46-.33-.7.45.07.8.45.8.92,0,.51-.42.93-.93.93s-.93-.42-.93-.93c0-.18.05-.34.14-.48ZM3.75,36.4c.04.09.08.18.11.27-.04.03-.08.07-.11.1v-.37ZM8.38,25.94c0-.09.07-.16.16-.16h2.67c.46,0,.83.37.83.83v21.03c0,.46-.37.83-.83.83h-2.72c-.06,0-.11-.05-.11-.11v-22.42ZM4.51,27.1h.07l2.54-.72s.05.05.05.08v21.17c0,.12-.08.22-.2.25l-2.39-.77h-.08c-.42,0-.76-.34-.76-.76v-6.77c.35.34.83.56,1.37.56,1.08,0,1.96-.88,1.96-1.96s-.88-1.96-1.96-1.96c-.11,0-.21.01-.32.03-.4-.93-.75-1.84-1.05-2.71v-5.68c0-.42.34-.76.76-.76ZM39.23,48.36c0,.06-.05.11-.11.11h-2.72c-.46,0-.83-.37-.83-.83v-21.03c0-.46.37-.83.83-.83h2.67c.09,0,.16.07.16.16v22.42ZM43.09,47.11h-.08l-2.39.77c-.11-.03-.2-.13-.2-.25v-21.17s.02-.07.05-.08l2.54.72h.07c.42,0,.76.34.76.76v5.67c-.3.87-.65,1.77-1.05,2.71-.1-.02-.21-.03-.31-.03-1.08,0-1.96.88-1.96,1.96s.88,1.96,1.96,1.96c.53,0,1.01-.21,1.37-.56v6.77c0,.42-.34.76-.76.76ZM43.42,38.17c0,.51-.42.93-.93.93s-.93-.42-.93-.93c0-.47.35-.85.8-.92-.11.23-.21.46-.33.7-.12.26-.02.56.24.69.07.03.15.05.22.05.19,0,.37-.11.46-.29.11-.24.22-.47.33-.71.09.14.14.31.14.48ZM43.86,36.77s-.07-.07-.11-.1c.04-.09.08-.18.11-.27v.37ZM44.88,29.15c.08-.02.16-.06.22-.11-.07.32-.14.65-.22.98v-.87ZM45.47,15.77l.68,4.31c.01.09-.05.18-.14.19l-.55.09c-.11-.08-.25-.11-.39-.08-.13.03-.24.1-.31.2l-.28.04c-.09.01-.17-.04-.19-.13l-1.03-4.14c-.03-.11-.01-.23.05-.33.06-.1.16-.17.27-.2l1.36-.31s.07-.01.1-.01c.09,0,.17.03.24.07.1.07.17.17.19.29ZM23.8,1.53c4.06,0,16.33,2.31,20.49,12.36-.73.5-1.56,1-1.85,1.05-.05,0-.11.02-.18.04-.59.13-2.17.49-4.93-5l-.06-.12-.12-.08c-.3-.2-7.39-4.79-13.33-4.82h0s-.02,0-.03,0c0,0-.02,0-.03,0h0c-5.94.03-13.03,4.63-13.33,4.82l-.12.08-.06.12c-2.75,5.48-4.33,5.13-4.93,5-.07-.01-.13-.03-.18-.04-.28-.05-1.12-.54-1.85-1.05C7.47,3.83,19.74,1.54,23.8,1.53ZM2.14,15.77c.02-.12.09-.22.19-.29.1-.07.22-.09.34-.06l1.36.31c.11.03.21.1.27.2.06.1.08.22.05.33l-1.03,4.14c-.02.09-.1.14-.19.13l-.28-.04c-.07-.1-.18-.17-.31-.2-.14-.03-.28,0-.4.09l-.55-.09c-.09-.01-.15-.1-.14-.19l.68-4.31Z"/>
</svg>