<?xml version="1.0" encoding="UTF-8"?>
<svg id="EDIT_ART" data-name="EDIT ART" xmlns="http://www.w3.org/2000/svg" viewBox="0 0 49.68 50">
  <defs>
    <style>
      .cls-1 {
        fill: #fff;
      }
    </style>
  </defs>
  <path class="cls-1" d="M48.84,15.45c-.26-.11-.57.01-.67.28l-2.45,5.88-.25-2.08c-.02-.19-.14-.34-.3-.41-.33-6.85-3.07-11.96-8.15-15.2C32.13.81,26.61.51,24.89.5h0s-.03,0-.05,0c-.02,0-.03,0-.05,0h0c-1.72.01-7.24.31-12.12,3.42-5.07,3.24-7.81,8.35-8.15,15.2-.16.07-.28.22-.3.41l-.25,2.08-2.45-5.88c-.11-.26-.41-.39-.67-.28-.26.11-.39.41-.28.67l3.15,7.56-.07.61c-.02.14.02.27.11.38s.21.18.35.19l.18.02c-.17.12-.31.26-.4.43-.1.19-.18.49-.03.87.18.45,3.1,7.24,4.76,10.81v10.61c0,1.04.78,1.88,1.74,1.88h1.69c.69,0,1.25-.6,1.25-1.34v-.1c.11.03.22.04.34.04h5.43c1.5,0,2.71-1.22,2.71-2.71v-18.34c0-1.5-1.22-2.71-2.71-2.71h-5.43c-.29,0-.55.09-.77.24-.18-.15-.41-.24-.66-.24h-1.85c-.96,0-1.74.84-1.74,1.88v.85c-.49-.81-.89-1.39-1.23-1.8l.6.07s.04,0,.06,0c.26,0,.48-.19.51-.45l.58-4.77c0-.07,0-.14-.02-.2.21-.32.32-.8.45-1.34.21-.9.51-2.12,1.29-3.11.76-.96,2.84-3.42,5.73-5.46,2.89-2.03,5.66-3.01,8.23-2.89h0s.02,0,.02,0c0,0,.01,0,.02,0h0c2.58-.12,5.34.86,8.23,2.89,2.89,2.03,4.97,4.5,5.73,5.46.78.99,1.08,2.22,1.29,3.11.13.55.24,1.02.45,1.34-.02.07-.02.13-.02.2l.58,4.77c.03.26.25.45.51.45.02,0,.04,0,.06,0l.6-.07c-.34.41-.74.99-1.23,1.8v-.85c0-1.04-.78-1.88-1.74-1.88h-1.85c-.25,0-.48.09-.66.24-.22-.15-.49-.24-.77-.24h-5.43c-1.5,0-2.71,1.22-2.71,2.71v18.34c0,1.5,1.22,2.71,2.71,2.71h5.43c.12,0,.23-.02.34-.04v.1c0,.74.56,1.34,1.25,1.34h1.69c.96,0,1.74-.84,1.74-1.88v-10.61c1.65-3.57,4.58-10.36,4.76-10.81.15-.38.07-.68-.03-.87-.09-.18-.23-.32-.4-.43l.18-.02c.14-.02.26-.09.35-.19s.12-.24.11-.38l-.07-.61,3.15-7.56c.11-.26-.01-.57-.28-.67ZM4.79,25.79c.06-.08.26-.17.49-.24.55,1.2,5.1,11.06,5.71,12.11.22.38,0,.74-.21.88-.18.12-.25.03-.3-.04-.56-.81-5.29-11.68-5.68-12.69,0-.01,0-.02,0-.03ZM13.62,25.36h5.43c.93,0,1.68.75,1.68,1.68v18.34c0,.93-.75,1.68-1.68,1.68h-5.43c-.19,0-.34-.15-.34-.34v-21.03c0-.19.15-.34.34-.34ZM10.33,25.36h1.85s.06.04.06.13v22.67c0,.18-.11.31-.22.31h-1.69c-.39,0-.7-.38-.7-.85v-8.54s0,0,0,0c.25.35.61.54.99.54.24,0,.48-.07.71-.22.67-.43,1.06-1.39.55-2.27-.24-.41-1.16-2.35-2.25-4.68v-6.25c0-.47.32-.85.7-.85ZM8.6,30.26c-.7-1.5-1.4-3.02-1.99-4.29.47.58,1.14,1.61,1.99,3.2v1.1ZM43.07,25.96c-.59,1.27-1.29,2.79-1.99,4.29v-1.1c.85-1.59,1.52-2.61,1.99-3.2ZM36.06,47.07h-5.43c-.93,0-1.68-.75-1.68-1.68v-18.34c0-.93.75-1.68,1.68-1.68h5.43c.19,0,.34.15.34.34v21.03c0,.19-.15.34-.34.34ZM40.05,47.62c0,.47-.32.85-.7.85h-1.69c-.1,0-.22-.13-.22-.31v-22.67c0-.09.05-.13.06-.13h1.85c.39,0,.7.38.7.85v6.25c-1.09,2.33-2.02,4.27-2.25,4.68-.51.88-.12,1.85.55,2.27.23.15.47.22.71.22.38,0,.74-.19.99-.54,0,0,0,0,0,0v8.54ZM44.88,25.82c-.4,1.01-5.12,11.88-5.68,12.69-.05.07-.11.16-.3.04-.22-.14-.43-.5-.21-.88.61-1.05,5.16-10.91,5.71-12.11.23.07.42.16.49.24,0,0,0,.01,0,.03ZM13.23,4.79c4.69-3,10.02-3.26,11.61-3.26,1.6,0,6.92.26,11.61,3.26,4.77,3.05,7.35,7.88,7.67,14.37l-1.01.12c-.99-9-10.56-15.98-18.23-16.04h0s-.03,0-.05,0c-.02,0-.03,0-.05,0h0c-7.67.06-17.24,7.04-18.23,16.04l-1.01-.12c.32-6.49,2.9-11.33,7.67-14.37ZM7.58,24.25l-2.85-.34v-.06c.04-.08.05-.18.04-.27l.41-3.41,2.85.34-.45,3.75ZM39.64,14.81c-.79-1-2.95-3.55-5.95-5.66-3.07-2.16-6.05-3.2-8.85-3.08-2.8-.12-5.78.92-8.85,3.08-3,2.11-5.16,4.66-5.95,5.66-.92,1.17-1.25,2.53-1.48,3.51-.08.34-.19.8-.28.97-.26,0-.49-.07-.65-.15.5-3.82,2.68-7.51,6.19-10.43,3.33-2.77,7.45-4.42,11.03-4.44,3.58.01,7.7,1.67,11.03,4.44,3.51,2.92,5.7,6.61,6.19,10.43-.16.07-.39.15-.64.15h-.01c-.09-.17-.2-.62-.28-.97-.24-.99-.56-2.34-1.48-3.51ZM41.65,20.5l2.85-.34.41,3.41c-.01.09,0,.19.03.27v.06s-2.84.34-2.84.34l-.45-3.75Z"/>
</svg>