<?xml version="1.0" encoding="UTF-8"?>
<svg id="EDIT_ART" data-name="EDIT ART" xmlns="http://www.w3.org/2000/svg" viewBox="0 0 45.34 50">
  <defs>
    <style>
      .cls-1 {
        fill: #fff;
      }
    </style>
  </defs>
  <path class="cls-1" d="M44.01,19.73s.01-.04.01-.05c0-.02,0-.03,0-.05,0,0,0-.01,0-.02l.66-8.57c.02-.29-.19-.54-.48-.56-.28-.02-.54.19-.56.48l-.53,6.96c-.69-6.17-3.42-10.84-8.14-13.89C30.12.88,24.65.53,22.78.5h0s-.07,0-.11,0c-.04,0-.07,0-.11,0h0c-1.87.03-7.35.38-12.2,3.53-4.72,3.05-7.45,7.72-8.14,13.89l-.53-6.96c-.02-.29-.27-.5-.56-.48-.29.02-.5.27-.48.56l.66,8.57s0,.01,0,.02c0,.02,0,.03,0,.05,0,.02,0,.04.01.05,0,0,0,.01,0,.02l.76,2.02-.5,2.23s-.01.1,0,.15c-.58.71-1.11,1.56-.88,2.08.05.12.21.37.6.42.01.09.03.19.08.3.12.31,1.53,3.64,2.95,6.89v9.88c0,.88.32,1.71.91,2.34l.98,1.05v.55c0,1.02.79,1.85,1.76,1.85h1.72c.27,0,.52-.09.72-.24.2.15.45.24.72.24h2.96c1.27,0,2.31-1.04,2.31-2.31v-19.85c0-1.27-1.04-2.31-2.31-2.31h-2.96c-.24,0-.47.07-.66.2-.18-.12-.39-.2-.62-.2h-1.88c-.97,0-1.76.83-1.76,1.85v.97c-.93-1.58-1.57-2.3-2.01-2.61.07-.21.06-.43-.02-.63-.03-.07-.06-.15-.1-.24.07-.07.12-.16.14-.26l.75-3.39c.25.09.55.16.89.16.06,0,.13,0,.19,0,.72-.06.9-.83,1.13-1.8.22-.92.52-2.19,1.31-3.21.77-.99,2.89-3.53,5.83-5.62,2.89-2.06,5.67-3.06,8.25-2.98h0s.05,0,.08,0c.03,0,.05,0,.08,0h0c2.58-.09,5.36.91,8.25,2.98,2.94,2.1,5.06,4.63,5.83,5.62.8,1.02,1.1,2.29,1.31,3.21.23.97.41,1.74,1.13,1.8.06,0,.13,0,.19,0,.34,0,.64-.07.89-.16l.75,3.39c.02.1.07.19.14.26-.03.09-.07.17-.1.24-.08.2-.09.42-.02.63-.44.31-1.08,1.03-2.01,2.61v-.97c0-1.02-.79-1.85-1.76-1.85h-1.88c-.23,0-.44.07-.62.2-.19-.12-.42-.2-.66-.2h-2.96c-1.27,0-2.31,1.04-2.31,2.31v19.85c0,1.27,1.04,2.31,2.31,2.31h2.96c.27,0,.52-.09.72-.24.21.15.45.24.72.24h1.72c.97,0,1.76-.83,1.76-1.85v-.55l.98-1.05c.58-.63.91-1.46.91-2.34v-9.88c1.42-3.25,2.83-6.57,2.95-6.89.04-.11.06-.21.08-.3.39-.05.54-.3.6-.42.23-.52-.3-1.37-.88-2.08,0-.05,0-.1,0-.15l-.5-2.23.76-2.02s0-.01,0-.02ZM43.48,25.56s-.05-.01-.07-.02c-.3-.18-.67-.3-1.04-.39-.12-.08-.2-.15-.24-.2.05-.11.1-.24.15-.38l.47.03c.29.34.57.69.73.96ZM10.92,4.9c4.72-3.05,10.06-3.35,11.75-3.36,1.69.01,7.03.31,11.75,3.36,3.73,2.41,6.14,5.92,7.21,10.45-.12-.07-.26-.08-.39-.05l-1.13.32c-2.93-7.1-10.78-12.19-17.32-12.3h0s-.07,0-.11,0c-.04,0-.07,0-.11,0h0c-6.54.11-14.4,5.2-17.32,12.3l-1.13-.32c-.13-.04-.27-.02-.39.05,1.06-4.53,3.48-8.03,7.21-10.45ZM3.2,24.96c-.04.05-.12.12-.24.2-.37.1-.74.21-1.04.39-.02,0-.05.01-.07.02.17-.27.44-.62.73-.96l.47-.03c.05.14.1.27.15.38ZM2.34,26.53s0,0,.01-.01c.18-.04.35-.1.52-.16.69,1.52,5.16,11.33,5.77,12.4.23.4,0,.79-.22.93-.18.12-.25.03-.3-.05-.57-.83-5.37-12.03-5.78-13.07,0-.02-.01-.03-.01-.03ZM5.9,29.41c.1.19.21.39.32.59v1.15c-.21-.45-.41-.9-.61-1.33.08-.15.18-.29.29-.41ZM6,45.34c-.4-.43-.63-1.02-.63-1.63v-7.51c.3.68.59,1.32.84,1.88v7.5l-.22-.23ZM11.14,26.08h2.96c.7,0,1.27.57,1.27,1.27v19.85c0,.7-.57,1.27-1.27,1.27h-2.96c-.1,0-.18-.08-.18-.18v-22.02c0-.1.08-.18.18-.18ZM7.98,26.08h1.88s.07.04.07.11v21.99c0,.15-.1.28-.22.28h-1.72c-.4,0-.72-.36-.72-.8v-7.45s0,.01.01.02c.25.36.62.55,1,.55.23,0,.48-.07.7-.21.69-.43,1.09-1.42.57-2.33-.25-.44-1.22-2.5-2.29-4.82v-6.52c0-.44.32-.8.72-.8ZM5.37,28.48c-.09.08-.18.16-.26.25-.37-.81-.7-1.53-.94-2.05.31.39.71.98,1.2,1.8ZM3.37,22.19s-.01-.04-.02-.06l-.17-.44,1.17-5.24.49.14-.08.34c-.26.83-.46,1.69-.57,2.57l-.7,3.14c-.05-.17-.1-.33-.13-.45ZM40.12,19.7c-.17.08-.41.16-.67.15-.09-.17-.21-.65-.29-1-.24-1.02-.57-2.41-1.51-3.61-.8-1.03-3-3.65-6.05-5.83-3.1-2.21-6.11-3.28-8.94-3.17-2.83-.1-5.84.96-8.94,3.17-3.05,2.18-5.24,4.8-6.05,5.83-.94,1.2-1.27,2.6-1.51,3.61-.08.36-.2.83-.29,1-.26,0-.5-.08-.67-.15,0,0,0,0,0,0l.54-2.45c.96-3.05,2.93-5.93,5.76-8.3,3.37-2.84,7.52-4.54,11.15-4.57,3.63.03,7.79,1.73,11.15,4.57,2.82,2.38,4.8,5.26,5.76,8.3l.54,2.45s0,0,0,0ZM41.14,19.51c-.12-.88-.31-1.74-.57-2.57l-.08-.34.49-.14,1.17,5.24-.17.44s-.01.04-.02.06c-.03.12-.08.28-.13.45l-.7-3.14ZM41.16,26.68c-.24.52-.56,1.24-.94,2.05-.08-.09-.17-.17-.26-.25.49-.82.89-1.41,1.2-1.8ZM39.12,30c.11-.21.22-.4.32-.59.11.12.21.26.29.41-.2.43-.4.88-.61,1.33v-1.15ZM34.37,48.28c0,.1-.08.18-.18.18h-2.96c-.7,0-1.27-.57-1.27-1.27v-19.85c0-.7.57-1.27,1.27-1.27h2.96c.1,0,.18.08.18.18v22.02ZM37.35,48.46h-1.72c-.12,0-.22-.13-.22-.28v-21.99c0-.07.04-.11.07-.11h1.88c.4,0,.72.36.72.8v6.52c-1.08,2.33-2.04,4.39-2.29,4.82-.52.91-.12,1.9.57,2.33.23.14.47.21.71.21.39,0,.76-.19,1-.55,0,0,0-.01.01-.02v7.45c0,.44-.32.8-.72.8ZM39.96,43.71c0,.61-.23,1.2-.63,1.63l-.22.23v-7.5c.26-.56.54-1.2.84-1.88v7.51ZM42.98,26.57c-.4,1.04-5.21,12.24-5.78,13.07-.05.07-.11.16-.3.05-.22-.14-.45-.53-.22-.93.61-1.07,5.08-10.88,5.77-12.4.17.07.35.12.54.17,0,0,0,0,0,0,0,0,0,.01-.01.04Z"/>
</svg>