<?xml version="1.0" encoding="UTF-8"?>
<svg id="EDIT_ART" data-name="EDIT ART" xmlns="http://www.w3.org/2000/svg" viewBox="0 0 50.59 50">
  <defs>
    <style>
      .cls-1 {
        fill: #fff;
      }
    </style>
  </defs>
  <path class="cls-1" d="M50.18,21.91v-.06c-.06-5.83-1.96-10.61-5.63-14.21C37.9,1.14,27.63.56,25.31.5h0s-.12,0-.24,0c-.11,0-.19,0-.22,0h0c-2.32.05-12.59.65-19.24,7.15C1.94,11.24.04,16.02-.02,21.85v.06s0,0,0,0c0,.07,0,.14,0,.21l2.73,12.44,3.21,14.84.2-.04s.05.04.08.05c.1.05.21.08.32.08.05,0,.1,0,.15-.02l3.12-.69h0c.07-.01.13-.04.19-.07.02,0,.03,0,.05,0,.05,0,.1,0,.15-.02l3.12-.69h0c.36-.08.58-.42.51-.77l-.78-3.53c-.3-1.37-.77-2.7-1.39-3.97l-5.01-10.19c-.09-.19-.27-.31-.46-.35l-.27-1.23s-.02-.09-.04-.12l-2.97-6.5c-.13-.28-.44-.43-.74-.36l-.32.07c.05-6.35,3.95-10.98,11.59-13.76,5.29-1.93,10.66-2.26,11.65-2.31,1,.05,6.34.38,11.63,2.3,7.66,2.78,11.56,7.42,11.62,13.77l-.32-.07c-.3-.07-.62.08-.74.36l-2.97,6.49s-.04.09-.05.14l-.27,1.23c-.2.04-.37.16-.46.35l-5.01,10.19c-.62,1.27-1.09,2.6-1.39,3.97l-.78,3.53c-.08.35.15.69.51.77l3.12.69s.1.02.15.02c.02,0,.03,0,.05,0,.06.03.12.06.19.07l3.12.69s.1.02.15.02c.11,0,.22-.03.32-.08.03-.01.05-.03.08-.05l.2.04,3.21-14.83,2.74-12.45c.02-.07.02-.15,0-.22h0ZM10.72,40.21c.59,1.19,1.03,2.45,1.31,3.73l.69,3.14-2.39.52-3.25-14.79,3.64,7.39ZM4.9,28.25l4.31,19.61-2.39.52-3.09-14.05-2.61-12.05.95-.21,2.82,6.17ZM1.04,21.24s0-.03,0-.04h.2l-.2.04ZM37.07,6.32c-5.34-1.94-10.6-2.3-11.85-2.36h0s-.07,0-.14,0c-.07,0-.12,0-.14,0h0c-1.25.07-6.51.43-11.85,2.37C7.58,8.32,3.85,11.37,2.04,15.28c1.67-5.1,5.39-8.88,11.12-11.27,5.39-2.25,10.82-2.45,11.93-2.46,1.68.03,12.21.47,18.73,6.85,1.95,1.91,3.37,4.18,4.25,6.79-1.82-3.86-5.54-6.88-11-8.86ZM49.11,21.2s0,.03,0,.04l-.2-.04h.19ZM37.44,47.09l.69-3.14c.28-1.29.72-2.54,1.31-3.73l3.64-7.39-3.25,14.79-2.39-.52ZM45.26,28.25l2.82-6.17.95.21-2.61,12.07-3.08,14.02-2.39-.52,4.31-19.61Z"/>
</svg>