<?xml version="1.0" encoding="UTF-8"?>
<svg id="EDIT_ART" data-name="EDIT ART" xmlns="http://www.w3.org/2000/svg" viewBox="0 0 48.97 50">
  <defs>
    <style>
      .cls-1 {
        fill: #fff;
      }
    </style>
  </defs>
  <path class="cls-1" d="M21.18,20.31c.21.01.41.02.62.02,4.91,0,9.04-3.67,9.34-8.44.28-4.45-2.94-8.49-7.48-9.41-.96-.46-2.02-.72-3.13-.72-.24,0-.49.01-.73.04-1.91-.65-3.99-.56-4.99-.51-.1,0-.19,0-.26.01-1.73.06-9.65-.25-11.69-.79v.04c-.08-.01-.16-.02-.24-.01-.87.06-1.51,1.33-1.85,2.31-.38.58-.47,1.71-.46,2.22H.31c.06,1.96,1.32,4.08,2.36,5.51.33.46.86,1.06,1.4,1.45.08.1.18.2.28.3l.04-.04s.06.05.08.07c2,1.62,3.28,2.47,4.15,2.7v1.34c0,.43.25.81.61,1v8.82c0,.63.48,1.15,1.1,1.21v2.47c0,.78.63,1.41,1.41,1.41h.52c.78,0,1.41-.63,1.41-1.41v-2.47h0c.67,0,1.21-.54,1.21-1.21v-7.94h.08c.03-.22.1-.32.15-.34.16-.06.57.13.79.31.06.05.12.09.17.14l-.06.08c1.49,1.1,3.27,1.74,5.15,1.86ZM30.09,11.82c-.22,3.49-2.77,6.32-6.13,7.18,2.72-1.45,4.6-4.58,4.6-8.19,0-2.31-.77-4.42-2.04-6.02,2.32,1.56,3.74,4.2,3.57,7.03ZM27.5,10.81c0,4.41-3.13,8-6.97,8-.78,0-1.54-.14-2.23-.4.39-.09.77-.24,1.13-.46,1.88-1.13,3.26-3.97,4.09-8.44.48-2.6.1-4.63-1.13-6.05-.16-.18-.32-.34-.5-.49,3.19.73,5.6,3.97,5.6,7.84ZM2.67,1.59c.07.06.31.33.55,1.34.01.05.03.11.04.16-.16-.27-.24-.36-.32-.42-.17-.13-.47-.21-.88-.24.21-.42.43-.77.6-.85ZM3.53,9.94c-.78-1.07-2.1-3.14-2.16-4.92-.01-.35.03-.73.09-1.04h.01c.75,1.53,2.3,5.26,2.91,6.93-.26-.23-.56-.55-.86-.97ZM5.69,11.6s0-.06,0-.1c-.08-.49-1.14-3.13-1.79-4.68-.21-.5-.4-.94-.57-1.34.18.35.35.7.5,1.01.47.94.87,1.75,1.05,2.06.18.31.44.88.73,1.49.37.8.76,1.63,1.06,2.11-.24-.13-.56-.3-.97-.55ZM9.03,14.05h0c-.16-.01-.52-.12-1.28-.6.07-.03.13-.08.19-.13.44-.46.01-1.11-.37-1.7-.16-.25-.38-.69-.61-1.17.23.36.46.71.67,1.04.63.97,1.33,2.06,1.39,2.33.02.11.02.18.02.23ZM12.62,29.88c0,.2-.16.36-.36.36h-.52c-.2,0-.36-.16-.36-.36v-2.47h1.23v2.47ZM13.84,26.19c0,.09-.07.16-.16.16h0v-.03h-3.32s-.07-.07-.07-.13v-8.68l3.55.05v8.62ZM14.49,16.44h-4.77s-.04-.04-.04-.07v-1.45c.09-.06.18-.16.25-.28l2.54-2.38c.12-.11.28-.17.45-.16.17,0,.32.08.43.21l1.21,1.43-.07,2.7ZM15.46,16.87c.05-.12.08-.26.09-.4l.08-3.11-1.47-1.74c-.3-.35-.71-.56-1.17-.58-.46-.02-.9.13-1.23.45l-1.84,1.73c-.22-.47-.67-1.18-1.4-2.31-1.44-2.23-3.62-5.6-4.26-8.23-.05-.22-.14-.56-.27-.91,3.2.43,9.3.62,10.61.58.08,0,.17,0,.28-.01,1.35-.06,4.95-.23,6.73,1.82,1.01,1.16,1.3,2.89.88,5.16-.76,4.11-2.01,6.78-3.6,7.73-.74.44-1.55.52-2.46.25-.2-.14-.56-.35-.96-.42Z"/>
  <path class="cls-1" d="M48.2,21.04c-.34-.98-.98-2.25-1.85-2.31-.08,0-.16,0-.23.01v-.04c-2.06.55-9.97.85-11.7.79-.08,0-.16,0-.26-.01-.99-.05-3.08-.14-4.98.51-.24-.02-.48-.04-.73-.04-1.11,0-2.17.26-3.13.72-4.54.92-7.76,4.97-7.48,9.41.15,2.41,1.27,4.61,3.16,6.21,1.72,1.45,3.9,2.24,6.18,2.24.21,0,.42,0,.62-.02,1.88-.12,3.66-.76,5.15-1.86l-.06-.08c.06-.05.12-.09.17-.14.22-.19.64-.37.79-.31.05.02.11.12.15.35h.08s0,7.93,0,7.93c0,.67.54,1.21,1.21,1.21h0v2.47c0,.78.63,1.41,1.41,1.41h.52c.78,0,1.41-.63,1.41-1.41v-2.47c.62-.06,1.1-.58,1.1-1.21v-8.82c.36-.19.61-.57.61-1v-1.34c.87-.23,2.15-1.08,4.15-2.7.03-.02.06-.05.08-.07l.04.04c.1-.1.2-.2.28-.3.54-.39,1.07-.99,1.4-1.45,1.04-1.43,2.3-3.54,2.36-5.51.02-.52-.08-1.64-.46-2.22ZM45.74,21.14c.25-1.02.48-1.28.55-1.34.17.08.4.43.6.85-.41.03-.71.11-.88.24-.08.06-.16.15-.32.42.01-.05.03-.11.04-.16ZM21.67,35.5c-1.66-1.4-2.65-3.34-2.79-5.46-.18-2.82,1.25-5.47,3.57-7.03-1.27,1.6-2.04,3.71-2.04,6.02,0,3.62,1.89,6.74,4.61,8.19-1.23-.31-2.37-.89-3.35-1.72ZM28.44,37.02c-3.84,0-6.97-3.59-6.97-8,0-3.87,2.41-7.11,5.6-7.84-.17.15-.34.31-.5.49-1.23,1.41-1.61,3.45-1.13,6.05.83,4.48,2.21,7.32,4.09,8.44.36.22.74.37,1.13.46-.7.26-1.45.4-2.23.4ZM37.58,48.09c0,.2-.16.36-.36.36h-.52c-.2,0-.36-.16-.36-.36v-2.47h1.23v2.47ZM38.68,44.4c0,.05-.03.1-.07.13h-3.32v.03h0c-.09,0-.16-.07-.16-.16v-8.62l3.55-.05v8.68ZM39.29,34.59s-.02.06-.04.07h-4.77l-.07-2.7,1.21-1.43c.11-.13.26-.2.43-.21.17-.01.33.05.45.16l2.54,2.38c.07.12.16.21.25.28v1.45ZM39.06,31.43l-1.84-1.73c-.34-.31-.77-.47-1.23-.45-.46.03-.87.23-1.17.58l-1.47,1.74.08,3.11c0,.14.04.28.09.4-.4.07-.76.28-.96.42-.91.27-1.72.2-2.46-.25-1.59-.95-2.83-3.62-3.6-7.73-.42-2.27-.12-4,.88-5.16,1.78-2.05,5.38-1.88,6.73-1.82.11,0,.2,0,.28.01,1.31.05,7.41-.15,10.61-.58-.13.35-.22.69-.27.91-.64,2.62-2.82,6-4.26,8.23-.73,1.13-1.18,1.84-1.4,2.31ZM41.39,29.83c-.38.58-.81,1.24-.36,1.69.06.06.12.1.19.13-.76.48-1.12.59-1.28.6h0c0-.05,0-.13.02-.23.05-.27.76-1.37,1.39-2.33.21-.32.43-.67.67-1.04-.23.48-.45.92-.62,1.18ZM43.29,29.71s0,.07,0,.1c-.41.25-.73.42-.97.55.3-.47.68-1.3,1.06-2.11.28-.61.55-1.19.73-1.49s.58-1.12,1.05-2.06c.15-.31.33-.66.5-1.01-.17.39-.36.84-.57,1.34-.65,1.55-1.71,4.19-1.79,4.68ZM45.44,28.15c-.3.42-.61.74-.86.97.61-1.67,2.16-5.4,2.91-6.93h.01c.06.31.11.69.09,1.04-.06,1.78-1.38,3.85-2.16,4.92Z"/>
</svg>