<?xml version="1.0" encoding="UTF-8"?>
<svg id="EDIT_ART" data-name="EDIT ART" xmlns="http://www.w3.org/2000/svg" viewBox="0 0 45.84 50">
  <defs>
    <style>
      .cls-1 {
        fill: #fff;
      }
    </style>
  </defs>
  <path class="cls-1" d="M19.93,22.61c2.16,0,3.91-1.76,3.91-3.91v-2.68c0-1.91-1.38-3.51-3.2-3.84.34-2.3.52-4.61.47-6.44-.03-1.24-.13-5.02-2.65-5.22-.9-.07-1.75.24-2.46.89-1.16,1.08-1.98,3.19-2.44,6.29-.27,1.82-.34,3.54-.36,4.4h-3.35v2.12h-.3v-2.8h-.53c-2.65,0-7.71,1.82-8.47,3.05l-.08.13v5.11c0,.71.75,1.39,4.4,2.39,2,.55,4.03.95,4.05.96l.63.12v-2.95h.3v2.38h3.36v11.28h-.41v5.63h1.51v7.83h.99v-7.83h1.34v-5.63h-.41v-11.28h3.68ZM8.52,21.89c-3.18-.67-6.56-1.67-6.97-2.24v-4.72c.69-.71,4.4-2.23,6.97-2.43v9.4ZM9.87,19.17h-.3v-3.9h.3v3.9ZM22.79,16.01v2.68c0,1.58-1.28,2.86-2.86,2.86h-2.25c.76-.92,1.55-2.64,2.3-5.82.19-.81.36-1.66.51-2.52,1.32.26,2.31,1.42,2.31,2.81ZM10.92,21.55v-8.4h6.47c-.75,4.13-1.7,6.09-2.04,6.45-.21.07-.37.27-.38.49,0,.06,0,.13.04.21l.21,1.25h-4.31ZM16.27,12.1c.06-3.57.75-7.03,1.61-8.22.23,1.18.34,4.03-.32,8.22h-1.29ZM15.2,22.61v11.2h-.91v-11.2h.91ZM15.61,38.46h-1.73v-3.53h1.73v3.53ZM16.09,20.34c.88-.96,1.87-4.03,2.49-7.87.83-5.1.62-8.82,0-9.72-.11-.16-.31-.25-.5-.23-.25.03-.48.15-.71.36-.69.64-1.24,2-1.64,4.05-.3,1.55-.48,3.41-.51,5.18h-.95c.06-3.12.62-8.23,2.46-9.92.49-.45,1.06-.66,1.66-.61,1.05.08,1.61,1.49,1.68,4.2.07,2.71-.37,6.53-1.11,9.73-.78,3.35-1.68,5.33-2.68,5.91l-.18-1.06Z"/>
  <path class="cls-1" d="M45.26,23.27c-.75-1.23-5.82-3.05-8.47-3.05h-.53v2.8h-.3v-2.12h-3.35c-.02-.87-.09-2.58-.36-4.4-.45-3.1-1.28-5.22-2.44-6.29-.71-.65-1.55-.96-2.46-.89-2.52.2-2.62,3.98-2.65,5.22-.05,1.83.13,4.14.47,6.44-1.82.34-3.2,1.93-3.2,3.84v2.68c0,2.16,1.76,3.91,3.91,3.91h3.68v11.28h-.41v5.63h1.34v1.18h.99v-1.18h1.51v-5.63h-.41v-11.28h3.36v-2.38h.3v2.95l.63-.12s2.05-.41,4.05-.96c3.65-1,4.4-1.68,4.4-2.39v-5.11l-.08-.13ZM25.91,30.36c-1.58,0-2.86-1.28-2.86-2.86v-2.68c0-1.39,1-2.55,2.31-2.81.15.86.32,1.71.51,2.52.74,3.19,1.53,4.9,2.3,5.82h-2.25ZM29.57,30.2c-1-.58-1.9-2.56-2.68-5.91-.75-3.21-1.18-7.03-1.11-9.73.07-2.7.63-4.11,1.68-4.2.05,0,.11,0,.16,0,.54,0,1.05.21,1.49.62,1.84,1.7,2.4,6.8,2.46,9.92h-.95c-.03-1.77-.21-3.63-.51-5.18-.4-2.05-.95-3.41-1.64-4.05-.23-.21-.46-.33-.71-.36-.2-.02-.39.06-.5.23-.61.91-.82,4.62,0,9.72.62,3.84,1.61,6.92,2.49,7.87l-.18,1.06ZM29.57,20.9h-1.29c-.66-4.19-.54-7.04-.32-8.22.87,1.19,1.55,4.65,1.61,8.22ZM31.97,47.27h-1.73v-3.53h1.73v3.53ZM30.64,42.61v-11.2h.91v11.2h-.91ZM34.92,30.36h-4.31l.21-1.25c.03-.07.04-.15.04-.21,0-.22-.16-.42-.36-.49-.36-.39-1.31-2.35-2.05-6.46h6.47v8.4ZM36.27,27.98h-.3v-3.9h.3v3.9ZM44.29,28.45c-.41.57-3.78,1.58-6.97,2.24v-9.4c2.57.2,6.28,1.72,6.97,2.43v4.72Z"/>
</svg>