<?xml version="1.0" encoding="UTF-8"?>
<svg id="EDIT_ART" data-name="EDIT ART" xmlns="http://www.w3.org/2000/svg" viewBox="0 0 50.14 50">
  <defs>
    <style>
      .cls-1 {
        fill: #fff;
      }
    </style>
  </defs>
  <path class="cls-1" d="M23.51,3.3l-.67-.2c-.23-.07-.47-.11-.71-.13-.27-.25-.55-.48-.86-.7-1.9-1.35-4.3-1.96-6.77-1.72-2.29.23-4.36,1.16-5.92,2.65-.25-.31-.52-.46-.84-.47-.66-.06-2.12-.06-3.54.32-1.88.5-3.08,1.5-3.46,2.89-.78,2.85-.27,6.36.38,7.69.18.37,1.72,3.25,5.78,3.25.63,0,1.33-.07,2.09-.23h.03c.27-.08.56-.26.76-1.19,1.54.98,3.36,1.49,5.28,1.49.08,0,.17,0,.25,0l-4.42,14.93c-.25.84-.15,1.73.26,2.5.42.77,1.11,1.33,1.95,1.58l.67.2c.31.09.62.14.93.14.54,0,1.07-.13,1.56-.4.77-.42,1.33-1.11,1.58-1.95l7.86-26.57c.51-1.73-.48-3.56-2.21-4.08ZM8.64,15.63c-4.74.93-6.37-2.11-6.55-2.47-.51-1.04-1.04-4.25-.31-6.94.56-2.07,3.68-2.44,5.24-2.44.27,0,.49.01.64.03h.02c.06.05.34.34.64,1.62.78,3.34.77,9.23.31,10.21ZM16.84,33.64c-.17.57-.54,1.03-1.06,1.31-.52.28-1.11.34-1.68.18l-.67-.2c-.57-.17-1.03-.54-1.31-1.06-.28-.52-.34-1.11-.18-1.68l4.53-15.32c2.63-.34,4.88-1.63,6.35-3.43l-5.97,20.2ZM16.04,15.84c-2.21.22-4.41-.35-6.09-1.56.03-.39.05-.83.07-1.36.05-1.92-.08-4.15-.33-5.97-.16-1.17-.36-2.07-.59-2.74,1.41-1.46,3.35-2.37,5.52-2.59,2.2-.22,4.35.32,6.04,1.52,1.67,1.19,2.69,2.88,2.88,4.77.39,3.92-2.97,7.48-7.49,7.93ZM24.7,7.07l-.14.46c-.16-1.14-.57-2.21-1.21-3.16,1.08.4,1.68,1.57,1.35,2.69Z"/>
  <path class="cls-1" d="M17.02,4.89c-1.15,0-2.08.93-2.08,2.08s.93,2.08,2.08,2.08,2.08-.93,2.08-2.08-.93-2.08-2.08-2.08ZM17.02,7.97c-.56,0-1.01-.45-1.01-1.01s.45-1.01,1.01-1.01,1.01.45,1.01,1.01-.45,1.01-1.01,1.01Z"/>
  <path class="cls-1" d="M49.39,19.16c-.38-1.39-1.58-2.39-3.46-2.89-1.42-.38-2.88-.38-3.54-.32-.32,0-.6.16-.84.47-1.56-1.49-3.63-2.42-5.92-2.65-2.96-.29-5.72.67-7.61,2.42-.24.02-.48.06-.72.13l-.67.2c-.84.25-1.53.81-1.95,1.58-.42.77-.51,1.66-.26,2.5l7.86,26.57c.42,1.42,1.73,2.35,3.15,2.35.31,0,.62-.04.93-.13l.67-.2c1.73-.51,2.73-2.34,2.21-4.08l-4.42-14.93c.08,0,.17,0,.25,0,1.91,0,3.74-.52,5.28-1.49.2.93.48,1.11.76,1.18h.03c.76.17,1.46.24,2.09.24,4.07,0,5.6-2.87,5.78-3.25.65-1.33,1.16-4.84.38-7.69ZM25.44,20.28c-.17-.57-.1-1.16.18-1.68.26-.48.68-.83,1.18-1.02-.64.94-1.06,2.01-1.22,3.16l-.14-.46ZM38.2,45.4c.35,1.17-.32,2.4-1.49,2.74l-.67.2c-1.17.35-2.4-.32-2.74-1.49l-5.97-20.19c1.47,1.79,3.72,3.08,6.35,3.43l4.53,15.32ZM40.44,20.16c-.25,1.82-.37,4.05-.33,5.97.01.52.04.97.07,1.36-1.67,1.21-3.88,1.78-6.09,1.56-4.52-.45-7.88-4.01-7.49-7.93.39-3.92,4.39-6.74,8.91-6.29,2.16.22,4.11,1.13,5.52,2.59-.24.67-.43,1.57-.59,2.74ZM48.04,26.38c-.17.35-1.8,3.39-6.55,2.47-.46-.98-.47-6.86.31-10.21.3-1.27.58-1.56.64-1.61h.02c1.07-.11,5.22,0,5.89,2.42.73,2.69.2,5.9-.31,6.94Z"/>
  <path class="cls-1" d="M33.12,18.1c-1.15,0-2.08.93-2.08,2.08s.93,2.08,2.08,2.08,2.08-.93,2.08-2.08-.93-2.08-2.08-2.08ZM33.12,21.18c-.56,0-1.01-.45-1.01-1.01s.45-1.01,1.01-1.01,1.01.45,1.01,1.01-.45,1.01-1.01,1.01Z"/>
</svg>