<?xml version="1.0" encoding="UTF-8"?>
<svg id="EDIT_ART" data-name="EDIT ART" xmlns="http://www.w3.org/2000/svg" viewBox="0 0 49.29 50">
  <defs>
    <style>
      .cls-1 {
        fill: #fff;
      }
    </style>
  </defs>
  <path class="cls-1" d="M1.36,29.38l1.16,6.1-.16.03c-.36.07-.66.27-.86.58-.2.3-.27.65-.19.99l1.24,6.03c.13.63.69,1.07,1.32,1.07.09,0,.18,0,.26-.03l.67-.13c.09-.02.17-.04.26-.08.42,1.52,1.45,2.85,2.83,3.69.89.53,1.86.81,2.77.81.27,0,.53-.03.79-.07.58.7,1.46,1.13,2.41,1.13.2,0,.41-.02.61-.06l.82-.16c.83-.16,1.53-.63,1.99-1.32.45-.67.61-1.48.44-2.27l-3.49-16.94c-.34-1.65-1.98-2.72-3.66-2.39l-.82.16c-.83.16-1.53.63-1.99,1.32-.2.3-.34.62-.42.96-1.1.24-2.15.97-2.92,2.02-.11.16-.22.32-.32.48l-1.05-1.68c.66,0,1.24-.49,1.32-1.16l.66-5.1c.03-.26-.01-.53-.13-.76h.01l.03-.48s.17-2.31,1.22-5.19c4.52-.21,5.61-1.46,7.91-4.09,2.63-3.01,6.34-4.74,10.47-4.89,4.12.15,7.84,1.88,10.47,4.89,2.3,2.63,3.39,3.87,7.91,4.09,1.05,2.88,1.21,5.16,1.22,5.19l.03.48h.01c-.12.23-.16.49-.13.76l.66,5.1c.09.66.66,1.15,1.32,1.16l-1.05,1.68c-.1-.16-.2-.33-.32-.48-.77-1.05-1.82-1.78-2.92-2.02-.08-.34-.22-.66-.42-.96-.46-.69-1.17-1.16-1.99-1.32l-.82-.16c-1.68-.33-3.32.74-3.66,2.39l-3.49,16.94c-.16.79,0,1.6.44,2.27.46.69,1.17,1.16,1.99,1.32l.82.16c.21.04.41.06.61.06.95,0,1.83-.43,2.41-1.13.26.05.52.07.79.07.91,0,1.88-.28,2.77-.81,1.39-.83,2.41-2.17,2.83-3.69.08.03.17.06.26.08l.67.13c.09.02.18.03.26.03.63,0,1.19-.44,1.32-1.07l1.24-6.03c.07-.35,0-.7-.19-.99-.2-.3-.51-.51-.87-.58l-.16-.03,1.16-6.1c.2-.09.38-.23.51-.4.22-.28.31-.62.27-.97l-.66-5.1c-.05-.38-.26-.7-.55-.91-.09-5.23-2.31-9.62-2.78-10.49l.18-1.73-1.03-.11-.22,2.06.08.14s2.39,4.24,2.7,9.35C43.43,5.73,30.66.6,24.63.5h0s-.06,0-.08,0c-.03,0-.06,0-.08,0h0c-6.03.1-18.8,5.23-21.61,20.73.31-5.1,2.67-9.31,2.7-9.35l.08-.15-.22-2.06-1.03.11.18,1.73c-.47.87-2.69,5.25-2.78,10.49-.29.21-.5.53-.55.91l-.66,5.1c-.04.35.05.69.27.97.14.18.31.31.52.4ZM4.59,43.01l-.67.13c-.17.03-.34-.07-.37-.23l-1.24-6.03c-.01-.07,0-.15.04-.21.05-.07.12-.12.2-.13l.67-.13s.04,0,.06,0c.08,0,.15.03.21.08l1.31,6.36s0,.02-.01.04c-.05.07-.12.12-.2.13ZM8.63,28.42c.31-.46.78-.77,1.33-.88l.82-.16c.14-.03.28-.04.41-.04.97,0,1.83.66,2.03,1.62l3.49,16.94c.11.52,0,1.04-.29,1.49-.31.46-.78.77-1.33.88l-.82.16c-1.12.22-2.22-.49-2.44-1.58l-3.49-16.94c-.11-.52,0-1.04.29-1.49ZM5.26,31.44c.56-.76,1.28-1.3,2.03-1.54,0,.07.02.14.03.22l3.49,16.94c.02.12.06.23.09.34-.79.06-1.67-.16-2.48-.65-1.2-.72-2.07-1.89-2.4-3.2l-.14-.69c.01-.13,0-.27-.02-.4l-1.24-6.03c-.03-.14-.08-.26-.14-.38l-.15-.75c-.22-1.33.13-2.74.95-3.85ZM3.26,33.82l-.52-2.75.85,1.35c-.16.45-.27.92-.32,1.4ZM35.79,12.17c-2.81-3.22-6.78-5.08-11.18-5.24h0s-.05,0-.07,0c-.02,0-.05,0-.07,0h0c-4.4.18-8.36,2.03-11.18,5.25-2.13,2.44-3.03,3.46-6.71,3.71.35-.83.77-1.69,1.28-2.54,3.45-5.77,9.08-8.68,16.76-8.64h0c7.59,0,13.17,2.91,16.6,8.64.51.86.93,1.71,1.28,2.54-3.68-.24-4.58-1.27-6.71-3.71ZM46.36,31.07l-.52,2.75c-.05-.47-.16-.94-.32-1.39l.85-1.35ZM37.27,46.84c-.22,1.09-1.32,1.8-2.44,1.58l-.82-.16c-.55-.11-1.02-.42-1.33-.88-.29-.44-.4-.97-.29-1.49l3.49-16.94c.22-1.09,1.32-1.8,2.44-1.58l.82.16c.55.11,1.02.42,1.33.88.29.44.4.97.29,1.49l-3.49,16.94ZM40.67,46.74c-.81.49-1.69.71-2.48.65.04-.11.07-.23.09-.34l3.49-16.94c.01-.07.02-.14.03-.22.75.24,1.47.78,2.03,1.54.82,1.11,1.16,2.52.95,3.85l-.15.75c-.06.12-.11.24-.14.38l-1.24,6.03c-.03.13-.03.27-.02.4l-.14.69c-.33,1.32-1.21,2.48-2.4,3.2ZM46.74,36.66c.04.06.06.14.04.21l-1.24,6.03c-.03.16-.2.27-.37.23l-.67-.13h0c-.08-.02-.16-.06-.2-.13,0-.01,0-.02-.02-.04l1.31-6.36c.06-.05.13-.08.21-.08.02,0,.04,0,.06,0l.67.13c.08.02.16.06.2.13ZM47.49,28.13c0,.07-.01.15-.06.21-.05.06-.12.11-.21.12l-1.13.14h0c-.17.02-.33-.09-.35-.25l-.66-5.1c0-.07.01-.15.06-.21.05-.06.12-.11.21-.12l1.13-.14s.03,0,.04,0c.15,0,.29.11.31.25l.66,5.1ZM45.25,21.58h-.12c-.09-.78-.35-2.41-1.01-4.39.47,1.34.85,2.8,1.13,4.39ZM12.76,6.17c4.31-3.38,8.89-4.61,11.79-4.63,2.89.02,7.48,1.25,11.79,4.63,1.76,1.38,3.76,3.37,5.47,6.14-2.6-4.06-7.64-8.63-17.17-8.64h0s-.02,0-.03,0c0,0,0,0-.01,0-.02,0-.03,0-.05,0-.02,0-.03,0-.05,0,0,0,0,0-.01,0,0,0-.02,0-.03,0h0c-9.53.01-14.57,4.58-17.17,8.64,1.71-2.77,3.71-4.76,5.47-6.14ZM4.98,17.19c-.66,1.98-.92,3.61-1.01,4.39h-.12c.28-1.59.67-3.05,1.13-4.39ZM2.26,23.04c.02-.15.15-.25.31-.25.01,0,.03,0,.04,0l1.13.14c.08.01.16.05.21.12.05.06.07.13.06.2l-.66,5.1c-.02.16-.17.27-.35.25l-1.13-.14c-.08-.01-.16-.05-.21-.12-.05-.06-.07-.13-.06-.2l.66-5.1Z"/>
</svg>