<?xml version="1.0" encoding="UTF-8"?>
<svg id="EDIT_ART" data-name="EDIT ART" xmlns="http://www.w3.org/2000/svg" viewBox="0 0 50.17 50">
  <defs>
    <style>
      .cls-1 {
        fill: #fff;
      }
    </style>
  </defs>
  <path class="cls-1" d="M1.47,28.42c.35,0,.69-.07,1.01-.19l.31,1.78c-.27.16-.49.38-.64.66-.22.4-.27.87-.14,1.31l.89,2.98h.04c-.13.36-.14.75-.03,1.13l3.09,10.35c.25.83,1.03,1.38,1.88,1.38.18,0,.36-.02.54-.07l.25-.07h0c.46-.13.84-.41,1.1-.79.44,1.34,1.73,2.21,3.12,2.21.11,0,.21,0,.32-.02.4.28.88.43,1.38.43.21,0,.43-.03.65-.09l1.75-.49c.62-.17,1.13-.57,1.43-1.12.29-.53.36-1.15.19-1.73l-4.84-16.18c-.36-1.21-1.67-1.92-2.92-1.57l-1.75.49c-.62.17-1.13.57-1.43,1.12-.04.07-.07.14-.1.21-.6.29-1.1.75-1.42,1.34-.15.27-.26.56-.32.86l-.4-1.33c-.22-.73-.9-1.22-1.64-1.25l-.35-2.04c.73-.53,1.28-1.23,1.52-1.64l.08-.13v-.16c-.12-1.87.62-5.6,4.78-12.8.11-.19.18-.31.21-.37.15-.3.14-.7-.04-1.19.04,0,.09,0,.13,0,.89,0,1.91-.4,2.99-1.2.7-.51,1.21-1.21,1.49-1.58.04-.06.08-.1.11-.14.29-.37.23-1.01.01-1.73,1.54,1.01,2.5.63,3.34.3,2.07-.81,4.16-1.27,6.21-1.37.23-.01.33-.02.45-.09.14-.09.26-.2.37-.33.11.13.23.24.37.33.12.08.22.08.45.09,2.05.1,4.14.56,6.21,1.37.85.33,1.81.71,3.34-.3-.22.71-.27,1.36.01,1.73.03.04.07.09.11.14.28.37.79,1.06,1.49,1.58,1.09.8,2.1,1.2,2.99,1.2.04,0,.09,0,.13,0-.18.5-.19.9-.04,1.19.03.05.1.18.21.37,4.16,7.19,4.9,10.93,4.79,12.8v.16s.07.13.07.13c.24.41.78,1.11,1.52,1.64l-.35,2.04c-.74.03-1.42.52-1.64,1.25l-.4,1.33c-.06-.3-.17-.58-.32-.86-.33-.59-.82-1.05-1.42-1.34-.03-.07-.06-.14-.1-.21-.3-.55-.81-.95-1.43-1.12l-1.75-.49c-1.25-.35-2.56.36-2.92,1.57l-4.84,16.18c-.17.58-.11,1.2.19,1.73.3.55.81.95,1.43,1.12l1.75.49c.22.06.43.09.65.09.5,0,.98-.16,1.38-.43.11.01.21.02.32.02,1.39,0,2.68-.87,3.12-2.21.26.39.64.66,1.1.79l.25.07c.18.05.36.07.54.07.85,0,1.63-.54,1.88-1.38l3.09-10.35c.11-.38.1-.78-.03-1.14h.04s.89-2.97.89-2.97c.13-.44.08-.91-.14-1.31-.15-.28-.37-.5-.64-.66l.31-1.78c.32.12.65.19,1.01.19.22,0,.45-.03.69-.09l.39-.1v-.4c-.28-9.71-3.3-17.06-8.99-21.83C35.09,1.21,28.51.5,25.09.5v.51h0s0,0,0,0v-.51c-3.41,0-9.99.71-15.69,5.49C3.7,10.76.67,18.11.41,27.82v.4s.38.1.38.1c.23.06.46.09.69.09ZM8.97,46.25c-.12.21-.32.37-.56.44l-.25.07c-.5.14-1.02-.13-1.16-.61l-3.09-10.35c-.07-.22-.04-.45.07-.65.12-.21.32-.37.56-.44l.25-.07c.09-.02.18-.04.26-.04.41,0,.78.25.9.64l3.09,10.35c.07.22.04.45-.07.65ZM8.57,30.42c.17-.31.46-.53.81-.63l1.75-.49c.13-.04.25-.05.38-.05.58,0,1.12.37,1.29.93l4.84,16.18c.09.32.06.65-.1.94-.17.31-.46.53-.81.63l-1.75.49c-.71.2-1.46-.19-1.67-.88l-4.84-16.18c-.09-.32-.06-.65.1-.94ZM7.04,31.97c.11-.19.24-.36.39-.51.01.07.03.13.05.2l4.84,16.18c.02.05.04.11.06.16-.77-.17-1.41-.73-1.65-1.5l-3.86-12.92c-.16-.54-.1-1.11.17-1.6ZM4.44,31.3l.6,2-1.45.4-.6-2.02c-.05-.18-.03-.36.06-.52.1-.17.26-.3.46-.36.07-.02.14-.03.22-.03.33,0,.63.2.73.52ZM45.73,31.3c.11-.38.54-.6.94-.49.2.06.36.18.46.36.09.16.11.35.06.52l-.6,2.02-1.45-.4.6-2ZM35.2,48.42l-1.75-.49c-.35-.1-.64-.32-.81-.63-.16-.29-.2-.63-.1-.94l4.84-16.18c.2-.68.95-1.08,1.67-.88l1.75.49c.35.1.64.32.81.63.16.29.2.63.1.94l-4.84,16.18c-.2.68-.95,1.08-1.67.88ZM39.44,46.5c-.23.78-.88,1.33-1.65,1.5.02-.05.04-.11.06-.16l4.84-16.18c.02-.06.03-.13.05-.2.15.15.29.32.39.51.27.49.33,1.06.17,1.6l-3.86,12.92ZM46.27,35.8l-3.09,10.35c-.14.47-.66.75-1.16.61l-.25-.07c-.25-.07-.45-.22-.56-.44-.11-.2-.14-.43-.07-.65l3.09-10.35c.14-.47.66-.75,1.16-.61l.25.07c.25.07.45.22.56.44.11.2.14.43.07.65ZM24.25,4.68s-.02,0-.04,0c-2.17.1-4.37.59-6.54,1.44-.8.31-1.32.52-2.43-.22-.52-.35-1.22-.99-1.56-1.4-.03-.05-.06-.1-.09-.15,4.15-2.25,8.31-2.76,10.94-2.82-.06.71-.13,1.66.02,2.5-.06.28-.16.52-.31.66ZM34.92,5.91c-1.11.74-1.63.53-2.43.22-2.17-.85-4.37-1.34-6.54-1.44-.01,0-.03,0-.04,0-.15-.14-.25-.37-.31-.66.15-.84.07-1.79.02-2.5,2.63.06,6.79.57,10.94,2.82-.03.05-.06.1-.08.15-.34.41-1.03,1.05-1.56,1.4ZM48.72,27.39c-1.14.02-2.15-1.13-2.54-1.72.07-2.06-.76-5.99-4.93-13.2-.09-.15-.15-.25-.18-.31-.06-.37.69-1.85,1.88-2.35l-.14-.33c3.65,4.4,5.64,10.41,5.92,17.92ZM42.36,8.95c-.58.29-1.08.74-1.46,1.23-1,.58-2.3-.1-3.22-.78-.58-.42-1.03-1.03-1.27-1.36-.04-.06-.08-.11-.11-.15-.1-.33.37-1.59,1.07-2.86.04-.05.08-.11.11-.16.9.54,1.79,1.17,2.65,1.9.8.67,1.55,1.4,2.24,2.18ZM10.05,6.77c.87-.73,1.76-1.36,2.65-1.9.03.05.07.1.11.16.68,1.26,1.17,2.54,1.07,2.86-.03.04-.07.09-.11.15-.24.33-.7.94-1.27,1.36-.76.56-2.17,1.38-3.22.78-.38-.49-.88-.94-1.46-1.22.69-.78,1.44-1.51,2.24-2.18ZM7.36,9.48l-.14.33c1.18.5,1.93,1.98,1.88,2.35-.03.05-.09.16-.18.31-4.17,7.21-5,11.15-4.94,13.2-.39.59-1.41,1.74-2.54,1.72.28-7.51,2.26-13.51,5.92-17.92Z"/>
</svg>