<?xml version="1.0" encoding="UTF-8"?>
<svg id="EDIT_ART" data-name="EDIT ART" xmlns="http://www.w3.org/2000/svg" viewBox="0 0 49.06 50">
  <defs>
    <style>
      .cls-1 {
        fill: #fff;
      }
    </style>
  </defs>
  <path class="cls-1" d="M48.37,17.57c.1-.24.1-.49,0-.72l-1.28-2.83h0c-.11-.24-.32-.43-.57-.55l-.07-.18c-1.86-4.83-5.56-8.4-11-10.61C30.63.72,26.08.51,24.6.5h0s-.05,0-.07,0c-.02,0-.05,0-.07,0h0c-1.48.01-6.03.22-10.85,2.18-5.44,2.21-9.14,5.78-11,10.61l-.07.18c-.26.12-.46.3-.57.55l-1.28,2.83c-.1.23-.1.48,0,.72.13.29.41.53.77.65-.09.63-.85,6.62,1.41,14.23v15.51c0,.85.7,1.55,1.55,1.55h3.1c.28,0,.54-.1.74-.27.2.17.46.27.74.27h2.76c1.04,0,1.89-.85,1.89-1.89v-21.39c0-1.04-.85-1.89-1.89-1.89h-2.72c-.3,0-.57.11-.79.29-.21-.18-.49-.29-.79-.29h-3.06c-.41,0-.78.16-1.05.42-.2-2.81-.05-5.06.03-5.98,0,0,.01,0,.02,0,.41,0,.79-.18.98-.49l1.61-2.64c.12-.19.16-.4.14-.62.12-.13.27-.29.47-.52,1.85-2.07,7.45-8.35,17.92-8.43,10.46.09,16.07,6.37,17.92,8.43.2.22.35.39.47.52-.02.22.02.43.14.62l1.61,2.64c.19.31.57.49.98.49,0,0,.01,0,.02,0,.08.92.23,3.17.03,5.98-.28-.26-.65-.42-1.05-.42h-3.06c-.3,0-.57.11-.79.29-.21-.18-.49-.29-.79-.29h-2.72c-1.04,0-1.89.85-1.89,1.89v21.39c0,1.04.85,1.89,1.89,1.89h2.76c.28,0,.54-.1.74-.27.2.17.46.27.74.27h3.1c.85,0,1.55-.7,1.55-1.55v-15.51c2.26-7.61,1.5-13.6,1.41-14.23.36-.12.64-.35.77-.65ZM4.76,37.49c.11.24.22.48.34.72.09.19.28.3.47.3.08,0,.15-.02.23-.05.26-.13.37-.44.24-.7-.11-.24-.22-.47-.33-.71.46.07.81.46.81.93,0,.52-.43.95-.95.95s-.95-.43-.95-.95c0-.18.05-.35.14-.49ZM3.91,35.49c.12.32.25.64.39.96-.15.12-.28.27-.39.43v-1.39ZM8.89,25.54c0-.09.07-.16.16-.16h2.72c.47,0,.84.38.84.84v21.39c0,.47-.38.84-.84.84h-2.76c-.06,0-.12-.05-.12-.12v-22.8ZM4.42,25.38h3.06c.09,0,.16.07.16.16v22.8c0,.06-.05.12-.12.12h-3.1c-.28,0-.51-.23-.51-.51v-8.86c.36.53.97.89,1.66.89,1.1,0,1.99-.89,1.99-1.99s-.89-1.99-1.99-1.99c-.11,0-.21.01-.31.03-.54-1.28-.98-2.54-1.34-3.76v-6.37c0-.28.23-.51.51-.51ZM3.52,17.71s-.13.03-.25,0l-1.49-.48s-.07-.03-.09-.04l1.24-2.72s.21-.11.42-.07c.69.57,1.22.85,1.61.97l-1.44,2.36ZM24.6,5.03h0s-.05,0-.07,0c-.02,0-.04,0-.06,0h0c-4.63.05-8.88,1.26-12.63,3.59-3.07,1.91-5.05,4.13-6,5.19-.1.11-.19.22-.28.31-.11-.07-.22-.13-.35-.18l-1.31-.49s-.02,0-.04-.01c-.04-.04-.09-.07-.13-.11,1.79-4.38,5.25-7.63,10.28-9.68,3.79-1.54,7.9-2.1,10.52-2.11,2.62,0,6.74.57,10.52,2.11,5.03,2.05,8.49,5.3,10.28,9.68-.04.04-.09.07-.13.11-.01,0-.02,0-.04.01l-1.31.49c-.13.05-.25.11-.35.18-.09-.1-.19-.21-.28-.31-1.92-2.15-7.74-8.67-18.63-8.78ZM44.1,15.35c.4-.12.92-.4,1.61-.97.22-.03.39.03.42.07l1.24,2.72s-.05.03-.09.04l-1.49.48c-.12.04-.21.02-.25,0l-1.44-2.36ZM40.18,48.34c0,.06-.05.12-.12.12h-2.76c-.47,0-.84-.38-.84-.84v-21.39c0-.47.38-.84.84-.84h2.72c.09,0,.16.07.16.16v22.8ZM44.64,48.46h-3.1c-.06,0-.12-.05-.12-.12v-22.8c0-.09.07-.16.16-.16h3.06c.28,0,.51.23.51.51v6.37c-.36,1.22-.81,2.48-1.34,3.76-.1-.02-.21-.03-.31-.03-1.1,0-1.99.89-1.99,1.99s.89,1.99,1.99,1.99c.69,0,1.3-.35,1.66-.89v8.86c0,.28-.23.51-.51.51ZM44.44,37.98c0,.52-.43.95-.95.95s-.95-.43-.95-.95c0-.48.35-.87.81-.93-.11.24-.22.47-.33.71-.13.26-.02.57.24.7.07.04.15.05.23.05.19,0,.38-.11.47-.3.12-.24.23-.48.34-.72.09.14.14.31.14.49ZM45.15,36.88c-.11-.16-.24-.31-.39-.43.14-.32.27-.64.39-.96v1.39Z"/>
</svg>