<?xml version="1.0" encoding="UTF-8"?>
<svg id="EDIT_ART" data-name="EDIT ART" xmlns="http://www.w3.org/2000/svg" viewBox="0 0 48.03 50">
  <defs>
    <style>
      .cls-1 {
        fill: #fff;
      }
    </style>
  </defs>
  <path class="cls-1" d="M27.63,12.25l-.02-.09c-.02-.09-.04-.24-.07-.4-.12-.76-.29-1.9-1.03-2.62-.26-.25-.63-.7-1.02-1.17-.82-.99-1.42-1.7-1.92-2.02-.98-2.42-1.63-2.54-3.3-2.29-.2.03-.42.06-.67.09-1.72.2-3.21,1.4-3.76,1.88-1.36.37-2.75.75-3.59.99-.06-.09-.13-.17-.21-.24-.79-.71-1.95-1.69-2.36-2.05l-.29-2.18h0s0-.02,0-.03c-.23-1.26-2.01-1.91-4.14-1.52-2.09.39-3.5,1.59-3.33,2.83h0s.12,2.34.12,2.34c-.47.7-1.17,1.76-1.27,2.03-.07.19-.11.4-.13.64h0s0,.02,0,.02c0,.1-.01.2,0,.31l-.25,10.38v.02c.02.48.25,2.15,2.47,3.5.79.48,1.25.76,1.51.91.05.03.1.06.16.09-.09.72.51,1.51,1.52,1.94.41.17.81.25,1.18.25.51,0,.95-.16,1.22-.46,2.41.86,6.07,1.87,10.5,2.1h.13s7.39-3.46,7.39-3.46l1.2-11.8ZM25.64,9.76s.09.1.14.14c.39.37.55,1.04.66,1.6l-1.52-.51-.45-1.35,1.18.12ZM23.3,7.09c.4.38.94,1.03,1.34,1.51l-.81-.08-.84-.88.32-.54ZM20.42,4.7c.95-.14,1.28-.19,1.72.64-.64-.24-1.41-.5-2-.6.1-.01.19-.03.28-.04ZM19.93,5.77c.55.09,1.61.45,2.45.79l-.3.51c-.07-.02-.15-.03-.23-.04l-2.57-.27.64-.99ZM12.54,8.49c.08-.3.1-.59.07-.87,1.94-.54,4.44-1.23,5.91-1.6l-.42.65c-.15.01-.29.05-.43.1l-5.18,1.92c.02-.07.04-.14.06-.2ZM13.13,9.57l4.9-1.81c.09-.03.2-.05.3-.04l3.42.36c.15.02.3.09.41.2l1.04,1.09c.07.07.12.16.15.25l.64,1.94c.03.09.04.17.03.26l-.38,4.28c-.01.14-.07.27-.16.38l-1.22,1.37c-.06.07-.13.12-.21.16-1.47.7-3.38,1.28-4.38.77-.21-.11-.48-.24-.78-.39-1.94-.97-5.44-2.72-7.31-4.07.7-.4,1.61-1.05,2.31-1.79,1.17-1.23,1.37-2.23,1.23-2.96ZM24.14,20.93c-1.38.81-4.19,2.24-5.12,2.24-.56,0-4.02-.61-7.76-1.57-6.52-1.68-7.11-2.67-7.16-2.78-.25-.58-.47-1.01-.64-1.36-.19-.38-.3-.61-.35-.79.42.19.83.34,1.16.41.26.05.62.1,1.03.1,1.11,0,2.6-.37,3.65-2.01,1.95,1.41,5.5,3.19,7.47,4.17.3.15.57.28.78.39.43.22.92.3,1.43.3,1.28,0,2.69-.53,3.55-.91l1.96,1.82ZM8.64,4.6c-.25.52-1.2,1.13-2.53,1.37-1.67.31-2.81-.14-3-.57l-.05.02-.03-.64c.49.23,1.12.36,1.83.36.38,0,.78-.04,1.2-.11,1.04-.19,1.91-.59,2.5-1.09l.09.66ZM5.43,1.65c.34-.06.66-.09.97-.09,1.06,0,1.86.34,1.94.76h0c.09.55-.97,1.39-2.48,1.67-1.52.28-2.81-.13-2.91-.67-.09-.49.81-1.36,2.48-1.67ZM1.67,8.48c.01-.11.03-.21.06-.29.07-.15.55-.91,1.03-1.63.54.37,1.33.58,2.26.58.4,0,.83-.04,1.27-.12,1.36-.25,2.47-.84,3.04-1.56.53.45,1.37,1.18,1.99,1.73.23.2.3.62.19,1.06-.13.5-.83,2.19-4.56,3.1-2.61.63-3.93-.11-4.58-.84-.49-.55-.69-1.2-.71-1.7v-.31ZM1.6,11.21c.98,1.09,2.33,1.4,3.55,1.4.78,0,1.5-.13,2.05-.26,2.86-.69,4.2-1.85,4.84-2.78.53,1.46-2.13,3.45-3.32,4.01-.24.11-.4.34-.44.61,0,.01,0,.02,0,.04-1,1.92-2.61,2.06-3.81,1.82-.71-.14-2.17-.94-2.95-1.39l.08-3.44ZM7.64,24.68c-.04.1-.53.25-1.22-.04-.69-.29-.92-.74-.88-.85h0s.11-.1.3-.12c.05,0,.1,0,.16,0,.24,0,.51.06.77.17.69.29.92.75.88.85ZM18.83,26.44c-4.3-.24-7.85-1.23-10.16-2.07-.13-.59-.68-1.17-1.5-1.52-.49-.21-1.02-.29-1.47-.23-.23.03-.43.1-.6.19-.11-.06-.49-.28-1.73-1.04-1.79-1.09-1.95-2.35-1.97-2.63l.08-3.3c.18.1.37.2.57.31-.13.59.11,1.08.46,1.77.17.34.38.75.61,1.3.16.38.66,1.53,7.87,3.39,3.46.89,7.22,1.61,8.02,1.61,1.32,0,4.36-1.63,5.7-2.42l.56,1.62-6.45,3.02ZM25.65,21.27l-.03-.09s.03-.03.05-.05v.14ZM25.89,18.91c-.2.41-.54,1-.88,1.39l-1.93-1.78,1.05-1.18,1.76,1.55v.03ZM24.65,16.39c.01-.06.03-.12.03-.19l.36-4.05,1.48.5-.5,4.95-1.37-1.21Z"/>
  <path class="cls-1" d="M47.42,30.76c0-.11,0-.21,0-.31v-.02s0,0,0,0c-.02-.23-.06-.45-.13-.64-.1-.27-.8-1.33-1.27-2.03l.12-2.34h0c.17-1.23-1.25-2.44-3.33-2.83-.94-.17-1.87-.14-2.62.09-.86.27-1.4.78-1.52,1.43,0,0,0,.02,0,.03h0s-.29,2.18-.29,2.18c-.41.35-1.57,1.34-2.36,2.05-.08.07-.15.15-.21.24-.84-.24-2.24-.62-3.59-.99-.55-.49-2.04-1.68-3.76-1.88-.25-.03-.47-.06-.67-.09-1.67-.25-2.32-.13-3.3,2.29-.5.32-1.11,1.03-1.92,2.02-.39.47-.76.92-1.02,1.17-.74.72-.92,1.86-1.03,2.62-.03.17-.05.31-.07.4l-.02.09,1.2,11.8,7.39,3.46h.13c4.43-.24,8.09-1.24,10.5-2.11.27.3.71.46,1.22.46.37,0,.77-.08,1.18-.25.49-.21.92-.52,1.19-.89.26-.34.37-.71.32-1.05.05-.03.11-.06.16-.09.26-.15.72-.43,1.51-.91,2.22-1.35,2.45-3.02,2.47-3.5v-.02s-.25-10.38-.25-10.38ZM39.69,24.32h0c.05-.25.35-.48.8-.62.33-.1.71-.15,1.13-.15.32,0,.65.03.99.09,1.52.28,2.58,1.13,2.48,1.67-.04.24-.34.47-.8.61-.58.18-1.35.2-2.11.06-.77-.14-1.48-.44-1.95-.81-.37-.29-.57-.61-.53-.85ZM39.48,25.92s.06.05.09.08c.61.48,1.47.84,2.41,1.02.4.07.8.11,1.18.11.52,0,1.01-.07,1.44-.2.15-.05.28-.1.41-.16l-.03.65-.05-.02c-.19.44-1.34.88-3,.57-1.34-.25-2.28-.86-2.53-1.37l.09-.67ZM36.71,29.16c.62-.55,1.45-1.27,1.99-1.73.57.73,1.68,1.31,3.04,1.56.44.08.87.12,1.27.12.92,0,1.72-.21,2.26-.58.48.72.97,1.48,1.03,1.62.03.09.05.19.07.31v.29c-.01.51-.21,1.16-.71,1.72-.65.73-1.97,1.47-4.58.84-3.74-.9-4.44-2.6-4.56-3.1-.11-.44-.04-.86.19-1.06ZM35.99,31.56c.63.93,1.98,2.09,4.84,2.78.55.13,1.27.26,2.05.26,1.22,0,2.57-.31,3.55-1.4l.08,3.44c-.79.46-2.25,1.25-2.95,1.39-1.2.24-2.81.1-3.81-1.82,0-.01,0-.02,0-.04-.03-.27-.19-.49-.44-.61-1.19-.56-3.85-2.55-3.32-4.01ZM44.92,38.66c-.05.17-.16.41-.35.79-.18.35-.39.78-.64,1.36-.05.11-.64,1.1-7.16,2.78-3.74.96-7.19,1.57-7.76,1.57-.93,0-3.74-1.43-5.12-2.24l1.96-1.82c.85.38,2.27.91,3.55.91.51,0,1.01-.09,1.43-.3.21-.11.47-.24.77-.39,1.97-.98,5.52-2.76,7.47-4.17,1.06,1.65,2.55,2.01,3.65,2.01.41,0,.77-.05,1.03-.1.32-.06.73-.22,1.16-.41ZM35.42,29.61c-.03.28,0,.57.07.87.01.06.03.12.06.2l-5.18-1.92c-.14-.05-.28-.08-.43-.1l-.42-.65c1.47.37,3.97,1.05,5.91,1.6ZM27.61,26.69c.09.01.18.03.28.04-.59.1-1.36.36-2.01.6.44-.83.77-.78,1.72-.64ZM28.1,27.76l.64.99-2.57.27c-.08,0-.15.02-.23.04l-.3-.51c.85-.34,1.91-.71,2.45-.79ZM25.87,30.28c.11-.11.25-.18.41-.2l3.42-.36s.05,0,.07,0c.08,0,.16.01.23.04l4.9,1.81c-.4,2.05,2.28,4.02,3.55,4.75-1.87,1.36-5.37,3.11-7.32,4.08-.3.15-.57.28-.78.39-.99.5-2.91-.07-4.38-.77-.08-.04-.15-.09-.21-.16l-1.22-1.37c-.09-.11-.15-.24-.16-.38l-.38-4.28c0-.09,0-.18.03-.26l.64-1.94c.03-.09.08-.18.15-.25l1.04-1.09ZM24.73,29.08l.32.54-.84.88-.81.08c.4-.49.94-1.13,1.34-1.51ZM22.26,31.89s.09-.09.14-.14l1.18-.12-.45,1.35-1.52.51c.1-.57.27-1.23.66-1.6ZM21.5,34.64l1.48-.5.36,4.05c0,.06.02.12.03.19l-1.37,1.21-.5-4.95ZM22.14,40.87l1.76-1.55,1.05,1.18-1.93,1.78c-.34-.38-.69-.98-.88-1.39v-.03ZM22.38,43.26v-.14s.02.03.03.05l-.03.09ZM42.37,46.08c-.16.21-.44.42-.76.55-.69.29-1.18.14-1.22.04-.04-.1.19-.56.88-.85.26-.11.53-.17.77-.17.05,0,.11,0,.16,0,.19.02.28.09.3.12h0s0,.15-.12.3ZM43.53,45.62c-.01-.08-.03-.17-.07-.25-.03-.08-.07-.14-.12-.21l.22-.13c.13.21.08.44-.03.59ZM44.66,43.77c-1.24.76-1.62.98-1.73,1.04-.17-.09-.37-.16-.6-.19-.45-.06-.97.02-1.47.23-.82.34-1.37.93-1.5,1.52-2.31.84-5.86,1.83-10.16,2.07l-6.45-3.02.56-1.62c1.34.79,4.38,2.42,5.7,2.42.8,0,4.56-.72,8.02-1.61,7.21-1.86,7.7-3.01,7.87-3.39.24-.55.45-.97.61-1.3.35-.7.59-1.18.46-1.77.2-.11.4-.21.57-.31l.08,3.3c-.01.28-.18,1.54-1.97,2.63Z"/>
</svg>