<?xml version="1.0" encoding="UTF-8"?>
<svg id="EDIT_ART" data-name="EDIT ART" xmlns="http://www.w3.org/2000/svg" viewBox="0 0 49.48 50">
  <defs>
    <style>
      .cls-1 {
        fill: #fff;
      }
    </style>
  </defs>
  <path class="cls-1" d="M43.08,7.74C36.39.96,26.57.52,24.82.5h0s-.05,0-.08,0c-.03,0-.06,0-.08,0h0c-1.75.02-11.56.46-18.25,7.24C2.37,11.83.38,17.37.46,24.22c0,.17-.02.93.51,1.48.24.26.69.56,1.46.54.41,0,.78,0,1.11.02.09,0,.17,0,.26,0l.36.48-1.52.41c-.42.11-.73.47-.77.89l-.1.92c-.41,4.02.33,8.07,2.14,11.72l3.96,7.96c.27.53.82.86,1.4.86.14,0,.28-.02.42-.06l1.8-.49s0,0,0,0l2.84-.77-.03-.1c.09,0,.18-.02.28-.04l2.11-.57c.79-.21,1.43-.71,1.82-1.41.37-.67.46-1.43.25-2.16l-4.98-16.97c-.45-1.53-2.1-2.42-3.68-1.99l-2.11.57c-.35.09-.63.31-.8.62-.17.3-.21.64-.11.97l.1.34-.87.24-.14-.48c-.12-.42-.51-.69-.94-.7l.04-.03-.25-.33c.29-.11.53-.3.67-.65l.04-.11v-.12c-.26-4.38,1.48-8.74,4.88-12.28,3.85-4,9.42-6.53,14.21-6.45h0c4.75-.03,10.25,2.49,14.06,6.45,3.4,3.54,5.14,7.9,4.89,12.28v.12s.04.11.04.11c.14.35.38.55.67.65l-.25.33.04.03c-.42.01-.81.28-.93.7l-.14.48-.87-.24.1-.34c.1-.33.06-.67-.11-.97-.17-.31-.46-.53-.8-.62l-2.11-.57c-1.58-.43-3.23.47-3.68,1.99l-4.98,16.97c-.21.73-.13,1.5.25,2.16.39.69,1.04,1.19,1.82,1.41l2.11.57c.09.02.18.04.28.04l-.03.1,2.84.77s0,0,0,0l1.8.49c.14.04.28.06.42.06.59,0,1.14-.32,1.4-.86l3.96-7.96c1.81-3.65,2.55-7.7,2.14-11.72l-.1-.92c-.04-.43-.35-.78-.77-.89l-1.52-.41.36-.48c.09,0,.17,0,.26,0,.33-.01.7-.03,1.11-.02.77.02,1.21-.28,1.46-.54.52-.55.52-1.31.51-1.48.09-6.85-1.91-12.39-5.94-16.47ZM8.09,26.65c.03-.06.09-.11.17-.13l2.11-.57c.18-.05.36-.07.53-.07.85,0,1.64.54,1.88,1.35l4.98,16.97c.13.46.08.94-.16,1.36-.25.45-.67.77-1.19.91l-2.11.57c-.15.04-.31-.04-.35-.17l-5.89-20.06c-.02-.07,0-.13.02-.17ZM7.45,28.45l5.58,19.02-.86.23-5.58-19.02.86-.23ZM11.13,47.98l-1.71.46c-.25.07-.51-.05-.62-.26l-3.96-7.96c-1.72-3.47-2.43-7.32-2.03-11.15l.1-.92,2.26-.61.12.41h-.04s5.87,20.03,5.87,20.03ZM33.07,46.48c-.52-.14-.94-.46-1.19-.91-.24-.42-.29-.9-.16-1.36l4.98-16.97c.24-.82,1.02-1.35,1.88-1.35.18,0,.36.02.53.07l2.11.57c.07.02.13.06.17.13.02.04.04.1.02.17l-5.89,20.06c-.04.13-.2.21-.35.17l-2.11-.57ZM42.03,28.45l.86.23-5.58,19.02-.86-.23,5.58-19.02ZM46.67,29.08c.39,3.82-.31,7.68-2.03,11.15l-3.96,7.96c-.11.21-.37.33-.62.26l-1.71-.46,5.87-20.02h-.04s.12-.42.12-.42l2.27.61.1.92ZM47.75,24.99c-.14.15-.37.22-.67.21-.45-.01-.84,0-1.18.02-.57.02-.96.03-1.09-.06.21-4.62-1.62-9.19-5.18-12.89-4.02-4.18-9.86-6.83-14.91-6.77-5.03-.05-10.85,2.6-14.86,6.77-3.56,3.7-5.4,8.27-5.18,12.89-.14.09-.52.08-1.09.06-.34-.01-.74-.03-1.18-.02-.31,0-.53-.06-.67-.21-.21-.22-.24-.6-.23-.72v-.02s0-.02,0-.02c-.09-6.57,1.81-11.87,5.64-15.75C12.51,3.04,20.69,1.56,24.74,1.54c4.05.02,12.23,1.5,17.6,6.93,3.83,3.88,5.73,9.18,5.64,15.75v.04c0,.13-.02.51-.23.72Z"/>
</svg>