<?xml version="1.0" encoding="UTF-8"?>
<svg id="EDIT_ART" data-name="EDIT ART" xmlns="http://www.w3.org/2000/svg" viewBox="0 0 50.23 50">
  <defs>
    <style>
      .cls-1 {
        fill: #fff;
      }
    </style>
  </defs>
  <path class="cls-1" d="M48.6,25.41l-.24-.1c-.49-.22-.9-.35-1.26-.41-.24-3.64-.98-5.8-1.44-6.82-.05-.11-.11-.2-.18-.29.22-.36.34-.75.34-1.12v-.31s-.62-1.22-.62-1.22c.16-.1.32-.2.46-.29.56-.37.99-.69,1.04-1.17.05-.45-.28-.79-.46-.98-.15-.15-.52-.77-.85-1.32-.87-1.44-1.52-2.5-2.09-2.88-.56-.38-.91-.73-1.4-1.21-.18-.18-.38-.38-.6-.59-.77-.74-1.05-.98-1.35-1.23l-.08-.07c-.26-.22-.53-.34-.87-.49-.2-.09-.43-.19-.72-.34-.3-.15-.55-.32-.8-.47-.39-.25-.76-.49-1.23-.63-.35-.11-.48-.18-.78-.33-.2-.1-.46-.24-.89-.44-.93-.43-1.03-.45-1.82-.52-.13-.01-.28-.02-.46-.04-.71-.07-.83-.13-1.16-.28-.18-.08-.42-.19-.82-.33l-.33-.12c-.89-.32-1.33-.48-2.55-.44-.51.02-.71-.06-.99-.17-.28-.11-.61-.24-1.22-.28h0c-.05,0-.1,0-.15,0-.05,0-.1,0-.15,0h0c-.6.04-.94.18-1.22.29-.28.11-.48.19-.99.17-1.21-.04-1.66.12-2.55.44l-.33.12c-.39.14-.64.25-.82.33-.33.15-.45.2-1.16.28-.18.02-.33.03-.46.04-.79.07-.89.09-1.82.52-.42.19-.69.34-.89.44-.3.15-.43.22-.78.33-.46.14-.83.38-1.23.63-.25.16-.5.32-.8.47-.29.15-.52.25-.72.34-.34.15-.61.27-.87.49l-.08.07c-.3.25-.58.49-1.35,1.23-.22.22-.42.41-.6.59-.48.49-.83.84-1.4,1.22-.57.38-1.22,1.43-2.09,2.88-.33.55-.7,1.17-.85,1.32-.18.18-.5.52-.46.98.05.48.48.8,1.04,1.17.14.1.3.19.46.29l-.62,1.22v.31c0,.38.12.77.34,1.12-.07.09-.13.18-.18.29-.46,1.02-1.19,3.18-1.44,6.82-.36.06-.77.19-1.25.41l-.24.1c-.44.2-.78.6-.99,1.16-.38,1.02-.25,2.39.07,3.08l3.07,6.37s.01.08.02.13c.05.3.19.55.4.75l3.12,6.48c.32.66,2.05,2.39,2.45,2.78,2.38,2.89,3.41,3.34,3.89,3.34.14,0,.23-.04.3-.07.09-.04.19-.08.3-.13,1.1-.47,1.89-.84,2-1.46.05-.27-.04-.53-.26-.73-.31-.29-1.24-1.62-1.82-2.5.2.04.4.06.6.06.43,0,.86-.09,1.27-.27l2.38-1.06c.76-.34,1.33-.94,1.61-1.71.27-.74.23-1.54-.11-2.25l-7.47-15.54c-.52-1.09-1.66-1.73-2.83-1.72.55-.49.93-1.13.84-1.84l-.22-1.89c-.03-.25-.11-.49-.22-.71,0,0,.01,0,.02,0,.56,0,.92-.22,1.23-.41.17-.1.35-.21.59-.31.76-.3,3.06-1.21,4.29-2.77,1.12-1.42,2.84-2.61,3.61-2.89.39-.14.91-.25,1.36-.35.7-.15,1.05-.23,1.27-.4.18-.14,1.11-.68,1.76-.86.57-.16.94-.12.94-.12v-.02s0,.03,0,.03c0,0,.37-.04.94.12.64.18,1.58.71,1.76.86.21.17.56.25,1.27.4.46.1.97.21,1.36.35.77.28,2.49,1.47,3.61,2.89,1.23,1.57,3.54,2.48,4.31,2.78.22.09.4.2.57.3.32.19.68.41,1.23.41,0,0,0,0,.01,0-.11.22-.19.46-.22.71l-.22,1.89c-.08.71.29,1.35.84,1.84-1.17-.01-2.31.62-2.83,1.72l-7.47,15.54c-.34.71-.38,1.51-.11,2.25.28.76.85,1.37,1.61,1.71l2.38,1.06c.41.18.85.27,1.27.27.2,0,.4-.02.6-.06-.58.89-1.51,2.21-1.82,2.5-.21.2-.3.46-.26.73.11.62.9.99,2,1.46.11.05.22.09.3.13.06.03.15.07.3.07.47,0,1.51-.45,3.89-3.34.4-.39,2.14-2.12,2.45-2.78l3.12-6.48c.21-.19.35-.45.4-.75,0-.04.01-.08.02-.13l3.07-6.37c.33-.68.45-2.05.07-3.08-.21-.56-.55-.96-.99-1.16ZM45.43,35.71l-.24.49s-.1.02-.16.02c-.25-.04-.47-.2-.49-.25,1.61-10.03.24-15.08-.54-16.96.26-.09.51-.23.74-.4.78,1.8,2.28,6.89.68,17.11ZM42.87,16.49h-.27c.07-.04.15-.07.22-.11l.05.11ZM42.25,17.52l1.04.03.07-.02c.29-.07.55-.34.66-.49l.19-.26-.44-.86c.18-.09.36-.18.53-.28l.48.95v.06c0,.2-.08.42-.21.63-.22-.02-.45,0-.66.1-.33.14-.64.4-.83.71l-.83-.02c-.14,0-.28.03-.39.12-.12.1-.21.24-.23.4l-.22,1.89c-.1.81,1.28,1.01,1.44,1.03l.19.02c.09.01.16.05.21.12.03.04.06.1.05.19-.02.15-.17.26-.35.24l-.19-.02c-.91-.11-2.05-.94-1.97-1.63l.22-1.89c.07-.59.61-1.02,1.23-1.01ZM42.93,19.14s0,.03.02.05c.14.32.32.77.49,1.36-.09-.03-.18-.05-.27-.06l-.19-.02c-.11-.01-.34-.08-.5-.14l.14-1.2h.31ZM43.92,22.76c.03.2.06.4.09.61l-.67-.3c.22-.06.42-.17.58-.32ZM7.42,16.38c.08.03.15.07.22.1h-.28s.05-.1.05-.1ZM6.47,15.93l-.44.86.19.26c.11.15.37.42.66.49l.07.02,1.04-.03s.03,0,.04,0c.6,0,1.12.44,1.19,1.01l.22,1.89c.08.69-1.06,1.51-1.97,1.63l-.19.02c-.17.02-.33-.09-.35-.24-.01-.08.02-.15.05-.19.05-.06.12-.11.21-.12l.19-.02c.16-.02,1.54-.22,1.44-1.03l-.22-1.89c-.02-.16-.1-.3-.23-.4-.1-.08-.23-.12-.36-.12-.01,0-.03,0-.04,0l-.83.02c-.19-.31-.49-.57-.83-.71-.22-.09-.44-.12-.66-.1-.14-.21-.21-.43-.21-.63v-.06l.48-.95c.17.09.35.19.53.28ZM7.61,19.13l.14,1.2c-.16.06-.39.12-.5.14l-.19.02c-.09.01-.19.03-.27.06.17-.59.35-1.04.49-1.36,0-.02.01-.03.02-.05h.31ZM6.31,22.76c.16.15.36.26.58.32l-.67.3c.03-.21.06-.42.09-.61ZM5.48,18.6c.23.18.48.31.74.4-.78,1.9-2.15,6.95-.54,16.94-.02.07-.24.23-.49.27-.06,0-.11,0-.16-.02l-.24-.49c-1.6-10.22-.1-15.31.68-17.11ZM1.66,29.19c-.21-.43-.32-1.49-.04-2.26.07-.2.21-.46.43-.56l.24-.1c.3-.13.55-.22.77-.28-.07,1.87,0,4.09.27,6.69l-1.67-3.48ZM13.85,48.33c-.09.04-.17.07-.24.1-.45-.15-1.81-1.47-3.04-2.97l-.04-.04c-.83-.82-2.08-2.14-2.26-2.51l-2.74-5.7c.4-.1.78-.34.99-.63.18-.24.25-.52.2-.79-.29-1.79-.48-3.41-.59-4.89l5.86,12.05c.11.23.25.44.41.63l.35.71c.21.43,1.7,2.64,2.37,3.41-.3.22-.98.5-1.27.62ZM11.52,24.31l7.47,15.54c.22.45.24.96.07,1.43-.18.49-.56.89-1.05,1.11l-2.38,1.06c-.82.36-1.77.16-2.35-.45l-7.29-14.77c-.03-1.35.01-2.54.1-3.57.11-.11.12-.12.3-.2l2.44-1.08c1.02-.45,2.23-.03,2.69.94ZM39.48,16.39c-.19-.11-.42-.26-.75-.39-.69-.27-2.79-1.1-3.85-2.45-1.25-1.59-3.17-2.89-4.08-3.22-.46-.17-1.01-.29-1.5-.39-.31-.07-.73-.16-.85-.21-.32-.25-1.35-.82-2.11-1.03-.58-.16-1.02-.17-1.23-.16-.21-.01-.65,0-1.23.16-.75.21-1.78.78-2.11,1.03-.12.06-.54.15-.85.21-.49.11-1.04.23-1.5.39-.9.33-2.82,1.64-4.07,3.22-1.06,1.34-3.16,2.17-3.87,2.46-.31.12-.54.26-.73.38-.29.18-.44.26-.69.26-.14,0-.19-.03-.42-.23-.24-.2-.56-.48-1.16-.72-.19-.08-.39-.16-.59-.25l.03-.07-2.03-.95c-.28-.16-.53-.32-.75-.46-.32-.21-.47-.33-.54-.4.03-.03.07-.08.13-.14.22-.23.51-.7.99-1.51.54-.9,1.36-2.27,1.77-2.54.65-.44,1.07-.86,1.55-1.35.18-.18.36-.37.58-.58.75-.72,1.01-.94,1.3-1.18l.08-.07c.15-.12.32-.2.61-.33.2-.09.46-.2.77-.36.35-.17.64-.36.9-.53.34-.22.64-.41.96-.51.45-.13.65-.24.97-.41.2-.1.44-.23.84-.41q.79-.37,1.47-.43c.13-.01.28-.03.47-.04.85-.08,1.08-.18,1.49-.36.17-.08.39-.17.74-.3l.33-.12c.83-.3,1.15-.41,2.16-.38.73.02,1.09-.12,1.41-.25.26-.1.49-.19.98-.21.49.02.72.11.98.21.32.13.68.27,1.41.25,1.01-.03,1.32.08,2.16.38l.33.12c.35.13.57.22.74.3.41.19.65.28,1.49.36.18.02.34.03.47.04q.68.06,1.47.43c.4.18.64.31.84.41.31.16.52.27.97.41.32.1.62.29.96.51.26.17.55.35.9.53.32.16.57.27.77.36.29.13.47.21.61.33l.08.07c.28.24.55.46,1.3,1.18.22.21.41.4.58.58.49.49.91.91,1.55,1.35.41.28,1.23,1.64,1.77,2.55.49.81.77,1.28.99,1.51.06.06.1.11.13.14-.07.07-.22.19-.54.4-.22.15-.47.3-.75.46l-2.03.95.03.07c-.2.09-.4.18-.59.25-.59.24-.92.52-1.16.72-.23.2-.28.23-.42.23-.25,0-.39-.08-.69-.26ZM34.6,43.44l-2.38-1.06c-.5-.22-.87-.61-1.05-1.11-.17-.47-.15-.98.07-1.43l7.47-15.54c.47-.97,1.68-1.39,2.69-.94l2.44,1.08c.18.08.19.09.3.2.09,1.04.13,2.22.1,3.57l-7.29,14.78c-.58.6-1.53.81-2.35.44ZM41.96,42.92c-.18.37-1.43,1.69-2.26,2.51l-.04.04c-1.23,1.5-2.59,2.82-3.04,2.97-.07-.03-.16-.07-.24-.1-.29-.12-.97-.41-1.27-.62.67-.77,2.16-2.99,2.37-3.41l.35-.71c.16-.19.3-.4.41-.63l5.86-12.05c-.12,1.47-.3,3.09-.59,4.89-.04.28.03.55.2.79.21.29.59.53.99.63l-2.74,5.7ZM48.57,29.19l-1.67,3.48c.28-2.6.34-4.81.27-6.69.22.06.48.15.77.28l.24.1c.22.1.35.36.43.56.28.77.17,1.83-.04,2.26Z"/>
</svg>