<?xml version="1.0" encoding="UTF-8"?>
<svg id="EDIT_ART" data-name="EDIT ART" xmlns="http://www.w3.org/2000/svg" viewBox="0 0 46.14 50">
  <defs>
    <style>
      .cls-1 {
        fill: #fff;
      }
    </style>
  </defs>
  <path class="cls-1" d="M.68,26.66c.01.09.04.19.08.3.2.47,3.46,7.65,5.24,11.28h-.07v9.41c0,1.02.83,1.86,1.86,1.86h2.5c.29,0,.55-.09.77-.24.2.15.44.24.71.24h2.68c1.02,0,1.86-.83,1.86-1.86v-20.76c0-1.02-.83-1.86-1.86-1.86h-2.64c-.25,0-.49.08-.68.21-.19-.13-.42-.21-.67-.21h-2.67c-1.02,0-1.86.83-1.86,1.86v1.04c-1.03-1.63-1.72-2.37-2.2-2.69.07-.21.06-.43-.03-.63-.18-.41-.34-.83-.49-1.28.28-.15.52-.38.69-.65.26-.43.35-.93.23-1.42-.06-.24-.16-.46-.3-.66.73-.08,1.34-.98,2.24-2.33.5-.75,1.07-1.59,1.72-2.37,2.56-3.06,8.61-6,15.24-5.7h0s0,0,.01,0c0,0,0,0,.01,0h0c6.63-.3,12.69,2.64,15.24,5.7.65.78,1.22,1.63,1.72,2.37.91,1.35,1.51,2.24,2.24,2.33-.14.2-.24.42-.3.66-.11.49-.03.99.23,1.42.17.28.41.5.69.65-.15.44-.31.87-.49,1.28-.09.2-.1.42-.03.63-.48.32-1.17,1.05-2.2,2.69v-1.04c0-1.02-.83-1.86-1.86-1.86h-2.67c-.25,0-.48.08-.67.21-.19-.13-.43-.21-.68-.21h-2.64c-1.02,0-1.86.83-1.86,1.86v20.76c0,1.02.83,1.86,1.86,1.86h2.68c.27,0,.51-.09.71-.24.22.15.48.24.77.24h2.5c1.02,0,1.86-.83,1.86-1.86v-9.41h-.07c1.78-3.63,5.05-10.81,5.24-11.28.04-.11.07-.21.08-.3.4-.03.57-.24.64-.42.22-.6-.4-1.07-1.84-2.1-.14-.1-.28-.2-.39-.28.03-.1.07-.2.1-.31.79-.06,1.49-.63,1.69-1.44.11-.49.03-.99-.23-1.42-.19-.3-.46-.54-.77-.69-.28-7.23-3.17-12.6-8.61-15.98C30.98.88,25.37.51,23.11.5h0s-.03,0-.04,0c-.01,0-.03,0-.04,0h0c-2.26,0-7.88.38-12.93,3.52C4.67,7.4,1.77,12.77,1.49,20c-.31.15-.58.39-.77.69-.26.43-.35.93-.23,1.42.19.82.89,1.38,1.69,1.44.03.1.06.21.1.31-.12.09-.25.18-.39.28-1.43,1.02-2.06,1.5-1.84,2.1.07.19.24.39.64.42ZM1.74,26.54s0,0,0,0c.23-.05.47-.12.69-.21l-.1.05c.22.46,5.51,11.26,6.2,12.39.23.38,0,.73-.21.87-.26.17-.37.03-.41-.03-.61-.83-5.75-12.02-6.18-13.06,0,0,0,0,0-.01ZM11.68,26.22c0-.07.06-.13.13-.13h2.64c.44,0,.79.36.79.79v20.76c0,.44-.36.79-.79.79h-2.68s-.09-.04-.09-.09v-22.13ZM7.79,26.09h2.67c.05,0,.1.04.1.1v21.98c0,.15-.12.27-.27.27h-2.5c-.44,0-.79-.36-.79-.79v-7.51s.05.08.07.1c.26.36.64.55,1.04.55.27,0,.55-.09.81-.26.67-.45,1.08-1.41.52-2.31-.27-.44-1.3-2.49-2.45-4.79v-6.53c0-.44.36-.79.79-.79ZM5.93,30.01v1.27c-.97-1.97-1.89-3.83-2.34-4.76.51.55,1.3,1.66,2.34,3.49ZM40.93,17.68c-.52-.77-1.1-1.64-1.79-2.46-2.72-3.26-9.11-6.39-16.07-6.08-6.97-.31-13.35,2.82-16.07,6.08-.68.82-1.27,1.69-1.79,2.46-.51.76-1.21,1.79-1.48,1.87-.33.03-.64-.07-.84-.15.67-4.67,4.35-7.5,7.36-9.06,3.64-1.89,8.43-3.02,12.83-3.03,4.4,0,9.19,1.14,12.83,3.03,3.01,1.57,6.68,4.4,7.36,9.06-.2.09-.5.18-.83.16-.28-.08-.98-1.11-1.49-1.87ZM42.55,26.52c-.45.93-1.37,2.78-2.34,4.76v-1.26c1.04-1.84,1.83-2.94,2.34-3.49ZM34.46,48.35s-.04.09-.09.09h-2.68c-.44,0-.79-.36-.79-.79v-20.76c0-.44.36-.79.79-.79h2.64c.07,0,.13.06.13.13v22.13ZM39.14,47.64c0,.44-.36.79-.79.79h-2.5c-.15,0-.27-.12-.27-.27v-21.98c0-.05.04-.1.1-.1h2.67c.44,0,.79.36.79.79v6.53c-1.15,2.3-2.18,4.35-2.45,4.79-.55.9-.14,1.86.52,2.31.26.18.54.26.81.26.4,0,.78-.19,1.04-.55.02-.03.04-.06.07-.1v7.51ZM44.39,26.55c-.43,1.04-5.57,12.23-6.18,13.06-.04.06-.15.2-.41.03-.21-.14-.44-.49-.21-.87.69-1.13,5.98-11.93,6.2-12.39l-.1-.05c.22.08.45.15.68.21,0,0,0,0,0,0,0,0,0,0,0,.01ZM43.91,25.2c-.07-.02-.15-.04-.22-.06-.12-.07-.2-.13-.24-.19.01-.02.02-.05.03-.07.06.04.11.08.17.12.08.05.17.12.27.19ZM44.61,21.87c-.05.21-.18.39-.36.5-.18.11-.4.15-.61.1h0c-.21-.05-.39-.18-.5-.36s-.15-.4-.1-.61c.05-.21.18-.39.36-.5.13-.08.28-.12.43-.12.06,0,.12,0,.19.02.21.05.39.18.5.36s.15.4.1.61ZM10.66,4.92c4.98-3.1,10.71-3.36,12.41-3.36,1.7,0,7.43.26,12.41,3.36,3.83,2.38,6.32,5.84,7.44,10.31-3.7-6.45-13.42-8.98-19.82-9h0s-.02,0-.02,0c-.02,0-.03,0-.05,0h0c-4.55.01-9.51,1.19-13.28,3.15-3.01,1.57-5.22,3.56-6.55,5.89,1.11-4.49,3.61-7.96,7.46-10.35ZM1.52,21.87c-.1-.44.17-.87.61-.98.06-.01.12-.02.19-.02.15,0,.3.04.43.12.18.11.31.29.36.5.05.21.01.43-.1.61s-.29.31-.5.36h0c-.44.1-.87-.17-.98-.61ZM2.5,25.01c.06-.04.12-.08.17-.12,0,.02.02.05.03.07-.04.05-.13.12-.24.19-.07.02-.15.04-.22.06.1-.07.19-.14.27-.19Z"/>
</svg>