<?xml version="1.0" encoding="UTF-8"?>
<svg id="EDIT_ART" data-name="EDIT ART" xmlns="http://www.w3.org/2000/svg" viewBox="0 0 50.98 50">
  <defs>
    <style>
      .cls-1 {
        fill: #fff;
      }
    </style>
  </defs>
  <path class="cls-1" d="M25.2,22.94c.24-.8.81-8.45.84-9.57.03-1.2-.65-6.33-4.24-7.72-2.31-.89-4.1-1.15-4.99-1.23-.16-.45-.37-.88-.62-1.29-.82-1.35-2.03-2.27-3.3-2.52-1.94-.38-3.17.29-4.01.85-1.07-.34-2.34-.19-3.41.39-.14-.04-.28-.08-.43-.11-.69-.13-2.16.06-3.3.9-.77.57-1.24,1.34-1.34,2.23-.3,2.51.89,4.52,2.82,4.77.17.02.33.03.49.04.74.83,1.67,1.57,3.16,1.78,1.19,1.74,2.48,2.44,4.5,2.47.02,0,.03,0,.05,0,.92,0,2-.39,2.89-1.05.16-.12.31-.24.45-.37l4.7.99c.15.03.26.15.29.3l1.41,9.15.04.08c.18.36.56.57.99.69v6.62h2.41v-6.76c.3-.16.5-.37.58-.64ZM3.36,8.55c-1.31-.17-2.09-1.67-1.87-3.55.07-.59.37-1.08.9-1.47.71-.52,1.67-.72,2.2-.72.1,0,.18,0,.24.02.94.18,1.84.73,1.4,3.45-.16.97-.74,2.56-2.87,2.28ZM7.04,10.37c-.83-.11-1.43-.42-1.96-.89,1.18-.41,1.99-1.47,2.24-3.03.13-.77.45-2.74-.68-3.9.67-.21,1.39-.22,1.99,0,.85.3,2.35,1.6,1.93,4.33-.44,2.88-2.17,3.68-3.53,3.5ZM11.4,12.83c-1.44-.02-2.34-.4-3.19-1.43,1.57-.34,3.03-1.69,3.44-4.37.4-2.57-.63-4.16-1.66-4.97.66-.36,1.48-.61,2.68-.38.98.19,1.92.93,2.58,2.02.87,1.42,1.11,3.22.65,4.81-1,3.45-3.38,4.33-4.51,4.31ZM23.52,29.24h-.21v-5.39c.07,0,.15,0,.21,0v5.4ZM24.94,13.35c-.03,1.27-.59,8.39-.78,9.24-.11.07-.47.18-1,.17-.49-.02-.82-.13-.93-.19l-1.38-8.92c-.09-.6-.55-1.08-1.15-1.21l-4.08-.86c.57-.77,1.03-1.69,1.33-2.74.31-1.07.36-2.19.16-3.26.9.11,2.42.4,4.28,1.11,2.75,1.06,3.56,5.32,3.53,6.67Z"/>
  <path class="cls-1" d="M50.58,24.03c-.1-.89-.57-1.66-1.34-2.23-1.13-.83-2.61-1.03-3.3-.9-.15.03-.3.07-.43.11-1.07-.58-2.34-.72-3.41-.39-.84-.56-2.06-1.23-4.01-.85-1.28.25-2.48,1.17-3.3,2.52-.25.41-.46.84-.62,1.29-.89.08-2.68.34-4.99,1.23-3.59,1.38-4.26,6.52-4.24,7.72.02,1.12.6,8.76.84,9.57.08.27.28.49.58.64v6.76h2.41v-6.62c.43-.12.81-.33.99-.69l.04-.08,1.41-9.15c.02-.15.14-.27.29-.3l4.71-.99c1.2,1.07,2.52,1.42,3.34,1.42.01,0,.03,0,.04,0,2.03-.03,3.31-.73,4.5-2.47,1.5-.21,2.42-.95,3.16-1.78.16,0,.33-.02.49-.04,1.93-.25,3.12-2.26,2.82-4.77ZM27.67,48.4h-.21v-5.4c.07,0,.14,0,.21,0v5.39ZM31.27,31.59c-.59.12-1.05.61-1.15,1.21l-1.38,8.91c-.12.08-.45.19-.93.2-.54.02-.9-.09-1-.17-.19-.84-.75-7.96-.78-9.24-.03-1.35.78-5.61,3.53-6.67,1.87-.72,3.38-1,4.28-1.11-.2,1.08-.15,2.2.16,3.26.33,1.14.8,2.04,1.33,2.74l-4.07.86ZM39.58,32s-.02,0-.03,0c-1.14,0-3.48-.9-4.47-4.31-.46-1.59-.22-3.39.65-4.81.66-1.09,1.6-1.82,2.58-2.02,1.2-.24,2.02.01,2.68.38-1.02.81-2.05,2.4-1.66,4.97.41,2.68,1.87,4.04,3.44,4.37-.85,1.03-1.75,1.4-3.19,1.43ZM43.94,29.53c-1.35.18-3.08-.63-3.53-3.5-.42-2.74,1.08-4.03,1.93-4.33.61-.22,1.32-.2,1.99,0-1.12,1.16-.8,3.13-.68,3.9.26,1.57,1.06,2.62,2.24,3.03-.54.47-1.13.78-1.96.89ZM47.61,27.71c-2.13.28-2.71-1.31-2.87-2.28-.44-2.73.46-3.27,1.4-3.45.42-.08,1.6.09,2.44.7.53.39.83.88.9,1.47.22,1.89-.57,3.38-1.87,3.55Z"/>
</svg>