<?xml version="1.0" encoding="UTF-8"?>
<svg id="EDIT_ART" data-name="EDIT ART" xmlns="http://www.w3.org/2000/svg" viewBox="0 0 49.49 50">
  <defs>
    <style>
      .cls-1 {
        fill: #fff;
      }
    </style>
  </defs>
  <path class="cls-1" d="M20.73,25.41c2.06,0,5.29-1.51,8.84-8.85,1.69-3.49,2.06-6.67,1.08-9.44-1.19-3.38-4.04-5.18-5.28-5.82-.59-.34-1.27-.56-2.04-.64C14.66-.3,10.59,3.53,8.86,5.17c-.63.59-.95,1.3-.95,2.09,0,1.14.67,2.42,2.03,3.89l-5.28,6.96c-.51.67-.6,1.52-.33,2.26-.16.19-.32.39-.49.59-.9,1.12-1.6,1.92-2.54,1.95-.44.02-.8.36-.83.8l-.1,1.28c-.02.24.06.49.23.67.16.18.4.28.64.28h0c2.51,0,3.99-1.86,4.98-3.1.12-.16.24-.3.36-.44.23.07.47.11.71.11.08,0,.17,0,.25-.01.64-.07,1.21-.38,1.61-.89l5.55-7.06c.34.15.67.29,1,.41,1.51.86,1.23,2.14.69,3.39-.05.11-.09.2-.12.28-.61,1.04-.76,2.08-.45,3.1.65,2.08,3,3.19,3.26,3.31.39.18.95.35,1.64.35ZM1.24,25.42v-.53s0,0,0,0v.53ZM5.39,22.2c-.88,1.1-2.06,2.59-3.94,2.69l.07-.92c1.29-.12,2.16-1.09,3.16-2.34.09-.12.19-.23.28-.34.02.02.05.04.07.06l.43.36.19.17c-.08.1-.17.21-.25.31ZM8.31,20.97c-.22.28-.53.45-.89.49-.35.04-.7-.07-.97-.3l-.3-.25-.65-.59c-.34-.45-.35-1.09,0-1.56l.25-.33,2.83,2.19-.28.36ZM9.25,19.78l-2.85-2.2,4.29-5.66s.08.08.12.12h0c.92.86,1.91,1.52,2.9,2.05l-4.47,5.69ZM16.15,14.01s-.05-.03-.07-.04h0c-1.52-.57-3.11-1.39-4.53-2.71-1.71-1.61-2.57-2.96-2.57-4,0-.5.2-.93.62-1.32,1.77-1.67,5.44-5.14,13.62-4.24.52.06.99.19,1.4.39h0c.07.04.15.08.23.12.58.34,1.04.84,1.39,1.5,1.87,3.58-.19,11.01-1.81,13.99-.08.14-.2.18-.27.19-.12.02-.24-.02-.32-.11-.1-.11-.22-.24-.36-.4-.56-.64-1.4-1.6-2.69-2.01-.44-.14-.94-.27-1.47-.41-.94-.25-2.02-.54-3.15-.96ZM16.84,21.43c-.23-.74-.11-1.49.38-2.29l.04-.07.02-.07s.05-.14.09-.22c.24-.56.82-1.9.33-3.16.47.13.91.25,1.33.36.52.14,1,.27,1.42.4,1.01.32,1.68,1.08,2.21,1.69.14.17.28.32.41.45.27.27.64.42,1.02.42.07,0,.14,0,.21-.01.45-.06.84-.33,1.05-.73,1.63-2.99,3.56-9.84,2.23-14,.82.83,1.6,1.9,2.08,3.26.88,2.5.53,5.4-1.03,8.63-1.01,2.08-4.31,8.27-7.84,8.27-.42,0-.84-.09-1.25-.28-.8-.36-2.27-1.33-2.68-2.66Z"/>
  <path class="cls-1" d="M49.01,47.27c-.04-.44-.39-.79-.83-.8-.94-.03-1.64-.83-2.54-1.95-.17-.21-.33-.4-.49-.59.28-.73.18-1.59-.33-2.26l-5.28-6.96c1.36-1.47,2.03-2.75,2.03-3.89,0-.79-.32-1.49-.95-2.09-1.74-1.64-5.8-5.48-14.47-4.52-.77.09-1.46.3-2.05.64-1.24.64-4.09,2.44-5.28,5.82-.98,2.77-.61,5.95,1.08,9.44,3.56,7.34,6.78,8.85,8.84,8.85.69,0,1.25-.17,1.64-.35.27-.12,2.62-1.23,3.26-3.31.32-1.01.17-2.06-.45-3.1-.03-.08-.07-.17-.12-.28-.54-1.25-.82-2.53.69-3.39.33-.13.67-.26,1-.41l5.55,7.06c.4.51.97.82,1.61.89.08,0,.17.01.25.01.24,0,.48-.04.71-.11.11.13.23.28.36.44.98,1.23,2.47,3.1,4.98,3.1h0c.24,0,.47-.1.64-.28.17-.18.25-.42.23-.67l-.1-1.28ZM32.65,44.98c-.41,1.33-1.88,2.29-2.68,2.66-3.98,1.79-7.96-5.67-9.09-7.99-1.57-3.23-1.91-6.13-1.03-8.63.48-1.36,1.26-2.43,2.08-3.26-1.34,4.16.6,11.01,2.23,14,.22.4.6.67,1.05.73.07.01.14.01.21.01.38,0,.74-.15,1.02-.42.13-.13.27-.29.41-.45.53-.61,1.2-1.37,2.21-1.69.41-.13.9-.26,1.42-.4.42-.11.87-.23,1.33-.36-.49,1.25.09,2.59.33,3.16.04.08.08.19.09.22l.02.07.04.07c.48.8.61,1.55.38,2.29ZM33.42,37.53h0s-.05.02-.07.03c-1.13.42-2.21.71-3.15.96-.53.14-1.03.27-1.46.41-1.3.41-2.14,1.37-2.69,2.01-.14.16-.26.3-.36.4-.09.09-.2.13-.32.11-.07,0-.2-.05-.27-.19-1.63-2.98-3.68-10.41-1.81-13.99.35-.66.81-1.16,1.39-1.5.09-.04.17-.08.23-.12h0c.41-.21.88-.33,1.4-.39.92-.1,1.78-.15,2.59-.15,6.4,0,9.47,2.9,11.04,4.39.41.39.62.82.62,1.32,0,1.04-.87,2.39-2.57,4-1.41,1.31-3.01,2.14-4.53,2.72ZM40.24,43.32l-4.47-5.69c.99-.53,1.98-1.19,2.9-2.05h0s.08-.08.12-.12l4.29,5.66-2.85,2.2ZM43.04,44.71c-.27.23-.62.33-.97.3-.35-.04-.67-.21-.89-.49l-.28-.36,2.83-2.19.25.33c.36.47.34,1.11,0,1.56l-.64.59-.3.25ZM44.09,45.73c-.08-.1-.16-.2-.24-.3l.19-.17.42-.36s.05-.04.07-.06c.09.11.18.23.28.34.99,1.25,1.87,2.22,3.16,2.34l.07.92c-1.88-.1-3.07-1.59-3.95-2.7Z"/>
</svg>