<?xml version="1.0" encoding="UTF-8"?>
<svg id="EDIT_ART" data-name="EDIT ART" xmlns="http://www.w3.org/2000/svg" viewBox="0 0 50.22 50">
  <defs>
    <style>
      .cls-1 {
        fill: #fff;
      }
    </style>
  </defs>
  <path class="cls-1" d="M24.36,18.87c1.41,0,2.56-1.15,2.56-2.56s-1.15-2.56-2.56-2.56-2.56,1.15-2.56,2.56,1.15,2.56,2.56,2.56ZM24.36,14.95c.75,0,1.36.61,1.36,1.36s-.61,1.36-1.36,1.36-1.36-.61-1.36-1.36.61-1.36,1.36-1.36Z"/>
  <path class="cls-1" d="M21.83,25.73c.79-.37,1.43-1.05,2.3-2.14,2.43-.54,4.4-2.38,4.92-4.77l-.11-.02s0,0,0,0l.11.02c.09-.41.13-.83.13-1.25,0-.07,0-.14,0-.22,0-.07,0-.15,0-.22h-.02c-.24-3.21-3.06-5.75-6.5-5.75-.57,0-1.13.07-1.68.21-.58.15-1.12.37-1.62.65-.78-.27-1.27-.24-1.9-.08l-3.78.95s-.02-.1-.03-.14l6.89-5.32.04-.05c.35-.42.28-1.08-.21-2l3.24-2.65-2.46-2.43-2.92,2.45c-.46-.35-.94-.57-1.38-.46l-.12.03-7.36,5.73c-.48-.48-1.25-.52-1.78-.09L1.86,12.94c-.45.38-.77.9-.89,1.47-.18.85-.38,2.01-.31,2.75.05.52.3.94.72,1.22.14.09.29.16.44.21-.12.43-.18.96,0,1.41.27.67,3.98,6.01,4.72,7.07l.05.07.07.05c.77.62,3.12,1.25,5.57,1.25,1.15,0,2.32-.14,3.36-.49,3.06-1.02,6.16-2.19,6.19-2.21l.04-.02ZM22.98,12.58c2.69.15,4.86,2.18,5,4.7-.09,2.56-2.24,4.62-4.88,4.62s-4.89-2.15-4.89-4.78,2.05-4.53,4.76-4.54ZM8.82,19.71c-.46,0-.88.15-1.22.41-.41-.64-.81-1.17-1.17-1.6l10.21-3.32c-.32.73-.5,1.53-.5,2.36,0,2.22,1.24,4.18,3.1,5.27l-3.68,1.21c-.63.21-1.29.28-1.96.22l-2.99-.27c-.21-.02-.4-.13-.53-.3-.06-.08-.12-.17-.19-.26.57-.36.95-.99.95-1.71,0-1.11-.91-2.02-2.02-2.02ZM9.64,21.73c0,.45-.37.82-.82.82s-.82-.37-.82-.82.37-.82.82-.82.82.37.82.82ZM17.75,13.31c.08-.02.16-.04.24-.05-.12.11-.23.23-.33.35l-12.16,3.96c-.18-.15-.34-.28-.5-.39.17-.08.34-.16.52-.21l7.23-2.4,5.01-1.26ZM21.1,2.12l.73.72-2.1,1.71c-.16-.22-.37-.5-.61-.77l1.98-1.66ZM17.21,3.68c.15.06.34.21.55.41l1.4,1.75c.25.41.43.78.45,1.01l-6.64,5.12-2.74-2.85,6.98-5.43ZM2.04,17.37c-.12-.08-.17-.18-.19-.33-.04-.45.06-1.33.29-2.39.07-.31.24-.59.48-.8l5.76-4.78s.05-.03.07-.03c.03,0,.06.01.08.04l3.91,4.08c.05.05.05.11.04.15,0,.04-.04.09-.1.11l-7.25,2.41c-.63.21-1.21.52-1.72.94l-.69.55c-.2.16-.48.19-.68.06ZM15.22,26.81c-2.92.97-6.9.04-7.74-.52-2.07-2.98-4.36-6.34-4.54-6.76-.09-.22.05-.72.2-1.08.11-.06.23-.12.33-.21l.43-.34c.73.29,1.9,1.56,2.89,3.17.02.04.05.08.08.12-.04.17-.07.34-.07.52,0,1.05.81,1.92,1.83,2.01.18.25.35.48.49.67.33.45.83.73,1.39.78l2.99.27c.18.02.37.02.55.02.64,0,1.28-.1,1.89-.3l5.01-1.65c.48.12.97.2,1.48.21-.39.42-.73.71-1.09.89-.29.11-3.23,1.21-6.12,2.18Z"/>
  <path class="cls-1" d="M25.86,34.81c-1.41,0-2.56,1.15-2.56,2.56s1.15,2.56,2.56,2.56,2.56-1.15,2.56-2.56-1.15-2.56-2.56-2.56ZM25.86,38.72c-.75,0-1.36-.61-1.36-1.36s.61-1.36,1.36-1.36,1.36.61,1.36,1.36-.61,1.36-1.36,1.36Z"/>
  <path class="cls-1" d="M49.25,35.46c-.12-.57-.44-1.09-.89-1.47l-5.76-4.78c-.52-.43-1.3-.39-1.78.09l-7.36-5.73-.12-.03c-.44-.11-.92.11-1.38.46l-2.92-2.45-2.46,2.43,3.24,2.65c-.49.92-.56,1.58-.21,2l.04.05,6.89,5.32s-.02.1-.03.14l-3.79-.95c-.62-.15-1.12-.18-1.9.09-.5-.28-1.04-.5-1.62-.65h0c-.54-.14-1.11-.21-1.68-.21-3.44,0-6.27,2.54-6.5,5.75h-.02c0,.07,0,.15,0,.22,0,.07,0,.14,0,.22,0,.42.04.84.13,1.25.52,2.39,2.49,4.23,4.92,4.77.87,1.09,1.51,1.77,2.3,2.14l.04.02s3.13,1.19,6.19,2.21c1.04.35,2.21.49,3.36.49,2.45,0,4.81-.64,5.57-1.25l.07-.05.05-.07c.74-1.06,4.45-6.4,4.72-7.07.18-.45.12-.98,0-1.41.15-.05.3-.12.44-.21.42-.28.67-.7.72-1.22.07-.74-.13-1.91-.31-2.75ZM28.39,23.9l.73-.72,1.98,1.66c-.24.27-.45.55-.61.77l-2.1-1.71ZM30.62,27.9c.02-.23.2-.6.45-1.01l1.4-1.75c.21-.2.4-.35.55-.41l6.98,5.43-2.74,2.85-6.64-5.12ZM32.46,34.37l5.02,1.26,7.23,2.4c.18.06.35.13.52.21-.16.11-.32.23-.5.39l-12.16-3.96c-.11-.12-.22-.24-.33-.35.07.01.15.03.23.05ZM41.4,40.77c-1.11,0-2.02.91-2.02,2.02,0,.72.38,1.35.95,1.71-.07.09-.13.18-.19.26-.13.17-.32.28-.53.3l-2.99.27c-.67.06-1.33-.02-1.96-.23l-3.68-1.21c1.86-1.09,3.1-3.04,3.1-5.27,0-.83-.18-1.63-.5-2.36l10.21,3.32c-.36.43-.76.95-1.17,1.6-.34-.26-.76-.41-1.22-.41ZM42.22,42.79c0,.45-.37.82-.82.82s-.82-.37-.82-.82.37-.82.82-.82.82.37.82.82ZM27.12,42.97c-2.64,0-4.79-2.06-4.88-4.62.15-2.53,2.31-4.56,5-4.7,2.72,0,4.76,1.96,4.76,4.54s-2.19,4.78-4.89,4.78ZM47.29,40.59c-.18.42-2.46,3.78-4.54,6.76-.84.56-4.83,1.49-7.74.52-2.9-.97-5.83-2.07-6.12-2.18-.36-.17-.7-.47-1.09-.89.51-.02,1.01-.09,1.48-.21l5.01,1.65c.62.2,1.25.31,1.89.31.18,0,.36,0,.55-.02l2.99-.27c.55-.05,1.06-.33,1.39-.78.14-.19.31-.42.49-.67,1.03-.1,1.83-.96,1.83-2.01,0-.18-.03-.35-.07-.52.03-.04.05-.08.08-.12,1-1.61,2.17-2.88,2.89-3.17l.43.34c.1.08.22.15.33.21.15.35.29.85.2,1.07ZM48.37,38.1c-.01.15-.07.25-.19.33-.2.13-.48.11-.68-.06l-.69-.55c-.52-.41-1.1-.73-1.72-.94l-7.25-2.41c-.07-.02-.09-.07-.1-.11,0-.04-.01-.1.04-.15l3.91-4.08h0s.11-.05.16,0l5.76,4.78c.25.2.42.49.48.8.23,1.06.34,1.93.29,2.39Z"/>
</svg>