<?xml version="1.0" encoding="UTF-8"?>
<svg id="EDIT_ART" data-name="EDIT ART" xmlns="http://www.w3.org/2000/svg" viewBox="0 0 49.95 50">
  <defs>
    <style>
      .cls-1 {
        fill: #fff;
      }
    </style>
  </defs>
  <path class="cls-1" d="M23.98,21.15c.09-.95.24-2.59.3-3.38.12-1.67.62-3.01,1.11-4.31.47-1.26.96-2.57,1.09-4.15.24-1,.32-2,.24-2.96-.17-2.09-1.1-3.74-2.61-4.63-.35-.21-.72-.37-1.1-.48-3.34-1.89-7.92-.05-10.45,4.2-.28.47-.53.96-.74,1.46h-.02c-.17.23-.29.44-.39.61-.16.27-.29.49-.56.78-.12-.25-.38-.66-.86-.73h0c-.58-.07-8.02,1.01-9.67,6.48l-.02.07v.08s.7,4.97,2.13,5.74h.03c.3.15,2.31.86,4.73.93.14,0,.28,0,.42,0,2.96,0,5.34-1.01,6.9-2.93l.08-.1.03-.12c.07-.35.09-.64-.06-1.03.11.03.25.07.4.12.04.03.08.06.13.08.78.46,1.65.68,2.55.68.48,0,.96-.06,1.45-.18l.39,3.77c.05.49.46.85.94.86v3.83c0,.58.47,1.06,1.06,1.06h.56c.58,0,1.06-.48,1.06-1.06v-3.86c.45-.05.81-.4.85-.85ZM13.47,5.98c1.29-2.18,3.16-3.65,5.06-4.2-1.75.85-3.32,2.35-4.45,4.25-1.13,1.9-1.69,4-1.6,5.94-.16-.37-.32-.73-.47-1.07.02-1.62.53-3.36,1.46-4.92ZM13.63,17.39c-3.54,4.17-10.34,1.75-10.7,1.61-.09-.06-.5-.43-1.04-2.35-.3-1.09-.48-2.12-.52-2.39,1.47-4.62,7.76-5.55,8.47-5.64.03.04.07.12.09.17l.02.05c.14.32,3.44,7.79,3.6,8.13.08.17.1.26.08.41ZM15.65,16c-.06-.04-.13-.08-.19-.12h0s-.02-.01-.03-.02c-1.08-.74-1.75-2.04-1.88-3.68-.15-1.81.36-3.81,1.44-5.62,1.08-1.81,2.58-3.22,4.24-3.96.8-.35,1.58-.53,2.31-.53s1.43.18,2.04.54c1.21.72,1.95,2.07,2.1,3.81.07.84,0,1.72-.21,2.6h-.01s0,.07,0,.1c-.24.99-.65,1.98-1.2,2.92-2.19,3.69-6.04,5.46-8.59,3.95ZM22.07,25.87h-.57v-3.85h.58s0,3.85,0,3.85ZM22.94,20.97l-2.4.02-.23-2.22,2.83.02c-.06.74-.14,1.59-.2,2.19ZM23.23,17.73l-3.03-.02-.07-.63c1.38-.55,2.74-1.54,3.87-2.88-.36,1.04-.67,2.16-.77,3.49,0,0,0,.02,0,.03Z"/>
  <path class="cls-1" d="M49.62,36.63c-1.65-5.47-9.09-6.55-9.67-6.48-.48.06-.74.48-.86.73-.27-.29-.4-.51-.56-.78-.1-.18-.22-.38-.39-.63h-.02c-.21-.49-.46-.97-.74-1.45-2.53-4.26-7.12-6.1-10.46-4.2-.38.11-.74.27-1.09.47-2.26,1.34-3.1,4.36-2.37,7.55.13,1.6.62,2.92,1.09,4.2.49,1.3.99,2.64,1.11,4.31.06.79.21,2.44.3,3.38.05.46.41.81.85.85v3.86c0,.58.47,1.06,1.06,1.06h.56c.58,0,1.06-.48,1.06-1.06v-3.83c.49,0,.89-.37.94-.86l.39-3.77c.49.12.98.18,1.45.18.91,0,1.78-.22,2.55-.68.04-.03.08-.05.13-.08.16-.05.29-.09.4-.12-.15.39-.13.68-.06,1.03l.03.12.08.1c1.88,2.3,4.52,2.93,6.85,2.93,2.8,0,5.16-.91,5.2-.93h.03c1.44-.78,2.13-5.7,2.13-5.75v-.08l-.02-.07ZM36.48,28.56c.93,1.56,1.44,3.31,1.46,4.92-.15.34-.31.7-.47,1.07.09-1.94-.47-4.04-1.6-5.94-1.17-1.98-2.79-3.45-4.5-4.27,1.92.53,3.81,2.02,5.11,4.21ZM28.44,48.45h-.57v-3.85h.58s0,3.85,0,3.85ZM29.41,43.56l-2.4-.02c-.06-.6-.14-1.45-.2-2.19l2.83-.02-.23,2.22ZM29.75,40.28l-3.03.02s0-.02,0-.03c-.1-1.34-.41-2.45-.77-3.49,1.13,1.34,2.48,2.33,3.87,2.88l-.07.63ZM34.52,38.44s-.02,0-.03,0h0c-.06.05-.12.09-.19.13-2.55,1.51-6.41-.26-8.59-3.95-.57-.96-.97-1.95-1.2-2.92,0-.03,0-.07,0-.1h-.01c-.64-2.74.02-5.3,1.89-6.41,2.55-1.51,6.41.26,8.59,3.95,1.08,1.81,1.59,3.81,1.44,5.62-.14,1.64-.8,2.93-1.88,3.68ZM48.06,39.23c-.53,1.92-.95,2.29-1.04,2.35-.36.14-7.16,2.56-10.7-1.61-.02-.14,0-.23.08-.41.16-.34,3.46-7.81,3.6-8.13l.02-.05c.02-.06.06-.13.09-.18.7.08,6.99,1.01,8.47,5.63-.04.3-.22,1.32-.52,2.4Z"/>
</svg>