<?xml version="1.0" encoding="UTF-8"?>
<svg id="EDIT_ART" data-name="EDIT ART" xmlns="http://www.w3.org/2000/svg" viewBox="0 0 51.17 50">
  <defs>
    <style>
      .cls-1 {
        fill: #fff;
      }
    </style>
  </defs>
  <path class="cls-1" d="M49.71,30.76v-.02s-.27-.24-.27-.24c-.09-.08-.17-.15-.25-.22l-1.09-1.02c-1.33-1.32-1.89-2.14-2.11-2.56-.27-.51-.78-.84-1.36-.92-.01-.55-.46-.99-1.01-.99h-.35v-3.48h.33c.57,0,1.03-.46,1.03-1.03v-1.07c0-.57-.46-1.03-1.03-1.03h-1.09c-.19-7.39-2.31-12.51-6.34-15.23-3.56-2.41-7.87-2.46-10.52-2.46h0s-.06,0-.08,0-.06,0-.08,0h0c-2.65,0-6.96.05-10.52,2.46-4.02,2.72-6.15,7.84-6.34,15.23h-1.09c-.57,0-1.03.46-1.03,1.03v1.07c0,.57.46,1.03,1.03,1.03h.33v3.48h-.35c-.55,0-1,.44-1.01.99-.58.08-1.09.42-1.36.92-.22.42-.77,1.24-2.11,2.56l-1.09,1.03c-.08.07-.16.14-.24.22l-.27.24v.02s-.76.72-.76.72c-.21.2-.22.53-.02.75.1.11.24.17.39.17.13,0,.26-.05.36-.14l.45-.42,2.72,7.26c.19,8.37,2.1,10.11,2.33,10.29l.14.11h.8c.21,0,.4-.06.56-.16.17.1.36.16.57.16h2.43c.96,0,1.75-.78,1.75-1.75v-19.28c0-.63-.34-1.18-.84-1.49.01-.07.02-.14.02-.21v-.97c0-.56-.45-1.01-1.01-1.01h-.01v-3.48c.56,0,1.02-.46,1.02-1.03v-1.07c0-.57-.46-1.03-1.03-1.03h-.78c1.23-1.51,3.78-4.58,5.08-5.56.59-.44,1.11-.89,1.61-1.32,1.96-1.68,3.66-3.14,8.18-3.01.04,0,.07,0,.11,0,.02,0,.04,0,.06,0,.02,0,.04,0,.06,0,.04,0,.07,0,.11,0,4.53-.13,6.22,1.33,8.18,3.01.5.43,1.02.88,1.61,1.32,1.3.98,3.86,4.05,5.08,5.56h-.78c-.57,0-1.03.46-1.03,1.03v1.07c0,.56.46,1.02,1.02,1.03v3.48h-.01c-.56,0-1.01.45-1.01,1.01v.97c0,.07,0,.14.02.21-.5.31-.84.86-.84,1.49v19.28c0,.96.78,1.75,1.75,1.75h2.43c.21,0,.4-.06.57-.16.17.1.36.16.56.16h.8l.14-.11c.23-.18,2.13-1.93,2.33-10.29l2.72-7.26.45.42c.1.1.23.14.36.14.14,0,.28-.06.39-.17.2-.21.19-.55-.02-.75l-.77-.72ZM43.58,26.73h-3.7v-.88h3.7v.88ZM15.58,3.83c3.33-2.25,7.49-2.28,10.01-2.28,2.52,0,6.68.02,10.01,2.28,3.17,2.14,5.07,5.97,5.68,11.39-2.21-5.34-7.46-9.76-15.69-9.4-8.23-.37-13.48,4.06-15.69,9.4.6-5.42,2.51-9.25,5.68-11.39ZM7.59,25.84h3.7v.88h-3.7v-.88ZM3.82,30h.01s0-.02,0-.02c1.34-1.32,1.97-2.22,2.27-2.78.09-.16.24-.28.43-.34,0,.08.02.16.05.24-.69.71-1.83,2.81-2,9l-1.89-5.04c.42-.38.79-.73,1.12-1.05ZM7.86,48.44h-.39c-.4-.5-1.84-2.87-1.84-10.73s1.45-9.62,1.78-9.93h.41s.07.04.07.09v20.53s-.02.05-.04.05ZM12.11,47.75c0,.38-.31.69-.69.69h-2.43s-.04-.02-.04-.04h0v-20.53h0s.04-.09.08-.09h2.39c.38,0,.69.31.69.69v19.28ZM8.95,24.79v-3.48h1.32v3.48h-1.32ZM11.29,20.25h-3.7v-1.01h1.04s0,.01,0,.02h1.06s0-.01,0-.02h1.6v1.01ZM36.18,11.78c-.56-.42-1.07-.86-1.56-1.28-2.06-1.77-4.01-3.44-9.04-3.26-5.04-.18-6.98,1.49-9.04,3.26-.49.42-1,.86-1.56,1.28-1.14.86-3.09,3.1-4.45,4.74,1.82-5.33,6.8-9.95,14.88-9.64.04,0,.07,0,.11,0,.02,0,.04,0,.06,0,.02,0,.04,0,.06,0,.04,0,.08,0,.11,0,8.08-.31,13.06,4.31,14.87,9.64-1.36-1.64-3.31-3.88-4.45-4.74ZM39.88,19.24h1.6s0,.01,0,.02h1.06s0-.01,0-.02h1.04v1.01h-3.7v-1.01ZM40.9,21.31h1.32v3.48h-1.32v-3.48ZM42.22,48.4s-.02.04-.04.04h-2.43c-.38,0-.69-.31-.69-.69v-19.28c0-.38.31-.69.69-.69h2.39s.08.04.08.08h0v20.53h0ZM43.7,48.44h-.39s-.04-.02-.04-.05v-20.53s.03-.09.07-.09h.41c.33.31,1.78,2.1,1.78,9.93s-1.44,10.2-1.84,10.73ZM48.47,31.05l-1.89,5.04c-.17-6.19-1.31-8.29-2-9,.03-.08.04-.16.05-.24.19.06.35.18.43.34.3.56.93,1.46,2.27,2.78,0,0,0,0,0,0h.02c.33.34.7.69,1.12,1.06Z"/>
</svg>