<?xml version="1.0" encoding="UTF-8"?>
<svg id="EDIT_ART" data-name="EDIT ART" xmlns="http://www.w3.org/2000/svg" viewBox="0 0 50.49 50">
  <defs>
    <style>
      .cls-1 {
        fill: #fff;
      }
    </style>
  </defs>
  <path class="cls-1" d="M48.65,28.48l-.8-.3.35-1.33c.1-.38-.11-.77-.46-.91,1.12-8.26-.21-14.63-3.96-18.93C39.96,2.63,33.93.5,25.34.5c-.06,0-.11,0-.17,0h0c-8.6,0-14.64,2.12-18.46,6.5-3.75,4.3-5.08,10.67-3.96,18.93-.35.14-.55.53-.46.91l.35,1.33-.8.3c-1.1.42-1.73,1.45-1.43,2.35l5.88,17.62c.13.38.41.69.79.87.26.12.56.19.87.19s.6-.06.9-.17l2.82-1.07c.36-.14.64-.37.82-.64,0,0,0,0,0,0,.15.07.32.11.49.11.14,0,.27-.02.4-.07l3.59-1.36c.97-.37,1.49-1.5,1.14-2.52l-5.73-17.15c-.17-.52-.53-.93-1.01-1.15-.45-.22-.96-.24-1.43-.06l-3.55,1.34c-.27.1-.49.3-.62.54,0,0-.01,0-.02,0,.05-.06.09-.13.13-.21l.07-.18c1.73-4.12,6.97-16.65,19.28-16.65,12.31,0,17.56,12.53,19.28,16.65l.07.18c.03.08.08.15.13.21,0,0-.01,0-.02,0-.14-.24-.35-.44-.62-.54l-3.55-1.34c-.47-.18-.98-.16-1.43.06-.48.23-.83.64-1.01,1.15l-5.73,17.15c-.34,1.02.17,2.15,1.14,2.52l3.59,1.36c.13.05.27.07.4.07.17,0,.33-.04.49-.11,0,0,0,0,0,0,.18.27.46.51.82.64l2.82,1.07c.3.11.6.17.9.17.31,0,.61-.06.87-.19.38-.18.67-.49.79-.87l5.88-17.62h0c.3-.9-.33-1.93-1.43-2.35ZM46.68,26.71l.43.13-.23.89-.43-.13.23-.89ZM7.5,7.7C11.13,3.55,16.94,1.54,25.25,1.56c8.31-.02,14.12,1.99,17.73,6.14,3.28,3.76,4.59,9.25,3.91,16.35-.83-4.19-3.34-8.39-7.05-11.72-4.19-3.76-9.48-5.97-14.53-6.07h0s-.04,0-.07,0c-.02,0-.04,0-.07,0h0c-5.05.1-10.34,2.31-14.53,6.07-3.71,3.33-6.22,7.53-7.05,11.72-.68-7.1.63-12.6,3.91-16.35ZM4.04,27.6l-.43.13-.23-.89.43-.13.23.89ZM11.29,47.28l-2.82,1.07c-.34.13-.69.13-.94.02-.13-.06-.21-.14-.24-.25L1.41,30.49c-.1-.3.2-.8.8-1.03l3.01-1.14c.06-.02.11-.03.15-.03.03,0,.05,0,.06,0l6.22,18.62s-.09.25-.36.36ZM6.78,27.76l3.55-1.34c.09-.03.18-.05.27-.05.11,0,.23.03.33.08.21.1.38.29.46.53l5.73,17.15c.16.49-.07,1.03-.52,1.2l-3.59,1.36s-.03,0-.06,0c-.02,0-.05-.03-.07-.08l-6.2-18.57c-.04-.11.01-.23.1-.27ZM25.32,9.21h0s-.04,0-.07,0c0,0,0,0,0,0s0,0,0,0c-.02,0-.05,0-.07,0h0c-12.79.06-18.25,12.68-20.11,17.12-.18-.21-.42-.54-.62-.88.5-4.34,3.01-8.83,6.91-12.32,4.02-3.61,9.08-5.72,13.9-5.8,4.82.08,9.88,2.19,13.9,5.8,3.9,3.5,6.41,7.98,6.91,12.32-.2.34-.44.67-.62.88-1.86-4.44-7.32-17.07-20.11-17.12ZM37.54,46.68s-.05,0-.06,0l-3.59-1.36c-.45-.17-.68-.71-.52-1.2l5.73-17.15c.08-.24.24-.43.46-.53.19-.09.41-.1.6-.03l3.55,1.34c.09.03.14.16.1.27l-6.2,18.57c-.02.05-.05.08-.07.08ZM49.08,30.49l-5.88,17.62c-.04.11-.12.19-.24.25-.25.12-.6.11-.94-.02l-2.82-1.07c-.27-.1-.38-.31-.36-.36l6.22-18.62s.11-.02.21.02l3.01,1.14c.6.23.91.72.8,1.03Z"/>
</svg>