<?xml version="1.0" encoding="UTF-8"?>
<svg id="EDIT_ART" data-name="EDIT ART" xmlns="http://www.w3.org/2000/svg" viewBox="0 0 49 50">
  <defs>
    <style>
      .cls-1 {
        fill: #fff;
      }
    </style>
  </defs>
  <path class="cls-1" d="M.73,24.97l.67,3.86.63-.23c.23,1.1.65,2.2,1.26,3.29.94,1.69,1.58,3.05,2.21,4.37.83,1.75,1.62,3.41,3,5.68,1.65,2.71,3.37,5.22,4.98,7.24.21.27.54.32.75.32.06,0,.11,0,.14,0h.08s2.54-1.17,2.54-1.17l.07-.08c.06-.06.11-.14.15-.22h0s.03-.09.03-.09c0,0,0,0,0,0l.03-.08c.56-.03,1.29-.25,2.13-.93,1.41-1.17.92-3.12.55-4.09-.04-.13-.12-.32-.27-.61-.15-.32-.88-1.83-3.77-6.83-2.52-4.37-3.66-5.98-4.05-6.49-.17-.25-.33-.45-.51-.55-.46-.38-1.34-.86-2.69-.62-.92.17-1.57.6-1.94.93-.31-.29-.79-.76-1.23-1.34l.37-.14-.49-2.78-.48.06.83-3.71,1.78-2.16.03-.08c2.88-7.57,9.52-12.47,16.94-12.51,7.42.04,14.06,4.94,16.94,12.51l.03.08,1.78,2.16.83,3.71-.48-.06-.49,2.78.37.14c-.44.58-.91,1.05-1.23,1.34-.38-.33-1.02-.77-1.94-.93-1.35-.25-2.24.24-2.7.62-.18.1-.34.3-.51.54-.39.51-1.52,2.12-4.05,6.49-2.89,5-3.62,6.5-3.77,6.83-.14.29-.22.48-.27.61-.37.97-.86,2.92.55,4.09.83.68,1.56.9,2.12.93l.03.08s0,0,0,0l.03.09h0c.04.08.09.16.15.22l.07.08,2.54,1.16h.08s.08.02.14.02c.21,0,.54-.05.75-.31,1.61-2.03,3.34-4.54,4.98-7.25,1.38-2.27,2.17-3.93,3-5.68.63-1.32,1.27-2.68,2.21-4.37.6-1.09,1.02-2.19,1.26-3.29l.63.23.67-3.86-1.25-.15-.94-4.73.76-.33-.05-.39C45.42,8.68,35.9.6,24.6.5h0s-.07,0-.1,0c-.03,0-.07,0-.1,0h0C13.09.6,3.58,8.68,2.22,19.38l-.05.39.76.33-.94,4.73-1.25.15ZM29.96,43.39c.14-.14.27-.33.42-.55.24-.35.56-.86.97-1.51.83-1.33,1.9-3.11,3.01-5.01,1.1-1.87,2.11-3.65,2.85-5,.69-1.26.99-1.85,1.11-2.17.29-.23.88-.54,1.81-.37.85.15,1.37.6,1.58.82-.02,1.03-.54,2.26-.57,2.34h0s-1.83,4.07-4.14,8.06c-1.96,3.38-3.69,5.5-4.62,6.64-.03.03-.05.06-.07.09-.17.07-.92.3-2.04-.62-.83-.69-.57-1.96-.3-2.72ZM44.78,31.38c-.95,1.72-1.61,3.1-2.24,4.43-.82,1.73-1.6,3.36-2.95,5.59-1.6,2.63-3.26,5.06-4.83,7.04l-1.81-.83c.07-.09.15-.19.24-.29.95-1.16,2.72-3.32,4.72-6.78,2.2-3.8,3.96-7.64,4.17-8.1.24-.34,1.78-2.58,2.85-4.56l1.03.37c-.2,1.04-.6,2.1-1.18,3.14ZM46.77,27.41l-2.46-.9.16-.92,2.57.3-.26,1.52ZM45.74,23.85h-.12l-.58.08-.69-3.09.73-.32.66,3.32ZM43.89,19.89l-1.5-1.82c-.51-1.32-1.13-2.56-1.84-3.72l2.83-1.96c1.15,2.05,1.94,4.31,2.3,6.72l-1.79.78ZM24.5,1.56c7.73.03,14.58,3.97,18.34,9.93l-2.87,1.98c-3.6-5.23-9.23-8.44-15.38-8.51h0s-.07,0-.1,0c-.03,0-.07,0-.1,0h0c-6.15.07-11.78,3.28-15.38,8.51l-2.87-1.98C9.92,5.53,16.77,1.59,24.5,1.56ZM5.61,12.4l2.83,1.96c-.71,1.15-1.33,2.4-1.84,3.72l-1.5,1.82-1.79-.78c.35-2.41,1.15-4.67,2.3-6.72ZM4.65,20.85l-.69,3.09-.51-.07h-.2s.66-3.33.66-3.33l.73.32ZM4.53,25.59l.16.92-2.46.9-.26-1.52,2.57-.3ZM14.23,48.43c-1.56-1.98-3.23-4.41-4.83-7.04-1.35-2.23-2.13-3.86-2.95-5.59-.63-1.33-1.29-2.71-2.24-4.43-.58-1.04-.97-2.1-1.18-3.14l1.03-.37c1.07,1.98,2.62,4.22,2.85,4.56.21.46,1.97,4.3,4.17,8.1,2,3.46,3.77,5.62,4.72,6.78.09.11.17.2.24.29l-1.81.83ZM8.87,28.78c.93-.17,1.52.14,1.81.37.12.32.42.91,1.11,2.17.74,1.35,1.75,3.13,2.85,5,1.11,1.9,2.18,3.68,3.01,5.01.4.65.73,1.15.97,1.51.15.22.28.41.42.55.27.77.53,2.04-.3,2.72-1.13.93-1.89.68-2.04.62-.02-.03-.05-.06-.07-.09-.93-1.14-2.66-3.26-4.62-6.64-2.3-3.98-4.12-8.01-4.14-8.05h0c-.03-.08-.55-1.32-.57-2.34.21-.22.73-.67,1.58-.82Z"/>
</svg>