<?xml version="1.0" encoding="UTF-8"?>
<svg id="EDIT_ART" data-name="EDIT ART" xmlns="http://www.w3.org/2000/svg" viewBox="0 0 54 50">
  <defs>
    <style>
      .cls-1 {
        fill: #fff;
      }
    </style>
  </defs>
  <path class="cls-1" d="M20.32,20.31v.75c0,.62.51,1.13,1.13,1.13h1.05c.62,0,1.13-.51,1.13-1.13v-.82c1.12-.2,1.68-.58,1.68-1.16,0,0,0,0,0,0h0v-7.49c0-1.31-.58-2.38-.89-2.95-.05-.09-.1-.19-.13-.26v-1.12c0-.73-.75-1.13-1.49-1.32,2.01-5.41,9.95-4.18,11.58-3.87l.23-1.21c-1.85-.36-10.93-1.74-13.08,4.96-1.01.07-2.23.53-2.23,1.45v1.12c-.03.06-.09.17-.13.26-.31.58-.89,1.65-.89,2.95v7.18c-.04.1-.07.2-.07.31,0,.65.69,1.05,2.11,1.22ZM21.56,20.95v-1.93s.03,0,.05,0h.3c.17,0,.33,0,.49.02v1.92h-.84ZM20.25,9.23c.18-.33.28-.52.28-.76v-1.1c.17-.13.7-.32,1.26-.33.56,0,1.09.2,1.26.33v1.1c0,.23.11.43.28.76.28.51.74,1.37.74,2.37v6.42c-.4-.11-.86-.17-1.3-.2-.09-.02-.17-.03-.26-.03h-.49c-.09,0-.17,0-.26,0s-.17,0-.26,0h-.05s-.01,0-.02,0c-.6.01-1.31.07-1.92.22v-6.41c0-1,.46-1.85.74-2.37Z"/>
  <path class="cls-1" d="M.75,29.97c1.34,3.15,5.53,4.53,8.24,4.53.48,0,.92-.04,1.28-.13.76-.07,1.31-.99,1.64-2.73h11.94c.99,0,1.8-.81,1.8-1.8v-7.65h-7.55v1.93c0,.11-.09.2-.2.2h-6.03c-.34-1.57-.87-2.4-1.59-2.47-1.09-.26-3-.3-4.88.19-1.61.42-3.73,1.37-4.65,3.52-.31.74-.45,2-.46,2.14v.06s0,.06,0,.06c.01.14.15,1.41.46,2.14ZM10.17,23.17c.11.18.29.56.44,1.23-.24.08-.47.22-.65.41-.16.16-.27.35-.35.56h-.06c.17-1.16.42-1.9.62-2.2ZM9.37,28.11c0-.54.02-1.04.05-1.5h.11l.1,2.83h-.23c-.03-.41-.04-.85-.04-1.33ZM9.8,30.67c.17.39.49.69.88.85-.17.85-.38,1.31-.51,1.52-.21-.31-.47-1.11-.64-2.37h.27ZM19.33,24.12v-.69h5.07v6.42c0,.31-.25.56-.56.56h-12.57c-.21,0-.38-.16-.39-.37l-.15-4.07c0-.11.03-.21.11-.28.07-.08.17-.12.28-.12h6.76c.79,0,1.44-.65,1.44-1.44ZM1.89,26.05c1.12-2.61,4.83-3.24,7.03-3.13-.18.41-.29.82-.35,1.05-.28,1.12-.44,2.59-.44,4.15s.15,3.03.44,4.15c.05.21.15.61.33,1-2.22-.04-5.89-1.15-7.01-3.77-.19-.45-.32-1.34-.36-1.72.04-.38.17-1.27.36-1.72Z"/>
  <path class="cls-1" d="M34.6,26.33c0-.92-1.22-1.37-2.23-1.45-.74-2.3-2.37-3.88-4.85-4.7l-.39,1.17c1.99.66,3.32,1.88,3.98,3.65-.78.2-1.49.63-1.49,1.33v1.12c-.03.06-.09.17-.13.26-.31.58-.89,1.65-.89,2.95v6.54h-.24v7.65c0,.99.81,1.8,1.8,1.8h11.94c.33,1.74.88,2.66,1.64,2.73.36.09.8.13,1.28.13,2.71,0,6.89-1.38,8.24-4.53.31-.74.45-2,.46-2.14v-.06s0-.06,0-.06c-.01-.14-.15-1.41-.46-2.14-1.66-3.89-7.37-4.23-9.53-3.71-.72.07-1.25.9-1.59,2.47h-6.03c-.11,0-.2-.09-.2-.2v-1.93h-.28v-6.54c0-1.31-.58-2.38-.89-2.95-.05-.09-.1-.19-.13-.26v-1.12ZM44.45,40.37h-.06c-.08-.2-.19-.39-.35-.56-.18-.19-.41-.33-.65-.41.16-.67.33-1.05.44-1.23.2.3.45,1.04.62,2.2ZM44.63,43.11c0,.47-.02.92-.04,1.33h-.23l.1-2.83h.11c.03.46.05.96.05,1.5ZM44.2,45.67h.27c-.17,1.26-.44,2.06-.64,2.37-.13-.2-.33-.66-.51-1.52.39-.16.71-.46.88-.85ZM52.11,41.05c.19.45.32,1.34.36,1.72-.04.38-.17,1.27-.36,1.72-1.12,2.62-4.79,3.72-7.01,3.77.17-.39.27-.79.33-1,.28-1.11.44-2.59.44-4.15s-.15-3.03-.44-4.15c-.06-.22-.16-.64-.35-1.05,2.2-.11,5.91.52,7.03,3.13ZM36.1,40.56h6.76c.11,0,.21.04.28.12.07.08.11.18.11.28l-.15,4.07c0,.21-.18.37-.39.37h-12.57c-.31,0-.56-.25-.56-.56v-6.42h5.07v.69c0,.79.65,1.44,1.44,1.44ZM29.83,37.19v-6.54c0-1,.46-1.85.74-2.37.18-.33.28-.52.28-.76v-1.1c.17-.13.7-.32,1.26-.33.56,0,1.09.2,1.26.33v1.1c0,.23.11.43.28.76.28.51.74,1.37.74,2.37v6.54h-4.56Z"/>
</svg>