<?xml version="1.0" encoding="UTF-8"?>
<svg id="EDIT_ART" data-name="EDIT ART" xmlns="http://www.w3.org/2000/svg" viewBox="0 0 50.23 50">
  <defs>
    <style>
      .cls-1 {
        fill: #fff;
      }
    </style>
  </defs>
  <path class="cls-1" d="M48.63,33.39h0c.11-1.03-.19-2.08-.85-2.92l-1.3-1.39s0-.01,0-.02c-.22-.45-.67-.81-1.23-1h-.02c.19-.11.34-.27.43-.47l.46-1.02c.2-.45.06-.97-.33-1.24v-.02c-1.73-1.12-1.81-3.03-1.8-4.29.31-.09.61-.21.88-.31.26-.1.5-.19.69-.24l-.04-.15h.35c-.2-6.76-2.73-12.16-7.29-15.64-3.49-2.66-8.21-4.16-13.03-4.17h0c-.13,0-.27,0-.4,0-4.82,0-9.56,1.51-13.05,4.17-4.56,3.48-7.08,8.89-7.29,15.63h.35s-.04.17-.04.17c.19.05.43.15.69.24.27.1.58.22.88.31,0,1.26-.07,3.17-1.82,4.29v.02c-.37.27-.52.79-.32,1.24l.47,1.02c.09.2.25.36.43.46h-.02c-.56.2-1.01.56-1.23,1.01,0,0,0,.01,0,.02l-1.27,1.36-.03.03c-.67.84-.96,1.88-.86,2.92h0s-1.15,3.61-1.15,3.61l3.3,9.81,2.67.56c.69,1.06,1.86,1.76,3.17,1.84l1.38.08c.25.13.55.2.88.2.24,0,.5-.04.76-.12l1.89-.78c.99-.33,1.8-.98,2.18-1.75.26-.53.3-1.07.12-1.57l-5.98-16.74c-.44-1.22-2.03-1.77-3.7-1.32.18-.28.22-.65.07-.98l-.46-1.02c-.07-.16-.19-.29-.33-.39.81-1.23.9-2.66.91-3.63.43,0,.81-.16,1.04-.57.08-.14.14-.34.3-.9,2.66-9.59,8.11-14.45,16.2-14.45,0,0,.01,0,.02,0h0s.03,0,.05,0c.02,0,.03,0,.05,0h0s.01,0,.02,0c8.09,0,13.54,4.86,16.2,14.45.16.56.21.76.3.9.24.41.61.56,1.04.57,0,.97.1,2.4.91,3.63-.14.1-.26.23-.33.39l-.46,1.02c-.15.33-.11.69.07.98-1.67-.45-3.26.1-3.7,1.32l-5.98,16.74c-.18.5-.14,1.04.12,1.57.38.77,1.19,1.42,2.18,1.75l1.85.76h.04c.26.1.51.14.76.14.32,0,.62-.07.87-.2l1.38-.08c1.32-.08,2.48-.77,3.17-1.84l2.67-.56,3.3-9.81-1.15-3.61ZM44.41,25.76l.73.41-.41.9-.73-.41.41-.9ZM6.21,25.76l.41.9-.73.41-.41-.9.73-.41ZM4.96,45.91l-3-8.92.57-1.78,3.76,10.98-1.32-.28ZM10.06,48.17c-1.24-.08-2.29-.88-2.69-2.04l-4.17-12.18c-.33-.96-.15-2.01.48-2.81l.59-.64,6.32,17.69-.53-.03ZM7.63,28.28c1.16-.37,2.35-.09,2.6.62l5.98,16.74c.1.29.02.57-.08.76-.26.52-.85.98-1.58,1.22l-1.89.77c-.49.15-.89.01-.95-.15l-6.63-18.55s0-.04,0-.06h.01s-.01-.02-.01-.02c0-.03.01-.05.03-.09.07-.15.28-.36.63-.47l1.89-.77ZM42.8,20.12c-.03-.07-.12-.38-.2-.67-.45-1.63-1.51-5.44-4.08-8.83-3.21-4.24-7.63-6.39-13.13-6.39-.02,0-.05,0-.07,0-.02,0-.05,0-.07,0-5.51,0-9.92,2.15-13.13,6.39-2.57,3.4-3.63,7.21-4.08,8.83-.08.29-.17.6-.19.66-.09.15-.66.02-1.69-.37-.1-.04-.19-.07-.29-.11.34-6.17,2.64-10.92,6.85-14.12,3.36-2.56,7.93-4,12.6-3.96,4.67-.04,9.26,1.39,12.62,3.96,4.21,3.21,6.51,7.96,6.85,14.12-.09.03-.19.07-.29.11-1.04.39-1.61.52-1.69.38ZM38.92,48.24c-.06.16-.46.3-.95.15l-1.85-.76h-.04c-.74-.25-1.33-.71-1.58-1.23-.09-.19-.18-.47-.08-.76l5.98-16.74c.25-.71,1.44-.99,2.6-.62l1.85.76h.04c.35.13.56.33.63.48.02.03.02.06.03.09h-.01s.01.02.01.02c0,.02,0,.04,0,.06l-6.63,18.55ZM43.26,46.13c-.4,1.16-1.45,1.96-2.69,2.04l-.53.03,6.32-17.69.59.64c.63.8.8,1.85.48,2.81l-4.17,12.18ZM45.67,45.91l-1.32.28,3.76-10.98.57,1.78-3,8.92Z"/>
</svg>