<?xml version="1.0" encoding="UTF-8"?>
<svg id="EDIT_ART" data-name="EDIT ART" xmlns="http://www.w3.org/2000/svg" viewBox="0 0 48.6 50">
  <defs>
    <style>
      .cls-1 {
        fill: #fff;
      }
    </style>
  </defs>
  <path class="cls-1" d="M29.54,17.92c0-4.79-3.9-8.68-8.68-8.68-3.43,0-6.53,2.03-7.92,5.11-1.49-1.2-3.02-1.73-4.26-1.34l-.34.15c.33-1.22,1.37-5.77,1.41-5.96l-.07-.02s.02-.05.03-.08c.09-.32.03-.8-.68-1.34.11-.65.29-1.78.54-3.37.07-.43-.05-.87-.32-1.21-.27-.34-.67-.56-1.11-.59l-1.15-.09c-.81-.06-1.53.49-1.67,1.3-.21,1.2-.37,2.14-.48,2.75-.9.07-1.21.45-1.31.78-.01.05-.02.11-.03.17-.98,3.12-2.46,7.77-2.59,8.09-.12.27-1.16,2.67.04,5.5-.51,1.76-.44,3.99.32,6.22.7,2.03,1.86,3.78,3.27,4.92.7.56,1.42.94,2.14,1.14.55.34,1.3.48,2.13.48,2.53,0,5.79-1.21,6.25-1.38.97-.33,1.76-1.17,2.3-2.42.26-.6.44-1.27.55-1.97.95.34,1.94.52,2.96.52,4.79,0,8.68-3.9,8.68-8.68ZM6.35,1.98c.04-.25.26-.43.51-.43.01,0,.03,0,.04,0l1.15.09c.15.01.27.08.36.19.09.11.13.25.11.4-.33,2.17-.57,3.62-.63,3.87-.02.07-.34.21-1.22.01-.72-.17-.95-.51-.94-.58.06-.3.42-2.35.62-3.55ZM4.68,5.64s0,.04,0,.06c-.02-.02-.04-.04-.06-.05.01,0,.03,0,.05-.01ZM1.86,14.04c.15-.32,1.65-5.06,2.37-7.35.03.02.05.04.08.06.49.34,1.16.64,1.91.85.66.19,1.32.29,1.87.29.07,0,.13,0,.2,0,.08,0,.15-.01.22-.02-.34,1.47-.99,4.28-1.21,5.08-.27.99.3,1.48.76,1.73-.69.37-1.9.88-2.35.97v.06c-.68-.15-1.36-.12-2.02.1-.89.3-1.61.94-2.13,1.81-.43-1.97.25-3.5.29-3.58ZM8.67,30.34c-1.05.36-2.28.03-3.47-.93-1.26-1.01-2.3-2.59-2.94-4.44-1.28-3.73-.48-7.4,1.78-8.17.28-.1.58-.14.88-.14,2.08,0,4.42,2.25,5.53,5.52,1.28,3.73.48,7.4-1.78,8.17ZM16.38,27.63c-.29.68-.81,1.55-1.69,1.85-1.22.46-2.97.98-4.52,1.2,1.92-1.6,2.51-5.22,1.27-8.85-.89-2.6-2.52-4.62-4.29-5.59.95-.38,2.14-.94,2.31-1.43.07-.2.03-.42-.1-.58-.08-.1-.19-.17-.3-.24,2.17-.59,5.36,2.75,7.01,6.3,1.07,2.3,1.19,5.24.3,7.33ZM18.01,24.99c.08-1.73-.24-3.58-.97-5.14-.84-1.79-1.9-3.34-3.03-4.52.23-.07.47-.12.72-.15,1.27-.14,2.53.34,3.55,1.33,1.05,1.02,1.72,2.46,1.89,4.05.19,1.75-.28,3.49-1.26,4.73-.31-.08-.61-.18-.9-.3ZM21.22,20.45c-.2-1.84-.98-3.5-2.21-4.69-1.25-1.22-2.82-1.79-4.4-1.62-.14.02-.28.04-.42.06,1.33-2.38,3.87-3.91,6.66-3.91,4.21,0,7.63,3.42,7.63,7.63s-3.42,7.63-7.63,7.63c-.27,0-.54-.01-.8-.04.94-1.41,1.36-3.2,1.16-5.05Z"/>
  <path class="cls-1" d="M47.7,31.25c-.14-.33-1.62-4.98-2.6-8.1,0-.05-.01-.11-.03-.16-.09-.33-.4-.71-1.31-.78-.11-.61-.27-1.55-.48-2.75-.14-.8-.86-1.36-1.67-1.3l-1.15.09c-.43.03-.84.25-1.11.59-.27.34-.39.78-.32,1.21.24,1.59.42,2.72.54,3.37-.71.53-.77,1.01-.68,1.34,0,.03.02.05.03.07l-.08.02c.04.2,1.08,4.73,1.41,5.96l-.29-.13-.05-.02c-1.25-.4-2.78.14-4.26,1.34-1.39-3.08-4.49-5.11-7.92-5.11-4.79,0-8.68,3.9-8.68,8.68s3.9,8.68,8.68,8.68c1.02,0,2.01-.18,2.96-.52.11.7.29,1.36.55,1.97.53,1.25,1.33,2.09,2.28,2.42.48.18,3.74,1.39,6.27,1.39.85,0,1.62-.14,2.17-.5,2.17-.64,4.3-2.92,5.37-6.04.76-2.24.83-4.46.32-6.22,1.2-2.83.16-5.23.04-5.49ZM43.92,23.29s.04,0,.05.01c-.02.02-.04.04-.06.05,0-.02,0-.04,0-.06ZM40.19,19.49c.09-.11.22-.18.36-.19l1.15-.09c.27-.02.5.16.55.43.25,1.46.57,3.27.62,3.55,0,.08-.22.42-.94.59-.87.2-1.2.06-1.22-.01-.03-.12-.15-.73-.63-3.87-.02-.14.02-.28.11-.4ZM27.74,43.19c-4.21,0-7.63-3.42-7.63-7.63s3.42-7.63,7.63-7.63c2.79,0,5.33,1.53,6.66,3.91-.14-.03-.28-.05-.42-.06-1.58-.17-3.15.41-4.4,1.62-1.23,1.19-2.01,2.86-2.21,4.69-.2,1.85.22,3.64,1.16,5.05-.26.03-.53.04-.8.04ZM30.59,42.64c-.3.12-.6.22-.9.3-.98-1.23-1.45-2.98-1.26-4.73.17-1.59.84-3.03,1.89-4.05,1.02-.99,2.29-1.46,3.55-1.33.24.03.48.08.72.15-1.13,1.18-2.2,2.73-3.03,4.52-.73,1.56-1.06,3.41-.97,5.14ZM33.89,47.12c-.86-.29-1.38-1.16-1.67-1.84-.89-2.09-.77-5.04.3-7.34,1.65-3.55,4.85-6.9,7.01-6.3-.11.06-.21.14-.3.24-.13.16-.17.38-.1.58.17.48,1.36,1.05,2.31,1.43-1.77.97-3.4,2.99-4.29,5.59-1.24,3.63-.65,7.25,1.27,8.85-1.55-.23-3.31-.74-4.54-1.21ZM46.34,42.62c-1.28,3.73-4.15,6.14-6.41,5.37-2.26-.77-3.05-4.44-1.78-8.17,1.12-3.26,3.45-5.52,5.53-5.52.3,0,.59.05.88.14,2.26.77,3.05,4.44,1.78,8.17ZM47.03,35.26c-.52-.87-1.24-1.5-2.13-1.81-.65-.22-1.34-.25-2.03-.1v-.06c-.44-.1-1.65-.61-2.33-.97.45-.25,1.03-.73.76-1.73-.22-.8-.87-3.62-1.21-5.08.14.02.28.03.43.03.57,0,1.23-.11,1.86-.29.75-.22,1.48-.53,1.99-.92.72,2.29,2.22,7.04,2.37,7.35.04.08.72,1.61.29,3.58Z"/>
</svg>