<?xml version="1.0" encoding="UTF-8"?>
<svg id="EDIT_ART" data-name="EDIT ART" xmlns="http://www.w3.org/2000/svg" viewBox="0 0 53.41 50">
  <defs>
    <style>
      .cls-1 {
        fill: #fff;
      }
    </style>
  </defs>
  <path class="cls-1" d="M41.07.6c-6.87-.93-11.31,4.65-13.45,7.32-.27.34-.51.63-.7.85-.32.37-.56.74-.73,1.12l-.03-.02-1.7,3.46-1.85,3.75-.02.04c-.17.44-.6,1.52.25,2.98-.92.95-.9,2.57.09,4.44,1.03,1.94,2.2,2.33,3.23,2.68l.18.06c.24.08.48.12.72.12.5,0,.99-.17,1.4-.49l2.12-1.74c.94.34,2.04.7,3.35,1.11,3.12.97,5.86,1.46,8.13,1.46,3.53,0,5.95-1.16,6.94-3.43l3.21-7.01c.39-.65.63-1.41.71-2.27.44-4.45-4.16-13.4-11.87-14.44ZM27.78,26.04c-.3.24-.7.31-1.05.18l-.19-.06c-.95-.32-1.78-.6-2.59-2.14-.27-.51-1-2.07-.4-2.97.29.33.64.67,1.08,1.03l.18.15c.79.65,1.65,1.37,4.58,2.5l-1.6,1.31ZM47.99,23.87c-2.01,4.61-11,2.2-13.71,1.36-6.59-2.06-7.74-3.02-8.76-3.87l-.19-.15c-1.6-1.31-2.14-2.47-1.69-3.64l1.32-2.69c.47,1,1.22,1.86,1.77,2.31l.18.15c1.1.91,2.35,1.95,9.15,4.07,3.07.96,5.8,1.43,8.09,1.43,1.92,0,3.53-.34,4.76-1l-.93,2.02ZM36.4,20.33c-6.59-2.06-7.74-3.02-8.76-3.87l-.19-.15c-.61-.5-1.6-1.71-1.77-2.89l.5-1.02c.43,1.01,1.3,1.79,1.99,2.33l.18.14c1.09.87,2.34,1.85,9.11,3.87,2.09.62,5.21,1.37,8.12,1.37,1.63,0,3.2-.24,4.48-.86-1.83,3.37-8.2,2.8-13.66,1.09ZM51.82,14.94c-.04.37-.11.71-.21,1.02l-.37.81c-.28.45-.64.83-1.11,1.15-2.24,1.51-6.74,1.41-12.34-.25-6.56-1.96-7.72-2.87-8.73-3.67l-.19-.15c-.42-.33-1.7-1.33-1.82-2.5-.06-.6.18-1.19.73-1.82.21-.24.45-.54.73-.89,1.86-2.33,5.58-7,11.08-7,.43,0,.88.03,1.34.09,6.96.94,11.29,9.25,10.9,13.22Z"/>
  <path class="cls-1" d="M30.81,38.87l-1.87-3.79-.09.05h0l.09-.05-1.7-3.46-.03.02c-.17-.38-.41-.75-.73-1.12-.19-.22-.42-.51-.69-.85-2.14-2.68-6.58-8.25-13.45-7.33C4.63,23.39.03,32.34.47,36.79c.09.86.32,1.62.71,2.27l3.2,7c.99,2.28,3.41,3.44,6.95,3.44,2.28,0,5.02-.48,8.13-1.46,1.31-.41,2.41-.78,3.35-1.11l2.13,1.74c.4.32.89.48,1.39.48.24,0,.49-.04.72-.12l.19-.06c1.03-.35,2.2-.74,3.23-2.68.99-1.87,1.01-3.48.1-4.43.46-.82.7-1.83.25-2.99ZM2.17,38.51l-.37-.81c-.1-.32-.18-.65-.21-1.02-.39-3.97,3.94-12.27,10.9-13.22.46-.06.9-.09,1.34-.09,5.49,0,9.22,4.67,11.08,7,.28.35.52.65.73.89h0c.55.63.78,1.22.73,1.82-.11,1.17-1.39,2.17-1.82,2.5l-.19.15c-1.02.8-2.17,1.71-8.73,3.67-5.6,1.67-10.1,1.76-12.34.25-.47-.31-.84-.7-1.11-1.15ZM3.35,40.99c1.28.63,2.84.86,4.48.86,2.91,0,6.03-.75,8.12-1.37,6.77-2.02,8.01-3,9.11-3.87l.18-.14c.69-.54,1.56-1.32,1.99-2.33l.5,1.02c-.17,1.18-1.16,2.39-1.77,2.89l-.19.15c-1.02.85-2.17,1.8-8.76,3.87-5.46,1.71-11.83,2.28-13.66-1.09ZM19.13,46.97c-3.32,1.04-6.31,1.51-8.66,1.37-2.63-.16-4.33-1.08-5.05-2.73l-.92-2.01c1.23.66,2.84,1,4.76,1,2.29,0,5.02-.47,8.09-1.43,6.8-2.13,8.05-3.16,9.15-4.07l.18-.15c.55-.45,1.3-1.31,1.77-2.31l1.32,2.69c.45,1.17-.09,2.33-1.69,3.64l-.19.15c-1.02.85-2.17,1.81-8.76,3.87ZM29.47,45.77c-.81,1.54-1.64,1.82-2.59,2.14l-.19.06c-.36.12-.75.05-1.04-.17l-1.61-1.32c2.92-1.14,3.79-1.85,4.58-2.5l.18-.15c.25-.2.67-.55,1.08-1.02.59.9-.14,2.45-.41,2.96Z"/>
</svg>