<?xml version="1.0" encoding="UTF-8"?>
<svg id="EDIT_ART" data-name="EDIT ART" xmlns="http://www.w3.org/2000/svg" viewBox="0 0 49.93 50">
  <defs>
    <style>
      .cls-1 {
        fill: #fff;
      }
    </style>
  </defs>
  <path class="cls-1" d="M3.59,20.29c-.56.18-.89.76-.76,1.34l.54,2.31c.07.3.25.55.51.71.09.05.18.1.28.12-1.33.95-1.91,1.41-1.7,1.99.07.18.23.38.62.42.01.09.04.19.08.29.19.46,3.38,7.47,5.12,11.02h-.07v9.2c0,1.01.82,1.82,1.82,1.82h2.45c.28,0,.54-.09.75-.24.19.15.43.24.69.24h2.62c1.01,0,1.82-.82,1.82-1.82v-20.29c0-1.01-.82-1.82-1.82-1.82h-2.58c-.25,0-.47.08-.66.21-.19-.13-.41-.21-.65-.21h-2.61c-1.01,0-1.82.82-1.82,1.82v.99c-.99-1.57-1.66-2.28-2.13-2.6.07-.21.06-.42-.03-.62-.09-.2-.17-.41-.25-.62.55-.19.87-.76.74-1.33l-.45-1.94s.04,0,.06,0c.73-.06,1.33-.94,2.24-2.28.49-.73,1.05-1.56,1.68-2.32,2.49-2.99,8.4-5.85,14.87-5.57h0s.02,0,.02,0c0,0,.02,0,.02,0h0c6.47-.29,12.38,2.58,14.87,5.57.63.76,1.19,1.59,1.68,2.32.9,1.34,1.5,2.23,2.23,2.28.02,0,.04,0,.06,0l-.45,1.94c-.07.3-.02.6.14.86.14.23.35.39.6.47-.08.21-.17.42-.26.63-.09.2-.1.41-.03.62-.46.31-1.14,1.03-2.13,2.6v-.99c0-1.01-.82-1.82-1.82-1.82h-2.61c-.24,0-.47.08-.65.21-.19-.13-.42-.21-.66-.21h-2.58c-1.01,0-1.82.82-1.82,1.82v20.29c0,1.01.82,1.82,1.82,1.82h2.62c.26,0,.5-.09.69-.24.21.15.47.24.75.24h2.45c1.01,0,1.82-.82,1.82-1.82v-9.2h-.07c1.74-3.55,4.93-10.56,5.12-11.02.04-.1.07-.2.08-.29.39-.04.56-.24.62-.42.21-.58-.37-1.04-1.7-1.99.38-.11.69-.42.79-.83l.54-2.31c.07-.3.02-.6-.14-.86-.14-.23-.36-.39-.62-.48l3.11-9.55c.41-1.45-.19-3.01-1.47-3.81-.3-.19-.62-.4-.97-.62-3.36-2.2-8.98-5.88-21.99-5.81h0s-.04,0-.06,0c-.02,0-.03,0-.05,0h0C11.89.43,6.27,4.11,2.92,6.31c-.35.23-.67.44-.97.62-1.28.79-1.88,2.36-1.47,3.82l3.11,9.53ZM4.81,25.67c-.05.01-.11.03-.16.04.08-.06.16-.11.22-.16.05-.04.11-.08.16-.11,0,.02.01.03.02.05-.04.05-.13.11-.24.18ZM4.14,27.05c.2-.05.39-.1.57-.17h-.01c.22.45,5.39,11.01,6.06,12.12.22.37,0,.71-.2.84-.24.16-.34.03-.38-.03-.6-.81-5.61-11.75-6.04-12.76,0,0,0,0,0,0ZM13.85,26.74c0-.07.05-.12.12-.12h2.58c.42,0,.77.34.77.77v20.29c0,.42-.34.77-.77.77h-2.62s-.08-.03-.08-.08v-21.63ZM10.04,26.62h2.61s.09.04.09.09v21.49c0,.14-.11.25-.25.25h-2.45c-.42,0-.77-.34-.77-.77v-7.31s.04.05.05.07c.26.35.63.54,1.03.54.27,0,.54-.08.8-.26.65-.44,1.06-1.38.51-2.27-.25-.41-1.23-2.36-2.39-4.68v-6.38c0-.42.34-.77.77-.77ZM8.21,30.44v1.2c-.8-1.61-1.6-3.24-2.24-4.55.5.55,1.26,1.62,2.24,3.36ZM5.43,23.45l-1,.3s-.03-.02-.03-.05l-.54-2.31s.02-.08.06-.09l.96-.22s.01,0,.02,0c.04,0,.07.02.08.06l.54,2.31s0,.05,0,.06c0,.01-.02.03-.04.03,0-.03-.02-.05-.03-.08ZM42.42,18.38c-.51-.75-1.08-1.6-1.75-2.4-2.66-3.18-8.9-6.24-15.71-5.95-6.81-.29-13.05,2.76-15.71,5.95-.67.8-1.24,1.65-1.75,2.4-.5.74-1.17,1.74-1.44,1.82-.32.03-.61-.06-.81-.15.66-4.55,4.25-7.32,7.18-8.85,3.55-1.85,8.23-2.95,12.52-2.96,4.3,0,8.97,1.11,12.52,2.96,2.93,1.53,6.52,4.29,7.18,8.85-.2.09-.49.17-.8.15-.28-.08-.96-1.09-1.45-1.82ZM45.11,25.67c-.11-.06-.19-.13-.24-.18,0-.02.01-.03.02-.05.05.04.1.07.16.11.06.05.14.1.22.16-.05-.01-.11-.03-.16-.04ZM43.95,27.08c-.65,1.32-1.45,2.95-2.24,4.55v-1.2c.98-1.74,1.75-2.81,2.24-3.36ZM36.07,48.37s-.03.08-.08.08h-2.62c-.42,0-.77-.34-.77-.77v-20.29c0-.42.34-.77.77-.77h2.58c.07,0,.12.05.12.12v21.63ZM40.65,47.68c0,.42-.34.77-.77.77h-2.45c-.14,0-.25-.11-.25-.25v-21.49s.04-.09.09-.09h2.61c.42,0,.77.34.77.77v6.38c-1.16,2.32-2.14,4.27-2.39,4.68-.54.89-.14,1.83.51,2.27.26.17.53.26.8.26.39,0,.77-.18,1.03-.54.01-.02.03-.05.05-.08v7.31ZM39.75,39.81c-.04.06-.14.19-.38.03-.2-.14-.43-.47-.2-.84.68-1.11,5.84-11.66,6.06-12.11h-.01c.19.06.38.12.57.16,0,0,0,0,0,0-.42,1.01-5.44,11.95-6.04,12.76ZM46.06,21.38l-.54,2.31s-.02.04-.03.05l-1-.3s-.02.05-.03.08c-.02,0-.04-.02-.04-.03,0-.01-.02-.03,0-.06l.54-2.31s.05-.07.09-.06l.96.22s.04.02.05.03c0,.01.02.03,0,.06ZM2.51,7.83c.31-.19.64-.41.99-.64C6.76,5.05,12.23,1.46,25.01,1.56h0c.13,0,.25,0,.38,0,12.44,0,17.81,3.52,21.04,5.64.35.23.68.45.99.64.88.55,1.3,1.62,1.02,2.6l-2.85,8.74c-1.84-8.67-13.36-11.96-20.57-11.99h0s-.02,0-.03,0c-.02,0-.04,0-.07,0h0c-4.44.02-9.28,1.17-12.96,3.08-4.22,2.2-6.83,5.26-7.61,8.91L1.49,10.45c-.28-.99.13-2.07,1.01-2.62Z"/>
</svg>