<?xml version="1.0" encoding="UTF-8"?>
<svg id="EDIT_ART" data-name="EDIT ART" xmlns="http://www.w3.org/2000/svg" viewBox="0 0 48.6 50">
  <defs>
    <style>
      .cls-1 {
        fill: #fff;
      }
    </style>
  </defs>
  <path class="cls-1" d="M47.58,26.66c.35-.02.58-.17.67-.43.22-.6-.43-1.08-1.92-2.09-.14-.1-.29-.2-.41-.28.04-.1.07-.21.1-.31h.67c.71,0,1.28-.58,1.28-1.28v-1.43c0-.54-.33-1-.8-1.19-.12-3.47-.88-6.56-2.27-9.19l-.55.29c-1.5-2.75-3.7-5-6.6-6.73C32.55.91,26.76.51,24.37.5h0s-.05,0-.07,0c-.02,0-.05,0-.07,0h0c-2.39.01-8.18.41-13.4,3.52-2.89,1.73-5.1,3.98-6.6,6.73l-.55-.29c-1.39,2.63-2.15,5.72-2.27,9.19-.47.19-.8.65-.8,1.19v1.43c0,.71.58,1.28,1.28,1.28h.67c.03.1.07.21.1.31-.12.08-.26.18-.41.28-1.49,1.02-2.13,1.49-1.92,2.09.1.27.32.41.67.43.01.09.04.2.09.3.2.47,3.6,7.63,5.46,11.27h-.07v9.41c0,1.02.86,1.86,1.91,1.86h1.85c.3,0,.57-.09.8-.25.2.16.45.25.72.25h3.59c1.04,0,1.88-.85,1.88-1.88v-20.7c0-1.04-.85-1.88-1.88-1.88h-3.55c-.26,0-.5.08-.69.22-.2-.14-.44-.22-.69-.22h-2.03c-1.06,0-1.91.83-1.91,1.86v1.1c-1.1-1.69-1.83-2.44-2.33-2.76.07-.21.06-.43-.04-.63-.19-.4-.35-.82-.51-1.26.35-.23.59-.63.59-1.08v-1.43c0-.08,0-.15-.02-.22.02,0,.05,0,.07,0,.76-.06,1.4-.96,2.36-2.32.52-.75,1.12-1.59,1.8-2.37,2.66-3.06,8.94-5.99,15.85-5.71h0s.03,0,.05,0c.02,0,.03,0,.05,0h0c6.9-.28,13.19,2.65,15.85,5.71.68.78,1.27,1.63,1.8,2.37.96,1.37,1.59,2.27,2.36,2.32.02,0,.05,0,.07,0-.01.07-.02.15-.02.22v1.43c0,.45.23.85.59,1.08-.15.44-.32.86-.51,1.26-.09.2-.11.42-.04.63-.5.32-1.23,1.07-2.33,2.76v-1.1c0-1.02-.86-1.86-1.91-1.86h-2.03c-.26,0-.5.08-.69.22-.2-.14-.44-.22-.69-.22h-3.55c-1.04,0-1.88.85-1.88,1.88v20.7c0,1.04.85,1.88,1.88,1.88h3.59c.27,0,.52-.1.72-.25.22.16.5.25.8.25h1.85c1.06,0,1.91-.83,1.91-1.86v-9.41h-.07c1.86-3.63,5.26-10.8,5.46-11.27.05-.11.07-.21.09-.3ZM46.01,25.2c-.09-.02-.18-.04-.27-.07-.12-.07-.21-.13-.26-.19.01-.03.03-.06.04-.08.07.05.14.1.21.15.08.05.18.12.28.19ZM46.92,22.26c0,.12-.1.22-.22.22h-1.03c-.12,0-.22-.1-.22-.22v-1.43c0-.12.1-.22.22-.22h1.03c.12,0,.22.1.22.22v1.43ZM11.37,4.93c5.17-3.08,11.11-3.36,12.92-3.36,1.81,0,7.76.28,12.92,3.36,2.7,1.61,4.76,3.71,6.17,6.27l-.53.28c.36.69.68,1.41.95,2.17-4.43-5.27-13.36-7.39-19.45-7.42h0s-.03,0-.05,0c-.03,0-.07,0-.1,0h0c-4.72.03-9.85,1.2-13.76,3.15-2.4,1.2-4.31,2.65-5.7,4.31.28-.77.6-1.51.97-2.21l-.53-.28c1.41-2.57,3.47-4.66,6.17-6.27ZM1.67,22.26v-1.43c0-.12.1-.22.22-.22h1.03c.12,0,.22.1.22.22v1.43c0,.12-.1.22-.22.22h-1.03c-.12,0-.22-.1-.22-.22ZM2.86,25.01c.07-.05.14-.1.21-.15.01.03.03.06.04.08-.05.05-.14.12-.26.19-.09.02-.18.04-.27.07.1-.07.2-.14.28-.19ZM2.08,26.54s0,0,0,0c.31-.07.62-.16.9-.28l-.24.12c.23.46,5.74,11.26,6.47,12.39.25.39-.02.72-.2.85-.14.1-.34.18-.49-.02-.63-.83-5.99-12.02-6.44-13.06,0,0,0,0,0,0ZM11.68,26.23c0-.08.06-.14.14-.14h3.55c.45,0,.82.37.82.82v20.7c0,.45-.37.82-.82.82h-3.59c-.06,0-.1-.04-.1-.1v-22.1ZM8.4,26.09h2.03c.07,0,.12.04.12.1v21.98c0,.15-.13.27-.3.27h-1.85c-.47,0-.85-.36-.85-.79v-7.58c.05.07.09.14.12.18.27.36.66.54,1.06.54.29,0,.6-.1.88-.3.65-.46,1.04-1.41.49-2.29-.27-.42-1.32-2.41-2.55-4.79v-6.53c0-.44.38-.79.85-.79ZM6.49,30.01v1.34c-.9-1.74-1.81-3.51-2.52-4.92.52.52,1.38,1.64,2.52,3.58ZM42.86,17.67c-.54-.77-1.15-1.64-1.86-2.46-2.83-3.25-9.47-6.37-16.7-6.07-7.23-.29-13.87,2.82-16.7,6.07-.71.82-1.32,1.69-1.86,2.46-.54.77-1.27,1.82-1.56,1.88-.2.01-.39,0-.55-.05.05-.79.14-1.57.26-2.31,1.37-3.37,4.46-5.55,7.06-6.85,3.79-1.89,8.77-3.02,13.36-3.03,4.58.01,9.57,1.14,13.36,3.03,2.61,1.3,5.69,3.48,7.06,6.85.12.75.21,1.52.26,2.31-.17.04-.35.06-.55.05-.29-.06-1.03-1.11-1.57-1.88ZM44.63,26.44c-.72,1.41-1.63,3.18-2.52,4.92v-1.34c1.14-1.94,2-3.06,2.52-3.58ZM36.92,48.34c0,.06-.04.1-.1.1h-3.59c-.45,0-.82-.37-.82-.82v-20.7c0-.45.37-.82.82-.82h3.55c.08,0,.14.06.14.14v22.1ZM41.04,47.64c0,.44-.38.79-.85.79h-1.85c-.17,0-.3-.12-.3-.27v-21.98c0-.05.06-.1.12-.1h2.03c.47,0,.85.36.85.79v6.53c-1.23,2.38-2.28,4.37-2.55,4.79-.56.88-.17,1.83.49,2.29.28.2.59.3.88.3.41,0,.79-.18,1.06-.54.03-.04.07-.1.12-.18v7.58ZM46.52,26.54c-.45,1.04-5.81,12.23-6.44,13.06-.15.2-.35.12-.49.02-.18-.12-.45-.46-.2-.85.72-1.13,6.23-11.93,6.47-12.39l-.24-.12c.28.12.58.21.9.28,0,0,0,0,0,0,0,0,0,0,0,0Z"/>
</svg>