<?xml version="1.0" encoding="UTF-8"?>
<svg id="EDIT_ART" data-name="EDIT ART" xmlns="http://www.w3.org/2000/svg" viewBox="0 0 49.8 50">
  <defs>
    <style>
      .cls-1 {
        fill: #fff;
      }
    </style>
  </defs>
  <path class="cls-1" d="M22.31,28.24c1.51-.47,4.33-1.91,5.41-4.36.66-1.48.59-3.08-.2-4.76-.61-1.29-1.55-2.15-2.82-2.57-3.07-1-6.92,1.07-7.08,1.16h0c-.09.04-.18.07-.27.11-.24.11-.46.27-.65.46-.58-.67-1.12-1.28-1.56-1.76l5.53-7.11h0c.13-.16.27-.45.22-.87-.04-.33-.19-.69-.43-1.05.57-1.25,1.27-3.31-.09-6.17-.17-.36-.49-.64-.88-.76-.39-.12-.81-.08-1.17.13l-.99.57c-.64.37-.9,1.15-.59,1.82.4.88.41,1.52.3,2.03-.6-.11-1.12-.02-1.44.38-.06.08-.13.19-.18.32l-6.35,8.07s-.05,0-.08.01c-.08.02-.15.03-.23.04-.72.12-1.46.43-2.05.68-.17.07-.34.14-.49.2l.02.05c-.7.26-1.31.7-1.76,1.1-3.04,2.65-5.98,9.38-2.62,15.38,1.78,3.19,5.07,4.03,8.04,4.03,3.2,0,6.04-.98,6.27-1.05.75-.26,1.39-.59,1.92-.98l.02.04c1.77-.67,2.94-1.86,3.48-3.56.15-.47.24-.96.28-1.44.14-.03.28-.08.42-.13ZM24.38,17.56c.99.32,1.7.98,2.19,2.01.65,1.39.72,2.69.19,3.88-.6,1.36-1.88,2.37-3.05,3.03.38-1.35.11-3.16-.73-4.91-.84-1.74-2.07-3.03-3.29-3.61,1.29-.46,3.15-.91,4.69-.41ZM17.87,2.17l.99-.57c.1-.06.22-.07.33-.04.11.03.2.11.24.21,1.01,2.13.71,3.7.28,4.82-.16-.16-.34-.31-.52-.45-.36-.28-.75-.52-1.14-.7.18-.69.21-1.59-.35-2.8-.08-.17,0-.37.16-.47ZM16.53,6.11s.05,0,.08,0c.33,0,1.05.18,1.93.87,1.11.86,1.37,1.66,1.31,1.79-.12.1-.98.05-2.12-.83-.94-.73-1.27-1.42-1.31-1.69l.11-.14ZM9.82,14.64l5.86-7.44c.29.53.79,1.09,1.41,1.57.62.48,1.33.85,1.98,1.01l-5.06,6.51c-.09.12-.32.47-.16,1.08l.02.09c.04.16-.03.32-.18.4-.18.1-.29.14-.36.17-.73-.6-3.18-2.69-3.48-3.06-.08-.1-.12-.16-.13-.19.02-.02.05-.06.1-.13ZM18.66,31.06c-.47,1.22-1.79,1.91-2.82,2.27-.4.14-9.77,3.36-13.04-2.5-3.07-5.5-.39-11.65,2.39-14.08.91-.79,1.61-1.05,2.16-1.05.76,0,1.2.5,1.43.76.06.06.1.11.15.15,2.45,2.02,7,6.93,9.15,10.91.75,1.39.94,2.58.57,3.53ZM20.61,29.5c-.18.59-.47,1.1-.84,1.54.31-1.17.05-2.52-.76-4.02-1.46-2.7-3.85-5.66-6.03-7.98.09.03.18.05.27.05.31,0,.65-.16.94-.32.37-.21.61-.56.69-.95,1.86,2.08,4.73,5.54,5.15,6.15.28.41,1.31,3.14.56,5.53ZM20.92,23.38c-.35-.51-1.96-2.46-3.52-4.28.12-.13.25-.24.4-.31,1.05-.49,3.01.7,4.23,3.25.77,1.59,1,3.26.61,4.35-.16.44-.4.73-.72.88-.07-1.78-.64-3.36-1-3.89Z"/>
  <path class="cls-1" d="M45.3,30.09c-.45-.39-1.07-.84-1.76-1.1l.02-.05c-.15-.06-.32-.13-.49-.2-.59-.25-1.32-.55-2.05-.68-.07-.01-.15-.03-.23-.04-.02,0-.05,0-.07-.01l-6.35-8.07c-.05-.14-.11-.25-.18-.32-.32-.4-.85-.49-1.44-.38-.11-.51-.1-1.15.3-2.03.31-.67.05-1.45-.59-1.82l-.99-.57c-.35-.2-.78-.25-1.16-.13-.39.12-.71.4-.88.76-1.36,2.86-.66,4.92-.09,6.17-.24.37-.39.73-.43,1.05-.05.42.09.71.22.87h0s5.53,7.11,5.53,7.11c-.44.48-.98,1.09-1.56,1.76-.19-.19-.41-.35-.65-.46-.09-.04-.18-.07-.27-.1h0c-.16-.1-4.01-2.17-7.08-1.17-1.26.41-2.21,1.27-2.81,2.57-.79,1.68-.86,3.28-.2,4.76,1.09,2.45,3.9,3.89,5.41,4.36.13.06.27.1.42.13.04.48.13.97.28,1.44.53,1.7,1.71,2.89,3.48,3.56l.02-.04c.53.39,1.17.72,1.92.98.22.08,3.07,1.05,6.27,1.05,2.97,0,6.26-.84,8.04-4.03,3.36-6,.42-12.73-2.62-15.38ZM30.37,15.91c.05-.1.13-.18.24-.21.11-.03.23-.02.33.04l.99.57c.17.1.24.3.16.47-.56,1.21-.52,2.11-.35,2.8-.39.18-.78.42-1.14.7-.19.14-.36.3-.52.45-.43-1.11-.73-2.69.28-4.82ZM29.95,22.9c-.07-.14.2-.94,1.31-1.8.97-.75,1.73-.9,2.01-.86l.11.14c-.04.27-.37.96-1.31,1.69-1.14.88-2,.93-2.12.83ZM30.73,23.91c.65-.15,1.36-.53,1.98-1.01.63-.48,1.12-1.04,1.41-1.57l5.84,7.43v.02c.07.07.1.11.12.13-.02.03-.05.09-.13.19-.3.37-2.76,2.47-3.48,3.06-.07-.02-.18-.07-.36-.17-.15-.08-.22-.24-.18-.4l.02-.09c.15-.6-.07-.96-.16-1.08l-5.06-6.51ZM26.1,40.62c-1.17-.65-2.45-1.67-3.05-3.03-.53-1.19-.46-2.5.19-3.88.49-1.03,1.2-1.69,2.19-2.01,1.54-.5,3.4-.06,4.69.41-1.22.58-2.45,1.87-3.29,3.61-.84,1.75-1.11,3.56-.73,4.91ZM27.88,41.4c-.32-.15-.56-.45-.72-.88-.39-1.09-.16-2.76.61-4.35,1.23-2.55,3.18-3.73,4.23-3.25.15.07.28.18.4.31-1.56,1.82-3.17,3.77-3.52,4.28-.36.53-.93,2.11-1,3.89ZM30.03,45.17c-.37-.44-.65-.95-.84-1.54-.75-2.39.28-5.12.56-5.53.42-.62,3.3-4.07,5.15-6.15.08.39.33.75.69.95.29.16.63.32.94.32.09,0,.18-.02.27-.05-2.18,2.32-4.57,5.28-6.03,7.98-.81,1.5-1.06,2.85-.76,4.02ZM47,44.96c-3.28,5.86-12.65,2.64-13.04,2.5-1.02-.36-2.34-1.05-2.82-2.27-.37-.96-.18-2.15.57-3.53,2.16-3.98,6.7-8.9,9.15-10.91.05-.04.09-.09.15-.15.39-.44,1.42-1.6,3.59.29,2.78,2.43,5.47,8.58,2.39,14.08Z"/>
</svg>