<?xml version="1.0" encoding="UTF-8"?><svg id="Layer_3" xmlns="http://www.w3.org/2000/svg" viewBox="0 0 480 320"><defs><style>.cls-1{fill:#fff;}</style></defs><path class="cls-1" d="M341.03,145.3l-3.62-16.95,3.4-1.38-.26-1.92c-6.16-45.47-49.44-79.77-100.72-79.84h0s-.05,0-.08,0-.05,0-.08,0h0c-51.28.07-94.56,34.37-100.72,79.84l-.26,1.92,3.4,1.38-3.62,16.95c-3.38,2-5.66,5.67-5.66,9.87,0,3.94,2,7.42,5.03,9.48.97,5.66,2.97,11.37,5.93,16.99,1.6,3.04,3.02,5.86,4.31,8.53l-2.32,5.66v.48c-.01.61-.06,15.04,10.71,33.51,10.71,18.36,17.37,21.09,18.1,21.34l.24.08,6.66.86c2.77,4.09,5.51,7.94,8.19,11.48,1,1.34,2.61,1.55,3.54,1.55.3,0,.53-.02.64-.04l.41-.05,11.48-5.51.33-.38c.27-.3.49-.65.66-1.03h.02s.1-.3.1-.3c.02-.06.04-.11.06-.17l.1-.3c2.56-.16,5.86-1.22,9.58-4.45,6.35-5.52,4.15-14.72,2.49-19.3-.19-.62-.55-1.51-1.2-2.89-.68-1.55-3.98-8.7-16.94-32.34-11.21-20.42-16.34-28.14-18.14-30.65-1.34-2.01-1.89-2.51-2.4-2.73-2.1-1.81-6.12-4.1-12.27-2.93-4.09.78-6.98,2.78-8.7,4.34-1.33-1.3-3.24-3.32-5.07-5.78.88-1.62,1.39-3.49,1.39-5.46,0-3.61-1.68-6.82-4.29-8.93l3.59-15.07,8.01-9.09.16-.39c12.98-31.96,43.01-52.61,76.53-52.64,33.51.03,63.54,20.69,76.53,52.64l.16.39,8.01,9.09,3.59,15.07c-2.61,2.1-4.29,5.32-4.29,8.93,0,1.98.5,3.84,1.39,5.46-1.83,2.47-3.74,4.48-5.07,5.78-1.73-1.56-4.61-3.56-8.7-4.34-6.14-1.17-10.16,1.12-12.26,2.93-.51.22-1.06.71-2.4,2.73-1.8,2.5-6.94,10.22-18.15,30.65-12.98,23.66-16.28,30.8-16.95,32.34-.65,1.38-1.01,2.27-1.2,2.89-1.66,4.58-3.85,13.77,2.49,19.3,3.72,3.23,7.02,4.29,9.57,4.45l.1.3c.02.06.04.13.06.19l.1.29h.01c.17.38.39.73.66,1.03l.33.38,11.48,5.51.41.05c.11.01.34.04.64.04.93,0,2.54-.21,3.53-1.54,2.68-3.55,5.43-7.4,8.2-11.49l6.66-.86.25-.08c.72-.25,7.39-2.99,18.1-21.34,10.78-18.47,10.73-32.91,10.72-33.51v-.48s-2.33-5.66-2.33-5.66c1.29-2.67,2.71-5.48,4.31-8.53,2.96-5.62,4.96-11.34,5.93-16.99,3.03-2.06,5.03-5.54,5.03-9.48,0-4.2-2.28-7.87-5.66-9.87ZM144.18,148.71l2.01.28c2.65.81,4.58,3.27,4.58,6.18,0,3.56-2.9,6.46-6.46,6.46s-6.46-2.9-6.46-6.46,2.83-6.39,6.34-6.46ZM143.37,166.58c.31.02.61.05.93.05,1.32,0,2.58-.24,3.77-.65,4.65,8.79,10.84,16.72,12.11,18.31,1.12,2.6,8.96,20.54,18.72,38.29,1.59,2.9,3.15,5.59,4.66,8.11-.14.85-.68,2.52-2.72,3.67-2.08,1.18-3.74.78-4.45.49-1.61-2.64-3.21-5.34-4.8-8.09-6.09-10.55-9.58-18.29-13.28-26.47-2.85-6.31-5.79-12.83-10.09-20.98-2.23-4.23-3.85-8.49-4.85-12.73ZM176.12,246.37c-1.07-.59-6.61-4.17-15.31-19.07-9.02-15.46-9.94-28.03-10.03-30.5l.21-.5c.95,2.06,1.86,4.07,2.75,6.05,3.75,8.31,7.29,16.15,13.51,26.92,3.48,6.04,7.05,11.85,10.6,17.33l-1.73-.22ZM193.25,260c-4.44-5.91-9.06-12.67-13.66-19.97,1.17-.18,2.43-.58,3.71-1.31,1.48-.84,2.57-1.88,3.37-2.97,5.68,8.95,10.47,15.12,13.46,18.97.41.53.79,1.01,1.12,1.44l-8,3.84ZM169.09,166.98c4.09-.78,6.67.64,7.96,1.7.53,1.5,1.89,4.3,5.01,10.29,3.34,6.4,7.9,14.82,12.83,23.69,4.92,8.84,9.66,17.16,13.36,23.41,3.85,6.5,5.48,9.02,6.43,10.07,1.19,3.67,2.37,9.74-1.34,12.97-4.96,4.3-8.25,3.23-8.93,2.93-.11-.14-.21-.27-.32-.41-4.19-5.4-12-15.44-20.81-31.47-10.38-18.87-18.55-37.97-18.64-38.16l-.02-.05c-.26-.64-2.5-6.35-2.55-11.13.92-1.01,3.24-3.13,7.02-3.85ZM157.08,171.38c-.18-.28-.36-.55-.54-.83.19.18.37.35.52.49,0,.11.01.23.02.34ZM144.3,143.7s-.09,0-.14,0h-.21s2.87-13.45,2.87-13.45l3.04,1.23-2.98,12.51c-.83-.19-1.68-.3-2.57-.3ZM158.77,119.41l-6.68,7.59-7.87-3.2c1.6-9.97,5.13-19.33,10.19-27.84l12.46,8.07c-3.13,4.79-5.85,9.92-8.09,15.38ZM239.84,64.05h0s-.05,0-.08,0-.05,0-.08,0h0c-27.96.05-53.61,13.62-69.97,35.88l-12.64-8.19c17.01-25.03,47.91-41.51,82.69-41.53,34.78.02,65.68,16.5,82.69,41.53l-12.64,8.19c-16.36-22.26-42.01-35.83-69.97-35.88ZM312.67,104.04l12.46-8.07c5.06,8.5,8.59,17.87,10.19,27.84l-7.87,3.2-6.69-7.59c-2.24-5.45-4.97-10.59-8.09-15.38ZM329.67,131.49l3.04-1.23,2.87,13.44h-.11c-.08.01-.16,0-.24,0-.88,0-1.74.11-2.57.3l-2.98-12.51ZM322.98,170.56c-.18.28-.36.56-.54.83,0-.11.01-.23.02-.34.15-.14.34-.31.52-.49ZM264.82,236.18c.95-1.04,2.57-3.55,6.45-10.1,3.7-6.25,8.45-14.57,13.36-23.41,4.93-8.88,9.49-17.29,12.83-23.69,3.13-6.01,4.49-8.81,5.02-10.3,1.29-1.06,3.85-2.47,7.95-1.69,3.78.72,6.1,2.84,7.02,3.85-.06,4.71-2.25,10.37-2.55,11.12l-.03.06c-.08.19-8.25,19.28-18.64,38.16-8.81,16.03-16.62,26.07-20.81,31.47-.11.14-.21.27-.31.4-.79.34-4.06,1.31-8.94-2.92-3.74-3.26-2.57-9.27-1.37-12.94ZM286.28,260l-8.01-3.84c.33-.43.71-.92,1.12-1.44,2.99-3.85,7.78-10.02,13.46-18.97.8,1.09,1.89,2.13,3.37,2.97,1.29.73,2.54,1.13,3.72,1.31-4.6,7.3-9.22,14.06-13.66,19.97ZM328.74,196.8c-.09,2.48-1.01,15.04-10.03,30.5-8.79,15.07-14.36,18.56-15.28,19.07l-1.76.23c3.55-5.48,7.12-11.29,10.6-17.33,6.22-10.77,9.76-18.61,13.51-26.92.89-1.98,1.8-3.99,2.75-6.05l.21.5ZM331.31,179.31c-4.29,8.15-7.24,14.67-10.08,20.97-3.7,8.19-7.19,15.92-13.28,26.48-1.59,2.75-3.19,5.45-4.8,8.09-.68.27-2.35.69-4.45-.5-2.05-1.16-2.58-2.84-2.72-3.66,1.51-2.52,3.07-5.22,4.66-8.11,9.76-17.75,17.59-35.69,18.72-38.29,1.27-1.59,7.46-9.52,12.11-18.31,1.18.41,2.45.65,3.77.65.31,0,.62-.02.93-.05-1,4.23-2.62,8.5-4.85,12.73ZM335.23,161.63c-3.56,0-6.46-2.9-6.46-6.46,0-2.91,1.93-5.37,4.58-6.18l2.01-.28c3.51.07,6.34,2.94,6.34,6.46s-2.9,6.46-6.46,6.46Z"/></svg>