<?xml version="1.0" encoding="UTF-8"?>
<svg id="EDIT_ART" data-name="EDIT ART" xmlns="http://www.w3.org/2000/svg" viewBox="0 0 46.69 50">
  <defs>
    <style>
      .cls-1 {
        fill: #fff;
      }
    </style>
  </defs>
  <path class="cls-1" d="M.42,23.44c.05,1,.36,3.99,2.18,7.43.92,1.75,1.56,3.16,2.18,4.52.82,1.82,1.59,3.53,2.95,5.88.69,1.19,1.32,2.26,1.91,3.2-.44.23-.9.34-1.29.3-.39-.04-.66-.21-.83-.53l-4.32-8.02c-.41-.77-.13-1.73.64-2.14l.27-.15-.52-.96-.27.15c-1.3.7-1.79,2.33-1.09,3.62l4.32,8.02c.34.64.95,1.03,1.69,1.1.08,0,.17.01.25.01.54,0,1.13-.16,1.68-.45l-.32-.59c1.16,1.85,2.1,3.19,2.8,3.98.42.47.96.68,1.46.68.37,0,.71-.11.97-.31.51-.39.77-1.16.22-2.03l-.12-.19.21.07.09-.26c.63-.05,1.36-.27,2.06-.88,1.39-1.21.91-3.22.54-4.22-.04-.14-.12-.33-.26-.63-.15-.34-.87-1.89-3.7-7.07-2.45-4.47-3.57-6.15-3.97-6.7-.29-.44-.41-.55-.52-.59-.46-.4-1.34-.9-2.68-.64-.89.17-1.52.61-1.9.95-.69-.68-2.11-2.25-2.27-3.89l1.22-3.56c.92-.13,1.74-.72,2.15-1.58,2.84-5.91,9.2-12.26,16.48-12.26h1.46c7.28,0,13.64,6.36,16.48,12.26.41.85,1.23,1.44,2.15,1.58l1.22,3.56c-.16,1.64-1.58,3.21-2.27,3.89-.38-.34-1.01-.78-1.9-.95-1.34-.26-2.22.24-2.68.64-.11.05-.23.16-.52.6-.39.55-1.52,2.23-3.97,6.7-2.84,5.18-3.56,6.73-3.7,7.07-.14.3-.22.49-.26.63-.36,1-.84,3.01.54,4.22.7.61,1.43.83,2.06.88l.09.26.21-.07-.12.19c-.56.87-.29,1.64.22,2.03.26.2.61.31.97.31.5,0,1.03-.21,1.46-.68.7-.79,1.64-2.12,2.8-3.98l-.32.59c.55.3,1.14.45,1.68.45.08,0,.17,0,.25-.01.75-.07,1.35-.46,1.69-1.1l4.32-8.02c.7-1.3.21-2.93-1.09-3.62l-.27-.15-.52.96.27.15c.77.41,1.06,1.38.64,2.14l-4.32,8.02c-.17.32-.45.49-.83.53-.38.04-.85-.07-1.29-.3.58-.94,1.22-2.01,1.9-3.2,1.36-2.35,2.13-4.07,2.95-5.88.62-1.36,1.25-2.77,2.18-4.52,1.81-3.44,2.12-6.43,2.18-7.43h.02s-.16-5.05-.16-5.05l.04-.02-.06-.42C44.78,8,35.3.5,24.08.5h-1.46C11.39.5,1.92,8,.57,17.95l-.06.42.04.02-.16,5.04h.02ZM14.42,48.32c-.18.14-.61.16-.95-.23-.72-.81-2.14-2.74-4.8-7.36-1.33-2.31-2.1-4-2.9-5.79-.62-1.38-1.27-2.8-2.2-4.58-1.13-2.13-1.64-4.11-1.87-5.46.83,2.57,3.13,5.52,3.51,6,.25.57,1.96,4.49,4.09,8.37,2.18,3.97,3.89,6.61,4.8,8.03l.29.45c.12.18.22.43.04.57ZM7.15,27.12c.89-.17,1.46.14,1.74.37.12.33.41.94,1.1,2.25.73,1.4,1.73,3.24,2.8,5.18,1.07,1.93,2.11,3.75,2.92,5.12.85,1.43,1.2,1.98,1.41,2.21.26.8.52,2.12-.3,2.83-1.06.92-2.21.58-2.58.44-.96-1.52-2.34-3.75-4-6.77-2.27-4.13-4.06-8.3-4.07-8.34h0c-.06-.16-.54-1.41-.56-2.44.2-.22.71-.68,1.53-.84ZM4.53,28.08c-.04-.06-.08-.12-.11-.18.04.04.08.07.11.1,0,.03,0,.05,0,.08ZM42.28,27.91c-.04.06-.08.12-.11.18,0-.02,0-.05,0-.07.03-.03.07-.07.11-.1ZM29.57,42.24c.21-.23.56-.77,1.41-2.21.81-1.37,1.85-3.18,2.92-5.12,1.08-1.94,2.07-3.78,2.8-5.18.68-1.31.98-1.92,1.1-2.25.28-.23.85-.54,1.74-.37.83.16,1.33.62,1.54.84-.01,1.03-.5,2.27-.56,2.43h0c-.02.05-1.8,4.23-4.07,8.35-1.66,3.01-3.03,5.25-4,6.77-.37.15-1.52.48-2.58-.44-.82-.71-.56-2.03-.3-2.83ZM43.13,30.36c-.94,1.78-1.58,3.21-2.2,4.58-.81,1.79-1.57,3.48-2.9,5.79-2.67,4.62-4.08,6.55-4.8,7.36-.34.39-.77.36-.95.23-.18-.14-.08-.39.04-.57l.29-.45c.91-1.42,2.62-4.06,4.8-8.03,2.13-3.88,3.85-7.8,4.09-8.37.38-.48,2.68-3.43,3.51-6-.23,1.35-.74,3.32-1.87,5.46ZM45.18,22.76l-.19.09-1.2-3.51,1.27-.52.12,3.93ZM22.62,1.59h1.46c10.52,0,19.42,6.89,20.9,16.09l-1.97.8c-.62-.04-1.19-.41-1.47-.98-1.65-3.44-4.17-6.61-7.08-8.91-3.28-2.6-6.87-3.97-10.39-3.97h-1.46c-3.52,0-7.11,1.37-10.39,3.97-2.91,2.31-5.43,5.47-7.08,8.91-.27.57-.84.95-1.47.98l-1.97-.8C3.19,8.48,12.1,1.59,22.62,1.59ZM2.9,19.34l-1.2,3.51-.19-.09.12-3.93,1.27.52Z"/>
</svg>