<?xml version="1.0" encoding="UTF-8"?>
<svg id="Layer_3" xmlns="http://www.w3.org/2000/svg" viewBox="0 0 480 320">
  <defs>
    <style>
      .cls-1 {
        fill: #fff;
      }
    </style>
  </defs>
  <path class="cls-1" d="M320.75,58.91v-.2c-.53-4.34-4.99-7.43-11.92-8.29-7.71-.95-17.03,1.01-19.13,6.51-2.27,5.97-18.76,15.78-28.64,18.18-.53.13-1.08.19-1.63.19-6.12,0-11.11,4.98-11.11,11.11v91.34c0,.29.02.57.06.85-.23,7.15-.67,32.69,4.51,38.06.34.35.68.6,1.01.8.11,2.84.99,10.45,6.91,16.7,5.02,5.3,12.18,8.26,21.29,8.8.08,0,.17,0,.25,0,1.07,0,2.12-.41,2.91-1.14.85-.79,1.34-1.91,1.36-3.07l.06-5.19c.03-2.26-1.72-4.14-3.98-4.29-5.35-.35-9.34-1.85-11.86-4.46-2.37-2.45-3.01-5.53-3.18-7.05.53-.19,1.11-.53,1.68-1.12,5.42-5.62,4.69-33.38,4.48-38.96v-64.81c10.34,1.78,15.37,10.99,15.56,13.95l.04.57.34.47c2.27,3.15,6.66,5,12.35,5.2,5.61.2,12.81-1.39,15.68-4.82,4.01-4.79,3.29-54.3,2.98-69.37ZM252.33,177.82s0-.05,0-.07v-14.45h17.48v14.45c0,1.5-1.22,2.73-2.73,2.73h-12.02c-1.3,0-2.38-.91-2.66-2.13,0-.18.01-.35.02-.53h-.08ZM282.44,233.28c.14,0,.25.12.24.25l-.06,5.19h0c0,.09-.05.15-.08.19s-.1.07-.19.07c-8.06-.48-14.32-3.02-18.62-7.56-4.36-4.6-5.47-10.03-5.75-12.9l5.77.25c.33,2.2,1.3,5.83,4.21,8.84,3.23,3.35,8.1,5.25,14.48,5.67ZM266.36,214.01h-10.42c-2.03-.92-3.85-13.17-3.67-30.14.85.39,1.79.61,2.78.61h12.02c1.03,0,2-.24,2.87-.65.18,16.99-1.63,29.26-3.6,30.18ZM271.94,108.65l-2.13-.14v50.8h-17.48v-72.89c0-3.92,3.19-7.11,7.11-7.11.87,0,1.74-.1,2.57-.31,7.22-1.75,20.67-8.37,27.57-15.23v54.44c-3.43-4.54-9.24-8.99-17.63-9.55ZM314.71,125.7c-1.5,1.79-6.7,3.6-12.47,3.39-3.88-.14-6.96-1.19-8.66-2.89V58.09c1.19-2.29,6.16-3.89,11.56-3.89,1.06,0,2.14.06,3.21.19,3.81.47,8,1.95,8.41,4.71.63,30.22.03,63.38-2.05,66.6Z"/>
  <path class="cls-1" d="M282.28,263.49h-2.35c-29.62,0-53.82-23.61-54.81-52.99.62-.17,1.31-.52,1.99-1.22,5.18-5.37,4.74-30.92,4.51-38.06.04-.28.06-.56.06-.85v-91.34c0-6.13-4.98-11.11-11.11-11.11-.55,0-1.1-.06-1.63-.19-9.88-2.4-26.37-12.2-28.64-18.18-2.1-5.5-11.42-7.46-19.13-6.51-6.93.85-11.38,3.95-11.9,8.29v.2c-.33,15.06-1.05,64.57,2.96,69.37,2.87,3.43,10.05,5.02,15.68,4.82,5.69-.21,10.08-2.05,12.35-5.2l.34-.47.04-.57c.19-2.96,5.22-12.17,15.56-13.95v64.81c-.21,5.58-.94,33.34,4.48,38.96.25.25.49.46.74.63.69,37.21,31.15,67.27,68.52,67.27h2.35c2.41,0,4.37-1.96,4.37-4.37v-4.96c0-2.41-1.96-4.37-4.37-4.37ZM227.6,170.97c-.28,1.22-1.36,2.13-2.66,2.13h-12.02c-1.51,0-2.73-1.22-2.73-2.73v-14.45h17.48v14.45s0,.05,0,.07h-.08c0,.18.01.35.02.53ZM177.76,121.71c-5.79.21-10.97-1.6-12.44-3.35-2.1-3.26-2.71-36.42-2.08-66.64.41-2.76,4.6-4.24,8.41-4.71,6.5-.8,13.36.96,14.77,3.71v68.1c-1.7,1.7-4.78,2.75-8.66,2.89ZM190.43,110.82v-54.44c6.9,6.86,20.35,13.48,27.57,15.23.84.2,1.7.31,2.57.31,3.92,0,7.11,3.19,7.11,7.11v72.89h-17.48v-50.8l-2.13.14c-8.39.56-14.2,5.01-17.63,9.55ZM210.05,176.45c.87.41,1.84.65,2.87.65h12.02c.99,0,1.93-.22,2.78-.61.18,16.97-1.63,29.22-3.6,30.14h-10.44c-2.02-1-3.83-13.25-3.65-30.18ZM282.65,272.82c0,.2-.16.37-.37.37h-2.35c-34.93,0-63.46-27.88-64.52-62.55h5.7c1.06,31.53,27.04,56.86,58.83,56.86h2.35c.2,0,.37.16.37.37v4.96Z"/>
</svg>