<?xml version="1.0" encoding="UTF-8"?><svg id="Layer_3" xmlns="http://www.w3.org/2000/svg" viewBox="0 0 480 320"><defs><style>.cls-1{fill:#fff;}</style></defs><path class="cls-1" d="M223.33,118.27c0,5.87,4.78,10.65,10.65,10.65s10.65-4.78,10.65-10.65-4.78-10.65-10.65-10.65-10.65,4.78-10.65,10.65ZM239.63,118.27c0,3.11-2.53,5.65-5.65,5.65s-5.65-2.53-5.65-5.65,2.53-5.65,5.65-5.65,5.65,2.53,5.65,5.65Z"/><path class="cls-1" d="M223.44,157.51c3.29-1.55,5.97-4.37,9.59-8.93,10.13-2.24,18.32-9.9,20.49-19.87l-.45-.1s0,0,0,0l.45.1c.37-1.71.56-3.47.56-5.22,0-.3-.01-.6-.02-.9.01-.31.02-.62.02-.93h-.08c-.99-13.36-12.76-23.95-27.09-23.95-2.37,0-4.72.29-6.99.86-2.42.61-4.68,1.53-6.76,2.69-3.26-1.11-5.3-.99-7.92-.35l-15.76,3.96c-.03-.2-.07-.4-.12-.6l28.71-22.14.18-.21c1.46-1.76,1.17-4.51-.87-8.35l13.51-11.04-10.23-10.11-12.16,10.2c-1.9-1.47-3.91-2.39-5.73-1.94l-.51.13-30.67,23.85c-1.99-2.01-5.22-2.18-7.4-.37l-23.98,19.93c-1.88,1.56-3.2,3.73-3.71,6.11-.76,3.52-1.6,8.38-1.31,11.47.2,2.16,1.25,3.91,3.02,5.07.58.38,1.21.67,1.85.86-.49,1.79-.75,3.98.01,5.86,1.14,2.8,16.58,25.04,19.67,29.47l.21.29.28.22c3.2,2.57,13,5.22,23.22,5.22,4.79,0,9.67-.58,14-2.03,12.75-4.25,25.67-9.14,25.8-9.19l.18-.08ZM169.23,137.43c1.89,0,3.42,1.54,3.42,3.42s-1.54,3.42-3.42,3.42-3.42-1.54-3.42-3.42,1.54-3.42,3.42-3.42ZM169.23,132.43c-1.91,0-3.66.64-5.08,1.72-1.73-2.68-3.36-4.87-4.88-6.65l42.54-13.84c-1.33,3.06-2.08,6.38-2.08,9.84,0,9.26,5.17,17.39,12.92,21.94l-15.32,5.04c-2.64.87-5.39,1.19-8.16.94l-12.47-1.12c-.88-.08-1.68-.53-2.2-1.24-.24-.33-.52-.7-.8-1.09,2.36-1.49,3.94-4.12,3.94-7.12,0-4.64-3.78-8.42-8.42-8.42ZM249.03,122.35c-.37,10.67-9.33,19.25-20.32,19.25s-20.36-8.94-20.36-19.93,8.52-18.88,19.84-18.91c11.22.61,20.22,9.07,20.84,19.6ZM206.44,105.77c.35-.08.67-.15.98-.21-.48.47-.94.96-1.38,1.46l-50.67,16.49c-.74-.64-1.43-1.16-2.08-1.61.7-.34,1.42-.65,2.16-.89l30.11-9.99,20.88-5.25ZM223.42,62.17l-8.74,7.14c-.68-.93-1.55-2.07-2.55-3.21l8.26-6.93,3.03,3ZM204.16,65.67c.62.25,1.43.87,2.3,1.69l5.81,7.27c1.05,1.69,1.78,3.23,1.88,4.2l-27.66,21.34-11.41-11.89,29.07-22.61ZM141.41,111.38c.28-1.29.99-2.47,2.01-3.32l23.98-19.92c.09-.07.2-.11.31-.11.13,0,.25.05.35.15l16.28,16.98c.21.22.21.46.17.62-.04.16-.15.38-.43.47l-30.2,10.02c-2.61.87-5.03,2.18-7.18,3.9l-2.88,2.3c-.84.68-2.01.77-2.83.23-.49-.32-.72-.73-.78-1.37-.18-1.89.26-5.52,1.22-9.95ZM195.88,162.03c-12.15,4.05-28.74.18-32.25-2.17-8.64-12.42-18.14-26.41-18.9-28.15-.38-.92.19-3.01.83-4.48.48-.24.95-.51,1.38-.86l1.79-1.43c3.04,1.22,7.91,6.5,12.05,13.23.1.16.21.34.32.52-.19.69-.29,1.42-.29,2.17,0,4.38,3.36,7.98,7.63,8.38.77,1.06,1.47,2.02,2.05,2.79,1.37,1.86,3.48,3.04,5.78,3.25l12.47,1.12c.76.07,1.53.1,2.29.1,2.68,0,5.32-.43,7.89-1.27l20.85-6.87c1.98.51,4.05.82,6.18.89-1.62,1.76-3.05,2.97-4.54,3.7-1.21.46-13.44,5.06-25.51,9.08Z"/><path class="cls-1" d="M240.2,216.64c5.87,0,10.65-4.78,10.65-10.65s-4.78-10.65-10.65-10.65-10.65,4.78-10.65,10.65,4.78,10.65,10.65,10.65ZM240.2,200.35c3.11,0,5.65,2.53,5.65,5.65s-2.53,5.65-5.65,5.65-5.65-2.53-5.65-5.65,2.53-5.65,5.65-5.65Z"/><path class="cls-1" d="M337.66,198.05c-.51-2.38-1.83-4.55-3.71-6.11l-23.98-19.92c-2.18-1.81-5.41-1.64-7.4.37l-30.67-23.85-.51-.13c-1.82-.46-3.83.47-5.73,1.93l-12.15-10.19-10.23,10.11,13.52,11.04c-2.04,3.84-2.33,6.59-.87,8.35l.18.21,28.71,22.14c-.05.2-.09.4-.12.6l-15.77-3.96c-2.6-.63-4.65-.75-7.91.36-2.08-1.16-4.34-2.08-6.76-2.69h0c-2.27-.57-4.62-.86-6.99-.86-14.33,0-26.1,10.59-27.09,23.95h-.08c0,.31.01.62.02.93-.01.3-.02.6-.02.9,0,1.75.19,3.51.56,5.22,2.16,9.97,10.35,17.62,20.48,19.87,3.62,4.56,6.3,7.37,9.59,8.93l.18.08c.13.05,13.05,4.94,25.8,9.19,4.33,1.44,9.21,2.03,14,2.03,10.22,0,20.02-2.65,23.22-5.22l.28-.22.21-.29c3.08-4.43,18.53-26.66,19.67-29.47.76-1.88.5-4.07.01-5.86.64-.2,1.27-.48,1.85-.86,1.77-1.16,2.81-2.92,3.02-5.07.29-3.1-.55-7.95-1.31-11.47ZM306.78,175.86l23.98,19.92c1.02.85,1.74,2.03,2.01,3.32.95,4.43,1.4,8.06,1.22,9.95-.06.64-.29,1.04-.79,1.37-.82.54-1.99.45-2.83-.23l-2.88-2.3c-2.15-1.72-4.57-3.04-7.18-3.9l-30.2-10.02c-.29-.09-.39-.31-.43-.47s-.04-.4.17-.62l16.28-16.98h0c.18-.18.46-.2.66-.04ZM253.79,146.9l8.26,6.93c-1,1.14-1.88,2.28-2.55,3.21l-8.74-7.14,3.04-3ZM261.9,162.35l5.81-7.27c.88-.83,1.68-1.45,2.3-1.69l29.07,22.61-11.41,11.89-27.66-21.34c.1-.97.83-2.51,1.88-4.21ZM267.73,193.49l20.9,5.25,30.11,9.99c.74.25,1.46.56,2.16.89-.65.44-1.35.97-2.08,1.61l-50.67-16.49c-.44-.5-.9-.99-1.38-1.46.31.06.62.12.96.2ZM304.95,232c-1.89,0-3.42-1.54-3.42-3.42s1.54-3.42,3.42-3.42,3.42,1.54,3.42,3.42-1.54,3.42-3.42,3.42ZM310.03,221.87c-1.41-1.07-3.17-1.72-5.08-1.72-4.64,0-8.42,3.78-8.42,8.42,0,3,1.58,5.63,3.94,7.12-.28.39-.56.76-.8,1.09-.52.71-1.33,1.16-2.2,1.24l-12.47,1.12c-2.77.25-5.52-.07-8.16-.94l-15.32-5.04c7.75-4.55,12.92-12.68,12.92-21.94,0-3.46-.74-6.79-2.08-9.84l42.54,13.84c-1.52,1.78-3.15,3.97-4.88,6.65ZM245.98,190.48c11.31.03,19.84,8.15,19.84,18.91s-9.13,19.93-20.36,19.93-19.95-8.57-20.32-19.25c.61-10.53,9.62-18.99,20.84-19.6ZM329.46,219.43c-.76,1.75-10.26,15.75-18.91,28.16-3.51,2.35-20.1,6.22-32.25,2.17-12.07-4.02-24.3-8.63-25.51-9.08-1.49-.72-2.92-1.94-4.54-3.7,2.13-.07,4.2-.38,6.18-.89l20.85,6.86c2.57.85,5.21,1.27,7.89,1.27.76,0,1.52-.03,2.28-.1l12.47-1.12c2.3-.21,4.41-1.39,5.78-3.25.57-.78,1.28-1.74,2.04-2.79,4.27-.4,7.63-4.01,7.63-8.38,0-.75-.11-1.48-.29-2.17.11-.18.22-.35.32-.52,4.15-6.72,9.02-12,12.05-13.23l1.79,1.43c.43.35.9.62,1.38.86.63,1.44,1.2,3.56.83,4.47Z"/></svg>