<?xml version="1.0" encoding="UTF-8"?><svg id="Layer_3" xmlns="http://www.w3.org/2000/svg" viewBox="0 0 480 320"><defs><style>.cls-1{fill:#fff;}</style></defs><path class="cls-1" d="M241.34,67.59v-.02h-3.33v.02c-42.52.36-63.32,20.04-70.32,28.55-14.31,17.4-18.58,41.41-12.69,71.3.08.5,2.13,12.52,7.61,27.01l.08.19c1.29,2.7,2.42,5.13,3.48,7.44-2.93,2.4-3.89,6.54-2.09,9.87l16.72,32.29c1.06,1.97,2.94,3.16,5.28,3.33.2.01.4.02.6.02.87,0,1.78-.15,2.68-.41,1.7,2.6,4.17,4.1,6.91,4.14.03,0,.07,0,.1,0,2.62,0,5.04-1.37,6.32-3.58.62-1.07.91-2.25.91-3.46,2.06-1.12,3.56-2.97,4.24-5.21.69-2.27.45-4.67-.67-6.75l-18.13-33.88c-2.24-4.19-7.38-5.83-11.63-3.81-.66-1.35-1.04-2.12-1.06-2.16l-.17.08c-14.17-38.02-14.61-67.05-1.29-86.3,15.75-22.76,46.96-26.47,64.78-26.58,17.82.12,49.03,3.83,64.78,26.58,13.32,19.25,12.88,48.28-1.29,86.3l-.17-.08s-.39.81-1.06,2.16c-4.25-2.03-9.39-.38-11.63,3.81l-18.13,33.88c-1.12,2.09-1.36,4.49-.67,6.75.68,2.24,2.19,4.09,4.24,5.21,0,1.21.29,2.39.91,3.46,1.28,2.21,3.69,3.58,6.32,3.58.03,0,.07,0,.1,0,2.74-.04,5.21-1.54,6.91-4.14.91.26,1.82.41,2.68.41.2,0,.4,0,.6-.02,2.34-.18,4.22-1.36,5.3-3.37l16.68-32.22c1.81-3.36.85-7.5-2.08-9.9,1.06-2.3,2.19-4.74,3.48-7.44l.08-.19c5.48-14.49,7.53-26.51,7.6-26.94,5.9-29.95,1.63-53.97-12.68-71.37-7-8.51-27.8-28.2-70.32-28.55ZM167.12,192.26c-1.02-2.73-1.92-5.37-2.7-7.86l3.24-1.21c.79,2.49,1.64,5.02,2.55,7.58l-3.09,1.48ZM186.44,242.59c-.79-.06-1.08-.4-1.23-.68l-16.72-32.29c-.43-.79-.4-1.71-.04-2.52,3.49,7.66,6.64,14.47,12.35,24.37,4.16,7.23,5.55,9.79,6.19,11.11-.19.02-.38.03-.55.01ZM198.35,245.25c-.38.66-1.16,1.08-1.99,1.08-.01,0-.02,0-.03,0-1.18-.02-2.27-.85-3.09-2.35-.73-1.34-.94-1.81-1.18-2.37-.58-1.32-1.18-2.68-6.92-12.64-5.82-10.09-8.79-16.61-12.55-24.87-1.06-2.33-2.15-4.71-3.36-7.31l2.97-1.42c1.51,3.09,7.72,15.7,14.77,28.54,6.03,10.98,7.7,13.5,9.18,15.72.61.91,1.13,1.7,1.93,3.05.4.68.78,1.68.27,2.56ZM184.63,200.81l18.13,33.88c.49.91.59,1.96.29,2.94-.16.54-.43,1.02-.79,1.43l-21.54-40.26c1.55-.2,3.13.55,3.91,2.01ZM309.14,190.78c.91-2.57,1.76-5.1,2.55-7.58l3.24,1.21c-.78,2.49-1.68,5.13-2.7,7.86l-3.09-1.48ZM276.59,234.69l18.13-33.88c.7-1.3,2.03-2.04,3.42-2.04.17,0,.33.01.5.03l-21.54,40.26c-.36-.41-.63-.89-.79-1.43-.3-.99-.2-2.03.29-2.94ZM286.11,243.98c-.81,1.5-1.91,2.33-3.09,2.35-.01,0-.02,0-.03,0-.83,0-1.61-.42-1.99-1.08-.51-.88-.14-1.88.27-2.56.8-1.35,1.32-2.14,1.93-3.05,1.48-2.22,3.16-4.75,9.18-15.72,7.05-12.84,13.26-25.45,14.77-28.54l2.97,1.42c-1.21,2.6-2.3,4.98-3.36,7.31-3.76,8.26-6.73,14.78-12.55,24.87-5.74,9.96-6.34,11.32-6.92,12.64-.24.55-.46,1.03-1.18,2.37ZM310.84,209.65l-16.68,32.22c-.17.32-.46.66-1.25.72-.17.01-.36,0-.55-.01.64-1.31,2.03-3.88,6.19-11.11,5.71-9.9,8.86-16.71,12.35-24.37.36.8.39,1.73-.05,2.55ZM319.42,166.61c-.01.08-.92,5.36-3.07,12.99l-3.22-1.2c9.27-31.99,7.75-57.17-4.58-74.98-16.77-24.23-49.06-28.49-68-28.73h0c-.29-.01-.59,0-.89,0-.3,0-.6,0-.89,0h0c-18.94.25-51.23,4.51-68,28.74-12.33,17.81-13.85,42.99-4.58,74.98l-3.22,1.2c-2.15-7.63-3.06-12.93-3.08-13.06-5.59-28.42-1.68-51.04,11.64-67.23,6.61-8.04,26.44-26.75,67.63-26.75h1c41.19,0,61.01,18.7,67.63,26.75,13.32,16.19,17.23,38.81,11.62,67.3Z"/></svg>