<?xml version="1.0" encoding="UTF-8"?>
<svg id="EDIT_ART" data-name="EDIT ART" xmlns="http://www.w3.org/2000/svg" viewBox="0 0 48.98 50">
  <defs>
    <style>
      .cls-1 {
        fill: #fff;
      }
    </style>
  </defs>
  <path class="cls-1" d="M26.18,23.87c.22-1.32.23-1.82.23-2.18,0-.25,0-.39.09-.76.04-.17.13-.43.23-.73.41-1.17,1.09-3.13.44-4.98,0-.02,0-.04,0-.06-.08-1.53-2.02-4.97-3.15-6.23-1.19-1.33-2.43-3.94-3.18-5.94-1.11-2.94-3.15-2.46-3.17-2.46-.03,0-.1.02-.18.04-.57.13-2.08.48-3.21.93-1.98.78-1.97,1.48-1.75,3.13l.04.29c.24,1.86.72,2.62,1.77,4.29.91,1.45.38,2.9-.25,4.26-.43.93-.88,1.64-1.33,2.12-.93-.03-1.8.01-2.41.13-.16-.45-.15-1.12.03-1.93.28-1.27-.07-2.11-.41-2.59-.58-.81-1.59-1.29-3.02-1.44-4.13-.45-6.18,4.85-6.48,7.33-.32,2.66,1.53,7.94,3.67,10.45,2.18,2.56,6.4,3.03,10.19,3.27.09,0,.19,0,.28,0,1.89,0,3.52-1.19,4.65-2.3.58-.15,3.02-.79,3.68-1.01,1.86-.62,2.94-1.84,3.24-3.63ZM20.2,25.84l-.13.15c-.05.06-.13.15-.22.27-.72.9-2.9,3.65-5.46,3.5-2.58-.16-7.39-.47-9.47-2.9-2.07-2.44-3.69-7.5-3.43-9.65.22-1.78,1.79-6.44,4.97-6.44.12,0,.24,0,.36.02,1.12.12,1.89.46,2.28,1.01.32.45.4,1.04.24,1.77-.2.9-.32,2.14.25,2.99.29.43.73.7,1.27.79,1.58.26,2.97-.9,4.15-3.45.52-1.12,1.48-3.21.19-5.26-1.03-1.63-1.41-2.24-1.62-3.87l-.04-.29c-.19-1.42-.2-1.51,1.1-2.02,1.06-.42,2.52-.75,3.06-.88.09-.02.16-.04.2-.05.01,0,1.18-.19,1.94,1.82.79,2.09,2.1,4.84,3.38,6.27,1.09,1.21,2.83,4.42,2.89,5.58.06,1.23-.9,6.84-1.83,8.05-1.23,1.59-2.47,2.41-3.9,2.55l-.2.02ZM20.52,27.1c.05-.07.1-.13.14-.18.02-.03.05-.06.07-.08,2.13-.31,3.5-1.78,4.36-2.89-.42,1.87-1.96,2.39-2.49,2.56-.35.12-1.26.37-2.09.59Z"/>
  <path class="cls-1" d="M19.66,19.14l-2.53-1.35c-.76-.41-1.7-.17-2.17.55l-2.59,3.93c-.46.7-.33,1.64.31,2.19l2.52,2.15c.31.26.69.4,1.08.4.1,0,.2,0,.3-.03.5-.09.92-.4,1.16-.84l2.6-4.74c.22-.39.26-.85.14-1.28-.13-.43-.42-.78-.81-.99ZM19.42,20.91l-2.6,4.74c-.09.17-.25.28-.44.31-.19.03-.37-.02-.52-.14l-2.52-2.15c-.24-.2-.29-.56-.12-.82l2.59-3.93c.12-.18.32-.28.52-.28.1,0,.2.02.29.07l2.53,1.35c.15.08.26.21.31.37.05.16.03.33-.05.48Z"/>
  <path class="cls-1" d="M48.52,35.77c-.3-2.48-2.35-7.78-6.48-7.33-1.43.15-2.44.64-3.02,1.44-.35.48-.7,1.32-.41,2.61.18.83.18,1.53,0,1.97-.59-.11-1.43-.16-2.33-.13-.48-.48-.94-1.2-1.39-2.18-.63-1.36-1.17-2.82-.25-4.26,1.05-1.67,1.54-2.43,1.77-4.29l.04-.29c.22-1.65.23-2.35-1.75-3.13-1.13-.45-2.64-.8-3.21-.93-.08-.02-.15-.03-.18-.04-.02,0-2.06-.48-3.17,2.46-.76,2-1.99,4.62-3.18,5.94-1.13,1.26-3.08,4.7-3.15,6.23,0,.02,0,.04,0,.06-.65,1.85.03,3.81.44,4.98.1.3.19.55.23.73.08.36.09.5.09.76,0,.36.02.86.23,2.18.29,1.79,1.38,3.01,3.24,3.63.66.22,3.1.86,3.68,1.01,1.13,1.12,2.76,2.3,4.65,2.3.09,0,.19,0,.28,0,3.79-.24,8.02-.71,10.19-3.27,2.14-2.52,3.99-7.79,3.67-10.45ZM26.37,45.19c-1.39-.46-2.21-1.31-2.49-2.57.86,1.11,2.24,2.59,4.37,2.9.02.03.04.05.07.08.04.05.09.11.14.18-.83-.22-1.74-.47-2.09-.59ZM44.06,45.55c-2.07,2.44-6.88,2.74-9.47,2.9-2.56.16-4.74-2.59-5.46-3.5-.1-.12-.17-.21-.22-.27l-.13-.15-.2-.02c-1.43-.15-2.67-.96-3.9-2.55-.93-1.21-1.89-6.82-1.83-8.05.06-1.16,1.8-4.37,2.89-5.58,1.29-1.43,2.59-4.18,3.38-6.27.64-1.68,1.56-1.82,1.85-1.82.06,0,.09,0,.09,0,.04,0,.11.03.2.05.55.13,2,.46,3.06.88,1.3.51,1.29.6,1.1,2.02l-.04.29c-.21,1.63-.59,2.24-1.62,3.87-1.29,2.05-.33,4.14.19,5.26,1.18,2.55,2.57,3.71,4.15,3.45.54-.09.98-.36,1.27-.79.57-.84.45-2.09.25-3.01-.16-.71-.08-1.3.24-1.75.4-.55,1.16-.89,2.28-1.01,3.43-.37,5.11,4.58,5.33,6.42.26,2.15-1.35,7.21-3.43,9.65Z"/>
  <path class="cls-1" d="M34.03,37.03c-.48-.72-1.41-.96-2.17-.55l-2.53,1.35c-.4.21-.69.56-.81,1-.13.43-.08.88.14,1.28l2.6,4.74c.24.44.67.75,1.16.84.1.02.2.03.3.03.39,0,.77-.14,1.08-.4l2.52-2.15c.64-.55.77-1.49.31-2.19l-2.59-3.93ZM35.63,42.35l-2.52,2.15c-.14.12-.33.17-.52.14-.19-.03-.34-.15-.43-.31l-2.6-4.74c-.08-.15-.1-.32-.05-.48.05-.16.16-.29.31-.37l2.53-1.35c.09-.05.19-.07.29-.07.2,0,.4.1.52.28l2.59,3.93c.17.26.12.61-.12.82Z"/>
</svg>