<?xml version="1.0" encoding="UTF-8"?>
<svg id="EDIT_ART" data-name="EDIT ART" xmlns="http://www.w3.org/2000/svg" viewBox="0 0 49.05 50">
  <defs>
    <style>
      .cls-1 {
        fill: #fff;
      }
    </style>
  </defs>
  <path class="cls-1" d="M.61,23.4l.8,4.41c.16.88.68,1.66,1.47,2.19l1.23.83c-.36.89-.38,1.88-.02,2.8l4.82,12.74c.61,1.62,2.22,2.73,4.1,2.83l1.63.09c.28.13.61.21.97.21.27,0,.55-.04.83-.12l2.18-.81c1.18-.35,2.12-1.06,2.53-1.89.26-.52.29-1.06.09-1.56l-6.92-17.51c-.51-1.3-2.45-1.86-4.41-1.28l-2.18.81c-.49.15-.91.41-1.19.74l-1.2-.81-.77-4.2.4-1.07c.1-.08.18-.17.26-.29.09-.15.16-.36.34-.94.5-1.64,1.68-5.48,4.52-8.87,3.49-4.17,8.3-6.28,14.31-6.28.03,0,.06,0,.09,0h0s.02,0,.03,0c0,0,.02,0,.03,0h0s.06,0,.09,0c6.01,0,10.82,2.11,14.31,6.28,2.84,3.39,4.01,7.23,4.52,8.87.18.59.25.8.34.94.07.12.16.21.26.29l.4,1.07-.77,4.2-1.2.81c-.28-.33-.69-.59-1.19-.74l-2.15-.8h-.03c-1.96-.59-3.9-.03-4.41,1.27l-6.92,17.51c-.2.49-.16,1.03.09,1.56.41.84,1.35,1.54,2.53,1.89l2.15.8h.03c.28.09.56.13.83.13.36,0,.69-.07.97-.21l1.63-.09c1.88-.1,3.49-1.22,4.1-2.83l4.82-12.74c.35-.93.33-1.91-.02-2.8l1.23-.83c.79-.53,1.31-1.31,1.47-2.19l.8-4.41c.12-.68.02-1.37-.3-2l-.08-.22h.15c-.24-7.06-3.15-12.71-8.41-16.34C35.77,2.06,30.29.49,24.73.5h0c-.07,0-.13,0-.2,0-.07,0-.14,0-.22,0h0c-5.56-.01-11.03,1.56-15.06,4.34C3.98,8.47,1.07,14.12.84,21.18h.15s-.08.23-.08.23c-.32.63-.42,1.32-.3,2ZM9.87,46.01l-4.82-12.74c-.38-1-.17-2.09.56-2.93l.81-.79,7.37,18.66-.72-.04c-1.47-.08-2.73-.93-3.2-2.17ZM8.05,28.12l2.18-.81c1.52-.44,2.87,0,3.14.67l6.92,17.51c.09.22.07.47-.06.73-.28.57-1.01,1.1-1.91,1.36l-2.18.81c-.63.18-1.16.01-1.24-.18l-7.66-19.39s0-.03,0-.05l.02-.02-.02-.02s.01-.04.02-.06c.08-.17.34-.41.79-.54ZM4.68,27.86l.68.46-1.13,1.35-.77-.52c-.56-.37-.92-.91-1.03-1.52l-.8-4.41c-.08-.47-.01-.94.21-1.37l.1-.27s0,0,0,0c.59.2,1.25.43,1.84.49l-.18.48c-.06.13-.08.28-.05.43l.8,4.41c.04.2.15.37.32.48ZM32.91,48.39l-2.15-.8h-.03c-.9-.28-1.63-.8-1.91-1.37-.13-.26-.15-.51-.06-.73l6.92-17.51c.27-.68,1.62-1.12,3.14-.67l2.15.8h.03c.45.14.71.39.79.55.01.02.02.04.02.06l-.02.02.02.02s0,.05,0,.05l-7.66,19.39c-.08.19-.61.36-1.24.18ZM44,33.27l-4.82,12.74c-.47,1.24-1.72,2.09-3.2,2.17l-.72.04,7.37-18.66.81.79c.73.84.93,1.93.56,2.93ZM47.43,23.22l-.8,4.41c-.11.61-.48,1.14-1.03,1.52l-.77.52-1.13-1.35.68-.46c.17-.11.28-.28.32-.48l.8-4.41c.03-.15,0-.29-.05-.43l-.18-.48c.59-.06,1.25-.29,1.84-.49,0,0,0,0,0,0l.08.21.03.06c.22.43.3.9.21,1.37ZM9.84,5.69c3.91-2.69,9.23-4.2,14.67-4.16,5.44-.05,10.79,1.46,14.71,4.16,4.72,3.26,7.37,8.02,7.89,14.18l-2.45,1.03c-.05-.13-.12-.38-.2-.62-.52-1.7-1.74-5.68-4.71-9.23-3.69-4.41-8.77-6.65-15.1-6.65-.04,0-.08,0-.11,0-.04,0-.08,0-.11,0-6.33,0-11.41,2.24-15.1,6.65-2.97,3.55-4.19,7.53-4.71,9.23-.08.25-.15.5-.2.62l-2.45-1.03c.52-6.16,3.17-10.93,7.89-14.18Z"/>
</svg>