<?xml version="1.0" encoding="UTF-8"?>
<svg id="EDIT_ART" data-name="EDIT ART" xmlns="http://www.w3.org/2000/svg" viewBox="0 0 46.74 50">
  <defs>
    <style>
      .cls-1 {
        fill: #fff;
      }
    </style>
  </defs>
  <path class="cls-1" d="M3.64,8.34C.03,13.07-.66,19.69,1.61,28.03l.06-.02.9,2.15v.02c.23.46.17,1.02-.15,1.41-.94,1.19-2.34,3.53-1.17,5.9.96,1.94,1.55,3.04,1.87,3.59l-.16.1c-.24.15-.41.38-.48.65-.07.27-.02.56.12.8l2.23,3.69c.2.33.55.51.9.51.19,0,.37-.05.54-.15l1.72-1.04s.03-.03.05-.04l.53.88c1.22,2.14,2.64,2.7,3.85,2.7.78,0,1.46-.23,1.95-.43l.14.23c.15.25.4.43.68.5.09.02.18.03.27.03.2,0,.4-.05.57-.16l.35-.21c.52-.32.69-1,.37-1.52l-.13-.21c.14-.03.29-.09.42-.17l2.37-1.44c.34-.2.57-.52.66-.9.09-.38.03-.77-.17-1.11l-8.51-14.06c-.42-.69-1.32-.91-2.01-.5l-2.37,1.44c-.13.08-.25.18-.35.29l-.04-.06c-.32-.52-1-.69-1.52-.37l-.35.21c-.52.32-.69,1-.37,1.52l.43.7c-1.02.87-2.86,2.8-.68,6.18l.59.98s-.04.02-.06.03l-.67.41c-.31-.54-.89-1.63-1.82-3.51-.92-1.86.27-3.8,1.05-4.8.56-.71.67-1.66.29-2.49l-1.02-2.45h0c-1.63-6.25-1.53-11.45.31-15.53.35.28.8.59,1.51.59.6,0,1.4-.22,2.48-.88,2.29-1.4,5.07-2.67,7.08-3.23.29-.08.56-.13.83-.18,1.41-.25,2.25-.61,2.02-3.43-.05-.57-.45-.99-1.08-1.12-.67-.14-1.86-.22-3.24-.1,4.47-1.66,9.03-1.88,10.97-1.89,1.94,0,6.5.22,10.97,1.89-1.38-.12-2.56-.04-3.24.1-.63.13-1.03.55-1.08,1.12-.23,2.83.61,3.18,2.02,3.43.26.05.53.09.83.18,2.01.56,4.79,1.83,7.08,3.23,1.08.66,1.87.88,2.48.88.71,0,1.16-.31,1.51-.59,1.83,4.07,1.94,9.28.31,15.53h0s-1.02,2.44-1.02,2.44c-.38.83-.27,1.78.29,2.49.79.99,1.97,2.94,1.05,4.8-.93,1.89-1.52,2.97-1.82,3.51l-.67-.41s-.04-.02-.06-.03l.59-.97c2.18-3.39.35-5.32-.68-6.19l.43-.7c.15-.25.2-.55.13-.84-.07-.29-.25-.53-.5-.68l-.35-.21c-.52-.32-1.2-.15-1.52.37l-.04.06c-.1-.11-.21-.21-.35-.29l-2.37-1.44c-.69-.42-1.6-.2-2.01.5l-8.51,14.06c-.2.34-.26.73-.17,1.11.09.38.33.7.66.9l2.37,1.44c.13.08.27.13.42.17l-.13.21c-.32.52-.15,1.2.37,1.52l.35.21c.18.11.37.16.57.16.09,0,.18-.01.27-.03.29-.07.53-.25.68-.5l.14-.23c.49.2,1.17.43,1.95.43,1.21,0,2.63-.56,3.84-2.69l.54-.89s.03.03.05.04l1.72,1.04c.17.1.36.15.54.15.36,0,.7-.18.9-.51l2.23-3.69c.15-.24.19-.52.12-.8s-.24-.5-.48-.65l-.16-.1c.31-.56.91-1.65,1.87-3.59,1.17-2.37-.23-4.71-1.17-5.9-.31-.39-.37-.95-.15-1.41l.91-2.17.06.02c2.27-8.34,1.58-14.96-2.03-19.69-.88-1.15-1.93-2.18-3.14-3.09l.03-.04c-.16-.1-.32-.2-.49-.29-1.9-1.33-4.16-2.38-6.78-3.13-3.78-1.09-7.37-1.27-9.26-1.28h0s-.06,0-.08,0c-.03,0-.06,0-.08,0h0c-1.9.01-5.48.2-9.26,1.28-2.62.75-4.88,1.8-6.78,3.13-.17.09-.33.19-.49.29l.03.04c-1.21.91-2.26,1.94-3.14,3.09ZM7.38,31.81c.03-.11.1-.2.19-.26l2.37-1.44c.07-.04.15-.06.22-.06.14,0,.29.07.37.21l8.51,14.06c.06.1.08.21.05.32-.03.11-.1.2-.19.26l-2.37,1.44c-.2.12-.46.06-.59-.14l-8.51-14.06c-.06-.1-.08-.21-.05-.32ZM5.32,31.62l.35-.21s.02,0,.04,0c.02,0,.05.01.06.03l10.12,16.72s0,.07-.02.09l-.35.21h0s-.03.01-.05,0c-.02,0-.03-.01-.04-.03L5.29,31.71s0-.07.02-.09ZM5.38,33.85l8.47,13.98c-1.13.43-2.85.76-4.36-1.9l-4.46-7.36c-1.64-2.56-.56-3.93.35-4.73ZM5.24,41.03l2.23,3.69s0,.01,0,.02l-1.74,1.04-2.23-3.7,1.74-1.04ZM27.84,44.9c-.1-.06-.17-.15-.19-.26-.03-.11,0-.23.05-.32l8.51-14.06c.06-.1.15-.17.26-.19.03,0,.07-.01.1-.01.08,0,.15.02.22.06l2.37,1.44c.2.12.27.39.14.59l-8.51,14.06c-.06.1-.15.17-.26.19-.11.03-.23,0-.32-.05l-2.37-1.44ZM31.32,48.43s-.03.03-.04.03c-.02,0-.04,0-.05,0l-.35-.21s-.04-.06-.02-.09l10.12-16.72s.04-.03.06-.03c.01,0,.02,0,.03,0l.35.21s.03.02.03.04c0,.02,0,.04,0,.05l-10.12,16.72ZM37.25,45.95c-1.51,2.64-3.23,2.32-4.35,1.88l8.47-13.98c.91.8,1.99,2.17.34,4.74l-4.45,7.36ZM40.99,45.78l-1.72-1.04-.27.44.27-.46,2.25-3.69,1.73,1.06-2.25,3.69ZM31.31,4.55c1.27-.26,4.79-.29,7.56,1.21.57.4,1.12.83,1.64,1.31-3.5-1.45-7.85-2.13-9.45-2.28,0-.02,0-.03,0-.04,0-.04.01-.14.25-.19ZM43.46,10.82s-.05.04-.07.06c-.53.44-1.04.86-2.9-.28-2.37-1.44-5.25-2.76-7.35-3.34-.34-.09-.65-.15-.92-.2-.8-.14-1.17-.21-1.2-1.24,1.77.19,7.82,1.1,11.29,3.32l.04-.06c.41.55.79,1.13,1.12,1.74ZM14.52,7.06c-.27.05-.58.1-.92.2-2.09.58-4.98,1.9-7.34,3.34-1.87,1.14-2.37.72-2.9.27-.02-.02-.05-.04-.07-.06.33-.61.7-1.19,1.12-1.74l.04.06c3.47-2.22,9.52-3.13,11.29-3.32-.04,1.03-.4,1.1-1.2,1.24ZM15.42,4.55c.24.05.25.15.25.19,0,.02,0,.03,0,.04-1.6.15-5.95.83-9.45,2.28.52-.47,1.07-.91,1.64-1.31,2.77-1.5,6.29-1.47,7.56-1.21Z"/>
</svg>