<?xml version="1.0" encoding="UTF-8"?>
<svg id="EDIT_ART" data-name="EDIT ART" xmlns="http://www.w3.org/2000/svg" viewBox="0 0 48.92 50">
  <defs>
    <style>
      .cls-1 {
        fill: #fff;
      }
    </style>
  </defs>
  <path class="cls-1" d="M48.3,21.41l-1.35-2.43c-.11-.2-.29-.35-.49-.43-.44-6.61-3.39-11.54-8.78-14.68C32.57.89,26.9.52,24.54.5h0s-.05,0-.08,0c-.03,0-.05,0-.08,0h0c-2.36.02-8.03.39-13.14,3.36C5.85,7,2.9,11.93,2.45,18.54c-.2.09-.38.23-.49.43l-1.35,2.43c-.06.11-.1.23-.11.36-.1.24-.11.51-.01.76l1.44,3.75c.1.25.29.45.52.57.01.1.04.2.09.32.2.45,3.54,7.3,5.37,10.79h-.07v9.23l1.67,1.56h2.77c.14,0,.27-.02.4-.06.12.47.53.83,1.01.83h.03l4.02-.53c.9-.02,1.62-.83,1.62-1.81v-8.32h-3.97v-3h3.97v-8.43c0-.99-.73-1.79-1.62-1.81l-3.95-.42h-.06c-.26,0-.5.1-.69.26-.17-.1-.37-.15-.58-.15h-2.94l-1.67,1.56v1.3c-1.4-2.09-2.19-2.69-2.66-2.83-.01-.05-.02-.11-.04-.16l-1.12-2.91.96-1.74c.13-.23.16-.5.08-.76,0-.01-.01-.02-.02-.03.63-.22,1.2-1.02,2.02-2.16.52-.72,1.1-1.53,1.77-2.27,2.61-2.93,8.79-5.74,15.57-5.47h0s.04,0,.06,0c.02,0,.04,0,.06,0h0c6.78-.27,12.96,2.54,15.57,5.47.67.75,1.25,1.56,1.76,2.27.82,1.14,1.4,1.94,2.02,2.16,0,.01-.01.02-.01.03-.08.25-.05.52.08.76l.96,1.74-1.12,2.91c-.02.05-.03.1-.04.16-.47.14-1.26.74-2.66,2.83v-1.3l-1.67-1.56h-2.94c-.21,0-.41.06-.58.15-.19-.17-.43-.27-.69-.27l-4.01.43c-.9.02-1.62.82-1.62,1.81v8.43h3.97v3h-3.97v8.32c0,.98.72,1.79,1.62,1.81l3.98.53h.07c.48,0,.89-.35,1.01-.82.13.04.26.06.4.06h2.77l1.67-1.56v-9.23h-.07c1.83-3.48,5.17-10.34,5.37-10.79.05-.11.08-.22.09-.32.23-.12.43-.31.52-.57l1.44-3.74c.09-.25.09-.52-.01-.76-.01-.13-.05-.25-.11-.36ZM11.76,4.76c5.08-2.95,10.91-3.22,12.7-3.22,1.79,0,7.63.27,12.7,3.22,3.97,2.31,6.54,5.67,7.67,10.01-3.7-6.27-13.7-8.74-20.3-8.78h0s-.05,0-.08,0c-.03,0-.05,0-.08,0h0c-6.6.04-16.6,2.51-20.3,8.78,1.13-4.35,3.69-7.7,7.67-10.01ZM7.84,33.29v.15h.08c1.2,2.4,2.3,4.56,2.6,5.02.23.35,0,.66-.18.78-.1.07-.34.21-.52,0-.61-.77-5.61-10.95-6.28-12.4l.94-.31s.01,0,.02-.01c.57,1.16,2.01,4.1,3.35,6.78ZM13.67,26.33c0-.07.03-.12.05-.13l3.92.42h.06c.34,0,.62.35.62.78v7.4h-3.97v5.06h3.97v7.29c0,.43-.28.78-.62.78l-4,.53s-.02-.04-.02-.08v-22.05ZM9.92,26.32h2.53c.07,0,.13.05.13.09v21.05c0,.13-.14.25-.3.25h-2.36l-1.05-.98v-7.05c.05.09.1.15.13.2.26.34.64.51,1.04.51.3,0,.61-.1.89-.3.63-.45.99-1.35.44-2.18-.27-.41-1.3-2.43-2.5-4.85v-5.76l1.05-.98ZM7.84,30.07v.91c-.58-1.16-1.16-2.34-1.68-3.41.46.59,1.02,1.41,1.68,2.5ZM2.88,22.16l1.25,3.26c-.46.11-.92.25-1.24.49,0,0,0,0,0,0l-1.44-3.74.08-.13v-.14s1.31-2.35,1.31-2.35h.15s1.06.52,1.06.52l-1.17,2.1ZM42.69,16.94c-.53-.74-1.13-1.57-1.83-2.35-2.78-3.11-9.29-6.09-16.4-5.81-7.1-.28-13.62,2.71-16.4,5.81-.7.79-1.3,1.62-1.83,2.36-.53.74-1.26,1.75-1.54,1.8-.35.02-.68-.07-.89-.15.7-4.45,4.46-7.16,7.54-8.66,3.72-1.81,8.62-2.9,13.13-2.91,4.51.01,9.41,1.1,13.13,2.91,3.08,1.5,6.84,4.2,7.54,8.66-.22.09-.54.18-.89.15-.29-.05-1.02-1.06-1.55-1.8ZM41.01,33.44h.08v-.15c1.34-2.68,2.78-5.62,3.35-6.78,0,0,.01,0,.02,0l.94.31c-.67,1.45-5.68,11.63-6.28,12.4-.17.22-.42.08-.52,0-.18-.13-.41-.43-.18-.78.3-.45,1.4-2.62,2.6-5.02ZM42.77,27.57c-.53,1.07-1.11,2.25-1.68,3.41v-.91c.66-1.09,1.22-1.91,1.68-2.5ZM35.26,48.38s-.02.07-.02.08l-3.94-.52h-.07c-.34,0-.62-.35-.62-.78v-7.29h3.97v-5.06h-3.97v-7.4c0-.43.28-.78.62-.78l3.98-.42s.05.06.05.13v22.05ZM40.05,46.72l-1.05.98h-2.36c-.16,0-.3-.11-.3-.25v-21.05s.05-.09.13-.09h2.53l1.05.98v5.76c-1.21,2.42-2.24,4.44-2.5,4.85-.55.83-.19,1.73.44,2.18.28.2.59.3.89.3.4,0,.77-.17,1.04-.51.03-.04.08-.11.13-.2v7.05ZM46.03,25.9s0,0,0,0c-.32-.24-.77-.38-1.24-.49l1.25-3.26-1.17-2.1,1.04-.51h.17s1.3,2.34,1.3,2.34v.14s.07.13.07.13l-1.44,3.74Z"/>
</svg>