<?xml version="1.0" encoding="UTF-8"?>
<svg id="EDIT_ART" data-name="EDIT ART" xmlns="http://www.w3.org/2000/svg" viewBox="0 0 51.5 50">
  <defs>
    <style>
      .cls-1 {
        fill: #fff;
      }
    </style>
  </defs>
  <path class="cls-1" d="M13.76,20.98c-1.22,0-2.22,1-2.22,2.22s1,2.22,2.22,2.22,2.22-1,2.22-2.22-1-2.22-2.22-2.22ZM13.76,24.33c-.62,0-1.13-.51-1.13-1.13s.51-1.13,1.13-1.13,1.13.51,1.13,1.13-.51,1.13-1.13,1.13Z"/>
  <path class="cls-1" d="M20.78,25.72c.36.29.74.47,1.14.53h0c.24.11.58.15,1,.15,1.53,0,4.07-.64,6.2-2.08,2.36-1.59,3.63-3.77,3.68-6.28.04-2.15-.68-3.94-2.13-5.31-2.28-2.16-5.93-2.75-7.82-2.62v.03s-.09,0-.13-.01c-.2,0-.41.02-.61.07,0-.08-.01-.15-.01-.2l.03-.05-.02-.17c-.07-.55-.17-1.08-.27-1.58.3-.28.44-.71.31-1.13l-1.35-4.41c-.18-.58-.79-.91-1.37-.73-.06.02-.11.04-.16.07l-.02-.04-.44.16c-1.44-1.26-3.19-1.44-4.1-1.48-.25-.05-.51-.09-.76-.13h-.05s-.05,0-.05,0c-2.28.15-3.51.81-5.36,1.8-.77.42-1.65.89-2.78,1.41-2.26,1.06-3.54,3.78-4.22,5.89-.76,2.35-1.08,4.87-1.05,6.22.06,3.22,3.99,5.31,5.68,6.07,2.42,1.08,3.51,2.1,4.66,3.62.95,1.24,2.43,1.94,3.88,1.94.21,0,.42-.02.63-.05.47.07.9.1,1.3.1,2.18,0,3.28-.97,4.05-1.64.06-.05.11-.1.17-.14ZM22.21,25.19s-.02,0-.03,0c-.19,0-.38-.07-.57-.2.57-.57,1.27-1.37,1.87-2.09.13.02.26.03.39.04.04,0,.08,0,.11,0,.11,0,.22,0,.32-.02-.59,1.42-1.37,2.26-2.09,2.26ZM29.92,13.52c1.22,1.15,1.82,2.67,1.79,4.5-.05,2.71-1.76,4.43-3.2,5.4-1.47.99-3.07,1.53-4.29,1.76,1.16-1.36,1.98-3.88,2.08-6.84.11-3.08-.55-5.67-1.65-7.07,1.7.21,3.81.87,5.27,2.25ZM24.81,21.26s.02-.02.02-.04c-.04.17-.08.33-.12.49-.11.04-.22.07-.34.09.26-.33.43-.54.44-.55ZM24.24,15.45c-.23-.25-.51-.55-.86-.98.26-.09.52-.14.79-.13.24,0,.48.06.7.15.17.74.29,1.58.33,2.5,0,0,0-.02,0-.03-.17-.66-.48-1-.96-1.52ZM22.67,11.22c.67.02,1.35.78,1.84,2.06-.1-.01-.2-.02-.3-.03-.47-.02-.93.07-1.37.26-.28-.68-.47-1.51-.59-2.21.14-.06.29-.09.42-.08ZM19.74,2.98l1.35,4.41s0,.01,0,.01h-.01s-1.35-4.42-1.35-4.42h.02ZM18.68,3.32l1.35,4.39s.01.03.02.05l-.37.13h0s-1.35-4.44-1.35-4.44l.35-.13ZM17.66,2.61c-.06.05-.12.1-.17.16-.01-.03-.03-.06-.04-.09-.04-.1-.08-.19-.13-.28.11.06.22.13.33.2ZM15.9,26.1c-1.41.64-3.25.1-4.28-1.25-1.26-1.66-2.45-2.78-5.08-3.95-3.12-1.39-5-3.29-5.04-5.09-.05-2.6,1.22-9.5,4.65-11.1,1.15-.54,2.05-1.02,2.83-1.44,1.78-.95,2.86-1.53,4.87-1.67.09.01.17.02.25.04v.06c.08,0,.2.02.34.02.04,0,.08,0,.12,0,.91.2,1.55.57,1.88,1.37.06.15.14.34.24.57.7,1.66,2.35,5.56,2.18,7.55-.07.85-.44,1.68-.86,2.64-.7,1.58-1.5,3.37-1.33,5.97.03.43.06.85.09,1.23.24,3.36.27,4.54-.85,5.05ZM19.89,25.05c-.6.53-1.31,1.14-2.59,1.32.85-1.06.72-2.83.54-5.4-.03-.39-.06-.8-.09-1.23-.15-2.33.59-3.99,1.24-5.46.45-1.01.87-1.96.95-2.99.06-.66-.05-1.47-.24-2.32.1,0,.21-.02.31-.05l-.23-.72.25.72.77-.27c.08.41.15.83.21,1.27-.04,1.04.51,4,1.49,5.19.39.47.69.8.94,1.07.47.51.61.67.7,1.04.21.85.33,2.7-.19,3.36-.99,1.27-2.84,3.49-3.6,4.06-.15.12-.31.25-.47.39Z"/>
  <path class="cls-1" d="M50.03,31.6c-.68-2.1-1.96-4.83-4.22-5.89-1.13-.53-2.01-1-2.78-1.41-1.86-1-3.08-1.65-5.36-1.8h-.05s-.05,0-.05,0c-.25.03-.51.07-.76.13-.91.05-2.66.22-4.1,1.48l-.44-.16-.02.04c-.05-.02-.1-.05-.16-.07-.58-.18-1.2.15-1.37.73l-1.35,4.41c-.13.42,0,.86.31,1.13-.1.5-.2,1.03-.27,1.58l-.02.17.03.05c0,.05,0,.12-.01.2-.2-.05-.41-.08-.61-.07-.05,0-.09,0-.13.01v-.03c-1.89-.13-5.54.45-7.82,2.62-1.45,1.37-2.16,3.16-2.13,5.31.04,2.52,1.31,4.69,3.68,6.28,2.13,1.44,4.67,2.08,6.2,2.08.42,0,.76-.05,1-.14h0c.4-.07.78-.25,1.14-.54.05.05.11.09.17.14.77.67,1.86,1.64,4.05,1.64.4,0,.83-.03,1.3-.1.21.03.42.05.63.05,1.45,0,2.94-.7,3.88-1.94,1.15-1.51,2.24-2.54,4.66-3.62,1.69-.75,5.62-2.85,5.68-6.07.02-1.35-.29-3.87-1.05-6.22ZM34.18,24.4c-.05.09-.09.18-.13.28-.01.03-.02.06-.04.09-.05-.06-.11-.11-.17-.16.11-.07.22-.14.33-.2ZM32.82,25.32l.32.12.02.02h.02s-1.35,4.42-1.35,4.42c0,0,0,0-.01,0l-.36-.13s.01-.03.02-.05l1.35-4.39ZM31.76,24.97h.02s-1.35,4.42-1.35,4.42c0,0,0,0-.01,0h0s1.35-4.43,1.35-4.43ZM28.83,33.22c.14,0,.28.03.43.08-.12.7-.32,1.53-.59,2.21-.44-.19-.9-.28-1.37-.26-.1,0-.2.02-.3.03.49-1.28,1.17-2.04,1.84-2.06ZM26.3,38.96s0,.02,0,.03c.04-.92.16-1.76.33-2.5.23-.09.46-.14.7-.15.27,0,.53.03.79.13-.35.42-.63.73-.86.98-.48.52-.8.86-.96,1.52ZM27.13,43.81c-.11-.02-.23-.05-.34-.09-.04-.16-.08-.32-.12-.49,0,0,.01.02.02.03,0,0,.17.22.44.55ZM23,45.41c-1.43-.97-3.15-2.69-3.2-5.4-.03-1.83.57-3.35,1.79-4.5,1.46-1.39,3.57-2.04,5.27-2.25-1.11,1.41-1.76,4-1.65,7.07.07,2.08.5,4.04,1.22,5.5.25.53.54.97.84,1.33-1.22-.23-2.81-.77-4.26-1.75ZM29.32,47.18s-.02,0-.03,0c-.64,0-1.33-.66-1.89-1.82-.07-.14-.13-.29-.2-.45.11.01.21.02.32.02.04,0,.08,0,.11,0,.13,0,.26-.02.39-.04.6.72,1.3,1.52,1.87,2.09-.19.12-.38.19-.57.2ZM31.61,47.04c-.16-.14-.31-.28-.47-.39-.76-.57-2.61-2.8-3.6-4.06-.52-.67-.4-2.52-.19-3.36.09-.37.23-.54.7-1.04.25-.26.55-.59.94-1.07.98-1.19,1.53-4.15,1.49-5.19.06-.44.13-.87.21-1.27l.77.27.18-.51-.16.52c.1.03.21.05.31.05-.19.85-.3,1.66-.24,2.32.09,1.03.51,1.98.95,2.99.65,1.47,1.39,3.13,1.24,5.46-.03.43-.06.84-.09,1.23-.18,2.57-.31,4.34.54,5.4-1.28-.17-1.99-.79-2.59-1.32ZM50,37.8c-.03,1.8-1.92,3.7-5.04,5.09-2.64,1.17-3.82,2.3-5.08,3.95-1.03,1.35-2.87,1.89-4.28,1.25-1.12-.51-1.09-1.7-.85-5.05.03-.39.06-.8.09-1.23.17-2.59-.63-4.39-1.33-5.97-.43-.96-.79-1.79-.86-2.64-.17-1.99,1.48-5.88,2.18-7.55.1-.23.18-.42.24-.57.33-.81.97-1.17,1.88-1.37.04,0,.08,0,.12,0,.15,0,.26-.01.35-.02v-.06c.08-.01.16-.03.25-.04,2.01.14,3.09.72,4.87,1.67.79.42,1.68.9,2.83,1.44,3.42,1.6,4.69,8.5,4.65,11.1Z"/>
  <path class="cls-1" d="M37.74,42.97c-1.22,0-2.22,1-2.22,2.22s1,2.22,2.22,2.22,2.22-1,2.22-2.22-1-2.22-2.22-2.22ZM37.74,46.33c-.62,0-1.13-.51-1.13-1.13s.51-1.13,1.13-1.13,1.13.51,1.13,1.13-.51,1.13-1.13,1.13Z"/>
</svg>