<?xml version="1.0" encoding="UTF-8"?>
<svg id="EDIT_ART" data-name="EDIT ART" xmlns="http://www.w3.org/2000/svg" viewBox="0 0 48.48 50">
  <defs>
    <style>
      .cls-1 {
        fill: #fff;
      }
    </style>
  </defs>
  <path class="cls-1" d="M47.36,28.32c1.73-7.38.46-13.09-4.24-19.36C37.44,1.36,28.09.51,24.27.5h0s-.02,0-.03,0-.02,0-.03,0h0c-3.82,0-13.17.86-18.86,8.46C.66,15.23-.61,20.94,1.12,28.32l-.8,1.71,3.02,4.52-.52.74c-.31.44-.3,1.09.04,1.66l6.1,10.43c.37.64,1.03,1.06,1.65,1.06.03,0,.05,0,.08,0l1.26-.07.32.54c.22.38.64.59,1.08.59.18,0,.36-.04.53-.11l.97-.43h0c.2-.09.37-.23.49-.4.05,0,.1.01.16.01.14,0,.29-.03.43-.09l.15-.07c.25-.11.44-.32.52-.57.02-.07.03-.14.04-.21.17.03.33.05.5.05.36,0,.71-.07,1.05-.22.6-.27,1.04-.75,1.23-1.33.17-.54.11-1.11-.18-1.6l-8-13.68c-.6-1.02-2.02-1.44-3.17-.92-.45.2-.82.53-1.05.93l-2.17-3.04-.61-.17c-.37-3.16-.57-8.97,1.99-13.4.99-.42,2.44-2.29,2.75-3.41l.08-.29-.32-.31c1.35-1.54,6.85-6.2,15.52-6.47,8.67.26,14.17,4.93,15.52,6.47l-.32.31.08.29c.31,1.13,1.76,2.99,2.75,3.41,2.55,4.43,2.35,10.24,1.99,13.4l-.61.17-2.17,3.04c-.23-.4-.6-.73-1.05-.93-1.15-.52-2.57-.1-3.17.92l-8,13.68c-.29.5-.35,1.07-.18,1.6.18.58.63,1.06,1.23,1.33.34.15.7.22,1.05.22.17,0,.34-.02.5-.05,0,.07.02.14.04.21.08.25.27.46.52.57l.15.07c.14.06.28.09.43.09.05,0,.1,0,.16-.01.12.17.29.31.49.4l.97.43c.17.08.36.11.54.11.44,0,.86-.22,1.08-.59l.32-.54,1.26.07s.05,0,.08,0c.62,0,1.27-.42,1.65-1.06l6.1-10.43c.33-.57.35-1.22.04-1.66l-.52-.74,3.02-4.52-.8-1.71ZM46.98,29.95l-.12.18c.04-.07.07-.15.09-.23l.03.06ZM1.52,29.89c.02.08.06.16.09.23l-.12-.18.03-.06ZM9.97,40.49c-.05.15-.18.29-.36.37-.38.17-.85.05-1.03-.27l-.02-.03-4.36-7.46.05-.34.87-.39s.07-.02.11-.02c.07,0,.13.02.17.06h-.02s4.53,7.7,4.53,7.7h0c.09.16.07.29.05.38ZM10.62,47.41c-.21.01-.56-.17-.78-.54l-6.1-10.43c-.15-.25-.14-.46-.09-.54l.51-.72,7.14,12.2-.69.04ZM14.49,47.94s-.03.05-.08.07l-.97.43c-.12.05-.26.01-.3-.06l-3.76-6.43c.22-.02.44-.07.65-.16.24-.11.45-.26.61-.45l3.84,6.56s0,.02,0,.03ZM15.49,47.52l-9.09-15.53.04-.03,9.09,15.55-.04.02ZM7.8,31.57c.1-.3.34-.55.67-.7.2-.09.42-.13.63-.13.5,0,.99.23,1.22.63l8,13.68c.14.24.17.51.09.77-.1.3-.34.55-.67.7-.67.3-1.52.07-1.86-.5l-8-13.68c-.14-.24-.17-.51-.09-.77ZM5.79,30.94h0c-.17.08-.3.2-.4.34l-.43-.05-1.63.82-.02.14c-.06.07-.11.15-.15.23l-1.36-2.04c.12.14.27.26.44.35.23.12.48.18.74.18.18,0,.37-.03.54-.09.66-.23,1.05-.87.94-1.51-.02-.09-.03-.2-.05-.31l1.38,1.93ZM3.44,29.49c.03.14-.09.29-.27.36-.15.05-.33.04-.46-.03-.06-.03-.16-.1-.2-.22-1.68-5.97-1.5-10.64.78-15.37l1.51.48c-2.67,5.59-1.73,12.64-1.36,14.78ZM5.79,13.31l-.25.03-.13.21c-.04.07-.09.15-.13.23l-1.52-.48c.6-1.12,1.32-2.24,2.16-3.39l1.8.8.13.13c-.44,1.05-1.69,2.37-2.07,2.46ZM24.26,2.73h0s-.01,0-.02,0c0,0-.01,0-.02,0h0c-9.22.28-14.93,5.24-16.35,6.91l-1.29-.58C12.03,2.3,20.68,1.54,24.24,1.53c3.56,0,12.21.77,17.66,7.54l-1.29.58c-1.42-1.67-7.13-6.63-16.35-6.91ZM40.61,10.84l.13-.13,1.8-.8c.84,1.15,1.56,2.27,2.16,3.39l-1.52.48c-.04-.08-.08-.15-.13-.23l-.12-.21-.25-.03c-.39-.1-1.65-1.41-2.08-2.46ZM43.68,14.71l1.51-.48c2.28,4.73,2.46,9.39.78,15.37-.03.12-.14.19-.2.22-.14.07-.31.08-.46.03-.18-.07-.29-.21-.27-.36.37-2.14,1.31-9.19-1.36-14.78ZM44.07,29.01c-.02.11-.04.22-.05.31-.11.64.28,1.27.94,1.51.18.06.36.09.54.09.26,0,.51-.06.74-.18.17-.09.32-.21.44-.35l-1.36,2.04c-.04-.08-.09-.16-.15-.23l-.02-.14-1.63-.82-.43.05c-.1-.14-.23-.26-.4-.34h0s1.38-1.94,1.38-1.94ZM38.86,40.85c-.18-.08-.31-.21-.36-.37-.03-.09-.04-.23.04-.38l.02-.03,4.52-7.67h-.01c.06-.06.17-.09.27-.04l.87.39.05.34-4.38,7.49c-.18.31-.66.43-1.03.26ZM30.73,46.52c-.33-.15-.57-.4-.67-.7-.08-.26-.05-.52.09-.77l8-13.68c.23-.4.72-.63,1.22-.63.21,0,.43.04.63.13.33.15.57.4.67.7.08.26.05.52-.09.77l-8,13.68c-.33.57-1.18.8-1.86.5ZM42.04,31.96l.04.03-9.09,15.54-.04-.02,9.1-15.55ZM35.03,48.44l-.97-.43s-.07-.05-.08-.07c0,0,0-.02,0-.03l3.84-6.56c.16.19.37.35.61.45.21.09.43.15.65.16l-3.76,6.43c-.04.07-.18.11-.3.06ZM44.74,36.43l-6.1,10.43c-.22.37-.55.56-.78.54l-.69-.04,7.14-12.2.51.72c.05.07.06.29-.09.54Z"/>
</svg>