<?xml version="1.0" encoding="UTF-8"?>
<svg id="EDIT_ART" data-name="EDIT ART" xmlns="http://www.w3.org/2000/svg" viewBox="0 0 47.51 50">
  <defs>
    <style>
      .cls-1 {
        fill: #fff;
      }
    </style>
  </defs>
  <path class="cls-1" d="M9.52,47.77c.57,1.09,1.69,1.72,2.84,1.72.5,0,1-.12,1.47-.36h0c1.23-.64,1.87-1.98,1.69-3.28.34.12.7.18,1.06.18.5,0,1-.12,1.47-.36h0c.76-.39,1.32-1.06,1.57-1.87.26-.81.18-1.68-.21-2.44l-7.88-15.17c-.39-.76-1.06-1.32-1.87-1.57-.81-.26-1.68-.18-2.44.21-.81.42-1.37,1.15-1.6,1.97-.76-.71-1.83-1.01-2.86-.79v-2.56l.52.06c.81-7.22,3.88-12.28,9.13-15.06,4.56-2.41,9.61-2.44,11.34-2.44,1.73,0,6.78.02,11.34,2.44,5.25,2.78,8.32,7.84,9.13,15.06l.55-.06v2.57c-.55-.12-1.12-.11-1.67.07-.46.15-.88.39-1.22.72,0-.03-.01-.06-.02-.09-.26-.81-.82-1.48-1.57-1.87-1.56-.81-3.5-.2-4.31,1.36l-7.88,15.17c-.81,1.56-.2,3.5,1.36,4.31h0c.47.24.97.36,1.47.36.36,0,.72-.06,1.06-.18-.07.47-.03.94.12,1.41.26.81.82,1.48,1.57,1.87.46.24.96.36,1.47.36.32,0,.65-.05.97-.15.81-.26,1.48-.82,1.87-1.57l8.91-17.17c.39-.76.47-1.62.21-2.44-.22-.71-.68-1.3-1.29-1.71v-3.14l.49-.06c-1.09-9.72-4.51-16.42-10.16-19.92C31.54.49,26.62.5,23.98.5h-.22s-.22,0-.22,0c-2.65,0-7.56-.01-12.18,2.85C5.7,6.85,2.28,13.55,1.19,23.27l.52.06v3.12c-1.37.88-1.87,2.68-1.11,4.16l8.91,17.17ZM7.71,25.77c.31-.16.65-.24.98-.24.22,0,.44.03.65.1.55.17.99.55,1.25,1.05l7.88,15.17c.26.51.31,1.09.14,1.63s-.55.99-1.06,1.25c-1.05.54-2.34.13-2.89-.91l-7.88-15.18c-.54-1.05-.13-2.34.91-2.89ZM29.95,44.74h0c-1.05-.54-1.46-1.84-.91-2.89l7.88-15.17c.54-1.05,1.84-1.46,2.89-.91.51.26.88.71,1.05,1.25.17.55.12,1.13-.14,1.63l-7.88,15.17c-.54,1.05-1.84,1.46-2.89.91ZM45.97,30.12l-8.91,17.17c-.26.51-.71.88-1.25,1.05-.54.17-1.12.12-1.63-.14s-.88-.71-1.06-1.25-.12-1.13.14-1.63l8.91-17.17c.26-.51.71-.88,1.25-1.05.21-.07.43-.1.65-.1.34,0,.67.08.98.24.51.26.88.71,1.06,1.25.17.55.12,1.13-.14,1.63ZM23.53,1.56h.17s.05,0,.05,0h.05s0,0,0,0h.17c5.14-.01,18.76-.03,21.27,21.65h0c-1.4-11.91-8.81-18.21-21.44-18.25h0s-.03,0-.05,0c-.02,0-.03,0-.05,0h0c-12.63.04-20.04,6.34-21.44,18.25h0C4.77,1.53,18.39,1.55,23.53,1.56ZM2.45,27.23c.31-.16.65-.24.98-.24.77,0,1.52.42,1.9,1.15l.52,1s0,0,0,0l7.88,15.17s0,0,0,0l.52,1c.54,1.05.13,2.34-.91,2.89-1.05.54-2.34.13-2.89-.91L1.54,30.12c-.54-1.05-.13-2.34.91-2.89Z"/>
</svg>