<?xml version="1.0" encoding="UTF-8"?>
<svg id="EDIT_ART" data-name="EDIT ART" xmlns="http://www.w3.org/2000/svg" viewBox="0 0 49.87 50">
  <defs>
    <style>
      .cls-1 {
        fill: #fff;
      }
    </style>
  </defs>
  <path class="cls-1" d="M24.19,18.75c1.37,0,2.49-1.12,2.49-2.49s-1.12-2.49-2.49-2.49-2.49,1.12-2.49,2.49,1.12,2.49,2.49,2.49ZM24.19,14.82c.8,0,1.44.65,1.44,1.44s-.65,1.44-1.44,1.44-1.44-.65-1.44-1.44.65-1.44,1.44-1.44Z"/>
  <path class="cls-1" d="M21.61,25.65c.78-.37,1.42-1.05,2.3-2.15,2.43-.52,4.39-2.36,4.91-4.74.09-.41.13-.82.13-1.24,0-.07,0-.14,0-.22,0-.07,0-.15,0-.22h-.02c-.24-3.18-3.04-5.69-6.45-5.69-.56,0-1.12.07-1.66.21-.59.15-1.14.37-1.64.66-.79-.27-1.27-.25-1.9-.1l-3.89.98c0-.09-.02-.19-.05-.28l6.96-5.36.04-.04c.34-.41.25-1.06-.25-1.98l3.24-2.65-2.35-2.32-2.92,2.45c-.45-.36-.94-.6-1.37-.49l-.11.03-7.43,5.78-.04-.04c-.45-.47-1.19-.51-1.69-.1L1.64,12.94c-.44.36-.75.87-.87,1.43-.18.84-.38,2-.31,2.74.05.49.29.9.69,1.16.16.1.33.17.5.22-.13.43-.21.98-.02,1.44.27.67,3.99,6.02,4.73,7.09l.04.06.06.05c.58.47,2.02.91,3.65,1.11.48.06,1.16.12,1.92.12,1.03,0,2.22-.11,3.32-.48,3.07-1.02,6.18-2.2,6.22-2.21l.04-.02ZM22.79,12.44c2.77.15,4.99,2.26,5.11,4.87-.12,2.59-2.31,4.66-4.98,4.66s-4.99-2.19-4.99-4.88,2.09-4.63,4.86-4.64ZM8.58,19.76c-.47,0-.91.17-1.24.45-.29-.45-.75-1.12-1.3-1.76l10.55-3.43c-.36.77-.57,1.62-.57,2.51,0,2.27,1.3,4.25,3.23,5.31l-3.87,1.27c-.65.21-1.32.29-2,.23l-3.01-.27c-.23-.02-.45-.14-.59-.33-.07-.1-.16-.21-.24-.33.59-.34.99-.97.99-1.69,0-1.07-.87-1.95-1.95-1.95ZM9.48,21.71c0,.5-.41.91-.91.91s-.91-.41-.91-.91.41-.91.91-.91.91.41.91.91ZM17.53,13.17c.18-.04.33-.07.49-.08-.18.17-.35.35-.52.53l-12.28,3.99c-.21-.19-.42-.35-.64-.5.21-.11.42-.2.65-.28l7.26-2.41,5.04-1.27ZM20.92,1.91l.85.84-2.24,1.83c-.18-.25-.43-.58-.71-.9l2.11-1.77ZM16.98,3.5c.13.05.37.21.68.5l1.32,1.66c.34.55.49.96.51,1.15l-6.76,5.21-2.86-2.98,7.11-5.53ZM1.72,17.4c-.14-.09-.21-.21-.23-.39-.04-.47.06-1.33.29-2.42.07-.33.25-.63.51-.84l5.78-4.8s.08-.05.13-.05c.05,0,.1.02.14.06l3.92,4.09c.08.08.07.18.06.22-.01.05-.05.13-.16.17l-7.28,2.42c-.62.21-1.2.52-1.71.93l-.69.56c-.23.18-.55.21-.78.06ZM15.03,26.89c-2.96.99-7.02.03-7.86-.54-1.69-2.42-4.38-6.36-4.57-6.81-.11-.26.05-.81.21-1.17.12-.06.24-.13.35-.22l.46-.37c.68.25,1.83,1.35,2.99,3.24.03.05.06.1.1.15-.05.17-.08.35-.08.54,0,1.02.8,1.87,1.8,1.94.19.27.37.51.52.7.32.43.8.7,1.33.75l3.01.27c.18.02.36.02.54.02.64,0,1.27-.1,1.88-.3l5.05-1.66c.53.14,1.09.22,1.67.22-.45.5-.83.85-1.24,1.04-.27.1-3.23,1.22-6.16,2.19Z"/>
  <path class="cls-1" d="M25.69,34.93c-1.37,0-2.49,1.12-2.49,2.49s1.12,2.49,2.49,2.49,2.49-1.12,2.49-2.49-1.12-2.49-2.49-2.49ZM25.69,38.85c-.8,0-1.44-.65-1.44-1.44s.65-1.44,1.44-1.44,1.44.65,1.44,1.44-.65,1.44-1.44,1.44Z"/>
  <path class="cls-1" d="M49.1,35.51c-.12-.56-.43-1.06-.87-1.43l-5.78-4.8c-.5-.41-1.24-.37-1.69.1l-.04.04-7.44-5.78-.11-.03c-.43-.11-.91.13-1.37.49l-2.92-2.45-2.35,2.32,3.24,2.65c-.5.92-.59,1.58-.25,1.98l.04.04,6.96,5.36c-.03.09-.04.18-.05.28l-3.9-.98c-.62-.15-1.11-.18-1.89.1-.5-.28-1.05-.51-1.64-.66h0c-.54-.14-1.1-.21-1.66-.21-3.41,0-6.21,2.52-6.45,5.69h-.02c0,.08,0,.15,0,.22,0,.07,0,.14,0,.22,0,.42.04.84.13,1.24.52,2.38,2.48,4.21,4.91,4.74.87,1.1,1.51,1.78,2.3,2.15l.04.02s3.14,1.19,6.22,2.21c1.01.34,2.17.47,3.31.47,2.46,0,4.84-.63,5.59-1.23l.06-.05.04-.06c.74-1.07,4.46-6.42,4.73-7.09.19-.46.11-1.01-.02-1.44.18-.04.34-.11.5-.22.41-.27.64-.67.69-1.16.07-.74-.13-1.9-.31-2.74ZM28.11,23.89l.85-.84,2.11,1.77c-.29.32-.54.65-.71.9l-2.24-1.83ZM30.38,27.94c.02-.18.17-.59.51-1.15l1.32-1.66c.31-.3.55-.45.68-.5l7.11,5.53-2.86,2.98-6.76-5.21ZM32.34,34.32l5.04,1.27,7.26,2.41c.22.07.44.17.65.28-.22.14-.43.31-.64.5l-12.28-3.99c-.16-.19-.33-.36-.52-.53.16,0,.31.04.48.08ZM41.3,40.91c-1.07,0-1.95.87-1.95,1.95,0,.72.4,1.36.99,1.69-.09.12-.17.23-.25.33-.14.19-.35.31-.59.33l-3.01.27c-.68.06-1.35-.02-2-.23l-3.87-1.27c1.93-1.06,3.23-3.04,3.23-5.31,0-.88-.2-1.73-.57-2.51l10.55,3.43c-.55.64-1.01,1.31-1.3,1.76-.34-.28-.77-.45-1.25-.45ZM42.2,42.85c0,.5-.41.91-.91.91s-.91-.41-.91-.91.41-.91.91-.91.91.41.91.91ZM26.96,43.11c-2.67,0-4.86-2.07-4.98-4.66.12-2.61,2.34-4.72,5.11-4.87,2.77,0,4.86,2,4.86,4.64s-2.24,4.88-4.99,4.88ZM47.28,40.68c-.19.46-2.89,4.39-4.57,6.82-.84.57-4.9,1.53-7.86.54-2.92-.97-5.88-2.09-6.16-2.19-.41-.2-.79-.54-1.24-1.04.58,0,1.14-.08,1.67-.22l5.05,1.66c.61.2,1.24.3,1.88.3.18,0,.36,0,.54-.02l3.01-.27c.53-.05,1.02-.32,1.33-.75.14-.19.32-.44.52-.7,1.01-.08,1.8-.92,1.8-1.94,0-.19-.03-.37-.08-.54.03-.05.07-.1.1-.15,1.16-1.88,2.31-2.98,2.99-3.24l.46.37c.11.09.22.16.35.22.16.36.32.91.21,1.16ZM48.38,38.16c-.02.18-.09.3-.23.39-.23.15-.55.12-.78-.06l-.69-.56c-.51-.41-1.09-.72-1.71-.93l-7.28-2.42c-.11-.04-.15-.12-.16-.17-.01-.05-.02-.14.06-.22l3.92-4.09h0s.09-.06.14-.06c.04,0,.09.01.13.05l5.78,4.8c.26.22.44.52.51.84.23,1.09.34,1.95.29,2.42Z"/>
</svg>