<?xml version="1.0" encoding="UTF-8"?>
<svg id="EDIT_ART" data-name="EDIT ART" xmlns="http://www.w3.org/2000/svg" viewBox="0 0 47.67 50">
  <defs>
    <style>
      .cls-1 {
        fill: #fff;
      }
    </style>
  </defs>
  <path class="cls-1" d="M.63,23.23c.12.66,2.85,13.48,3.36,14.64.04.08.08.16.13.23v7.86c0,.92.81,1.66,1.81,1.66h.93c.22.74.91,1.29,1.73,1.29h2.43c.19,0,.36-.04.52-.11.18.41.58.7,1.06.7h2.74c1.03,0,1.87-.84,1.87-1.87v-21.23c0-1.03-.84-1.87-1.87-1.87h-2.7c-.47,0-.87.27-1.07.66-.12-.05-.25-.07-.39-.07h-2.6c-.82,0-1.51.54-1.73,1.29h-.93s-.02,0-.04,0c-1.48-4.6-2.35-4.6-2.74-4.6h0s0-2.71,0-2.71c.24-.08.44-.25.55-.51,1.5-3.36,4.29-6.65,20.15-6.76,15.86.11,18.65,3.4,20.15,6.76.11.26.31.44.55.51v2.71h0c-.39,0-1.26,0-2.74,4.6-.01,0-.02,0-.04,0h-.93c-.22-.74-.91-1.29-1.73-1.29h-2.6c-.14,0-.27.03-.39.07-.2-.39-.6-.66-1.07-.66h-2.7c-1.03,0-1.87.84-1.87,1.87v21.23c0,1.03.84,1.87,1.87,1.87h2.74c.48,0,.88-.29,1.06-.7.16.07.34.11.52.11h2.43c.82,0,1.51-.54,1.73-1.29h.93c1,0,1.81-.75,1.81-1.66v-7.86c.05-.07.09-.15.13-.23.51-1.16,3.24-13.98,3.36-14.64.07-.37-.04-.63-.16-.8.11-.14.18-.32.18-.51v-3.02c0-.3-.16-.55-.39-.7-.31-6.94-3.44-11.96-9.31-14.89C32.73.99,27.45.5,23.84.5h0s0,0,0,0,0,0,0,0h0c-3.62,0-8.89.49-13.52,2.8C4.44,6.24,1.31,11.25,1,18.2c-.23.15-.39.41-.39.7v3.02c0,.19.07.37.18.51-.12.17-.23.43-.16.8ZM12.48,25.72c0-.09.07-.16.16-.16h2.7c.46,0,.84.38.84.84v21.23c0,.46-.38.84-.84.84h-2.74c-.06,0-.11-.05-.11-.11v-22.63ZM7.81,26.92c0-.42.35-.77.77-.77h2.6c.05,0,.09.04.09.09v21.37c0,.14-.12.26-.26.26h-2.43c-.42,0-.77-.35-.77-.77v-20.18ZM35.19,48.35c0,.06-.05.11-.11.11h-2.74c-.46,0-.84-.38-.84-.84v-21.23c0-.46.38-.84.84-.84h2.7c.09,0,.16.07.16.16v22.63ZM39.86,47.1c0,.42-.35.77-.77.77h-2.43c-.14,0-.26-.12-.26-.26v-21.37c0-.05.04-.09.09-.09h2.6c.42,0,.77.35.77.77v20.18ZM1.64,19.1h.46v2.61h-.46v-2.61ZM5.15,45.96v-7.3s.02,0,.02,0c.18,0,.38-.04.57-.11.45-.18.85-.56,1.03-1.06v9.09h-.85c-.42,0-.77-.28-.77-.62ZM5.15,29.4v-1.34c0-.34.35-.62.77-.62h.85v8.98s0-.02,0-.03c-.19-.56-.91-3.62-1.68-6.99h.07ZM4.89,26.7c-.13.08-.25.18-.35.29-.23-1.02-.45-2.02-.66-2.95.29.62.63,1.49,1.01,2.65ZM5.78,36.73c.15.45-.16.76-.42.86-.32.12-.4-.07-.43-.13-.42-.96-3.08-13.27-3.29-14.41,0-.01,0-.02,0-.03.12-.11.53-.15.91-.16.52,2.35,2.83,12.71,3.23,13.87ZM23.83,10.79h0s0,0,0,0,0,0,0,0h0c-16.34.11-19.4,3.65-21.06,7.29-.11-.05-.28-.16-.44-.29,1.04-7.39,11.43-8.39,21.49-8.39,10.06,0,20.45,1.01,21.49,8.39-.16.13-.32.24-.44.29-1.65-3.64-4.7-7.18-21.05-7.29ZM46.02,21.71h-.46v-2.61h.46v2.61ZM43.79,24.05c-.21.92-.43,1.92-.66,2.95-.1-.11-.22-.21-.35-.29.38-1.16.72-2.03,1.01-2.65ZM40.9,27.44h.85c.42,0,.77.28.77.62v1.34h.07c-.77,3.36-1.48,6.43-1.68,6.99,0,0,0,.02,0,.03v-8.98ZM41.75,46.58h-.85v-9.09c.17.5.57.88,1.03,1.06.19.08.38.11.57.11,0,0,.02,0,.02,0v7.3c0,.34-.35.62-.77.62ZM46.02,23.04c-.2,1.13-2.86,13.44-3.29,14.41-.03.06-.11.26-.43.13-.25-.1-.57-.41-.42-.86.4-1.16,2.71-11.52,3.23-13.87.38.01.79.05.91.16,0,0,0,.02,0,.03ZM10.78,4.23c4.44-2.22,9.55-2.69,13.06-2.69,3.5,0,8.61.47,13.06,2.69,4.31,2.16,7.05,5.51,8.18,10-3.93-5.87-15.3-5.87-21.23-5.87h0c-5.93,0-17.3,0-21.23,5.87,1.13-4.49,3.86-7.85,8.18-10Z"/>
</svg>