<?xml version="1.0" encoding="UTF-8"?>
<svg id="EDIT_ART" data-name="EDIT ART" xmlns="http://www.w3.org/2000/svg" viewBox="0 0 47.46 50">
  <defs>
    <style>
      .cls-1 {
        fill: #fff;
      }
    </style>
  </defs>
  <path class="cls-1" d="M23.98.5h-.57c-2.43,0-6.09.29-9.87,1.6-3.74,1.29-6.74,3.29-8.9,5.92C.89,12.58-.23,18.88,1.3,26.73c0,.47.12,3.58,2.04,7.21.24.45.45.88.66,1.29-1.21.67-1.76,1.93-1.25,2.87l4.38,8.57c.26.48.74.73,1.38.73.04,0,.08,0,.12,0,.46-.02.98-.17,1.5-.42.57.86.9,1.23,1.35,1.73l.13.15c.4.45.9.64,1.37.64.35,0,.67-.11.92-.29.17-.13.31-.3.4-.51.24.06.53.1.85.1.65,0,1.43-.19,2.17-.83,1.3-1.13.85-3.02.51-3.96-.04-.13-.11-.3-.24-.58-.13-.29-.79-1.73-3.46-6.61-2.3-4.18-3.34-5.75-3.71-6.26-.27-.4-.38-.51-.49-.55-.43-.37-1.25-.84-2.51-.6-.83.16-1.63.68-2.16,1.08-.36-.96-.7-2.12-.9-3.42.07-7.8,2.06-13.58,5.94-17.19,3.22-3,7.74-4.52,13.43-4.53,5.7.01,10.22,1.54,13.43,4.53,3.87,3.61,5.87,9.39,5.94,17.19-.21,1.3-.55,2.46-.9,3.42-.52-.4-1.33-.92-2.16-1.08-1.26-.24-2.08.23-2.51.6-.11.05-.22.15-.49.55-.36.51-1.41,2.08-3.71,6.26-2.67,4.86-3.33,6.3-3.46,6.6-.13.27-.2.45-.24.58-.34.93-.79,2.82.51,3.96.75.65,1.52.83,2.17.83.32,0,.61-.05.85-.1.09.21.23.38.4.51.25.19.57.29.92.29.47,0,.97-.19,1.37-.64l.13-.15c.45-.5.78-.87,1.35-1.73.52.25,1.04.4,1.5.42.04,0,.08,0,.12,0,.64,0,1.13-.26,1.39-.74l4.37-8.55c.26-.48.25-1.08-.02-1.64-.24-.5-.68-.94-1.22-1.24.2-.41.42-.84.66-1.29,1.92-3.64,2.04-6.75,2.04-7.21,1.54-7.85.42-14.15-3.33-18.71-2.17-2.63-5.16-4.63-8.9-5.92-3.78-1.31-7.44-1.59-9.87-1.6h0s-.07,0-.07,0ZM3.31,31.26l.99-.37c.34.92.7,1.66.98,2.19l-.95.46s-.03-.06-.04-.08c-.4-.76-.72-1.5-.97-2.19ZM8.59,46.36c-.28.01-.46-.05-.52-.17l-4.38-8.57c-.22-.41.14-1.06.78-1.44.33.7.63,1.35.91,1.99.77,1.69,1.49,3.3,2.76,5.49.6,1.04,1.06,1.82,1.44,2.43-.35.16-.7.26-.98.27ZM13.27,48.37c-.16.13-.56.15-.87-.21l-.14-.15c-.76-.85-1.15-1.28-3.22-4.88-1.24-2.15-1.95-3.73-2.71-5.4-.46-1.01-.93-2.06-1.54-3.26l1-.48c.26.61,1.84,4.22,3.81,7.79,1.87,3.4,2.59,4.5,3.22,5.46.13.2.27.4.4.62.11.17.2.39.04.51ZM7.62,30.45c.83-.16,1.35.13,1.61.34.11.31.39.88,1.02,2.1.68,1.31,1.61,3.02,2.62,4.83,1,1.8,1.97,3.5,2.73,4.78.79,1.33,1.12,1.85,1.32,2.06.24.74.48,1.96-.28,2.62-.95.83-1.98.56-2.36.42-.04-.1-.1-.2-.16-.31-.14-.22-.27-.42-.41-.63-.62-.95-1.33-2.02-3.18-5.39-2.12-3.85-3.78-7.75-3.8-7.78l-.05-.09s-.47-.71-1-1.9c.45-.37,1.23-.92,1.94-1.06ZM30.83,47.18c-.76-.66-.52-1.88-.28-2.62.2-.22.53-.73,1.32-2.06.76-1.28,1.72-2.97,2.73-4.78,1.01-1.81,1.94-3.53,2.62-4.83.64-1.22.91-1.79,1.02-2.1.26-.22.78-.5,1.61-.34.75.14,1.54.73,1.94,1.06-.52,1.19-.99,1.89-1,1.9l-.05.09s-1.68,3.93-3.8,7.78c-1.85,3.37-2.56,4.44-3.18,5.39-.14.21-.27.41-.41.63-.07.1-.12.21-.16.31-.38.14-1.41.4-2.36-.42ZM35.2,48.01l-.14.15c-.32.35-.71.33-.87.21-.16-.12-.07-.35.04-.51.14-.21.27-.41.4-.62.64-.96,1.36-2.06,3.22-5.46,1.96-3.57,3.55-7.18,3.81-7.79l1,.48c-.61,1.21-1.08,2.25-1.54,3.26-.75,1.67-1.47,3.25-2.71,5.4-2.08,3.6-2.46,4.03-3.22,4.88ZM43.73,36.93c.07.15.18.44.04.7l-4.37,8.55c-.07.13-.25.19-.53.18-.28-.01-.63-.11-.98-.27.37-.61.84-1.39,1.44-2.43,1.27-2.2,1.99-3.8,2.76-5.49.29-.64.58-1.29.91-1.99.33.2.6.47.74.76ZM43.18,33.46s-.03.06-.04.08l-.95-.46c.28-.53.64-1.27.98-2.19l.99.37c-.25.69-.57,1.43-.97,2.19ZM42.01,8.68c3.55,4.32,4.59,10.34,3.1,17.89v.05s0,.05,0,.05c0,.02,0,1.5-.63,3.59l-.97-.36c.23-.73.44-1.54.59-2.42h.06c0-8.31-2.11-14.49-6.27-18.36-3.4-3.17-8.14-4.79-14.08-4.81h0s-.05,0-.07,0c-.02,0-.05,0-.07,0h0c-5.94.03-10.68,1.64-14.08,4.81-4.16,3.88-6.27,10.06-6.27,18.36h.06c.15.88.36,1.69.59,2.42l-.97.36c-.62-2.09-.63-3.57-.63-3.59v-.05s0-.05,0-.05c-1.49-7.56-.44-13.57,3.1-17.89,1.76-2.15,7.05-7.14,18.03-7.14h.5c10.98,0,16.27,4.99,18.03,7.14Z"/>
</svg>