<?xml version="1.0" encoding="UTF-8"?>
<svg id="EDIT_ART" data-name="EDIT ART" xmlns="http://www.w3.org/2000/svg" viewBox="0 0 49.87 50">
  <defs>
    <style>
      .cls-1 {
        fill: #fff;
      }
    </style>
  </defs>
  <path class="cls-1" d="M24.69,24.38s.09,0,.13,0c.52.09,1.04.14,1.55.14,1.82,0,3.51-.59,4.71-1.68,1.08-.97,2.31-2.81,2.04-6.05-.17-2.03-1.12-3.61-2.76-4.59-2.19-1.3-5.26-1.25-6.76-.72-.2.04-.4.11-.6.19-.33-.46-.48-.9-.63-1.32-.09-.27-.22-.84-.39-1.56-.35-1.52-.88-3.82-1.64-5.81-.71-1.88-2.5-2.62-5.02-2.09-2.52-1.02-5.57.24-6.48.67C.89,5.31.35,8.09.47,11.33c.13,3.35,3.41,7.18,6.25,10.15,1.61,1.68,4.66,4.87,8.09,4.87.5,0,1.01-.07,1.53-.22.05,0,.11,0,.18-.01,1.14-.09,3.77-.3,6.52-2.2.53.3,1.09.46,1.65.46ZM29.82,13.11c1.35.8,2.11,2.07,2.25,3.76.18,2.22-.41,4.02-1.7,5.18-.88.79-2.07,1.26-3.39,1.37,1.27-1.18,2.03-3.35,1.86-5.82-.16-2.38-1.12-4.37-2.46-5.41,1.12.04,2.38.3,3.43.92ZM23.9,12.5c.07-.01.14-.02.21-.03.93-.06,1.84.55,2.52,1.57-1.32-.53-2.19-1.03-2.79-1.51.02,0,.04-.02.07-.03ZM16.51,24.95c-1.77.73-4.23.81-9.02-4.2-2.5-2.61-5.84-6.44-5.95-9.46-.11-2.94.38-5.29,7.76-8.78.84-.4,3.74-1.6,5.9-.52,1.18.6,1.97,1.83,2.34,3.66.59,2.97,1.21,7.6,1.17,11.7-.05,4.33-.82,7.03-2.19,7.6ZM22.67,22.87c-1.61,1.18-3.21,1.7-4.45,1.95,2.66-3.8,1.25-14.9.35-19.38-.32-1.6-.94-2.83-1.84-3.66,1.33-.03,2.21.49,2.62,1.57.73,1.92,1.25,4.18,1.6,5.67.18.78.31,1.35.42,1.66.59,1.71,1.41,3.16,5.95,4.75.25.68.41,1.44.46,2.24.1,1.52-.22,2.95-.8,3.98l-4.24,1.16-.08.06Z"/>
  <path class="cls-1" d="M41.02,24.7c-.91-.43-3.96-1.69-6.48-.67-2.53-.53-4.31.2-5.02,2.09-.75,1.99-1.29,4.29-1.64,5.81-.17.72-.3,1.29-.39,1.56-.14.42-.3.86-.63,1.32-.19-.08-.39-.15-.6-.19-1.5-.53-4.57-.58-6.76.72-1.64.97-2.6,2.56-2.76,4.59-.26,3.24.97,5.08,2.04,6.05,1.21,1.09,2.9,1.68,4.71,1.68.51,0,1.03-.05,1.55-.14.04,0,.09,0,.13,0,.56,0,1.13-.16,1.65-.46,2.75,1.9,5.37,2.11,6.52,2.2.06,0,.12,0,.18.01.52.15,1.03.22,1.53.22,3.44,0,6.49-3.19,8.09-4.87,2.84-2.97,6.12-6.81,6.25-10.15.12-3.24-.41-6.02-8.37-9.78ZM25.76,35.62c.07,0,.14.01.21.03.02,0,.05.02.07.03-.6.48-1.48.99-2.79,1.51.68-1.01,1.58-1.63,2.52-1.57ZM19.5,45.2c-1.29-1.16-1.88-2.95-1.7-5.18.14-1.69.89-2.96,2.25-3.76,1.05-.62,2.3-.88,3.43-.92-1.34,1.04-2.3,3.03-2.46,5.41-.16,2.47.59,4.64,1.86,5.82-1.31-.11-2.51-.58-3.39-1.37ZM27.19,46.02l-.08-.06-4.24-1.16c-.58-1.04-.9-2.46-.8-3.98.05-.8.22-1.56.46-2.24,4.54-1.59,5.36-3.03,5.95-4.74.11-.32.24-.88.42-1.66.35-1.49.87-3.75,1.6-5.67.41-1.08,1.29-1.6,2.62-1.57-.9.83-1.52,2.06-1.84,3.66-.9,4.48-2.31,15.58.35,19.38-1.24-.25-2.83-.77-4.45-1.95ZM48.33,34.44c-.12,3.02-3.45,6.85-5.95,9.46-2.69,2.81-5.86,5.5-9.02,4.2-3.08-1.27-2.43-12.27-1.02-19.3.37-1.83,1.15-3.06,2.34-3.66.64-.32,1.34-.44,2.04-.44,1.66,0,3.27.68,3.86.96,7.38,3.49,7.87,5.84,7.76,8.78Z"/>
</svg>