<?xml version="1.0" encoding="UTF-8"?>
<svg id="EDIT_ART" data-name="EDIT ART" xmlns="http://www.w3.org/2000/svg" viewBox="0 0 48.57 50">
  <defs>
    <style>
      .cls-1 {
        fill: #fff;
      }
    </style>
  </defs>
  <path class="cls-1" d="M2.15,32.66c.23.78.62,2.16,2.18,2.15.19,0,.39-.02.62-.06.66-.13,1.23-.62,1.69-1.46.72-1.31,1.08-3.37.83-4.01-.14-.35-.52-1.07-.95-1.83.68.29,1.44.44,2.22.44,1.85,0,3.57-.88,4.67-2.36.73.44,1.58.7,2.5.7,2,0,3.72-1.23,4.4-2.95,2.44-.92,4-2.86,4.63-5.78.3-1.37.26-2.92.22-4.88-.02-.76-.04-1.55-.04-2.41,0-3.65-.84-6.18-2.57-7.75-1.66-1.5-3.86-1.83-5.6-1.94C7.59-.08,2.9,10.8,1.31,15.51c-.91,2.69-1.08,6.22-.53,10.5.43,3.26,1.15,5.91,1.36,6.64ZM8.73,26.85c-2.62,0-4.75-2.13-4.75-4.75s2.13-4.75,4.75-4.75c1.32,0,2.55.54,3.44,1.48-.62.78-.99,1.75-.99,2.81,0,1.27.53,2.42,1.39,3.25-.89,1.23-2.31,1.95-3.84,1.95ZM8.73,16.31c-1.48,0-2.84.56-3.86,1.48,1.02-6.26,3.65-9.51,5.77-11.15,2.15-1.66,4.82-2.45,7.14-2.1,1.17.18,2.05.66,2.61,1.43.81,1.1,1.03,2.82.67,5.1-.18,1.15-1.08,1.43-1.11,1.43l-.06.02-8.45,4.46c-.82-.44-1.75-.67-2.72-.67ZM15.9,25.2c-2.02,0-3.67-1.59-3.67-3.55s1.65-3.55,3.67-3.55c.97,0,1.84.37,2.5.96-.72.08-1.23,1-1.23,2.24s.56,2.25,1.33,2.25c.24,0,.46-.09.65-.26-.61,1.14-1.84,1.92-3.26,1.92ZM18.79,21.29c0,.63-.18,1.03-.29,1.17-.11-.14-.29-.54-.29-1.17s.18-1.03.29-1.17c.11.14.29.54.29,1.17ZM2.3,15.85C3.81,11.37,8.25,1.01,16.88,1.57c3.73.24,7.18,1.46,7.18,8.65,0,.87.02,1.67.04,2.44.04,1.89.08,3.39-.19,4.64-.49,2.27-1.6,3.85-3.31,4.73.01-.12.02-.25.02-.37,0-2.53-2.11-4.6-4.71-4.6-1.13,0-2.17.39-2.98,1.04-.15-.16-.31-.31-.48-.45l7.86-4.15c.31-.1,1.54-.62,1.8-2.26.41-2.57.12-4.55-.86-5.88-.74-1.01-1.85-1.63-3.3-1.85-2.64-.4-5.53.44-7.93,2.31-2.47,1.92-5.59,5.83-6.41,13.61-.42.8-.66,1.72-.66,2.69,0,1.51.58,2.89,1.53,3.92,1.08,1.81,1.85,3.2,2.01,3.62.09.32-.15,2.16-.87,3.32-.19.31-.5.69-.87.76-.93.18-1.22-.07-1.6-1.36-.3-1.05-2.91-10.42-.85-16.52Z"/>
  <path class="cls-1" d="M31.62,15.21c-4.03.26-8.16,1.62-8.16,9.69,0,.86-.02,1.65-.04,2.41-.04,1.96-.08,3.51.22,4.88.63,2.92,2.19,4.86,4.63,5.78.68,1.72,2.4,2.95,4.4,2.95.92,0,1.77-.26,2.5-.7,1.09,1.48,2.81,2.36,4.67,2.36.79,0,1.54-.16,2.22-.44-.43.76-.81,1.47-.95,1.83-.25.64.11,2.7.83,4.01.46.84,1.03,1.33,1.69,1.46.22.04.43.06.62.06,1.56,0,1.96-1.38,2.18-2.15.21-.73.94-3.38,1.36-6.64.56-4.28.38-7.81-.53-10.5-1.59-4.71-6.28-15.59-15.64-14.99ZM30.07,34.81c.11.14.29.54.29,1.17s-.18,1.03-.29,1.17c-.11-.14-.29-.54-.29-1.17s.18-1.03.29-1.17ZM29.42,37.96c.19.17.41.26.65.26.77,0,1.33-.94,1.33-2.25s-.51-2.16-1.23-2.24c.66-.59,1.53-.96,2.5-.96,2.02,0,3.67,1.59,3.67,3.55s-1.65,3.55-3.67,3.55c-1.42,0-2.64-.78-3.26-1.92ZM36,39.59c.86-.83,1.39-1.98,1.39-3.25,0-1.06-.37-2.04-.99-2.81.9-.94,2.13-1.48,3.44-1.48,2.62,0,4.75,2.13,4.75,4.75s-2.13,4.75-4.75,4.75c-1.53,0-2.95-.73-3.84-1.95ZM37.12,31.67l-8.4-4.44-.1-.04s-.93-.29-1.11-1.44c-.36-2.28-.14-4,.67-5.1.57-.77,1.44-1.25,2.61-1.43,2.32-.35,4.99.43,7.14,2.1,2.12,1.65,4.75,4.9,5.77,11.15-1.03-.92-2.38-1.48-3.86-1.48-.96,0-1.89.24-2.72.67ZM45.42,47.05c-.37,1.28-.67,1.54-1.6,1.36-.37-.07-.68-.45-.87-.76-.72-1.15-.96-2.99-.87-3.3.17-.43.94-1.82,2.02-3.64.95-1.03,1.53-2.41,1.53-3.92,0-.97-.24-1.88-.66-2.69-.82-7.77-3.93-11.69-6.41-13.61-2.4-1.86-5.3-2.7-7.93-2.31-1.45.22-2.56.84-3.3,1.85-.98,1.34-1.26,3.32-.86,5.88.26,1.64,1.49,2.15,1.8,2.26l7.86,4.15c-.17.14-.33.29-.48.45-.81-.65-1.85-1.04-2.98-1.04-2.6,0-4.71,2.06-4.71,4.6,0,.13,0,.25.02.37-1.71-.87-2.82-2.46-3.31-4.73-.27-1.25-.24-2.75-.19-4.64.02-.77.04-1.56.04-2.44,0-7.19,3.45-8.41,7.18-8.65,8.63-.56,13.07,9.8,14.58,14.28,2.06,6.1-.55,15.47-.85,16.52Z"/>
</svg>