<?xml version="1.0" encoding="UTF-8"?>
<svg id="EDIT_ART" data-name="EDIT ART" xmlns="http://www.w3.org/2000/svg" viewBox="0 0 51.29 50">
  <defs>
    <style>
      .cls-1 {
        fill: #fff;
      }
    </style>
  </defs>
  <path class="cls-1" d="M43.95,23.69h-1.98c-1.5,0-2.72,1.22-2.72,2.72v20.36c0,1.5,1.22,2.72,2.72,2.72h1.98c.56,0,1.04-.35,1.24-.84h2.35s.03,0,.05,0c.01,0,.03,0,.04,0,.1,0,.2-.03.29-.09l2.49-1.69c.14-.1.23-.26.23-.43v-19.94c0-.18-.09-.34-.24-.44l-.88-.56c.14-1.11.07-2.25-.23-3.32l-.46-2.39c.16-.23.23-.52.19-.82l-.28-1.81c-.02-.14-.08-.27-.17-.38l.09-.04C44.23,6.39,36.31.5,26.87.5c-.18,0-.36,0-.54,0C16.68.3,8.56,6.21,4.06,16.75l.09.04c-.09.11-.15.24-.17.38l-.28,1.81c-.05.3.03.59.19.82l-.46,2.39c-.3,1.07-.38,2.21-.23,3.32l-.88.56c-.15.1-.24.26-.24.44v19.94c0,.17.09.33.23.43l2.49,1.69c.09.06.19.09.29.09.01,0,.03,0,.04,0,.02,0,.03,0,.05,0h2.35c.2.49.68.84,1.24.84h1.98c1.5,0,2.72-1.22,2.72-2.72v-20.36c0-1.5-1.22-2.72-2.72-2.72h-1.98c-.51,0-.95.28-1.18.7h-1.14c0-.44.07-.89.19-1.31l.57-2.57c.2-.15.37-.36.47-.62l.61-1.63c.36-.58,7.81-11.96,18.08-12.03,10.27.06,17.72,11.45,18.08,12.03l.61,1.63c.1.26.26.47.47.62l.56,2.54v.03c.13.42.19.87.2,1.31h-1.14c-.23-.42-.67-.7-1.18-.7ZM47.23,25.37c.14-.85.09-1.74-.15-2.56l-.46-2.07s.07-.01.1-.02l1.15-.37.39,2.05v.04c.3,1.02.36,2.11.19,3.15l-1.89,11.52c-.03.18-.12.33-.27.43-.13.09-.29.13-.45.1-.23-.04-.4-.2-.48-.41v-.56l1.85-11.3ZM46.02,19.53l-.48-1.29.22-.14,2-.5.24,1.54s0,.02,0,.04l-1.66.57c-.13,0-.25-.08-.31-.22ZM44.24,48.17c0,.16-.13.29-.29.29h-1.98c-.93,0-1.68-.76-1.68-1.68v-20.36c0-.93.76-1.68,1.68-1.68h1.98c.16,0,.29.13.29.29v23.14ZM45.38,47.62v-9.02c.1.04.19.06.3.08.09.02.19.02.28.02.34,0,.67-.1.95-.3.04-.03.07-.06.11-.09v9.31h-1.64ZM49.6,46.17l-1.45.98v-10.47c0-.11-.03-.21-.09-.29v-1.07c0-.11-.03-.21-.09-.29l1.38-8.39.26.16v19.38ZM6.69,19.53c-.05.14-.18.22-.31.22l-1.66-.57s0-.02,0-.04l.24-1.54,2,.5.22.14-.48,1.29ZM5.63,22.81c-.24.83-.29,1.71-.15,2.56l1.85,11.3v.56c-.08.21-.25.37-.48.41-.16.03-.32,0-.45-.1-.14-.1-.24-.26-.27-.43l-1.89-11.52c-.17-1.04-.11-2.13.18-3.15l.4-2.1,1.15.37s.07.02.1.02l-.46,2.07ZM4.56,47.16l-1.45-.98v-19.38l.26-.16,1.38,8.39c-.06.08-.09.18-.09.29v1.07c-.06.08-.09.18-.09.29v10.47ZM5.69,47.62v-9.31s.07.06.11.09c.28.2.61.3.95.3.09,0,.19,0,.28-.02.1-.02.2-.05.3-.08v9.02h-1.64ZM8.46,25.03c0-.16.13-.29.29-.29h1.98c.93,0,1.68.76,1.68,1.68v20.36c0,.93-.76,1.68-1.68,1.68h-1.98c-.16,0-.29-.13-.29-.29v-23.14ZM7.33,30.24l-.79-4.8h.79v4.8ZM45.32,17.13l-.26.17c-1.83-2.85-9.31-12.04-18.69-12.11h0s-.01,0-.02,0c0,0-.01,0-.02,0h0c-9.39.07-16.86,9.26-18.69,12.11l-.26-.17-2.12-.53c2.34-5.25,5.54-9.21,9.52-11.79,3.45-2.23,7.44-3.36,11.56-3.26h0s0,0,0,0c0,0,0,0,0,0h0c4.12-.1,8.11,1.03,11.56,3.26,3.98,2.58,7.18,6.54,9.52,11.79l-2.12.53ZM46.16,25.43l-.79,4.8v-4.8h.79Z"/>
</svg>