<?xml version="1.0" encoding="UTF-8"?>
<svg id="EDIT_ART" data-name="EDIT ART" xmlns="http://www.w3.org/2000/svg" viewBox="0 0 48.03 50">
  <defs>
    <style>
      .cls-1 {
        fill: #fff;
      }
    </style>
  </defs>
  <path class="cls-1" d="M46.96,21.12h.5c-.2-7.15-3.49-12.87-9.5-16.57C33.16,1.61,27.54.53,24.1.5h0s-.05,0-.08,0c-.03,0-.05,0-.08,0h0c-3.44.03-9.06,1.11-13.86,4.05C4.06,8.24.77,13.96.57,21.1h.5s1.57,2.16,1.57,2.16c.03.09.1.26.17.48-.69.6-2.39,2.18-2.04,3.05.07.17.24.42.68.46.01.09.04.19.09.29.15.35,2.15,4.5,3.9,8.02,0,.24,0,.41.02.58.01.15.03.3.03.52,0,4.05.87,7.31,1.39,8.89.48,1.47,1.44,3.94,2.43,3.94h1.53c.27,0,.51-.09.71-.23.22.14.48.23.77.23h2.79c1.05,0,1.9-.82,1.9-1.83v-20.22c0-1.01-.85-1.83-1.9-1.83h-2.97c-.27,0-.51.09-.71.23-.22-.14-.48-.23-.77-.23h-1.36c-.73,0-1.63,1.2-2.36,2.97-1.07-1.69-1.82-2.46-2.36-2.78.06-.2.04-.41-.05-.6-.26-.56-.91-2.37-.92-2.39-.02-.05-.04-.09-.07-.14l-1.06-1.45.8-.04c.23-.01.42-.17.48-.39l.97-3.43c2.85-2.33,12.28-6.42,19.21-6.17h0s.04,0,.06,0c.02,0,.04,0,.06,0h0c6.94-.26,16.36,3.83,19.21,6.16l.97,3.43c.06.22.26.38.48.39l.8.04-1.06,1.45s-.05.09-.07.14c0,.02-.65,1.83-.92,2.39-.09.19-.1.4-.05.6-.55.32-1.29,1.09-2.36,2.78-.73-1.77-1.63-2.97-2.36-2.97h-1.36c-.28,0-.55.08-.77.23-.2-.14-.44-.23-.71-.23h-2.97c-1.05,0-1.9.82-1.9,1.83v20.22c0,1.01.85,1.83,1.9,1.83h2.79c.28,0,.55-.08.77-.23.2.14.44.23.71.23h1.53c.99,0,1.95-2.47,2.43-3.94.52-1.58,1.39-4.83,1.39-8.89,0-.22.01-.37.03-.52.01-.17.03-.34.02-.58,1.76-3.52,3.75-7.67,3.9-8.02.05-.1.07-.2.09-.29.44-.04.61-.3.68-.46.35-.87-1.35-2.45-2.04-3.05.08-.21.14-.38.17-.48l1.57-2.15ZM3.18,26.95c.71,1.38,5.71,11.05,6.38,12.1.23.36,0,.66-.19.79-.12.08-.33.19-.49,0-.62-.8-5.87-11.59-6.36-12.69.22-.05.44-.11.65-.18ZM12.02,26.78s.05-.08.11-.08h2.97c.46,0,.83.34.83.76v20.22c0,.42-.37.76-.83.76h-2.79c-.16,0-.29-.11-.29-.24v-21.41ZM9.36,26.7h1.3c.16,0,.29.11.29.24v21.41s-.05.08-.11.08h-1.43c-.58-.52-2.59-4.74-2.83-10.61.7,1.36,1.25,2.39,1.46,2.66.27.35.65.52,1.06.52.3,0,.61-.1.89-.3.64-.45,1.01-1.39.46-2.24-.33-.51-1.85-3.38-3.44-6.43.68-3.27,1.92-5.1,2.34-5.33ZM6.48,29.88c-.07.23-.15.47-.21.72-.66-1.28-1.31-2.52-1.85-3.58.4.37,1.06,1.17,2.07,2.86ZM3.22,24.82c.11.29.22.55.3.75-.05.05-.14.11-.25.17-.41.09-.82.21-1.14.38-.04,0-.08.02-.13.02.28-.37.77-.9,1.22-1.32ZM2.86,20.16l-.66.04.81-2.89.61.15-.76,2.7ZM24.02,10.16c-4.42-.17-10.19,1.46-14.58,3.38,3.82-2.5,9.31-5.12,14.58-5.14,5.27.03,10.76,2.65,14.58,5.14-4.39-1.92-10.16-3.54-14.58-3.38ZM43.95,16.48c-2.48-2.86-11.72-9.07-19.85-9.15h0s-.05,0-.08,0c-.03,0-.05,0-.08,0h0c-8.13.09-17.37,6.29-19.85,9.15l-1.32-.33c-.16-.04-.32,0-.44.08,1.21-4.51,3.99-8.13,8.3-10.77,4.64-2.85,10.09-3.88,13.38-3.89,3.29.02,8.74,1.04,13.38,3.89,4.31,2.65,7.09,6.26,8.3,10.77-.12-.09-.28-.12-.44-.08l-1.32.33ZM44.41,17.46l.61-.15.81,2.89-.66-.04-.76-2.7ZM45.51,27.13c-.49,1.11-5.74,11.89-6.36,12.69-.16.2-.37.09-.49,0-.18-.13-.42-.43-.19-.79.68-1.05,5.67-10.71,6.38-12.1.21.07.43.13.65.18ZM43.62,27.01c-.55,1.06-1.19,2.31-1.86,3.58-.07-.24-.14-.48-.21-.72,1.02-1.7,1.68-2.5,2.07-2.87ZM35.72,48.43h-2.79c-.46,0-.83-.34-.83-.76v-20.22c0-.42.37-.76.83-.76h2.97c.07,0,.11.04.11.08v21.41c0,.13-.13.24-.29.24ZM38.62,48.43h-1.43c-.07,0-.11-.04-.11-.08v-21.41c0-.13.13-.24.29-.24h1.3c.42.23,1.67,2.07,2.34,5.33-1.59,3.05-3.11,5.93-3.44,6.43-.55.85-.17,1.79.46,2.24.28.2.59.3.89.3.4,0,.79-.18,1.06-.52.21-.27.76-1.3,1.46-2.66-.24,5.87-2.25,10.09-2.83,10.61ZM46.03,26.14s-.08-.02-.13-.02c-.33-.18-.74-.29-1.14-.38-.12-.06-.2-.13-.25-.17.08-.19.19-.46.3-.75.45.43.94.95,1.22,1.32Z"/>
</svg>