<?xml version="1.0" encoding="UTF-8"?>
<svg id="EDIT_ART" data-name="EDIT ART" xmlns="http://www.w3.org/2000/svg" viewBox="0 0 48.95 50">
  <defs>
    <style>
      .cls-1 {
        fill: #fff;
      }
    </style>
  </defs>
  <path class="cls-1" d="M2.33,26.19c-.25.39-.25.91.02,1.32l.08.12s0,0,0,0l.06.09c-.07.11-.14.23-.22.35-1.19,1.88-3.18,5.03,1.58,12.34l1.46,2.18c3.69,5.36,6.67,6.36,8.86,6.36.74,0,1.39-.11,1.95-.21.14-.02.28-.05.4-.07l.15.23c.2.3.51.51.87.58.09.02.18.03.27.03.27,0,.53-.08.75-.23l1.23-.82c.32-.22.52-.55.58-.91.1.02.2.03.3.03.27,0,.54-.08.78-.24l.88-.59c1.02-.69,1.74-1.65,2.13-2.73.39,1.08,1.11,2.05,2.13,2.73l.88.59c.24.16.51.24.78.24.1,0,.2-.01.3-.03.06.36.26.69.58.91l1.23.82c.23.15.49.23.75.23.09,0,.18,0,.27-.03.36-.07.66-.28.87-.58l.15-.23c.13.02.26.04.41.07.55.1,1.2.21,1.95.21,2.19,0,5.17-1,8.86-6.37l1.46-2.18c4.76-7.3,2.77-10.45,1.58-12.33-.08-.12-.15-.24-.22-.35l.06-.09s0,0,0,0l.08-.12c.18-.27.25-.59.18-.91-.03-.15-.09-.28-.16-.41l1.61-2.41c.18-.27.16-.6-.02-.85l-1.79-6.24c-.06-.18-.16-.33-.3-.45.06-.18.07-.37.03-.56C43.96,6.33,33.23.52,24.5.5h0s-.02,0-.03,0c0,0-.02,0-.03,0h0c-8.72.02-19.46,5.83-21.65,15.2-.04.19-.03.38.03.56-.14.12-.25.27-.3.46l-1.79,6.22c-.07.09-.11.19-.14.3-.04.19,0,.39.11.55l1.61,2.4ZM2.22,23.15l1.38,2.06-.3.2-.16.11-1.38-2.06.46-.31ZM12.96,40.91c-.28-.05-.52-.21-.67-.45l-7.33-10.94-1.66-2.48c-.05-.07-.06-.16-.05-.24.02-.08.06-.16.14-.2l.08-.05s0,0,0,0l.97-.65h0s.18-.12.18-.12c.05-.04.12-.05.18-.05.1,0,.2.05.27.14l8.99,13.41c.32.48.19,1.14-.29,1.47-.23.16-.52.21-.79.16ZM6.18,42l-1.46-2.17c-4.36-6.69-2.73-9.38-1.6-11.16l12.77,19.05c-2.07.36-5.19.86-9.71-5.72ZM19.22,47.58l-1.23.82c-.07.05-.16.06-.24.05-.08-.02-.16-.06-.2-.14l-4.26-6.35c.37-.02.73-.14,1.04-.35.32-.21.56-.5.72-.83l4.26,6.35c.1.15.06.34-.09.44ZM21.77,45.87l-.88.59c-.17.11-.4.07-.51-.1L6.95,26.34c-.11-.17-.07-.4.1-.51l.88-.59c.77-.52,1.65-.76,2.51-.76,1.46,0,2.89.7,3.76,2l8.79,13.12c1.39,2.07.83,4.89-1.24,6.27ZM24.48,40.22c-.15-.41-.35-.82-.61-1.2l-8.79-13.12c-1.71-2.55-5.17-3.23-7.72-1.52l-.88.59c-.19.13-.34.3-.45.49l-.19-.29c-.18-.27-.46-.45-.77-.51-.19-.04-.38-.03-.57.02l-.84-1.25,1.81-5.81c.04-.14.05-.29.03-.43.22-.08.4-.23.52-.45.7-1.24,2.88-4.32,6.14-7.07,2.75-2.31,7.11-5.07,12.31-5.11,5.2.03,9.57,2.79,12.31,5.11,3.26,2.75,5.45,5.82,6.14,7.07.12.21.31.37.52.45-.02.14-.01.29.03.43l1.81,5.81-.84,1.25c-.49-.14-1.04.04-1.34.49l-.08.12s0,0,0,0l-.11.16c-.11-.19-.26-.36-.45-.49l-.88-.59c-2.55-1.71-6.01-1.02-7.72,1.52l-8.79,13.12c-.26.38-.46.79-.61,1.2ZM36.67,40.46c-.33.48-.98.61-1.47.29-.23-.16-.39-.4-.45-.67s0-.56.16-.79l8.99-13.41c.1-.14.3-.18.44-.09l.18.12s0,0,0,0l.97.65s0,0,0,0l.08.05c.15.1.19.3.09.44l-3.21,4.79-5.78,8.62ZM28.07,46.47l-.88-.59h0c-2.07-1.39-2.63-4.2-1.24-6.27l8.79-13.12c.87-1.3,2.3-2,3.76-2,.87,0,1.74.25,2.51.76l.88.59c.08.05.14.14.16.23s0,.19-.06.27l-13.42,20.02c-.11.17-.34.21-.51.1ZM31.41,48.32c-.05.07-.12.12-.2.14-.08.02-.17,0-.24-.05l-1.23-.82c-.15-.1-.19-.3-.09-.44l4.26-6.35c.16.33.4.62.72.83.32.22.68.32,1.04.35l-4.26,6.35ZM44.23,39.83l-1.46,2.17c-4.53,6.58-7.64,6.09-9.72,5.72l4.48-6.68s0,0,0,0l4.55-6.79,3.74-5.58c1.13,1.78,2.76,4.48-1.6,11.16ZM45.82,25.52l-.46-.31,1.38-2.06.46.31-1.38,2.06ZM46.87,22.02c-.3-.09-.64.02-.82.29h0s-1.54-4.93-1.54-4.93l.95-.3,1.42,4.94ZM12.01,5.3c3.76-2.35,8.42-3.75,12.46-3.76,4.05,0,8.7,1.41,12.46,3.76,3.05,1.9,6.94,5.29,8.19,10.61l-1.3.29c-1.87-3.3-9.36-12.61-19.33-12.68h0s-.02,0-.02,0c0,0-.02,0-.02,0h0c-9.97.08-17.46,9.39-19.33,12.68l-1.3-.29c1.25-5.32,5.14-8.71,8.19-10.61ZM3.5,17.08l.95.3-1.54,4.94h0c-.11-.17-.28-.28-.47-.31-.12-.02-.24-.01-.36.02l1.42-4.94Z"/>
</svg>