<?xml version="1.0" encoding="UTF-8"?>
<svg id="EDIT_ART" data-name="EDIT ART" xmlns="http://www.w3.org/2000/svg" viewBox="0 0 49.29 50">
  <defs>
    <style>
      .cls-1 {
        fill: #fff;
      }
    </style>
  </defs>
  <path class="cls-1" d="M.99,25.09c.03,1.19.89,4.64,2.15,6.65l.85,11.92c.05.65.6,1.15,1.25,1.15.03,0,.06,0,.09,0l1.52-.1h0c.07,0,.15-.02.22-.03l.18,2.57c.05.74.68,1.31,1.43,1.31.03,0,.07,0,.1,0l1.16-.08c.26-.02.51-.11.72-.25.36.49.94.8,1.59.8.05,0,.09,0,.14,0l4.07-.28c.53-.04,1.02-.28,1.36-.67.34-.39.5-.88.47-1.39l-1.48-20.7c-.08-1.06-1.02-1.86-2.1-1.79l-4.07.28c-.53.04-1.02.28-1.36.67-.15.17-.26.36-.34.56-.19-.08-.41-.11-.63-.1l-1.16.08c-.39.03-.74.2-.99.49-.25.28-.37.64-.34,1.02l.18,2.56c-.07,0-.14,0-.21,0l-.65.04-1.05-2.82c-.07-.2-.08-.41-.02-.62l.49-1.65c.06-.21.19-.39.37-.52l.4-.29c.56-.41.89-1.07.88-1.76-.01-.94,0-2.33.1-3.72,1.08-.33,1.73-.82,1.95-1.47,1.78-5.23,7.53-10.51,16.39-10.55,8.86.04,14.62,5.31,16.39,10.55.22.65.88,1.14,1.95,1.47.11,1.38.12,2.77.1,3.72-.01.69.32,1.34.88,1.76l.4.29c.18.13.31.32.37.52l.49,1.65c.06.2.05.42-.02.62l-1.05,2.82-.65-.04c-.07,0-.14,0-.21,0l.18-2.56c.03-.37-.09-.73-.34-1.02-.25-.29-.6-.46-.99-.49l-1.16-.08c-.22-.01-.44.02-.63.1-.08-.2-.19-.39-.34-.56-.35-.4-.83-.64-1.36-.67l-4.07-.28c-1.09-.07-2.02.73-2.1,1.79l-1.48,20.7c-.04.51.13,1,.47,1.39.35.4.83.64,1.36.67l4.07.28s.09,0,.14,0c.65,0,1.23-.31,1.59-.8.21.15.46.23.72.25l1.16.08s.07,0,.1,0c.75,0,1.38-.57,1.43-1.31l.18-2.57c.07.02.14.03.22.03l1.52.1s.06,0,.09,0c.65,0,1.2-.5,1.25-1.15l.85-11.92c1.26-2.01,2.12-5.46,2.15-6.65,0-.31.07-.6.18-.86.11-.26.24-.55.36-.8.31-.67.03-1.48-.63-1.83-2.16-1.15-2.61-2.24-2.69-2.78.3.02.5.03.52.03h.58s-.05-.57-.05-.57c-.6-6.79-3.78-11.86-9.45-15.05C32.88.85,27.98,0,24.72,0c-.02,0-.05,0-.07,0-.02,0-.05,0-.07,0C21.31,0,16.41.85,12.19,3.22,6.52,6.42,3.34,11.48,2.74,18.27l-.05.58h.58s.22-.02.53-.04c-.07.53-.51,1.61-2.7,2.78-.66.35-.94,1.16-.63,1.83.12.25.25.54.36.8.11.25.17.54.18.86ZM10.07,25.81c.16-.19.39-.3.64-.32l4.07-.28s.04,0,.07,0c.48,0,.88.36.92.82l1.48,20.7c.02.23-.06.45-.21.62-.16.19-.39.3-.64.32l-4.07.28c-.5.04-.95-.33-.98-.82l-1.48-20.7c-.02-.23.06-.45.21-.62ZM6.95,26.84c.07-.08.16-.13.27-.13l1.16-.08s.02,0,.03,0c.2,0,.37.15.38.34l1.44,20.06c0,.09-.02.18-.09.25-.07.08-.16.13-.27.13l-1.16.08c-.21.01-.4-.14-.41-.34l-1.44-20.06c0-.09.02-.18.09-.25ZM36.97,47.95l-4.07-.28h0c-.25-.02-.48-.13-.64-.32-.15-.18-.23-.4-.21-.62l1.48-20.7c.03-.46.44-.82.92-.82.02,0,.04,0,.07,0l4.07.28c.25.02.48.13.64.32.15.18.23.4.21.62l-1.48,20.7c-.03.49-.48.85-.98.82ZM40.57,47.49l-1.16-.08c-.11,0-.2-.05-.27-.13-.06-.07-.09-.16-.09-.25l1.44-20.06c.01-.19.18-.34.38-.34,0,0,.02,0,.03,0l1.16.08c.11,0,.2.05.27.13.06.07.09.16.09.25l-1.44,20.06c-.01.2-.2.35-.41.34ZM5.86,30.77s.01,0,.02,0c.11,0,.19.07.2.17l.9,12.51c0,.06-.02.1-.04.12-.02.02-.07.06-.14.07l-1.52.1c-.11,0-.21-.07-.22-.17l-.9-12.51c0-.06.02-.1.04-.12.02-.02.07-.06.14-.07l1.52-.1ZM44.24,43.58c0,.1-.1.18-.22.17l-1.52-.1c-.08,0-.12-.05-.14-.07-.02-.03-.05-.07-.04-.12l.9-12.51c0-.1.1-.18.22-.17l1.52.1c.08,0,.12.05.14.07.02.03.05.07.04.12l-.9,12.51ZM47.7,22.53c.18.09.25.29.17.46-.12.26-.25.56-.37.83-.16.37-.25.79-.26,1.24-.03.93-.61,3.3-1.45,5.11-.16-.15-.35-.25-.56-.3l.95-2.55c.15-.41.17-.86.04-1.28l-.49-1.65c-.13-.42-.39-.8-.75-1.07l-.4-.29c-.29-.21-.45-.55-.45-.9.01-.89,0-2.17-.08-3.48.13.02.25.04.37.06.03.8.49,2.34,3.26,3.82ZM12.71,4.14c4.07-2.29,8.82-3.1,11.94-3.08,3.11-.02,7.86.79,11.93,3.08,5.19,2.92,8.17,7.51,8.86,13.63-1.42-.11-3.18-.5-3.41-1.17-1.89-5.57-7.97-11.18-17.3-11.26h0s-.06,0-.09,0c-.03,0-.06,0-.09,0h0c-9.33.08-15.41,5.69-17.3,11.26-.23.67-1.99,1.06-3.41,1.17.7-6.12,3.67-10.71,8.86-13.63ZM1.59,22.53c2.77-1.48,3.23-3.02,3.26-3.82.12-.02.25-.04.37-.06-.09,1.31-.09,2.59-.08,3.48,0,.35-.16.68-.45.89l-.4.29c-.36.27-.63.64-.75,1.07l-.49,1.65c-.13.42-.11.87.04,1.28l.95,2.55c-.21.05-.4.15-.56.3-.84-1.8-1.42-4.18-1.45-5.11-.01-.45-.1-.86-.26-1.24-.11-.27-.25-.56-.37-.83-.08-.17,0-.37.17-.46Z"/>
</svg>