<?xml version="1.0" encoding="UTF-8"?>
<svg id="EDIT_ART" data-name="EDIT ART" xmlns="http://www.w3.org/2000/svg" viewBox="0 0 50.58 50">
  <defs>
    <style>
      .cls-1 {
        fill: #fff;
      }
    </style>
  </defs>
  <path class="cls-1" d="M19.9,23.69c-.84,0-1.65.18-2.4.54-.15.07-.25.2-.29.36l-.39.12s0,0,0,0c-.58-.46-1.23-.87-1.94-1.19l2.04-1.2c.41-.24.7-.64.82-1.1.02-.08.03-.16.04-.24.63-.46,1.53-1.18,2.43-2.11,2.25-2.31,3.38-4.69,3.37-7.09-.03-6-2.73-10.04-7.41-11.07-2.72-.6-5.78.13-8.39,2.01C4.91,4.79,1.3,9.13.39,18.09c-.13,1.32.83,2.5,2.15,2.64,1.32.13,2.5-.83,2.64-2.15.57-5.6,2.49-9.84,5.41-11.95,1.47-1.06,3.17-1.52,4.53-1.22,2.36.52,3.62,2.74,3.64,6.4,0,1.14-.9,3.02-3.41,4.97-.15-.09-.31-.16-.48-.19-.41-.08-.83,0-1.17.23l-5.54,3.74c-.49.23-3.87,1.98-3.46,6.11-.02.04-.03.07-.05.11-1.54,3.57.49,7.88,4.53,9.63,1.15.5,2.34.73,3.49.73,2.32,0,4.47-.96,5.8-2.65l2.55-.38s0,0,.01,0c0,0,.01,0,.01,0,2.49-.51,4.3-2.68,4.3-5.14,0-2.9-2.44-5.26-5.44-5.26ZM19.83,11.8c-.03-5.34-2.45-6.99-4.48-7.44-1.66-.37-3.67.15-5.39,1.39-3.17,2.29-5.25,6.8-5.85,12.71-.07.73-.73,1.27-1.46,1.19-.73-.07-1.27-.73-1.19-1.46.87-8.56,4.26-12.67,6.94-14.61,2.36-1.71,5.11-2.37,7.53-1.84,4.15.92,6.54,4.57,6.57,10.03.01,2.11-1.02,4.24-3.06,6.33-.69.71-1.38,1.29-1.94,1.72l-1.44-2.26c1.26-1,3.79-3.31,3.77-5.79ZM8.62,21.52l.05-.02,5.62-3.79c.11-.07.23-.1.36-.07.09.02.18.07.24.13,0,0,0,.01.01.02,0,.01.02.02.03.04,0,0,.01.01.01.02l1.65,2.6c.1.16.13.35.09.53-.04.18-.16.34-.32.43l-2.8,1.65c-1.6-.44-3.25-.42-4.77.06-1.18.38-2.19,1.01-2.96,1.85.5-2.44,2.68-3.4,2.79-3.44ZM18.3,32.67c-.3.69-.73,1.28-1.26,1.77.42-.42.76-.9,1-1.46.59-1.36.5-2.91-.24-4.36-.72-1.41-1.99-2.57-3.58-3.25-3.3-1.43-6.96-.33-8.16,2.44-1.2,2.77.52,6.18,3.82,7.61.98.42,2,.63,2.97.63.24,0,.47-.01.71-.04-1.27.16-2.65-.02-3.97-.59-3.49-1.51-5.27-5.2-3.97-8.22.63-1.45,1.87-2.54,3.5-3.06.69-.22,1.41-.33,2.14-.33,1.03,0,2.07.22,3.07.65,3.49,1.51,5.27,5.2,3.97,8.22ZM10.31,34.43c-2.76-1.19-4.22-3.97-3.26-6.2.67-1.54,2.32-2.42,4.19-2.42.83,0,1.71.17,2.56.54,1.35.58,2.44,1.56,3.05,2.76.59,1.16.67,2.38.21,3.44-.96,2.23-3.99,3.07-6.75,1.88ZM20.55,33.08l-1.36.2c.03-.06.06-.12.09-.19,1.09-2.53.39-5.44-1.56-7.54l.4-.12c1.69.8,2.86,2.88,2.86,5.22,0,.84-.15,1.67-.44,2.43ZM21.79,32.73c.18-.66.27-1.36.27-2.07,0-2.5-1.12-4.71-2.85-5.84.23-.03.46-.05.69-.05,2.41,0,4.36,1.88,4.36,4.19,0,1.63-1,3.09-2.47,3.77Z"/>
  <path class="cls-1" d="M50.19,30.45c-.91-8.95-4.52-13.3-7.38-15.37-2.61-1.88-5.67-2.62-8.39-2.01-4.68,1.04-7.38,5.07-7.41,11.07-.01,2.4,1.12,4.78,3.37,7.09.9.93,1.8,1.64,2.43,2.11,0,.08.02.16.04.24.11.47.4.86.82,1.1l2.04,1.2c-.7.31-1.34.7-1.92,1.16l-.42-.11c-.04-.15-.14-.27-.28-.34-.75-.36-1.56-.54-2.4-.54-3,0-5.44,2.36-5.44,5.26,0,2.47,1.81,4.63,4.3,5.14.04,0,.07.01.11.01.16,0,.31-.07.42-.2.02-.03.04-.06.06-.09l1.7.25c.82,1.25,2.08,2.19,3.63,2.69.79.26,1.62.38,2.46.38,1.17,0,2.36-.25,3.5-.74,1.94-.84,3.49-2.29,4.34-4.1.87-1.83.93-3.79.18-5.53-.02-.04-.03-.07-.05-.11.41-4.13-2.97-5.88-3.46-6.11l-5.54-3.74c-.35-.23-.76-.32-1.18-.23-.17.04-.34.1-.48.19-2.51-1.95-3.41-3.83-3.41-4.97.02-3.66,1.28-5.88,3.64-6.4,1.36-.3,3.06.15,4.53,1.22,2.92,2.11,4.84,6.35,5.41,11.95.13,1.32,1.32,2.28,2.64,2.15,1.32-.13,2.28-1.32,2.15-2.64ZM28.79,45.09c-1.48-.69-2.47-2.15-2.47-3.77,0-2.31,1.96-4.19,4.36-4.19.23,0,.46.02.69.05-1.73,1.13-2.85,3.34-2.85,5.84,0,.7.09,1.4.27,2.07ZM31.48,39.93c-.84,1.76-.93,3.64-.26,5.33l-1.17-.17s-.1,0-.14,0c-.2-.65-.31-1.35-.31-2.06,0-2.34,1.18-4.43,2.87-5.22l.4.11c-.56.6-1.03,1.28-1.38,2.02ZM33.52,44.92c-.96-2.23.5-5.01,3.26-6.2.85-.37,1.72-.54,2.56-.54,1.87,0,3.52.88,4.19,2.42.46,1.06.38,2.28-.21,3.44-.61,1.19-1.69,2.17-3.05,2.76-2.76,1.19-5.78.35-6.75-1.88ZM44.78,44.21c-.75,1.57-2.1,2.84-3.8,3.57-1.3.56-2.69.76-4.01.58.25.03.5.04.75.04.97,0,1.99-.2,2.97-.63,1.58-.68,2.85-1.84,3.58-3.25.74-1.45.83-3,.24-4.36-1.2-2.77-4.85-3.86-8.16-2.44-3.3,1.43-5.01,4.84-3.82,7.61.25.57.6,1.07,1.04,1.5-.55-.51-.99-1.11-1.29-1.81-.63-1.45-.57-3.1.17-4.65.75-1.57,2.1-2.84,3.8-3.57,1-.43,2.04-.65,3.07-.65.73,0,1.45.11,2.14.33,1.63.52,2.87,1.61,3.5,3.06.63,1.45.57,3.1-.17,4.65ZM35.63,30.2s.01-.01.01-.02c.01-.01.02-.02.03-.04,0,0,0-.01.01-.02.06-.07.15-.11.24-.13.13-.03.25,0,.36.07l5.57,3.76.09.05c.11.05,2.29,1.01,2.79,3.44-.78-.83-1.79-1.47-2.96-1.85-1.52-.49-3.17-.5-4.77-.06l-2.8-1.65c-.16-.1-.27-.25-.32-.43-.04-.18-.01-.37.09-.53l1.65-2.6ZM47.93,32.02c-.73.07-1.39-.46-1.46-1.19-.6-5.91-2.68-10.42-5.85-12.71-1.72-1.24-3.73-1.76-5.39-1.39-2.03.45-4.45,2.1-4.48,7.44-.01,2.47,2.52,4.79,3.77,5.79l-1.44,2.26c-.56-.43-1.25-1.01-1.94-1.72-2.04-2.1-3.07-4.23-3.06-6.33.03-5.46,2.42-9.11,6.57-10.03,2.43-.54,5.17.13,7.53,1.84,2.69,1.94,6.07,6.05,6.94,14.61.07.73-.46,1.39-1.19,1.46Z"/>
</svg>