<?xml version="1.0" encoding="UTF-8"?>
<svg id="EDIT_ART" data-name="EDIT ART" xmlns="http://www.w3.org/2000/svg" viewBox="0 0 48.32 50">
  <defs>
    <style>
      .cls-1 {
        fill: #fff;
      }
    </style>
  </defs>
  <path class="cls-1" d="M47.58,22.84c-.83-5.9-3.13-10.28-3.84-11.2C41.46,3.79,29.94.52,24.19.5h0s-.02,0-.03,0c0,0-.02,0-.03,0h0c-5.75.02-17.27,3.29-19.55,11.14-.71.92-3.01,5.3-3.84,11.2-.79,5.62-.4,14.07,5.88,22.35.42.55,1.08.85,1.75.85.28,0,.57-.05.84-.16.25.15.53.26.82.3,1.42.22,2.63,1.84,3.08,2.52.34.51.9.8,1.47.8.24,0,.49-.05.71-.16l1.07-.52h0s.02-.01.03-.02l2.64-1.27c.71-.34,1.24-.93,1.47-1.66.22-.7.15-1.44-.2-2.09l-7.81-14.3c-.73-1.34-2.48-1.88-3.9-1.19l-2.64,1.27s-.02.01-.03.02h0s-1.07.51-1.07.51c-.77.37-1.1,1.3-.75,2.11.26.6.76,1.92.61,3.04-2.39-7.48-1.87-13.79,1.55-18.77,5.35-7.78,16.04-9.73,17.9-9.78,1.86.05,12.55,1.99,17.9,9.78,3.42,4.98,3.94,11.29,1.55,18.77-.15-1.11.35-2.44.61-3.04.36-.81.03-1.74-.75-2.11l-1.07-.52h0s-.02-.01-.03-.02l-2.64-1.27c-1.42-.68-3.17-.15-3.9,1.19l-7.81,14.3c-.35.65-.42,1.39-.2,2.09.23.73.76,1.32,1.47,1.66l2.64,1.27s.02,0,.03.01h0s1.07.52,1.07.52c.23.11.47.16.71.16.57,0,1.13-.29,1.47-.8.45-.68,1.66-2.3,3.08-2.52.29-.05.57-.15.82-.3.27.11.55.16.84.16.67,0,1.33-.3,1.75-.85,6.29-8.28,6.67-16.72,5.89-22.35ZM9.06,29.27c.27-.13.57-.19.85-.19.67,0,1.32.34,1.64.94l7.81,14.3c.21.39.25.83.12,1.24-.14.44-.47.81-.91,1.02l-2.64,1.27c-.15.07-.34.02-.41-.11L6.3,30.84c-.03-.06-.03-.12-.02-.16.02-.06.07-.11.14-.15l2.64-1.27ZM5.26,31.1c.03.08.06.17.1.25l9.22,16.89c.03.06.07.12.11.17-.25.05-.53-.07-.69-.31-.66-1-2.03-2.71-3.81-2.99-.35-.05-.66-.27-.82-.56l-2.15-3.95-1.76-3.22c-.16-.29-.16-.62-.02-.9.81-1.54.13-3.61-.36-4.7-.11-.26-.04-.53.17-.67ZM29.75,46.57c-.45-.21-.77-.58-.91-1.02-.13-.41-.09-.86.12-1.24l7.81-14.3c.46-.85,1.58-1.18,2.5-.74l2.64,1.27c.07.03.12.08.14.15.01.04.02.09-.02.16l-9.22,16.89c-.07.13-.26.18-.41.11l-2.64-1.27ZM38.13,45.12c-1.78.28-3.15,1.99-3.81,2.99-.16.24-.44.36-.69.31.04-.05.08-.11.11-.17l9.22-16.89c.04-.08.08-.16.1-.25.21.14.28.42.17.67-.48,1.09-1.17,3.16-.35,4.7.15.28.14.62-.02.9l-3.91,7.17c-.16.3-.47.51-.82.56ZM40.84,44.54c-.21.28-.55.43-.89.42l3.86-7.07c.11-.21.19-.43.22-.66h.02c3.14-8.54,2.76-15.73-1.11-21.37-5.67-8.26-16.71-10.19-18.76-10.24h0s-.01,0-.02,0c0,0-.01,0-.02,0h0c-2.05.05-13.09,1.98-18.76,10.24-3.87,5.64-4.25,12.83-1.11,21.38h.02c.04.22.11.44.22.65l2.15,3.95h0s1.7,3.12,1.7,3.12c-.34,0-.68-.14-.89-.42C1.42,36.55,1.05,28.41,1.8,22.99c.83-5.96,3.21-10.26,3.65-10.73l.09-.1.04-.13C7.61,4.75,18.85,1.58,24.16,1.57c5.31.01,16.55,3.17,18.58,10.47l.04.13.09.1c.45.47,2.82,4.77,3.65,10.73.76,5.42.39,13.56-5.68,21.55Z"/>
</svg>