<?xml version="1.0" encoding="UTF-8"?>
<svg id="EDIT_ART" data-name="EDIT ART" xmlns="http://www.w3.org/2000/svg" viewBox="0 0 49.33 50">
  <defs>
    <style>
      .cls-1 {
        fill: #fff;
      }
    </style>
  </defs>
  <path class="cls-1" d="M20.19,26.52c-2.44-1.26-4.26-1.17-5.34-1.12-.28.01-.52.02-.67,0-.33-.05-.81-.23-1.35-.51-.15-.08-.34-.13-.55-.15-.07-.18-.19-.33-.34-.44l-3.63-2.55c-.55-.39-.93-.96-1.07-1.62l-1.21-5.79h0c-.1-.46-.51-.78-.97-.78l-.03-2.17c0-.37-.16-.72-.43-.97-.27-.26-.62-.39-1-.37l-1.05.04c-.75.03-1.32.64-1.31,1.39l.04,2.47c-.5.16-.85.65-.82,1.2l.37,6.94c.16,1.76.95,3.38,2.29,4.67l3.96,3.49c.21.2.49.31.77.32.06.24.16.46.27.65l.33.52c-.08.8-.19,3.27.45,4.73-3.55.73-6.02,3.91-5.58,7.34.09.68.29,1.33.58,1.93.23.56.55,1.03.93,1.39.34.38.72.73,1.15,1.04,1.21.87,2.67,1.32,4.19,1.32.33,0,.65-.02.98-.06,1.49-.19,2.81-.81,3.85-1.7.05,0,.09,0,.14,0,2.15,0,6.5-.76,8.91-6.43,2.76-6.51-.39-13-3.87-14.79ZM2.59,11.16l1.05-.04c.09,0,.17.03.23.08.06.06.1.14.1.22l.04,2.24-.4.04-1.28.08-.04-2.31c0-.17.13-.31.3-.32ZM8.03,29.36c-.04.05-.07.1-.1.16-.01,0-.02,0-.04,0-.03,0-.06,0-.1-.04l-3.96-3.49c-1.16-1.13-1.82-2.47-1.96-3.98l-.37-6.92c0-.07.05-.14.12-.14l2.06-.2,1.32-.08,1.19,5.68c.19.92.72,1.73,1.49,2.27l3.54,2.48s-.01.02-.02.02l-3.19,4.22ZM7.23,44.24c.06.46,0,.92-.18,1.26-.08.16-.26.44-.55.48-.28.04-.53-.19-.65-.32-.25-.29-.43-.71-.49-1.18-.12-.95.28-1.68.72-1.74.02,0,.04,0,.06,0,.26,0,.47.2.59.32.25.29.43.71.49,1.18h0ZM5.05,42.13c.25-.37.57-.6.93-.65.05,0,.09,0,.14,0,.43,0,.85.26,1.19.68-.4-.35-.89-.52-1.36-.45-.34.04-.65.2-.9.43ZM11.02,48.39c-1.33.17-2.63-.06-3.76-.67.57-.21,1.06-.65,1.4-1.3.39-.75.54-1.69.42-2.64-.27-2.08-1.68-3.55-3.23-3.35-.38.05-.73.2-1.04.43.81-1.78,2.59-3.15,4.79-3.44.28-.04.56-.05.84-.05,2.93,0,5.45,2,5.81,4.77.39,3.02-1.95,5.83-5.22,6.25ZM23.08,40.9c-1.87,4.4-5,5.51-7.05,5.73.98-1.31,1.47-2.94,1.25-4.63-.44-3.42-3.65-5.87-7.27-5.67-.69-1.01-.61-3.98-.5-4.63l.03-.2-.54-.85c-.12-.19-.18-.43-.17-.57l3.23-4.29c.09-.01.22,0,.27.03.45.24,1.12.54,1.69.62.24.03.51.02.86,0,1.04-.05,2.61-.12,4.81,1.01,2.68,1.38,6.09,7.04,3.38,13.44Z"/>
  <path class="cls-1" d="M48.05,4.4l.04-2.47h0c.01-.75-.56-1.35-1.31-1.39l-1.05-.04c-.37-.02-.73.12-1,.37-.27.26-.42.6-.43.97l-.03,2.17c-.46,0-.88.31-.97.78l-1.21,5.79c-.14.66-.52,1.24-1.07,1.62l-3.63,2.55c-.16.11-.28.26-.34.44-.21.02-.41.07-.55.15-.54.28-1.02.46-1.35.51-.14.02-.39,0-.67,0-1.08-.05-2.89-.14-5.34,1.12-3.48,1.79-6.63,8.28-3.87,14.79,2.41,5.67,6.76,6.43,8.91,6.43.05,0,.1,0,.14,0,1.04.89,2.36,1.51,3.85,1.7.33.04.66.06.98.06,1.51,0,2.97-.46,4.19-1.32.43-.31.82-.66,1.15-1.04.38-.36.7-.83.93-1.39.29-.6.49-1.25.58-1.93.44-3.42-2.02-6.6-5.58-7.34.64-1.46.53-3.93.45-4.73l.33-.52c.12-.19.22-.41.27-.65.29,0,.56-.12.77-.32l3.94-3.47.02-.02c1.34-1.29,2.13-2.91,2.29-4.69l.37-6.92c.03-.55-.32-1.03-.82-1.2ZM45.35,1.86c0-.08.04-.16.1-.22.06-.06.14-.09.23-.08l1.06.04c.17,0,.3.15.3.32l-.04,2.31-1.29-.08-.39-.04.04-2.24ZM43.96,34.93c-.06.46-.24.89-.49,1.18-.12.14-.36.36-.65.32-.28-.04-.46-.31-.55-.48-.17-.34-.24-.8-.18-1.26h0c.06-.46.24-.89.49-1.18.11-.13.33-.32.59-.32.02,0,.04,0,.06,0,.44.06.85.79.72,1.74ZM43.37,32.14c-.47-.06-.95.1-1.36.45.34-.42.76-.68,1.19-.68.05,0,.09,0,.14,0,.36.05.68.27.93.65-.25-.23-.56-.39-.9-.43ZM44.52,31.31c-.31-.23-.66-.38-1.04-.43-1.54-.2-2.96,1.27-3.23,3.35-.12.96.02,1.89.42,2.64.34.65.83,1.09,1.4,1.3-1.13.6-2.44.84-3.76.67-3.27-.42-5.61-3.23-5.22-6.25.39-3.02,3.38-5.13,6.65-4.71,2.2.29,3.99,1.65,4.79,3.44ZM40.31,21.1l-.54.85.03.2c.11.64.19,3.62-.5,4.63-3.62-.2-6.83,2.25-7.27,5.67-.22,1.69.27,3.32,1.25,4.63-2.05-.22-5.18-1.34-7.05-5.73-2.72-6.39.7-12.06,3.38-13.44,2.19-1.13,3.77-1.05,4.81-1.01.35.02.62.03.86,0,.57-.08,1.24-.38,1.69-.62.06-.03.19-.04.27-.03l3.23,4.29c0,.14-.04.37-.17.57ZM47.45,12.44c-.14,1.52-.8,2.87-1.96,4l-3.94,3.47-.02.02s-.07.04-.1.04c-.01,0-.02,0-.03,0-.03-.05-.06-.11-.1-.16l-3.19-4.23s-.01-.02-.02-.02l3.54-2.48c.77-.54,1.3-1.35,1.49-2.27l1.19-5.68,1.32.08,2.06.2c.07,0,.13.07.12.14l-.37,6.9Z"/>
</svg>