<?xml version="1.0" encoding="UTF-8"?>
<svg id="EDIT_ART" data-name="EDIT ART" xmlns="http://www.w3.org/2000/svg" viewBox="0 0 49.43 50">
  <defs>
    <style>
      .cls-1 {
        fill: #fff;
      }
    </style>
  </defs>
  <path class="cls-1" d="M29.93,39.76c-.87,0-1.57.7-1.57,1.57s.7,1.57,1.57,1.57,1.57-.7,1.57-1.57-.7-1.57-1.57-1.57ZM29.93,41.85c-.29,0-.52-.23-.52-.52s.23-.52.52-.52.52.23.52.52-.23.52-.52.52Z"/>
  <path class="cls-1" d="M27.43,24.37c.42-8.3-6.13-11.37-7.02-11.75,0-.01-.01-.03-.02-.05l-.06-.13c-.36-.77-1.94-.64-2.14-.59,0,0,0,0,0,0l-4.83-7.12c-.33-.48-.99-.61-1.48-.3l-.16.1c-.36-.68-.69-1.43-.73-2.6-.02-.74-.6-1.33-1.34-1.38l-.67-.05c-.4-.03-.8.12-1.09.4-.29.28-.46.68-.44,1.08.06,2.18.79,3.56,1.28,4.48,0,0,0,.02.01.02l-.17.11c-.24.16-.41.4-.47.68-.06.28,0,.57.16.81l4.74,7.11c-1,1.01-2.22,2.73-2.69,3.4-.96-.52-2.06-.82-3.23-.82-3.68,0-6.67,2.94-6.67,6.55s2.99,6.55,6.67,6.55c.31,0,.61-.02.91-.06,2.73,2.19,7.19,2.39,8.75,2.39.34,0,.54,0,.55-.01.04,0,.09,0,.15,0,6.08-.22,9.72-3.43,9.99-8.82ZM8.49,1.96c0-.11.04-.22.12-.3.07-.07.17-.11.27-.11,0,0,.02,0,.03,0l.67.05c.2.01.36.17.36.37.05,1.44.49,2.38.89,3.15l-.33.21-.94.48c-.45-.86-1.02-2.03-1.07-3.85ZM9.14,7.51v-.03s1.9-1.24,1.9-1.24l1.24-.63-.07-.13.25-.16s.02,0,.03,0l4.76,7.02c-.61.37-1.65,1.02-3.43,2.19l-4.68-7.02ZM7.08,29.82c-3.1,0-5.62-2.47-5.62-5.5,0-.43.05-.85.15-1.26-.02.15-.03.31-.03.46,0,1.85,1.41,3.35,3.15,3.35s3.15-1.5,3.15-3.35-1.41-3.35-3.15-3.35c-.91,0-1.73.42-2.31,1.08,1.01-1.47,2.72-2.43,4.66-2.43,3.1,0,5.62,2.47,5.62,5.5s-2.52,5.5-5.62,5.5ZM2.63,23.53c0-1.27.94-2.3,2.1-2.3s2.1,1.03,2.1,2.3-.94,2.3-2.1,2.3-2.1-1.03-2.1-2.3ZM17.4,32.13c-.07,0-.13,0-.17,0-.05,0-4.81.2-7.88-1.66,2.56-.92,4.39-3.33,4.39-6.16,0-2.09-1-3.95-2.56-5.15.73-1.05,2.28-3.18,3.08-3.7,2.47-1.61,3.87-2.49,4.17-2.61.22-.04.77,0,.96.09l.02.05c.11.24.21.46.54.57.07.03,6.82,2.78,6.41,10.74-.33,6.54-5.77,7.71-8.98,7.82Z"/>
  <path class="cls-1" d="M19.5,23.46c-.87,0-1.57.7-1.57,1.57s.7,1.57,1.57,1.57,1.57-.7,1.57-1.57-.7-1.57-1.57-1.57ZM19.5,25.55c-.29,0-.52-.23-.52-.52s.23-.52.52-.52.52.23.52.52-.23.52-.52.52Z"/>
  <path class="cls-1" d="M42.35,34.07c-1.17,0-2.28.3-3.23.82-.47-.67-1.68-2.39-2.69-3.4l4.74-7.11c.16-.24.22-.53.16-.81-.06-.28-.22-.53-.46-.68l-.17-.11v-.02c.5-.91,1.23-2.29,1.29-4.48.01-.41-.15-.8-.44-1.08-.29-.28-.69-.43-1.09-.4l-.67.05c-.74.05-1.32.64-1.34,1.38-.04,1.17-.37,1.92-.73,2.6l-.16-.1c-.49-.32-1.15-.19-1.48.3l-4.83,7.12s0,0,0,0c-.2-.05-1.78-.18-2.14.59l-.06.13s-.02.03-.02.05c-.88.37-7.45,3.44-7.02,11.75.27,5.39,3.92,8.6,9.99,8.82.06,0,.11,0,.15,0,.01,0,.21.01.56.01,1.56,0,6.01-.2,8.74-2.39.3.04.6.06.91.06,3.68,0,6.67-2.94,6.67-6.55s-2.99-6.55-6.67-6.55ZM39.49,18.27c0-.2.16-.35.36-.37l.67-.05c.11,0,.21.03.29.11.08.08.12.18.12.3-.05,1.82-.62,2.99-1.07,3.85l-.94-.48-.33-.21c.4-.75.85-1.7.89-3.15ZM36.95,21.62s.02-.01.03,0l.25.16-.07.13,1.24.63,1.9,1.24.29-.44-.28.47-4.68,7.02c-1.78-1.16-2.81-1.82-3.43-2.19l4.76-7.02ZM32.19,48.44s-.1,0-.17,0c-3.21-.12-8.65-1.29-8.98-7.82-.4-7.96,6.34-10.71,6.4-10.73.35-.12.45-.34.55-.58l.02-.05c.19-.08.75-.13.96-.09.21.09,1.12.62,4.18,2.62.79.52,2.35,2.64,3.08,3.69-1.56,1.2-2.56,3.06-2.56,5.15,0,2.83,1.83,5.24,4.39,6.16-3.07,1.86-7.83,1.66-7.88,1.66ZM42.35,46.12c-3.1,0-5.62-2.47-5.62-5.5s2.52-5.5,5.62-5.5c1.94,0,3.65.97,4.66,2.43-.58-.66-1.4-1.08-2.31-1.08-1.74,0-3.15,1.5-3.15,3.35s1.41,3.35,3.15,3.35,3.15-1.5,3.15-3.35c0-.16-.01-.31-.03-.46.1.4.15.82.15,1.26,0,3.03-2.52,5.5-5.62,5.5ZM46.8,39.83c0,1.27-.94,2.3-2.1,2.3s-2.1-1.03-2.1-2.3.94-2.3,2.1-2.3,2.1,1.03,2.1,2.3Z"/>
</svg>