<?xml version="1.0" encoding="UTF-8"?>
<svg id="EDIT_ART" data-name="EDIT ART" xmlns="http://www.w3.org/2000/svg" viewBox="0 0 48.63 50">
  <defs>
    <style>
      .cls-1 {
        fill: #fff;
      }
    </style>
  </defs>
  <path class="cls-1" d="M24.78.5s-.06,0-.09,0h0c-3.66.05-9.46,1.54-14.35,4.8C6.2,8.07,1.25,13.09,1.25,21.28c0,.07.01.45.07,1.1h-.02s.03.1.03.1c.13,1.33.46,3.67,1.34,6.69-.08.03-.15.07-.24.11-1.16.56-1.07,1.64-1.01,2.36,0,.07.01.13.01.19v.11s8.22,16.28,8.22,16.28l.04.09.23.21c.5.45,1.1,1,1.95,1,.19,0,.39-.03.61-.09.37-.11.63-.22.82-.3.32-.14.38-.17.72-.06.65.2,2.37.73,3.37.06.22-.14.47-.39.61-.81.07,0,.13.01.2.01.19,0,.39-.03.58-.11l4.36-1.65c.39-.15.69-.44.83-.8.13-.34.11-.7-.05-1.03l-10.16-19.96c-.34-.66-1.18-.96-1.93-.68l-4.36,1.65c-.34.13-.61.36-.77.66-.31-.08-.61-.08-.91,0-.14.04-.28.1-.41.16-.44-1.8-.72-3.63-.69-5.34.06-3.67,2.19-7.49,5.86-10.49,3.89-3.18,8.95-5,14.23-5.11,5.29.11,10.34,1.93,14.23,5.11,3.66,2.99,5.8,6.81,5.86,10.49.03,1.71-.25,3.54-.69,5.34-.13-.07-.27-.13-.41-.16-.3-.08-.61-.08-.91,0-.16-.29-.43-.53-.77-.66l-4.36-1.65c-.74-.28-1.59.02-1.93.68l-10.16,19.96c-.16.32-.18.69-.05,1.03.14.36.44.65.83.8l4.36,1.65c.19.07.38.11.58.11.07,0,.13,0,.2-.01.14.41.4.66.61.81,1.01.67,2.73.14,3.37-.06.34-.1.4-.08.72.06.19.08.45.2.82.3.22.06.42.09.61.09.85,0,1.45-.55,1.95-1l.23-.21,8.21-16.27.05-.09v-.11c.01-.06.02-.13.02-.19.06-.72.14-1.81-1.01-2.36-.08-.04-.16-.08-.24-.11.87-3.01,1.21-5.35,1.34-6.68l.03-.09h-.02c.06-.66.07-1.04.07-1.11,0-8.18-4.95-13.2-9.1-15.97C34.33,2.04,28.53.55,24.87.5h0s-.06,0-.09,0ZM8.28,37.22c.21.45.39.83.52,1.14.09.2,0,.41-.22.52-.28.15-.64.05-.78-.2-1.83-3.29-3.04-6.35-3.84-8.88.26-.12.5-.32.71-.75.05-.09.12-.24.21-.4,1.04,3.46,2.51,6.63,3.41,8.57ZM3.73,28.59c-.04.07-.06.12-.09.16-.25-.88-.46-1.69-.61-2.39-.29-1.3-.47-2.4-.57-3.24l1.25-.39c.11,1.51.41,3.07.8,4.6-.38.47-.64.99-.77,1.26ZM3.95,18.83l-1.5.09c.09-.71.23-1.39.4-2.04l1.54.48c-.18.49-.32.98-.44,1.48ZM2.29,21.27c0-.45.02-.88.05-1.31l1.42-.08c-.06.44-.1.88-.1,1.32,0,.15,0,.3,0,.45l-1.31.41c-.04-.51-.05-.79-.05-.79ZM7.61,26.92c.03-.09.12-.16.23-.2l4.36-1.65c.07-.03.14-.04.21-.04.18,0,.36.08.42.22l10.16,19.96c.03.06.03.12.01.18-.03.09-.12.16-.23.2l-4.36,1.65c-.27.1-.55-.01-.63-.18L7.62,27.09c-.03-.06-.03-.12-.01-.18ZM6.07,27.41c.19-.05.38-.03.59.07.01.03.02.06.04.09l10.16,19.96c.05.11.12.2.2.29-.04.26-.16.37-.24.43-.4.26-1.23.2-2.49-.19-.66-.2-.99-.1-1.45.11-.18.08-.38.17-.68.25-.6.17-.97-.13-1.57-.68l-.09-.08L2.45,31.65s0-.07,0-.1c-.06-.79-.04-1.11.43-1.34.03-.02.06-.03.09-.04.83,2.64,2.07,5.72,3.91,9.02.28.51.83.8,1.4.8.26,0,.53-.06.77-.19.7-.37,1-1.17.7-1.87-.13-.31-.31-.7-.53-1.15-.95-2.05-2.54-5.49-3.56-9.15.13-.1.26-.18.41-.22ZM44.69,28.65c.09.16.16.31.21.4.21.43.45.63.71.75-.8,2.53-2,5.59-3.84,8.88-.14.25-.51.34-.78.2-.22-.11-.31-.33-.22-.52.13-.3.31-.68.52-1.14.9-1.94,2.36-5.11,3.41-8.57ZM45.93,28.75s-.06-.09-.09-.16c-.13-.27-.39-.79-.77-1.26.4-1.53.69-3.08.8-4.6l1.25.39c-.11.83-.28,1.92-.57,3.21-.16.72-.36,1.53-.62,2.43ZM45.18,17.35l1.54-.48c.17.65.3,1.33.4,2.04l-1.5-.09c-.11-.49-.26-.99-.44-1.48ZM31.15,47.23l-4.36-1.65c-.11-.04-.2-.12-.23-.2-.02-.06-.02-.12.01-.18l10.16-19.96c.08-.17.36-.28.63-.18l4.36,1.65c.11.04.2.12.23.2.02.06.02.12-.01.18l-10.16,19.96c-.08.17-.36.28-.63.18ZM46.69,30.21c.47.23.49.55.43,1.34,0,.03,0,.07,0,.1l-8.08,16-.09.08c-.6.55-.97.85-1.57.68-.3-.09-.5-.18-.68-.25-.46-.2-.78-.31-1.45-.11-1.26.39-2.09.45-2.49.19-.09-.06-.2-.16-.24-.43.08-.09.15-.18.2-.29l10.16-19.96s.03-.06.04-.09c.21-.1.4-.12.59-.07.14.04.28.12.41.22-1.02,3.66-2.62,7.1-3.56,9.15-.21.46-.39.85-.53,1.15-.31.7,0,1.5.7,1.87.25.13.51.19.77.19.57,0,1.12-.29,1.4-.8,1.84-3.3,3.08-6.38,3.91-9.02.03.01.06.03.09.04ZM45.92,21.65c0-.15,0-.3,0-.45,0-.44-.04-.88-.1-1.32l1.42.08c.03.42.05.86.05,1.3,0,0,0,.29-.05.8l-1.31-.41ZM46.43,15.87l-1.64.51c-1.05-2.33-2.79-4.55-5.11-6.45-4.08-3.33-9.36-5.23-14.88-5.34h0s0,0-.01,0c0,0,0,0-.01,0h0c-5.52.12-10.81,2.01-14.88,5.35-2.32,1.9-4.07,4.12-5.11,6.45l-1.64-.51c1.53-4.63,4.87-7.76,7.79-9.71C15.67,3,21.28,1.57,24.78,1.54c3.5.02,9.11,1.45,13.86,4.62,2.92,1.95,6.26,5.07,7.79,9.71Z"/>
</svg>