<?xml version="1.0" encoding="UTF-8"?>
<svg id="EDIT_ART" data-name="EDIT ART" xmlns="http://www.w3.org/2000/svg" viewBox="0 0 48.67 50">
  <defs>
    <style>
      .cls-1 {
        fill: #fff;
      }
    </style>
  </defs>
  <path class="cls-1" d="M39.25,49.41h.04c.16.07.32.09.48.09.22,0,.45-.05.65-.15.36-.18.63-.49.75-.87l.43-1.31c1.82-.58,2.97-1.55,3.41-2.91l3.06-9.27c.47-1.42.16-2.98-.92-4.65l.62-1.89c.23-.7-.08-1.46-.71-1.8,1.14-8.57-.25-15.16-4.11-19.58C39.09,2.65,33.02.5,24.42.5c-.03,0-.06,0-.09,0-.03,0-.06,0-.09,0C15.64.5,9.58,2.65,5.71,7.07,1.84,11.49.46,18.08,1.59,26.65c-.62.34-.94,1.09-.71,1.8l.62,1.89c-1.08,1.66-1.39,3.23-.92,4.65l3.06,9.27c.45,1.35,1.59,2.33,3.41,2.91l.43,1.31c.13.38.39.69.75.87.21.1.43.15.65.15.16,0,.32-.03.48-.08h.04s0-.02,0-.02c.7-.24,1.1-.96.99-1.67.67.05,1.26.06,1.7.06.25,0,.47,0,.57.02v-.06c.36.12.72.18,1.08.18s.76-.06,1.13-.19l.14-.05c1.84-.63,2.84-2.67,2.22-4.54l-5.44-16.49c-.3-.92-.94-1.66-1.8-2.08-.84-.42-1.79-.48-2.68-.18l-.14.05c-1.07.37-1.85,1.21-2.2,2.21l-.03-.03c-.06.06-.15.13-.27.23-.22.19-.54.47-.9.81l-.06-.19c-.13-.38-.39-.69-.75-.87-.04-.02-.08-.04-.12-.05.48-4.51,3.1-9.22,7.21-12.95,4.19-3.8,9.38-6.03,14.26-6.12,4.88.09,10.07,2.31,14.26,6.12,4.1,3.73,6.73,8.44,7.21,12.95-.04.02-.08.03-.12.05-.36.18-.63.49-.75.87l-.06.19c-.36-.34-.68-.61-.9-.81-.11-.1-.2-.18-.27-.23l-.03.03c-.35-1.01-1.13-1.85-2.2-2.21l-.14-.05c-.89-.3-1.84-.24-2.68.18-.86.43-1.49,1.17-1.8,2.08l-5.44,16.49c-.62,1.87.38,3.91,2.22,4.54l.14.05c.37.13.75.19,1.13.19s.73-.06,1.08-.18v.06c.11,0,.33-.01.58-.02.44,0,1.03-.02,1.7-.06-.12.71.29,1.43.99,1.67ZM47.09,34.66l-3.06,9.27c-.27.83-.95,1.49-2,1.96l4.69-14.21c.54,1.09.66,2.09.37,2.98ZM4.64,43.93l-3.06-9.27c-.3-.9-.17-1.9.37-2.98l4.69,14.21c-1.05-.47-1.72-1.12-2-1.96ZM7.53,25.44l.14-.05c.26-.09.53-.13.79-.13.37,0,.74.09,1.08.26.6.3,1.05.82,1.27,1.47l5.44,16.49c.44,1.33-.26,2.78-1.57,3.22l-.14.05c-.62.21-1.29.17-1.87-.12-.6-.3-1.05-.82-1.27-1.47l-5.44-16.49c-.44-1.33.26-2.78,1.57-3.22ZM4.81,28.17c.02.27.08.55.17.82l5.44,16.49c.15.47.4.89.71,1.25-.33-.01-.68-.03-1.06-.07l-5.9-17.89c.23-.22.44-.43.64-.61ZM9.35,47.84c.08.24-.04.5-.28.58h-.04c-.11.05-.22.04-.32,0-.11-.05-.19-.15-.22-.26L1.88,28.12c-.08-.24.04-.5.28-.58h.04s.09-.04.14-.04c.06,0,.13.01.19.04.11.05.19.15.22.26l6.6,20.03ZM39.29,12.83c-4.36-3.96-9.77-6.28-14.88-6.39h0s-.05,0-.08,0c-.03,0-.05,0-.08,0h0c-5.11.11-10.53,2.43-14.88,6.39-3.49,3.17-5.95,7.03-7.03,10.92-.48-6.92.91-12.29,4.15-15.99C10.15,3.58,15.96,1.55,24.24,1.55c0,0,0,0,0,0h0s.05,0,.08,0c.03,0,.05,0,.08,0h0s0,0,0,0c8.28,0,14.09,2.03,17.75,6.22,3.24,3.7,4.63,9.08,4.15,15.99-1.07-3.89-3.54-7.75-7.03-10.92ZM45.92,27.81c.04-.12.12-.21.22-.26.1-.05.22-.06.32-.02l.05.02c.23.08.35.34.28.58l-6.6,20.03c-.04.12-.12.21-.22.26-.1.05-.22.06-.32.02h-.04c-.23-.09-.35-.35-.28-.59l6.6-20.03ZM43.69,28.99c.09-.27.14-.55.17-.82.2.18.41.38.64.6l-5.9,17.89c-.37.03-.73.05-1.06.07.31-.36.56-.78.71-1.25l5.44-16.49ZM34.12,46.75l-.14-.05h0c-1.3-.45-2.01-1.89-1.57-3.22l5.44-16.49c.21-.65.67-1.17,1.27-1.47.34-.17.71-.26,1.08-.26.27,0,.53.04.79.13l.14.05c1.3.45,2.01,1.89,1.57,3.22l-5.44,16.49c-.21.65-.67,1.17-1.27,1.47-.59.29-1.25.34-1.87.12Z"/>
</svg>