<?xml version="1.0" encoding="UTF-8"?>
<svg id="EDIT_ART" data-name="EDIT ART" xmlns="http://www.w3.org/2000/svg" viewBox="0 0 50.41 50">
  <defs>
    <style>
      .cls-1 {
        fill: #fff;
      }
    </style>
  </defs>
  <path class="cls-1" d="M47.52,29.12v-.08c0-1.5-1.2-2.71-2.69-2.75.03-.08.05-.16.07-.25l.37-1.85c.86-.23,1.48-1.14,1.42-2.19-.56-10.01-3.9-13.36-6.99-15.71-.4-.31-.89-.42-1.37-.31-.33.07-.63.25-.88.51-.02,0-.04,0-.06,0-.61-.6-2.29-1.87-4.14-2.71,0-.79-.34-1.8-1-2.07-1.14-.45-3.55-1.2-7-1.22h0s-.01,0-.02,0c-.01,0-.02,0-.03,0-.01,0-.02,0-.03,0h-.02c-3.44.01-5.86.77-7,1.22-.67.26-1,1.28-1,2.07-1.85.84-3.53,2.11-4.14,2.71-.02,0-.04,0-.06,0-.25-.25-.55-.43-.88-.51-.48-.11-.96,0-1.37.31-3.09,2.35-6.43,5.7-6.99,15.71-.06,1.04.56,1.96,1.42,2.19l.37,1.85c.02.09.04.17.07.25-1.49.03-2.69,1.25-2.69,2.75v.08l-1.31,2.27c-.75,1.31-1.15,2.84-1.15,4.43v4.51c0,1.51.36,2.98,1.05,4.25l1.46,2.68c.25,1.27,1.36,2.23,2.7,2.23h2.34c.44,0,.84-.19,1.12-.48.34.3.79.48,1.29.48h.6c2.24,0,4.07-1.83,4.07-4.07v-15.07c0-2.24-1.83-4.07-4.07-4.07h-.6c-.49,0-.94.18-1.29.48-.21-.22-.48-.38-.79-.45.11-.29.14-.6.1-.92l-.38-1.18c.33-.36.55-.85.58-1.4.45-8.09,2.79-10.52,5.36-12.47.82-.62,1.06-1.87.56-2.84-.12-.22-.27-.41-.44-.57.59-.5,1.58-1.19,2.65-1.77-.09.43-.08.96.19,1.6.47,1.13,1.27,1.48,2.22,1.48.8,0,1.7-.25,2.58-.49,1.07-.29,2.18-.6,3.3-.61v-.53s.02.53.02.53c1.33-.05,2.64.3,3.8.6.85.23,1.71.46,2.48.46.93,0,1.72-.34,2.17-1.43.27-.64.28-1.17.19-1.6,1.07.58,2.06,1.27,2.65,1.77-.17.16-.32.35-.44.57-.51.97-.26,2.22.56,2.84,2.57,1.95,4.91,4.38,5.36,12.47.03.55.25,1.05.58,1.4l-.35,1.09-.02.09c-.04.31,0,.63.1.92-.31.07-.58.23-.79.45-.34-.3-.79-.48-1.29-.48h-.6c-2.24,0-4.07,1.83-4.07,4.07v15.07c0,2.24,1.83,4.07,4.07,4.07h.6c.49,0,.94-.18,1.29-.48.28.3.68.48,1.12.48h2.34c1.34,0,2.45-.96,2.7-2.23l1.46-2.68c.69-1.27,1.05-2.74,1.05-4.25v-4.51c0-1.59-.4-3.12-1.15-4.43l-1.31-2.27ZM39.07,7.14c2.9,2.21,6.04,5.36,6.57,14.93.02.27-.05.53-.17.73,0-.08,0-.16,0-.25-.54-9.79-3.75-13.21-6.78-15.55.13,0,.26.04.38.13ZM18.55,2.7c1.07-.43,3.36-1.14,6.66-1.14,3.3,0,5.59.72,6.65,1.14.1.06.22.34.29.65-.14-.05-.29-.09-.43-.13-1.74-.75-4.3-.94-6.46-.95h0s-.04,0-.04,0h-.01s0,0,0,0,0,0,0,0h-.05c-2.16,0-4.73.2-6.46.95-.14.04-.29.08-.43.13.07-.31.19-.59.29-.65ZM11.35,7.14c.12-.09.25-.14.38-.13-3.03,2.34-6.23,5.76-6.78,15.55,0,.08,0,.16,0,.25-.12-.2-.19-.46-.17-.73.53-9.57,3.67-12.72,6.57-14.93ZM1.49,40.34v-4.51c0-1.4.35-2.75,1.01-3.9l.39-.68v13.72l-.48-.88c-.61-1.11-.93-2.41-.93-3.75ZM3.95,46.75v-17.7c0-.76.5-1.4,1.19-1.62v20.94c-.69-.22-1.19-.86-1.19-1.62ZM10.38,27.35h.6c1.66,0,3.01,1.35,3.01,3.01v15.07c0,1.66-1.35,3.01-3.01,3.01h-.6c-.42,0-.76-.28-.87-.67v-19.76c.1-.38.45-.67.87-.67ZM8.46,27.83v.06c-.02.12-.03.24-.03.36v19.29c0,.12.01.24.03.36v.06c0,.26-.21.48-.48.48h-1.79v-21.09h1.79c.26,0,.48.21.48.48ZM7.37,25.6c.02.21-.04.42-.16.56-.05.06-.14.13-.25.13-.18,0-.35-.19-.4-.45l-.22-1.11c.1.03.21.05.32.06.04,0,.09,0,.13,0,.11,0,.21-.01.32-.03l.27.83ZM13.33,9.52c-2.77,2.11-5.3,4.71-5.77,13.25-.02.44-.26.81-.56.93l-.53-.05c-.29-.18-.49-.59-.47-1.03.53-9.57,3.67-12.72,6.57-14.93.12-.09.25-.14.38-.14.04,0,.08,0,.12.01.21.05.39.21.52.44.27.51.15,1.2-.26,1.51ZM32.51,6.38c-.43,1.04-1.28.93-3.4.36-1.22-.33-2.61-.69-4.1-.64h0s0,0,0,0c0,0,0,0,0,0h0c-1.25.02-2.47.35-3.55.65-2.21.61-3.09.73-3.54-.37-.22-.54-.21-.98.03-1.35.34-.51,1.74-1.7,7.27-1.7,5.54,0,6.93,1.19,7.27,1.7.25.37.26.81.03,1.35ZM37.08,9.52c-.41-.31-.53-1-.26-1.51.12-.23.31-.39.52-.44.04,0,.08-.01.12-.01.13,0,.26.05.38.14,2.9,2.21,6.04,5.36,6.57,14.93.02.45-.17.86-.47,1.03l-.53.05c-.3-.12-.54-.49-.56-.93-.48-8.54-3-11.14-5.77-13.25ZM43.63,24.8s.09,0,.13,0c.11,0,.22-.03.32-.06l-.22,1.11c-.05.26-.22.45-.4.45-.11,0-.2-.07-.25-.13-.12-.14-.18-.35-.16-.56l.27-.83c.1.02.21.03.32.03ZM40.03,48.44h-.6c-1.66,0-3.01-1.35-3.01-3.01v-15.07c0-1.66,1.35-3.01,3.01-3.01h.6c.42,0,.76.28.87.67v19.76c-.1.38-.45.67-.87.67ZM41.95,47.96v-.06c.02-.12.03-.24.03-.36v-19.29c0-.12-.01-.24-.03-.36v-.06c0-.26.21-.48.48-.48h1.79v21.09h-1.79c-.26,0-.48-.21-.48-.48ZM46.47,46.75c0,.76-.5,1.4-1.19,1.62v-20.94c.69.22,1.19.86,1.19,1.62v17.7ZM48.93,40.34c0,1.34-.32,2.63-.93,3.75l-.48.88v-13.72l.39.68c.66,1.15,1.01,2.5,1.01,3.9v4.51Z"/>
</svg>