<?xml version="1.0" encoding="UTF-8"?>
<svg id="EDIT_ART" data-name="EDIT ART" xmlns="http://www.w3.org/2000/svg" viewBox="0 0 48.86 50">
  <defs>
    <style>
      .cls-1 {
        fill: #fff;
      }
    </style>
  </defs>
  <path class="cls-1" d="M26.97,23.2h0c2.72-1.33,4.38-3.94,4.33-6.82-.03-2.02-.9-3.91-2.45-5.31-1.54-1.39-3.57-2.14-5.7-2.11-1.01.02-2,.21-2.93.57v.02c-1.74.45-3.29,1.54-4.35,3.09-.43,0-.84,0-1.2.02,1.44-.87,2.35-1.65,3.37-2.51,1.27-1.08,2.71-2.31,5.63-4.07.22-.13.38-.35.44-.6.06-.23.02-.47-.09-.68l2-1.31c.58-.38.75-1.14.39-1.73l-.39-.64c-.18-.3-.48-.51-.81-.58-.34-.07-.7,0-.98.19l-1.93,1.29c-.29-.42-.86-.54-1.29-.27-3.98,2.45-5.16,2.96-6.3,3.45-.95.41-1.86.8-4.21,2.22l-.1-.17c-.25-.44-.81-.6-1.26-.37C4.02,9.52-1.15,14.57,1.11,20.09c1.34,3.29,4.05,4.94,8.06,4.94,1.55,0,3.3-.25,5.24-.74,1-.25,1.97-.62,2.87-1.05,1.36,1.15,3.06,1.78,4.83,1.78s3.55-.68,4.87-1.82ZM28.15,11.84c1.33,1.2,2.08,2.82,2.1,4.55.02,1.24-.33,2.42-.98,3.44.29-.83.45-1.73.45-2.67,0-2.68-1.31-5.05-3.31-6.47.63.29,1.21.68,1.73,1.15ZM24.81,1.59c.07-.04.13-.04.17-.03.03,0,.1.03.14.1l.39.64c.06.1.03.23-.07.3l-1.97,1.29-.61-.99,1.96-1.31ZM15.11,6.16c1.17-.51,2.38-1.03,6.36-3.47l1.58,2.53c-2.94,1.79-4.4,3.03-5.69,4.13-1.16.99-2.18,1.86-4.07,2.9l-2.28-3.92c2.29-1.38,3.17-1.76,4.09-2.16ZM14.15,23.27c-6.46,1.64-10.41.47-12.07-3.58C.11,14.86,4.84,10.31,9.53,7.85l3.17,5.45c.18.31.52.49.87.47.09,0,.2-.01.32-.02,1.69-.11,6.17-.4,7.27,2.26.35.86.3,1.75-.16,2.67-.98,1.96-3.73,3.8-6.84,4.59ZM22.13,15.61c-.21-.51-.51-.94-.86-1.29.01,0,.02,0,.03,0,1.3,0,2.36,1.1,2.36,2.45,0,1.12-.72,2.06-1.71,2.36.58-1.17.65-2.39.18-3.52ZM22.55,20.03v.02s4.47-1.6,4.47-1.6l.08-.07c.18-.16.34-.34.48-.54-.32,2.82-2.65,5.02-5.46,5.02-1.01,0-1.97-.28-2.82-.81.76-.54,1.41-1.14,1.92-1.77.03,0,.07,0,.1,0,.44,0,.86-.09,1.24-.24ZM26.45,17.52l-2.07.74c.21-.46.33-.96.33-1.5,0-1.29-.68-2.41-1.69-3.02l1.56-.44c.08,0,.16-.01.24-.01,1.3,0,2.36,1.1,2.36,2.45,0,.67-.27,1.31-.73,1.77ZM24.83,12.24c-.14,0-.27,0-.4.02l-4.09,1.14h0c-.08.03-.15.05-.23.08-.52-.26-1.08-.45-1.67-.58,1-.93,2.3-1.45,3.66-1.45,1.02,0,1.97.29,2.79.79-.02,0-.04,0-.07,0ZM18.32,22.67c1.11.81,2.41,1.24,3.78,1.24,3.62,0,6.56-3.03,6.56-6.76s-2.94-6.76-6.56-6.76c-1.9,0-3.68.84-4.93,2.3,0,0-.02,0-.03,0,1.24-1.48,3.03-2.34,4.96-2.34,3.62,0,6.57,3.05,6.57,6.8s-2.95,6.8-6.57,6.8c-1.38,0-2.71-.45-3.81-1.27.01,0,.02-.01.03-.02Z"/>
  <path class="cls-1" d="M40.68,31.34c-.45-.23-1-.07-1.26.37l-.1.17c-2.35-1.41-3.25-1.8-4.21-2.22-1.14-.49-2.33-1-6.3-3.45-.44-.27-1-.14-1.29.27l-1.93-1.29c-.29-.2-.64-.26-.98-.19-.34.08-.63.28-.81.58l-.39.64c-.36.59-.19,1.35.39,1.72l2,1.31c-.11.21-.15.44-.09.68.06.25.22.47.44.6,2.92,1.77,4.36,2.99,5.63,4.07,1.02.87,1.93,1.64,3.37,2.51-.36-.02-.77-.03-1.2-.02-1.06-1.56-2.61-2.64-4.36-3.09v-.02c-.92-.36-1.9-.55-2.92-.57-.05,0-.09,0-.14,0-4.36,0-7.94,3.3-8.01,7.42-.05,2.88,1.61,5.5,4.33,6.83h0c1.32,1.13,3.02,1.81,4.87,1.81s3.47-.63,4.83-1.78c.9.44,1.87.8,2.87,1.05,1.94.49,3.69.74,5.24.74,4.02,0,6.72-1.65,8.06-4.94,2.26-5.52-2.91-10.57-8.03-13.22ZM24.38,27.06c-.1-.06-.13-.19-.07-.3l.39-.64c.04-.07.11-.09.14-.1.03,0,.1-.01.17.03l1.96,1.31-.61.99-1.97-1.29ZM32.45,33.81c-1.29-1.1-2.75-2.34-5.69-4.13l1.58-2.53c3.98,2.45,5.19,2.97,6.36,3.47.92.4,1.8.78,4.09,2.16l-2.28,3.92c-1.89-1.04-2.9-1.91-4.07-2.9ZM20.55,44.29c-.65-1.02-1-2.2-.98-3.44.04-2.49,1.59-4.63,3.82-5.69-1.99,1.42-3.29,3.78-3.29,6.46,0,.94.16,1.83.45,2.66ZM27.72,48.43c-3.62,0-6.57-3.05-6.57-6.8s2.95-6.8,6.57-6.8c1.92,0,3.72.86,4.96,2.34,0,0-.02,0-.03,0-1.25-1.46-3.03-2.3-4.93-2.3-3.62,0-6.56,3.03-6.56,6.76s2.94,6.76,6.56,6.76c1.37,0,2.67-.43,3.78-1.24.01,0,.02.01.03.02-1.11.82-2.44,1.27-3.81,1.27ZM29.37,37.84s0,0,0,0l-3.88-1.09-.08-.02c-.13-.02-.27-.02-.4-.02-.02,0-.04,0-.06,0,.82-.5,1.77-.79,2.79-.79,1.36,0,2.66.52,3.66,1.45-.58.13-1.15.32-1.66.58-.08-.03-.15-.06-.23-.08h0s-.12-.03-.12-.03ZM27.87,43.6c-.99-.29-1.71-1.24-1.71-2.36,0-1.35,1.06-2.45,2.36-2.45.01,0,.02,0,.03,0-.35.35-.65.78-.86,1.29-.46,1.13-.4,2.34.18,3.52ZM25.44,42.74l-2.07-.74c-.47-.46-.73-1.1-.73-1.77,0-1.35,1.06-2.45,2.36-2.45.08,0,.16,0,.24.01l1.56.44c-1.01.61-1.69,1.73-1.69,3.02,0,.54.12,1.04.33,1.5ZM22.73,42.84l.08.07,4.46,1.6v-.02c.39.16.81.24,1.25.24.03,0,.07,0,.1,0,.51.63,1.16,1.23,1.92,1.77-.85.53-1.81.81-2.82.81-2.81,0-5.14-2.2-5.46-5.02.14.19.3.37.48.54ZM47.73,44.16c-1.65,4.05-5.6,5.22-12.07,3.58-3.11-.79-5.86-2.64-6.84-4.59-.46-.91-.51-1.81-.16-2.67.82-1.98,3.51-2.32,5.53-2.32.69,0,1.31.04,1.74.07.12,0,.22.01.32.02.35.02.69-.16.87-.47l3.17-5.45c4.69,2.45,9.42,7,7.45,11.84Z"/>
</svg>