<?xml version="1.0" encoding="UTF-8"?>
<svg id="EDIT_ART" data-name="EDIT ART" xmlns="http://www.w3.org/2000/svg" viewBox="0 0 48 50">
  <defs>
    <style>
      .cls-1 {
        fill: #fff;
      }
    </style>
  </defs>
  <path class="cls-1" d="M1.14,17.76v.07c-.05.35-1.05,8.38.33,11.57-.08,1.25-.13,2.89-.13,5.04,0,8.71.8,10.29,1.04,10.57l.16.19h.25c2.79-.02,5.02.26,5.44.54l.09.32h.77v1.45c0,.85.69,1.54,1.54,1.54h1.19c.46,0,.88-.17,1.2-.45.41.55,1.06.91,1.79.91h2.18c1.23,0,2.23-1,2.23-2.23v-25.67c0-1.23-1-2.23-2.23-2.23h-2.18c-.83,0-1.56.46-1.94,1.14-.3-.21-.66-.33-1.05-.33h-1.19c-.85,0-1.54.69-1.54,1.54v1.62h-.43s-.15.12-.15.12c0,0-.38.3-1.07.64-.81-1.12-1.33-1.63-1.63-1.87l.21-1.85,2.19-4.27c.22-.14.41-.32.56-.54,2.34-3.6,8.99-7.46,15.22-7.51,6.23.05,12.88,3.9,15.22,7.51.15.23.34.41.56.54l2.19,4.27.21,1.85c-.31.24-.82.75-1.63,1.87-.69-.34-1.07-.64-1.07-.64l-.15-.12h-.43v-1.62c0-.85-.69-1.54-1.54-1.54h-1.19c-.39,0-.75.12-1.05.33-.38-.68-1.11-1.14-1.94-1.14h-2.18c-1.23,0-2.23,1-2.23,2.23v25.67c0,1.23,1,2.23,2.23,2.23h2.18c.74,0,1.39-.36,1.79-.91.32.28.74.45,1.2.45h1.19c.85,0,1.54-.69,1.54-1.54v-1.45h.77l.09-.32c.42-.28,2.65-.56,5.44-.54h.25s.16-.18.16-.18c.24-.28,1.04-1.86,1.04-10.57,0-2.16-.05-3.79-.13-5.04,1.38-3.19.38-11.22.34-11.57v-.07s-1.64-4.16-1.64-4.16l-.05.02s.02-.05.02-.07c.13-.5.06-1.01-.21-1.45-2.1-3.46-8.33-11.49-20.87-11.59h0s-.08,0-.12,0c-.04,0-.08,0-.12,0h0C11.33.61,5.11,8.63,3.01,12.09c-.27.44-.34.95-.21,1.45,0,.03.02.05.02.07l-.05-.02-1.63,4.16ZM3.54,14.6s.1.07.15.1l2.62,1.46c.18.1.37.16.56.2l-1.32,2.57-.62-.39c-.62-.4-1.39-.53-2.11-.36l-.66.16c.02-.15.03-.26.04-.32l1.34-3.42ZM4.98,20.06l-.18,1.62c-.49-.23-1.03-.37-1.6-.28-.48.07-.92.29-1.32.66.04-.97.11-1.86.18-2.57l1.03-.25c.43-.1.9-.03,1.28.21l.7.45-.08.16ZM1.87,25.69h.2c-.05.11-.11.26-.16.45-.01-.15-.02-.3-.03-.45ZM2.44,25.24c.03-.26.09-.35.08-.35.07-.01.26.04.6.25-.09,0-.19,0-.28,0-.13-.01-.27.02-.4.09ZM13.67,21.6c0-.63.51-1.15,1.15-1.15h2.18c.63,0,1.15.51,1.15,1.15v25.67c0,.63-.51,1.15-1.15,1.15h-2.18c-.63,0-1.15-.51-1.15-1.15v-25.67ZM10.19,21.72c0-.25.2-.45.45-.45h1.19c.42,0,.76.34.76.76v25.15c0,.42-.34.76-.76.76h-1.19c-.25,0-.45-.2-.45-.45v-25.78ZM9.04,24.42h.06v20.55h-.1c-.45-.39-1.76-.86-5.81-.86-.02,0-.04,0-.06,0-.21-.64-.71-2.87-.71-9.67,0-6.15.41-7.79.58-8.21.44,0,.88-.04,1.31-.09.17.17.35.35.55.56.27.3.65.45,1.03.45.28,0,.57-.09.81-.26l.68-.49c.44-.31.64-.84.57-1.34.53-.26.9-.5,1.09-.64ZM6.75,25.52l-.68.49c-.13.09-.31.07-.42-.04-2.13-2.3-3.05-2.28-3.55-2.08-.11.05-.2.1-.28.17,0-.13,0-.26,0-.39l.1.06c.44-.76.92-1.18,1.43-1.26.91-.14,1.91.79,2.52,1.36.27.32.59.73.96,1.26.1.14.06.34-.08.44ZM46.13,22.05c-.4-.36-.84-.59-1.32-.66-.57-.08-1.11.05-1.6.28l-.18-1.62-.08-.16.7-.45c.38-.24.84-.32,1.28-.21l1.03.25c.06.7.13,1.6.18,2.57ZM41.17,25.08c.37-.53.69-.94.96-1.26.6-.56,1.61-1.49,2.52-1.36.51.08.99.5,1.43,1.26l.1-.06c0,.13,0,.26,0,.39-.08-.07-.17-.13-.28-.17-.5-.21-1.42-.22-3.55,2.08-.11.12-.29.14-.42.04l-.68-.49c-.14-.1-.17-.3-.08-.44ZM45.16,25.15c-.1,0-.19,0-.29,0,.34-.22.53-.27.59-.26,0,0,.07.08.1.36-.13-.08-.27-.11-.4-.09ZM34.33,47.27c0,.63-.51,1.15-1.15,1.15h-2.18c-.63,0-1.15-.51-1.15-1.15v-25.67c0-.63.51-1.15,1.15-1.15h2.18c.63,0,1.15.51,1.15,1.15v25.67ZM37.81,47.5c0,.25-.2.45-.45.45h-1.19c-.42,0-.76-.34-.76-.76v-25.15c0-.42.34-.76.76-.76h1.19c.25,0,.45.2.45.45v25.78ZM44.86,44.11s-.04,0-.06,0c-4.05,0-5.36.48-5.81.86h-.1v-20.55h.06c.2.14.57.38,1.09.64-.07.5.13,1.02.57,1.34l.68.49c.24.18.53.26.81.26.38,0,.75-.15,1.03-.45.2-.21.38-.4.55-.56.43.05.87.09,1.31.09.17.41.58,2.06.58,8.21,0,6.79-.5,9.02-.71,9.67ZM45.94,25.68h.2c0,.16-.02.31-.03.46-.06-.19-.11-.34-.17-.46ZM45.8,18.02c0,.06.02.17.04.32l-.66-.16c-.72-.17-1.49-.04-2.11.36l-.62.39-1.32-2.57c.19-.04.38-.1.56-.2l2.62-1.46c.05-.03.1-.06.15-.1l1.34,3.42ZM3.93,12.66C5.95,9.34,11.92,1.64,24,1.59c12.08.05,18.05,7.75,20.07,11.07.11.19.14.4.09.61-.06.21-.19.38-.38.49l-2.62,1.46c-.36.2-.81.1-1.03-.24-2.47-3.8-9.26-7.9-16.01-8h0s-.08,0-.12,0c-.04,0-.08,0-.12,0h0c-6.75.1-13.54,4.2-16.01,8-.22.34-.67.44-1.03.24l-2.62-1.46c-.19-.11-.32-.28-.38-.49-.06-.21-.02-.43.09-.61Z"/>
</svg>