<?xml version="1.0" encoding="UTF-8"?>
<svg id="EDIT_ART" data-name="EDIT ART" xmlns="http://www.w3.org/2000/svg" viewBox="0 0 47.46 50">
  <defs>
    <style>
      .cls-1 {
        fill: #fff;
      }
    </style>
  </defs>
  <path class="cls-1" d="M1.2,32.12c-.8.55-1.01,1.65-.46,2.46l3.69,5.3c.27.39.67.65,1.13.74.07.01.15.02.22.03l1.11,3.4c.15.45.47.81.9,1.01.25.12.51.17.78.17.2,0,.39-.03.59-.09l.47-.15c.23-.08.43-.21.59-.39.04.08.08.17.12.25,1.89,4.07,2.67,4.65,3.22,4.65.05,0,.1,0,.15-.01.4-.06.64-.24.78-.41.1.08.21.16.33.22.26.13.54.2.82.2.19,0,.38-.03.56-.09l.45-.15c.2-.06.37-.18.49-.33.08.02.16.03.24.03.11,0,.23-.02.35-.05l2.49-.81c.95-.31,1.47-1.33,1.17-2.29l-6.26-19.29c-.15-.46-.47-.84-.9-1.06-.43-.22-.92-.26-1.38-.11l-2.45.8c-.21.07-.39.19-.53.36-.21-.05-.43-.05-.64.02l-.41.13c-.58.19-1.01.65-1.17,1.2-.22-.02-.46.04-.67.11-.94.3-.91,2.02-.58,4.49.07.55.16,1.1.24,1.6-.12,0-.25.02-.37.06l-.63.2c-.21.07-.4.17-.57.3l-1.42-2.03c-.27-.39-.67-.65-1.13-.74-.04,0-.09-.01-.13-.02v-5.74c.23-.05.41-.26.41-.51,0-7.1.21-10.15,1.43-13.51,3.34-4.3,12.05-7.44,19.46-7.02,0,0,.02,0,.03,0s.02,0,.03,0c7.41-.43,16.13,2.72,19.46,7.02,1.23,3.36,1.43,6.42,1.43,13.51,0,.25.18.46.41.51v5.74s-.09,0-.13.02c-.46.09-.86.35-1.13.74l-1.42,2.04c-.17-.13-.36-.24-.57-.31l-.63-.2c-.12-.04-.25-.05-.37-.05.09-.5.17-1.05.24-1.6.33-2.48.36-4.19-.58-4.49-.21-.07-.44-.13-.67-.11-.17-.55-.59-1.01-1.17-1.2l-.41-.13c-.21-.07-.43-.07-.64-.02-.14-.16-.32-.29-.53-.36l-2.45-.8c-.95-.31-1.98.21-2.29,1.17l-6.26,19.29c-.15.46-.11.95.11,1.38.22.43.6.75,1.06.9l2.49.81c.11.04.23.05.35.05.08,0,.16-.01.24-.03.13.15.3.26.49.33l.45.15h0c.18.06.37.09.56.09.28,0,.56-.07.82-.2.12-.06.23-.14.33-.22.14.17.37.35.78.41.05,0,.1.01.15.01.56,0,1.33-.59,3.22-4.65.04-.08.08-.17.12-.25.15.17.35.31.59.39l.47.15c.19.06.39.09.59.09.27,0,.53-.06.78-.17.44-.21.76-.57.9-1.01l1.11-3.4c.07,0,.15-.01.22-.03.46-.09.86-.35,1.13-.74l3.7-5.31c.27-.39.36-.86.28-1.32s-.35-.86-.74-1.13c-.05-.03-.1-.06-.15-.09v-5.95c.21-.06.36-.24.38-.47.54-8.78-1.27-15.37-5.37-19.58C37.23,2.05,31.55.25,23.73.53c-7.82-.27-13.51,1.53-17.38,5.5C2.24,10.24.44,16.83.98,25.61c.01.23.17.41.38.47v5.95c-.05.03-.1.06-.15.09ZM6.6,39.02c-.02.12-.08.23-.15.32l-.55-1.71.59.85c.11.16.15.35.11.54ZM10.71,27.13l2.45-.8c.08-.03.16-.04.24-.04.12,0,.24.03.35.09.18.09.32.25.39.45l6.26,19.29c.13.41-.09.85-.5.98l-2.49.81s-.01,0-.02,0c0-.03-.01-.05-.02-.08l-6.68-20.57s-.03-.07-.04-.1c.01-.02.03-.03.06-.04ZM9.14,27.64l.41-.13s.03,0,.04,0,.02,0,.03,0c0,.03.01.07.02.1l6.68,20.57s.02.05.03.08c0,0-.01,0-.02,0l-.45.15c-.2.06-.41.05-.59-.05-.18-.09-.32-.25-.39-.45l-6.26-19.29c-.13-.41.09-.85.5-.98ZM7.36,28.93s.02,0,.03,0c0,.02.01.04.02.05l6.24,19.22c.04.14.04.21.03.22,0,0-.02.01-.07.03-.59-.38-2.35-3.66-4.25-8.48l-1.32-4.07c-.7-3.27-1.01-6.42-.69-6.97ZM5.96,35.3l.63-.2c.06-.02.1,0,.11.03l1.67,5.14v.04s.01,0,.01,0l1.11,3.41c.02.06,0,.12-.02.16-.03.06-.09.11-.16.13l-.47.15c-.2.07-.42.05-.6-.03-.17-.08-.3-.22-.36-.39l-1.08-3.33s.06-.03.09-.05c.39-.27.65-.67.74-1.13.09-.46-.01-.93-.28-1.33l-1.68-2.41c.09-.08.19-.14.3-.17ZM2.8,33.17l1.64,2.36c-.1.33-.09.67.01,1l.93,2.87s-.06-.07-.09-.11l-3.7-5.31c-.23-.33-.14-.78.19-1.01.12-.08.26-.13.41-.13.05,0,.09,0,.14.01.19.04.36.14.47.31ZM41,39.33c-.07-.09-.13-.2-.15-.32-.04-.19,0-.38.11-.54l.59-.85-.55,1.71ZM27.56,47.11c-.2-.06-.36-.2-.45-.39s-.11-.39-.05-.59l6.26-19.29c.11-.33.41-.54.74-.54.08,0,.16.01.24.04l2.45.8s.04.02.05.03c-.01.03-.03.07-.04.1l-6.68,20.57s-.01.05-.02.08c0,0-.01,0-.02,0l-2.49-.81ZM32.55,47.92c-.06.2-.2.36-.39.45-.18.09-.4.11-.59.05l-.45-.15s-.01,0-.02-.01c.01-.03.02-.05.03-.07l6.68-20.57s.02-.07.02-.1c.02,0,.05,0,.07,0l.41.13c.41.13.63.57.5.98l-6.26,19.29ZM33.84,48.45s-.06-.02-.06-.02t0,0s-.01-.09.03-.23l6.24-19.22s.01-.04.02-.05c.01,0,.02,0,.03,0,.32.56.01,3.7-.69,6.97l-1.32,4.07c-1.9,4.82-3.66,8.1-4.25,8.48ZM39.58,43.73c-.06.17-.18.31-.36.39-.18.09-.4.1-.6.03l-.47-.15c-.14-.04-.22-.18-.18-.29l2.79-8.59s.01-.02.03-.02c0,0,.02,0,.04,0,.01,0,.03,0,.04,0l.63.2c.12.04.22.1.3.17l-1.68,2.42c-.27.39-.36.86-.28,1.32.09.46.35.86.74,1.13.03.02.06.03.09.05l-1.08,3.33ZM45.86,33.98l-3.7,5.31h0s-.06.08-.09.11l.93-2.87c.11-.33.1-.68.01-1l1.65-2.36c.11-.16.27-.27.46-.3.05,0,.09-.01.14-.01.14,0,.29.04.41.13.16.11.27.27.3.46.04.19,0,.38-.11.54ZM7.09,6.76C10.75,3,16.19,1.3,23.71,1.57c0,0,.01,0,.02,0,0,0,.01,0,.02,0,7.52-.27,12.96,1.43,16.62,5.19.96.98,1.78,2.11,2.48,3.37-4.1-3.85-12.17-6.5-19.11-6.12-6.95-.39-15.01,2.27-19.11,6.12.69-1.26,1.52-2.39,2.48-3.37Z"/>
</svg>