<?xml version="1.0" encoding="UTF-8"?>
<svg id="EDIT_ART" data-name="EDIT ART" xmlns="http://www.w3.org/2000/svg" viewBox="0 0 49.87 50">
  <defs>
    <style>
      .cls-1 {
        fill: #fff;
      }
    </style>
  </defs>
  <path class="cls-1" d="M26.87,16.12c-.82-2.7-2.52-4.84-4.67-5.87-3.35-1.6-7.19-.37-8.53.47-1.99,1.25-3.95,3.82-6,7.85-.68,1.34-.77,2.58-.28,3.7,1.23,2.77,5.75,4.01,8.75,4.83l.52.14c.87.24,1.7.37,2.47.37,2.92,0,5.23-1.73,7.45-5.46.88-1.48.99-3.73.29-6.03ZM25.67,21.6c-2.55,4.29-5.08,5.62-8.73,4.61l-.53-.14c-2.63-.72-7.03-1.92-8.06-4.23-.37-.82-.28-1.74.25-2.79,1.96-3.85,3.8-6.29,5.62-7.43.73-.46,2.45-1.08,4.35-1.08,1.04,0,2.13.18,3.16.67,1.85.88,3.39,2.83,4.12,5.22.6,1.99.53,3.97-.19,5.18Z"/>
  <path class="cls-1" d="M30.26,21.15c1.04-4.2-.39-7.24-1.77-9.05-2.23-2.91-6.06-4.85-9.77-4.93-1.48-.03-2.56-.09-3.41-.18-.31-2.59-2.05-4.87-4.56-5.91C6.99-.47,2.74,1.2,1.25,4.8c-.07.17-.13.34-.19.51-.07.15-.15.3-.21.46-1.25,3.04-.12,6.61,2.63,8.54-.09,1.05-.26,2.27-.5,3.58-.17.94-.1,1.9.2,2.79,1.8,5.25,5.03,6.36,9.12,7.76.56.19,1.13.39,1.72.6,1.23.45,2.6.66,4.01.66,2.27,0,4.63-.56,6.66-1.64,2.02-1.08,4.63-3.15,5.56-6.91ZM3.56,13.03c-.2-.17-.39-.36-.56-.55.18.16.37.3.56.45,0,.03,0,.07,0,.1ZM3.91,5.97c-1.03,1.36-.7,3.54-.47,5.11.02.13.04.26.06.39,0,.02,0,.04,0,.06-1.62-1.51-2.17-3.62-1.47-5.79.65-1.26,1.74-2.24,3.1-2.77,1.53-.6,3.23-.58,4.79.07,1.66.68,2.94,2,3.55,3.61-.55-.18-.99-.41-1.46-.71-.35-1.26-1.26-2.29-2.47-2.79-1.05-.43-2.2-.43-3.25,0-1.05.44-1.86,1.25-2.29,2.3-.05.12-.07.27-.08.42,0,.04,0,.08-.01.11ZM10.23,4.86c-1.94-.98-2.87-.7-4.5-.05-.03.01-.06.02-.09.03.3-.31.66-.56,1.07-.73.79-.33,1.65-.33,2.44,0,.41.17.78.43,1.08.74ZM14.39,28.04c-.6-.22-1.18-.42-1.74-.61-3.97-1.36-6.83-2.34-8.46-7.1-.24-.71-.3-1.49-.16-2.26.25-1.4.81-4.86.53-6.77-.02-.13-.04-.26-.06-.39-.35-2.31-.51-4.28,1.08-4.9.19-.07.37-.15.55-.22.77-.31,1.31-.52,1.9-.52.77,0,1.63.37,3.2,1.4,1.73,1.13,2.85,1.45,7.46,1.55,3.4.08,6.92,1.85,8.95,4.51,1.24,1.62,2.52,4.36,1.59,8.15-.84,3.38-3.19,5.26-5.03,6.23-3.03,1.62-6.88,1.98-9.81.92Z"/>
  <path class="cls-1" d="M36.21,30.52c-1.34-.84-5.19-2.06-8.53-.47-2.15,1.02-3.85,3.16-4.67,5.87-.7,2.3-.59,4.55.29,6.03,2.22,3.72,4.53,5.46,7.45,5.46.78,0,1.6-.12,2.47-.37l.52-.14c2.99-.82,7.52-2.05,8.75-4.83.5-1.12.4-2.36-.28-3.7-2.05-4.03-4.01-6.6-6-7.85ZM41.52,41.64c-1.02,2.31-5.43,3.52-8.06,4.23l-.53.14c-3.65,1.01-6.18-.33-8.73-4.61-.72-1.21-.79-3.19-.19-5.18.72-2.38,2.26-4.33,4.12-5.22,1.03-.49,2.12-.67,3.16-.67,1.91,0,3.62.62,4.35,1.08,1.82,1.15,3.66,3.58,5.62,7.43.54,1.05.62,1.96.25,2.79Z"/>
  <path class="cls-1" d="M49.02,25.57c-.06-.16-.14-.31-.21-.46-.06-.17-.12-.34-.19-.51-.72-1.75-2.11-3.1-3.91-3.8-1.79-.7-3.77-.67-5.58.07-2.52,1.04-4.25,3.32-4.56,5.91-.85.09-1.94.15-3.41.18-3.71.08-7.55,2.02-9.77,4.93-1.38,1.81-2.81,4.85-1.77,9.05.93,3.76,3.53,5.83,5.56,6.91,2.02,1.08,4.39,1.64,6.66,1.64,1.41,0,2.79-.22,4.01-.66.59-.21,1.17-.41,1.72-.6,4.09-1.4,7.32-2.51,9.12-7.76.3-.88.37-1.85.2-2.79-.24-1.31-.4-2.53-.5-3.58,2.75-1.93,3.89-5.5,2.63-8.54ZM45.68,40.13c-1.63,4.76-4.5,5.74-8.46,7.1-.56.19-1.14.39-1.74.61-2.93,1.06-6.78.7-9.81-.92-1.83-.98-4.19-2.85-5.03-6.23-.94-3.79.35-6.53,1.59-8.15,2.04-2.66,5.55-4.44,8.95-4.51,4.61-.1,5.74-.42,7.46-1.55,2.77-1.81,3.31-1.59,5.1-.88.17.07.35.14.55.22,1.6.62,1.43,2.58,1.08,4.9-.02.13-.04.27-.06.39-.28,1.91.28,5.37.53,6.77.14.76.08,1.54-.16,2.26ZM39.64,24.66c.3-.32.66-.57,1.08-.74.79-.32,1.65-.32,2.44,0,.41.17.77.42,1.07.73-.03-.01-.06-.02-.09-.03-1.63-.65-2.56-.94-4.5.05ZM45.95,25.65c-.02-.15-.03-.29-.08-.42-.43-1.05-1.25-1.86-2.29-2.3-1.05-.44-2.2-.44-3.25,0-1.21.5-2.12,1.54-2.47,2.79-.48.3-.91.53-1.46.71.62-1.61,1.9-2.93,3.56-3.61,1.56-.64,3.26-.67,4.79-.07,1.37.53,2.45,1.51,3.1,2.77.69,2.16.15,4.27-1.47,5.79,0-.02,0-.04,0-.06.02-.12.04-.25.06-.39.24-1.56.57-3.75-.47-5.11,0-.03,0-.07-.01-.11ZM46.31,32.83s0-.07,0-.1c.2-.14.39-.29.56-.45-.17.19-.36.38-.56.55Z"/>
</svg>