<?xml version="1.0" encoding="UTF-8"?>
<svg id="EDIT_ART" data-name="EDIT ART" xmlns="http://www.w3.org/2000/svg" viewBox="0 0 53.43 50">
  <defs>
    <style>
      .cls-1 {
        fill: #fff;
      }
    </style>
  </defs>
  <path class="cls-1" d="M52.26,17.79l-.34-.17c-.71-.35-1.57-.06-1.92.64l-.91,1.82v-.13c0-.61-.38-1.14-.92-1.35C47.52,3.2,34.87.61,26.96.5h0c-.08,0-.17,0-.25,0-.08,0-.17,0-.25,0h0c-7.9.11-20.56,2.7-21.2,18.1-.54.21-.92.74-.92,1.35v.13l-.91-1.82c-.35-.71-1.22-1-1.93-.64l-.34.17c-.34.17-.6.47-.72.83-.12.36-.09.75.08,1.1l3.29,6.6c.06.12.14.23.22.33.01.05.02.1.04.15.22.53,3.8,7.78,5.72,11.44h-.01v9.4c0,1.03.84,1.87,1.87,1.87h2.5c.29,0,.55-.09.77-.24.2.15.44.24.7.24h2.68c1.03,0,1.87-.84,1.87-1.87v-20.74c0-1.03-.84-1.87-1.87-1.87h-2.64c-.25,0-.48.08-.68.21-.19-.13-.42-.21-.67-.21h-2.67c-1.03,0-1.87.84-1.87,1.87v.98c-1-1.58-1.68-2.31-2.16-2.63.07-.21.05-.43-.04-.64l-.02-.05c-.11-.26-.19-.43-.26-.6.34-.27.56-.68.56-1.14v-2.85c0-.58-.35-1.09-.84-1.32,1.3-8.48,12.05-13.71,19.6-13.86,4.08.04,8.75,1.51,12.52,3.95,4.11,2.67,6.67,6.17,7.25,9.91-.5.23-.84.73-.84,1.32v2.85c0,.46.22.88.56,1.14-.07.17-.14.34-.26.6l-.02.05c-.09.2-.1.42-.04.63-.47.32-1.16,1.05-2.16,2.63v-.98c0-1.03-.84-1.87-1.87-1.87h-2.67c-.25,0-.48.08-.67.21-.19-.13-.43-.21-.68-.21h-2.64c-1.03,0-1.87.84-1.87,1.87v20.74c0,1.03.84,1.87,1.87,1.87h2.68c.27,0,.51-.09.7-.24.22.15.48.24.77.24h2.5c1.03,0,1.87-.84,1.87-1.87v-9.4h-.01c1.92-3.66,5.5-10.92,5.72-11.44.02-.05.03-.1.05-.15.09-.1.16-.2.22-.33l3.29-6.6c.17-.34.2-.73.08-1.1s-.38-.66-.72-.83ZM47.06,26.59c.09.07.18.14.29.19l.34.17c.1.05.21.09.31.11-1.29,2.66-5.81,11.75-6.38,12.52-.04.06-.14.19-.38.03-.21-.14-.43-.48-.2-.85.59-.97,4.73-9.49,6.03-12.17ZM47.63,23.16h-.63c-.2,0-.36-.16-.36-.36v-2.85c0-.2.16-.36.36-.36h.63c.2,0,.36.16.36.36v2.85c0,.2-.16.36-.36.36ZM12.39,38.76c.23.37,0,.71-.2.85-.24.16-.34.03-.38-.03-.57-.77-5.09-9.86-6.38-12.52.11-.03.21-.06.31-.11l.34-.17c.11-.05.2-.12.29-.19,1.3,2.68,5.43,11.2,6.03,12.17ZM6.78,22.81c0,.2-.16.36-.36.36h-.63c-.2,0-.36-.16-.36-.36v-2.85c0-.2.16-.36.36-.36h.63c.2,0,.36.16.36.36v2.85ZM1.5,19.22c-.04-.08-.05-.17-.02-.26.03-.09.09-.16.17-.2l.34-.17c.17-.08.37-.01.45.15l1.89,3.79v.27c0,.73.54,1.33,1.24,1.44-.48.34-.86.63-1.14.87l-2.94-5.89ZM15.56,26.22c0-.06.05-.11.11-.11h2.64c.43,0,.78.35.78.78v20.74c0,.43-.35.78-.78.78h-2.68s-.07-.03-.07-.07v-22.11ZM11.66,26.11h2.67s.08.04.08.08v21.97c0,.14-.11.25-.25.25h-2.5c-.43,0-.78-.35-.78-.78v-7.45s.03.04.04.05c.27.36.65.55,1.05.55.27,0,.56-.09.82-.26.67-.45,1.09-1.42.53-2.33-.25-.41-1.25-2.41-2.44-4.83v-6.47c0-.43.35-.78.78-.78ZM9.79,30.01v1.11c-.73-1.49-1.47-3.01-2.1-4.32.5.61,1.22,1.64,2.1,3.22ZM39.74,7.81c-3.84-2.49-8.58-4.01-12.78-4.12h0c-.08-.01-.17,0-.25,0-.08,0-.17,0-.25,0h0c-4.2.12-8.94,1.64-12.78,4.13-3.47,2.25-5.9,5.08-7.07,8.17.82-5.36,3.45-9.28,7.85-11.68,3.24-1.77,7.37-2.67,12.25-2.7,4.88.03,9,.94,12.25,2.7,4.4,2.39,7.03,6.31,7.85,11.68-1.17-3.09-3.61-5.92-7.07-8.17ZM45.74,26.79c-.64,1.32-1.38,2.83-2.1,4.33v-1.11c.89-1.57,1.6-2.61,2.1-3.22ZM37.87,48.33s-.03.07-.07.07h-2.68c-.43,0-.78-.35-.78-.78v-20.74c0-.43.35-.78.78-.78h2.64c.06,0,.11.05.11.11v22.11ZM42.54,47.63c0,.43-.35.78-.78.78h-2.5c-.14,0-.25-.11-.25-.25v-21.97s.04-.08.08-.08h2.67c.43,0,.78.35.78.78v6.47c-1.19,2.42-2.19,4.42-2.44,4.83-.56.91-.14,1.88.53,2.33.27.18.55.26.82.26.4,0,.79-.19,1.05-.55.01-.02.02-.03.04-.05v7.45ZM51.93,19.22l-2.94,5.89c-.28-.25-.66-.53-1.14-.87.7-.1,1.24-.71,1.24-1.44v-.27l1.89-3.79c.08-.17.29-.24.45-.15l.34.17c.08.04.14.11.17.2.03.09.02.18-.02.26Z"/>
</svg>