<?xml version="1.0" encoding="UTF-8"?>
<svg id="EDIT_ART" data-name="EDIT ART" xmlns="http://www.w3.org/2000/svg" viewBox="0 0 50.35 50">
  <defs>
    <style>
      .cls-1 {
        fill: #fff;
      }
    </style>
  </defs>
  <path class="cls-1" d="M43.61,7.87C36.55.71,26.33.5,25.18.5h0s0,0,0,0h0c-1.16,0-11.37.21-18.44,7.37C2.44,12.22.3,18.2.4,25.63c0,.18-.02.99.54,1.58.25.26.7.56,1.46.54.42-.01.8,0,1.13.02.09,0,.17,0,.26.01l.33.46-.97.66c-.46.31-.58.94-.27,1.4l12.67,18.76c.15.22.38.38.65.43.06.01.13.02.19.02.2,0,.39-.06.56-.17l2.32-1.56s0,0,0,0l2.47-1.67-.06-.1c.09-.04.18-.08.27-.14l1.85-1.25c.67-.45,1.13-1.14,1.28-1.94s-.01-1.61-.47-2.28l-10.46-15.49c-.45-.67-1.14-1.13-1.94-1.28-.8-.15-1.61.01-2.28.47l-1.85,1.25c-.61.41-.77,1.24-.36,1.85l.23.34-.77.52-.3-.45c-.3-.44-.88-.57-1.33-.31.07-.09.13-.2.18-.32l.04-.11v-.11c-.27-4.82,1.62-9.58,5.3-13.41,3.88-4.03,9.42-6.58,14.12-6.49v-.44s.02.44.02.44c4.69-.08,10.23,2.46,14.12,6.49,3.69,3.82,5.57,8.59,5.31,13.41v.11s.03.11.03.11c.05.13.11.23.18.32-.45-.26-1.04-.13-1.33.31l-.3.45-.77-.52.23-.34c.41-.61.25-1.44-.36-1.85l-1.85-1.25c-.67-.45-1.48-.62-2.28-.47-.8.15-1.49.61-1.94,1.28l-10.46,15.49c-.45.67-.62,1.48-.47,2.28s.61,1.49,1.28,1.94l1.85,1.25c.09.06.18.1.27.14l-.06.1,2.47,1.67s0,0,0,0l2.32,1.56c.17.11.36.17.56.17.06,0,.13,0,.19-.02.26-.05.49-.2.65-.43l12.67-18.76c.31-.46.19-1.09-.27-1.4l-.97-.66.33-.46c.09,0,.17,0,.26-.01.33-.01.71-.03,1.13-.02.76.02,1.22-.28,1.46-.54.55-.58.54-1.4.54-1.58.09-7.43-2.04-13.41-6.34-17.76ZM8.65,26.21l1.85-1.25c.33-.22.72-.34,1.11-.34.13,0,.25.01.38.04.52.1.97.4,1.27.84l10.46,15.49c.3.44.41.97.3,1.49-.1.52-.4.97-.84,1.27l-1.85,1.25c-.13.09-.31.05-.39-.08l-12.37-18.32c-.09-.13-.05-.31.08-.39ZM8.51,28.4l11.76,17.41-.76.51L7.75,28.92l.76-.51ZM6.29,28.64l-.03.02,12.35,18.28-2.22,1.5L3.76,29.74l2.25-1.52.28.41ZM27.16,43.74h0c-.44-.3-.74-.75-.84-1.27-.1-.52,0-1.05.3-1.49l10.46-15.49c.3-.44.75-.74,1.27-.84.13-.02.26-.04.38-.04.39,0,.78.12,1.11.34l1.85,1.25c.13.09.16.26.08.39l-12.37,18.32c-.09.13-.26.16-.39.08l-1.85-1.25ZM41.84,28.4l.76.51-11.76,17.41-.76-.51,11.76-17.41ZM33.96,48.43l-2.22-1.5,12.35-18.28-.03-.02.28-.41,2.25,1.52-12.63,18.69ZM48.65,26.49c-.15.15-.37.22-.67.21-.45-.01-.85,0-1.2.02-.65.03-.99.03-1.11-.07.23-5.06-1.76-10.04-5.61-14.03-4.14-4.29-9.85-6.9-14.89-6.81h0c-5.04-.07-10.74,2.52-14.87,6.81-3.85,3.99-5.84,8.97-5.61,14.03-.12.1-.46.1-1.11.07-.35-.01-.75-.03-1.2-.02-.3,0-.53-.06-.67-.21-.23-.24-.26-.66-.25-.8v-.02s0-.02,0-.02c-.09-7.15,1.94-12.88,6.04-17.03C12.98,3.04,21.19,1.55,25.17,1.55c3.98,0,12.19,1.49,17.69,7.06,4.1,4.15,6.13,9.88,6.04,17.03v.04c0,.14-.02.57-.25.81Z"/>
</svg>