<?xml version="1.0" encoding="UTF-8"?>
<svg id="EDIT_ART" data-name="EDIT ART" xmlns="http://www.w3.org/2000/svg" viewBox="0 0 48 50">
  <defs>
    <style>
      .cls-1 {
        fill: #fff;
      }
    </style>
  </defs>
  <path class="cls-1" d="M46.56,22.8l-.81-3.78.76-.31-.06-.43C45.09,8.16,35.44.52,24.02.5h0s-.01,0-.02,0-.01,0-.02,0h0C12.56.52,2.91,8.16,1.54,18.29l-.06.43.76.31-.81,3.78c-.75.44-1.26,1.26-1.26,2.2,0,.88.44,1.65,1.12,2.11.22,1.26.66,2.53,1.32,3.79.36.68.67,1.31.96,1.9l-.52,1.26v.11c0,.13-.01,3.35,2.39,7.47,2.39,4.09,3.87,4.7,4.03,4.76l.05.02,1.48.19c.62.91,1.23,1.77,1.82,2.56.22.3.58.35.79.35.07,0,.12,0,.14,0h.09s2.56-1.24,2.56-1.24l.07-.08c.06-.07.11-.15.15-.23h0s.02-.07.02-.07c0-.01,0-.03.01-.04l.02-.07c.57-.04,1.3-.27,2.13-.99,1.41-1.23.92-3.28.55-4.3-.04-.14-.12-.34-.27-.64-.15-.34-.88-1.93-3.78-7.21-2.5-4.55-3.64-6.27-4.04-6.83-.3-.45-.42-.56-.53-.61-.47-.4-1.36-.91-2.73-.65-.91.17-1.55.62-1.94.97-.3-.29-.72-.74-1.13-1.29.2-.36.31-.78.31-1.22,0-.8-.37-1.52-.96-1.99l.8-3.36,1.78-2.03.04-.09c2.89-7.12,9.58-11.72,17.05-11.73,7.47,0,14.16,4.61,17.05,11.73l.04.09,1.78,2.03.8,3.36c-.58.47-.96,1.19-.96,1.99,0,.44.11.85.31,1.22-.41.55-.83,1-1.13,1.29-.38-.35-1.03-.79-1.94-.97-1.37-.26-2.26.25-2.73.65-.11.05-.24.16-.53.61-.4.56-1.55,2.28-4.04,6.83-2.89,5.27-3.63,6.86-3.78,7.21-.14.31-.23.5-.27.64-.37,1.02-.86,3.07.56,4.3.83.72,1.56.96,2.13.99l.02.07s0,.03.01.04l.02.07h0c.04.08.09.16.15.23l.07.08,2.56,1.23h.09s.08.02.14.02c.21,0,.57-.05.79-.34.6-.79,1.21-1.65,1.83-2.56l1.48-.19.05-.02c.16-.06,1.65-.67,4.03-4.76,2.4-4.12,2.39-7.33,2.39-7.47v-.11s-.52-1.26-.52-1.26c.29-.59.6-1.22.96-1.9.66-1.25,1.1-2.53,1.32-3.79.68-.46,1.12-1.24,1.12-2.11,0-.94-.51-1.75-1.26-2.2ZM2.7,23.56l.45.06c.59.18,1.02.73,1.02,1.38,0,.79-.65,1.44-1.44,1.44s-1.44-.65-1.44-1.44.63-1.42,1.41-1.44ZM2.52,27.54c.07,0,.14.01.21.01.29,0,.58-.05.84-.14,1.04,1.96,2.42,3.73,2.7,4.08.25.58,2,4.58,4.17,8.53.35.65.7,1.25,1.04,1.81-.03.19-.15.56-.61.82-.46.26-.83.17-.99.11-.36-.59-.72-1.19-1.07-1.8-1.36-2.35-2.14-4.07-2.96-5.9-.63-1.41-1.29-2.86-2.25-4.67-.5-.94-.86-1.89-1.08-2.84ZM9.82,45.32c-.24-.13-1.47-.93-3.41-4.25-2.01-3.45-2.21-6.25-2.23-6.79l.05-.11c.21.46.41.91.61,1.35.84,1.85,1.62,3.6,3.01,6,.78,1.35,1.57,2.64,2.36,3.86l-.39-.05ZM13.64,48.36c-.99-1.32-2.02-2.82-3.04-4.45.26-.04.54-.13.83-.29.33-.19.57-.42.75-.66,1.27,1.99,2.33,3.37,3,4.23.09.12.17.23.25.32l-1.78.86ZM8.25,27.63c.91-.17,1.49.14,1.77.38.12.33.42.96,1.12,2.29.74,1.43,1.76,3.3,2.86,5.28,1.1,1.97,2.15,3.82,2.98,5.22.87,1.46,1.23,2.02,1.44,2.25.27.82.53,2.16-.31,2.88-1.1.96-1.84.72-1.99.65-.02-.03-.05-.06-.07-.09-.93-1.2-2.67-3.44-4.64-7.01-2.31-4.2-4.13-8.46-4.15-8.5h0c-.05-.14-.56-1.42-.57-2.49.21-.23.72-.7,1.56-.86ZM5.58,28.61c-.04-.06-.08-.12-.12-.18.04.04.08.08.12.11,0,.03,0,.05,0,.08ZM2.73,22.45s-.02,0-.03,0h-.05s.64-3,.64-3l.68.28-.67,2.79c-.18-.04-.38-.07-.57-.07ZM5.95,17.03l-1.49,1.69-1.75-.71c.36-2.22,1.14-4.31,2.27-6.2l2.78,1.8c-.7,1.07-1.3,2.21-1.8,3.43ZM24.02,4.7h0s-.01,0-.02,0-.01,0-.02,0h0c-6.23.01-11.94,3.03-15.59,7.99l-2.82-1.82C9.37,5.29,16.25,1.62,24,1.61c7.75,0,14.63,3.68,18.42,9.25l-2.82,1.82c-3.65-4.96-9.36-7.98-15.59-7.99ZM40.24,13.61l2.78-1.8c1.13,1.89,1.91,3.98,2.27,6.2l-1.75.71-1.49-1.69c-.5-1.22-1.11-2.36-1.8-3.43ZM44.03,19.73l.68-.28.64,3h-.02s-.04,0-.05,0c-.2,0-.39.02-.57.07l-.67-2.79ZM42.54,28.43c-.04.06-.08.12-.12.18,0-.03,0-.05,0-.08.03-.03.07-.07.12-.11ZM29.58,43.05c.21-.23.57-.79,1.44-2.25.82-1.39,1.88-3.25,2.98-5.22,1.1-1.98,2.11-3.85,2.86-5.28.7-1.33,1-1.96,1.12-2.29.29-.24.86-.55,1.77-.38.84.16,1.36.63,1.56.86-.01,1.07-.52,2.36-.57,2.48h0c-.02.05-1.84,4.3-4.15,8.51-1.96,3.57-3.7,5.81-4.64,7.01-.03.03-.05.06-.07.09-.15.07-.88.31-1.99-.65-.83-.73-.57-2.07-.31-2.88ZM34.36,48.36l-1.78-.86c.07-.1.16-.2.25-.32.67-.86,1.73-2.23,3-4.23.18.24.42.47.75.66.29.16.57.25.83.29-1.03,1.63-2.05,3.13-3.04,4.45ZM43.82,34.28c-.02.55-.21,3.33-2.23,6.79-1.96,3.36-3.2,4.14-3.4,4.25l-.39.05c.79-1.22,1.58-2.51,2.36-3.86,1.39-2.4,2.17-4.15,3.01-6,.2-.44.4-.89.61-1.35l.05.11ZM44.4,30.38c-.96,1.81-1.61,3.27-2.25,4.67-.82,1.82-1.6,3.55-2.96,5.9-.35.61-.71,1.21-1.07,1.8-.16.06-.53.15-.99-.11-.46-.26-.57-.63-.61-.82.34-.56.68-1.16,1.04-1.81,2.17-3.96,3.92-7.95,4.17-8.53.28-.35,1.66-2.12,2.7-4.08.26.09.54.14.84.14.07,0,.14,0,.21-.01-.22.94-.58,1.89-1.08,2.84ZM45.27,26.44c-.79,0-1.44-.65-1.44-1.44,0-.65.43-1.2,1.02-1.38l.45-.06c.78.01,1.41.65,1.41,1.44s-.65,1.44-1.44,1.44Z"/>
</svg>